<?xml version="1.0" encoding="utf-8"?>
<!-- Generator: Adobe Illustrator 24.3.0, SVG Export Plug-In . SVG Version: 6.00 Build 0)  -->
<svg version="1.1" id="Layer_1" xmlns="http://www.w3.org/2000/svg" xmlns:xlink="http://www.w3.org/1999/xlink" x="0px" y="0px"
	 viewBox="0 0 290.8 290.8" style="enable-background:new 0 0 290.8 290.8;" xml:space="preserve">
<style type="text/css">
	.st0{fill:#EB1C52;}
	.st1{fill:url(#SVGID_1_);}
	.st2{fill:#FFFFFF;}
</style>
<g>
	<path class="st0" d="M267.7,291.8H23.3c-12.8,0-23.2-10.4-23.2-23.2V24.1C0.1,11.3,10.5,1,23.3,1h244.5c12.8,0,23.2,10.4,23.2,23.2
		v244.5C290.9,281.4,280.5,291.8,267.7,291.8z"/>
	<g>
		<linearGradient id="SVGID_1_" gradientUnits="userSpaceOnUse" x1="11.5923" y1="18.6086" x2="300.2216" y2="294.0327">
			<stop  offset="6.109344e-02" style="stop-color:#7C421C"/>
			<stop  offset="0.1247" style="stop-color:#AC802C"/>
			<stop  offset="0.1372" style="stop-color:#C08C32"/>
			<stop  offset="0.1554" style="stop-color:#D69A38"/>
			<stop  offset="0.1769" style="stop-color:#E7A43C"/>
			<stop  offset="0.2035" style="stop-color:#F2AC40"/>
			<stop  offset="0.2409" style="stop-color:#F9B041"/>
			<stop  offset="0.3445" style="stop-color:#FBB142"/>
			<stop  offset="0.5787" style="stop-color:#F9ED66"/>
			<stop  offset="0.6629" style="stop-color:#FFFFFF"/>
			<stop  offset="0.7459" style="stop-color:#FCDE13"/>
			<stop  offset="0.8982" style="stop-color:#5C2210"/>
		</linearGradient>
		<path class="st1" d="M249.6,273.6H41.4c-12.8,0-23.1-10.4-23.1-23.1V42.3c0-12.8,10.4-23.1,23.1-23.1h208.2
			c12.8,0,23.1,10.4,23.1,23.1v208.2C272.7,263.2,262.3,273.6,249.6,273.6z M41.4,23.6c-10.3,0-18.7,8.4-18.7,18.7v208.2
			c0,10.3,8.4,18.7,18.7,18.7h208.2c10.3,0,18.7-8.4,18.7-18.7V42.3c0-10.3-8.4-18.7-18.7-18.7H41.4z"/>
	</g>
	<g>
		<path class="st2" d="M88.9,108.3c1.6-1.1,3.1-2.1,4.6-3.2c0.5-0.3,1.3-0.8,1.3-1.1c0-1.8,1.2-2.5,2.5-3.1c1.6-0.7,3.3-1,4.9-1.7
			c3.2-1.5,7.2,0.1,9,2.6c1,1.4,1.6,3.1,2.2,4.8c0.9,2.5-0.6,6.4-3,7.7c-1.6,0.8-3.4,1.4-5.1,2.2c-3.1,1.4-6.3,2.4-9.7,2.2
			c-0.2,0-0.5,0-0.6,0.1c-0.2,0.2-0.5,0.6-0.5,0.8c0.1,0.9,0.3,1.8,0.6,2.6c1.1,2.5,2.3,4.9,3.4,7.4c1.8,4,0.5,7.5-1.8,10.8
			c-0.4,0.6-0.8,1.3-1.1,1.9c-0.7,1.7-1.4,3.4-2,5.2c-0.6,2-1.4,3.9-1.6,6c-0.3,3.3-1.1,6.5-2.2,9.7c-0.7,2-1.5,4.1-2.3,6.1
			c-0.5,1.4-1,2.7-1.6,4c-1.1,2.4-2.3,4.8-3.3,7.2c-1.2,3-3.2,5.4-5.3,7.7c-0.7,0.8-1.4,1.8-1.7,2.8c-0.3,1.1-0.1,2.4,0,3.6
			c0.2,2.3,0.6,4.6,0.7,6.9c0.3,4.6-0.2,9.2-1.3,13.7c-0.4,1.8-0.8,3.5-1.4,5.2c-0.8,2.3-2.1,4.4-1.8,7c0.1,0.7,0,1.4-0.1,2.1
			c-0.3,2,1,3.6,1.7,5.2c0.5,1.2,1.8,2.2,2.6,3.3c0.7,0.9,0.3,2.8-0.6,3.5c-1.8,1.5-3.8,1.3-5.9,1.2c-0.2,0-0.4-0.3-0.6-0.5
			c-1.8-2.6-2.3-5.6-2.8-8.6c-0.1-0.7,0.1-1.5-0.1-2.3c-0.4-2.2-0.8-4.3,0.7-6.2c0.2-0.2,0.2-0.7,0.1-1c-0.3-1.8-0.5-3.6-0.8-5.4
			c-0.4-2.4-0.9-4.8-1.1-7.2c-0.1-1.5,0.2-3.1,0.3-4.6c0.2-2.8,0.4-5.6,0.5-8.4c0-0.2-0.1-0.4-0.2-0.6c-0.4-1.1-0.9-2.1-1.3-3.1
			c-0.1,0.2-0.2,0.6-0.3,1.1c-0.7,2.2-1.4,4.4-0.6,6.9c0.5,1.6,0.8,3.4,0.8,5.1c0,2.3-0.7,4.6-0.7,6.9c0.1,3.5-0.5,7,0.6,10.5
			c0.7,2.3,0.1,4.9,0.1,7.4c0,0.6-0.2,1.2-0.2,1.9c-0.1,0.6,0,1.2-0.1,1.8c-0.1,0.7-0.3,1.5-0.4,2.2c-0.1,0.8,0,1.6,0,2.4
			c-0.9,0-1.5,0-2.1,0c-1,0-2,0.1-3,0c-2.7-0.2-4.2-3-2.7-5.3c1.4-2,2.7-4,2.2-6.7c0-0.1,0-0.3,0-0.4c1.1-2.6-0.4-4.9-0.9-7.3
			c-0.4-1.8-1.3-3.6-1.9-5.4c-0.5-1.6-0.9-3.3-1.3-5c-0.4-2.1-1-4.2-1.1-6.3c-0.1-2.4,0.2-4.8,0.4-7.2c0-0.1,0-0.4,0.1-0.4
			c1.6-1.5,0.6-3.5,0.1-4.6c-0.9-2-0.2-4.2-1.7-6.1c-1.1-1.5-1.1-3.7-1.7-5.6c-0.2-0.7-0.6-1.4-0.8-2.2c-0.2-0.7-0.3-1.4-0.4-2
			c-0.3-1.1-0.7-2.1-0.8-3.2c-0.2-3.3-0.3-6.7-0.3-10c0-1.7-0.1-3.4,0.5-4.9c1-3,1.9-6.1,2.3-9.2c0.1-0.9,0.4-1.7,0.7-2.6
			c0.6-1.8,1.2-3.6,1.7-5.4c0.6-2.1,1-4.2,1.7-6.3c0.9-2.8,2-5.6,3.2-8.3c1.2-2.6,2.5-5.2,4-7.7c1.4-2.4,2.9-4.7,4.5-6.9
			c0.9-1.3,1.9-2.6,3-3.6c1.9-1.8,4-3.5,5.9-5.3c0.8-0.8,1.4-1.9,2.2-2.6c2.6-2.2,5.2-4.4,7.9-6.4c1.8-1.3,3.7-2.5,5.7-3.6
			c1.9-1,3.9-1.8,5.9-2.7c1.6-0.8,3.1-1.7,4.8-2.3c2.4-0.8,4.7-1.7,7.2-2.3c3.5-0.9,7.1-1.4,10.7-1.9c0.8-0.1,1.6-0.4,2.4-0.7
			c1.4-0.4,2.9-1.3,4.3-1.2c2.3,0.1,4.5,0.7,6.7,1.4c1.3,0.4,2.5,1.3,3.6,2.2c0.9,0.7,2.3,1.7,0.2,2.8c-0.1,0-0.1,0.2-0.1,0.3
			c-0.4,1.3-1.3,1.7-2.6,1.7c-0.3,0-0.9,0.1-0.9,0.3c-0.3,1.5-1,0.8-1.8,0.5c-0.3-0.1-0.8-0.1-1.1,0c-2,0.6-4,0.5-5.5-1
			c-1.1-1.1-2.2-0.7-3.3-0.2c-0.3,0.1-0.5,0.4-0.8,0.4c-2.1,0.6-4.3,1-6.3,1.6c-1.2,0.4-2.4,1-3.5,1.7c-2.4,1.5-4.9,2.6-7.6,3.1
			c-1.1,0.2-2.6,0.3-3.2,1.1c-1.5,1.8-3.4,2.8-5.2,4.1c-0.7,0.5-1.6,0.9-2.2,1.6c-0.9,1.1-1.7,2.3-2.4,3.6c-0.7,1.2-1.2,2.6-1.8,3.8
			C88.7,108.1,88.8,108.2,88.9,108.3z M81.2,167.6c0.6-3.8,0-7.8,1.6-11.5c1-2.5,1.6-5.2,2.4-7.8c0.2-0.8,0.2-1.7,0.3-2.5
			c0.4-2.2,0.9-4.4,1.3-6.5c-0.1-0.1-0.3-0.2-0.4-0.3c-0.7,0.3-1.5,0.6-2.2,0.8c-0.4,0.1-0.8,0-1.2-0.2c-0.7-0.3-1.1-0.2-1.4,0.5
			c-1.4,2.8-2.5,5.7-2.3,9c0.3,4.9,0.6,9.8,0.9,14.7c0.1,3,0,6,0,9c0,0.6,0,1.2,0,1.8c0.2,0,0.4,0,0.5,0.1
			C80.8,172.2,80.9,169.9,81.2,167.6z"/>
		<path class="st2" d="M123,166.2c-0.5-0.1-1.1-0.2-1.6-0.1c-0.3,0-0.8,0.2-0.9,0.5c-0.2,0.5,0.2,0.7,0.7,0.9
			c1.7,0.8,3.3,1.5,5.2,1.2c0.6-0.1,1.3,0,1.8-0.2c1.2-0.5,2.2,0,3,0.7c1.7,1.5,3.3,3.2,4.9,4.8c1,1,2.1,2,3,3.2
			c0.7,0.8,1.2,1.7,1.7,2.7c0.3,0.6-0.2,1.7-0.9,2.1c-0.3-0.9-0.6-1.7-1-2.8c-0.2,0.5-0.3,0.8-0.4,1.2c-0.1-0.3-0.1-0.4-0.2-0.6
			c0,0.1-0.1,0.1-0.1,0.1c0.2,0.6,0.3,1.1,0.5,1.6c0.2,0.6,0.4,0.9-0.2,1.5c-1.1,1.1-0.5,3.3,1.3,3.9c1,0.3,1.2,1.1,1.4,1.9
			c0.2,0.5,0.4,1,0.5,1.5c1.2-1.1,0.1-2.2,0-3.3c0.1,0,0.2,0,0.3-0.1c0.3,0.5,0.7,0.9,0.8,1.4c0.3,1.3,1.4,1.7,2.2,2.4
			c0.2,0.2,0.5,0.4,0.5,0.6c0.7,2.4,1.2,4.9,1.9,7.3c0.4,1.2,1.1,2.4,1.9,3.4c1.7,2.2,3.6,4.2,5.3,6.3c0.6,0.8,1,1.8,1.2,2.7
			c0.3,1.7,0.5,3.4,0.6,5.2c0.1,1.7-0.7,3.2-1.4,4.7c-0.2,0.4-0.8,0.7-1.2,0.7c-2.6,0-5.8,2-6.3,4.7c-0.1,0.8-0.8,0.9-1.4,1
			c-2.4,0.7-4.9,1.4-7.3,2.1c-2.1,0.6-4.1,1.3-6.2,1.9c-1.8,0.5-3.5,1-5.3,1.5c-1.2,0.3-2.4,0.8-3.6,0.9c-1.6,0.2-3.3,0.1-4.9-0.3
			c-2.3-0.6-4.6-0.4-6.9,0.1c-1.4,0.3-2.8,0.4-4.1,0.6c-2.3,0.3-4.5,0.6-6.8,0.9c-1.3,0.2-2.6,0.4-3.9,0.5c-1.1,0.1-2.1-0.1-2.8-0.8
			c-1.9-1.9-3.2-1-4.7,0.7c-0.6,0.8-1.4,1.1-2.3,1.3c-1.1,0.2-2.3,0.4-3.4,0.8c-0.9,0.3-1.7,0.8-2.6,1.3c-0.2,0.1-0.3,0.6-0.3,0.9
			c0,0.3,0.3,0.6,0.6,0.8c0.4,0.2,0.9,0.2,1.4,0.2c3.3,0,6.6,0,10,0c2.6,0,5.3-0.2,7.9-0.2c5.2,0.1,10.4,0.3,15.6,0.6
			c0.7,0,1.3,0.5,1.9,0.5c1.2,0.1,2.5,0.1,3.7,0c1.3-0.1,2.6-0.3,3.9-0.4c1.8-0.1,3.7,0,5.5-0.2c2.7-0.3,5.4-0.6,8-1
			c1-0.1,2-0.3,3-0.3c2.6,0,4.9-1,7.4-1.6c1.4-0.3,2.8-0.3,4.3,0c-0.7,0.4-1.3,0.8-2,1.2c-0.8,0.5-1.7,1.1-2.4,1.7
			c-0.3,0.3,0,1,0.5,1c1.6,0,3.2,0.1,4.7-0.2c2.4-0.5,4.7-1.5,7.3-1.3c2.2,0.2,4.5,0,6.8-0.2c3.5-0.2,7-0.4,10.6-0.6
			c1.2-0.1,2.5-0.1,3.7-0.1c1.8-0.1,3.7-0.1,5.5-0.4c3-0.6,4.1-2.7,2.9-5.5c-0.3-0.7-1.1-1.2-1.7-1.6c-1.8-0.9-3.6-1.8-5.5-2.4
			c-1.8-0.6-3.7-0.8-5.6-1.1c-2.9-0.4-5.9-0.7-8.9-0.6c-1.3,0-1.3-0.1-1-1.3c0.3-1.4,0.5-2.9,0.8-4.4c0.2-1.2,0.4-2.4,0.6-3.5
			c0.2-1,0.3-2,0.5-3c0.8-4.7,0.1-9.5,0.4-14.3c0.1-2.4-1.1-4.1-3.1-5.2c-1.9-1-4-1.5-5.8-2.5c-1.5-0.8-3-1.7-3.9-3.3
			c-0.6-1-0.3-2.6,0.7-3.5c0.7-0.7,1.4-1.5,2.2-2.2c0.8-0.6,0.5-1.2,0-1.8c-0.6-0.8-1.3-1.6-1.9-2.5c-0.1-0.2,0-0.5,0.1-0.8
			c0.3-0.6,0.4-1-0.5-1.4c-1.4-0.6-2.7-1.3-3.8-2.5c-0.5-0.5-1.1-0.8-1.2-1.6c0-0.1-0.3-0.4-0.5-0.4c-1.4-0.2-2.8-0.5-4.3-0.6
			c-0.8,0-1.5-0.3-2.2-0.7c-1.7-1.1-3.5-2.1-5.2-3.2c-1.8-1-3.5-2-5.3-3c-2.2-1.3-4.4-2.6-6.6-4c-1.1-0.7-2.1-1.5-3.2-2.3
			c-1.5-1-3-2-4.8-1.7c-1,0.1-1.9,0-2.8,0.1c-1,0.2-1.8,1-2.7,1.5c0,0,0,0.1,0,0.1c0.4,0.9,0.5,2.1,1.2,2.7c0.7,0.7,1.9,0.9,2.9,1.3
			c1,0.4,1.9,0.9,2.8,1.3C123,166,123,166.1,123,166.2z"/>
	</g>
	<g>
		<g>
			<path class="st2" d="M223.3,45.7l-4,20.4c-0.1,0.7-0.8,1.1-1.4,1c-0.6-0.1-1-0.7-1-1.2l0.8-20.8c0.1-1.6,1.4-2.8,3-2.8
				c1.6,0.1,2.8,1.4,2.8,3C223.3,45.4,223.3,45.6,223.3,45.7z"/>
		</g>
		<g>
			<path class="st2" d="M249.9,71.9l-19.7,6.5c-0.6,0.2-1.3-0.1-1.5-0.8c-0.2-0.6,0.1-1.2,0.6-1.5l18.5-9.5c1.4-0.7,3.1-0.2,3.9,1.2
				c0.7,1.4,0.2,3.1-1.2,3.9C250.2,71.8,250,71.8,249.9,71.9z"/>
		</g>
		<g>
			<path class="st2" d="M251.7,41l-27.1,29.7c-0.5,0.5-1.2,0.5-1.7,0.1c-0.5-0.4-0.5-1.2-0.1-1.6l24.6-31.8c1-1.3,2.8-1.5,4-0.5
				c1.3,1,1.5,2.8,0.5,4C251.8,40.9,251.8,41,251.7,41z"/>
		</g>
	</g>
	<g>
		<path class="st0" d="M151.8,77.1c0.6,0.9,1.1,1.8,1.7,2.7c0.2,0.3,0.1,0.4-0.2,0.6c-1.9,1.7-3.9,3.3-5.7,5.2
			c-1.6,1.7-3,3.5-4.4,5.4c-1.7,2.3-3.1,4.8-4.2,7.4c-0.7,1.6-1.4,3.3-2,5c-0.7,2-1.1,4.2-1.6,6.3c-0.4,1.9-0.6,3.7-0.7,5.6
			c-0.2,3.8-0.1,7.6,0.6,11.3c0.5,2.6,1.2,5.3,2.1,7.8c0.8,2.5,1.9,5,3.4,7.2c0.7,1.1,1.2,2.3,1.9,3.3c1.4,1.9,2.8,3.8,4.4,5.5
			c2.5,2.7,5.3,5.2,8.3,7.3c2.4,1.6,4.9,3.1,7.6,4.2c2.1,0.9,4.2,1.7,6.4,2.3c2.2,0.6,4.4,1,6.6,1.3c2,0.3,4.1,0.4,6.1,0.5
			c1.5,0,3.1-0.1,4.7-0.2c1.4-0.1,2.7-0.3,4.1-0.5c1.6-0.3,3.3-0.6,4.8-1.1c2-0.6,3.9-1.3,5.8-2.1c1.7-0.7,3.3-1.6,4.9-2.5
			c1.1-0.6,2.1-1.4,3.2-2.1c1.1-0.7,2.1-1.5,3.1-2.3c0.8-0.7,1.6-1.4,2.4-2.1c0.6-0.5,1.2-1.1,1.7-1.7c0.7-0.7,1.3-1.5,1.9-2.2
			c1.3-1.6,2.7-3.2,3.8-5c1.3-2,2.4-4.1,3.4-6.2c1.2-2.5,2.1-5.1,2.8-7.7c0.4-1.5,0.7-3.1,0.9-4.7c0.3-2.4,0.5-4.8,0.6-7.1
			c0.1-1.5-0.1-3-0.2-4.5c-0.1-1.5-0.3-3-0.6-4.4c-0.4-1.8-0.8-3.6-1.4-5.3c-0.6-2-1.3-3.9-2.2-5.8c-1-2-2-4-3.3-5.9
			c-1.3-2-2.7-3.9-4.3-5.7c-1.6-1.8-3.4-3.6-5.3-5.2c-1.6-1.4-3.3-2.7-5.1-3.8c-2-1.2-4.1-2.4-6.3-3.3c-1.7-0.8-3.6-1.4-5.4-2
			c-1.2-0.4-2.5-0.7-3.8-1c-1.3-0.3-2.6-0.5-3.9-0.7c-0.9-0.1-1.7-0.2-2.6-0.3c0-1.6,0-3.2,0-4.8c2.1,0,4.1,0,6.1,0
			c0-1.5-0.1-3,0-4.4c0.1-2.5-2.5-5-5-5c-3.2,0.1-6.4,0-9.5,0c-1.2,0-2.3,0.5-3.2,1.3c-1.2,1.1-1.8,2.4-1.8,4c0,1.3,0,2.7,0,4.1
			c2.2,0,4.2,0,6.3,0c0,1.5,0,2.9,0,4.4c0,0.2-0.3,0.4-0.4,0.5c-2.2,0.4-4.4,0.7-6.5,1.1c-3.3,0.6-6.4,1.7-9.4,3.1
			c-1.4,0.6-2.7,1.4-4.1,2.1c-0.5,0.3-0.7,0.3-1-0.3c-0.3-0.6-0.7-1.2-1.1-1.8c-0.3-0.4-0.2-0.6,0.2-0.8c0.6-0.3,1.1-0.7,1.7-1
			c-0.7-1.1-1.3-2.1-1.9-3c-0.9-1.4-2.3-1.8-3.8-1c-1.4,0.8-2.7,1.6-4,2.4c-1.1,0.8-1.8,2.1-1,3.6c0.5,1,1.1,2,1.7,3
			c0.2,0.3,0.5,0.3,0.8,0.1C150.7,77.7,151.2,77.4,151.8,77.1z"/>
		<path class="st2" d="M151.8,77.1c-0.6,0.3-1,0.6-1.5,0.9c-0.3,0.2-0.6,0.2-0.8-0.1c-0.6-1-1.2-2-1.7-3c-0.7-1.5-0.1-2.8,1-3.6
			c1.3-0.9,2.6-1.7,4-2.4c1.4-0.8,2.9-0.4,3.8,1c0.6,1,1.3,2,1.9,3c-0.6,0.3-1.1,0.7-1.7,1c-0.4,0.2-0.5,0.4-0.2,0.8
			c0.4,0.5,0.8,1.2,1.1,1.8c0.3,0.5,0.5,0.5,1,0.3c1.3-0.7,2.7-1.4,4.1-2.1c3-1.4,6.1-2.5,9.4-3.1c2.2-0.4,4.4-0.7,6.5-1.1
			c0.2,0,0.4-0.3,0.4-0.5c0-1.4,0-2.9,0-4.4c-2.1,0-4.2,0-6.3,0c0-1.4,0-2.8,0-4.1c0-1.6,0.6-3,1.8-4c0.9-0.8,2-1.3,3.2-1.3
			c3.2,0,6.4,0,9.5,0c2.5,0,5.1,2.4,5,5c-0.1,1.5,0,2.9,0,4.4c-2.1,0-4.1,0-6.1,0c0,1.7,0,3.2,0,4.8c0.9,0.1,1.7,0.2,2.6,0.3
			c1.3,0.2,2.6,0.4,3.9,0.7c1.3,0.3,2.5,0.6,3.8,1c1.8,0.6,3.7,1.2,5.4,2c2.1,1,4.3,2.1,6.3,3.3c1.8,1.1,3.5,2.4,5.1,3.8
			c1.9,1.6,3.7,3.3,5.3,5.2c1.6,1.8,3,3.7,4.3,5.7c1.2,1.9,2.3,3.9,3.3,5.9c0.9,1.9,1.5,3.8,2.2,5.8c0.6,1.7,1,3.5,1.4,5.3
			c0.3,1.4,0.4,2.9,0.6,4.4c0.1,1.5,0.3,3,0.2,4.5c-0.1,2.4-0.3,4.8-0.6,7.1c-0.2,1.6-0.5,3.2-0.9,4.7c-0.7,2.7-1.5,5.3-2.8,7.7
			c-1.1,2.1-2.1,4.2-3.4,6.2c-1.1,1.8-2.5,3.3-3.8,5c-0.6,0.8-1.2,1.5-1.9,2.2c-0.5,0.6-1.1,1.1-1.7,1.7c-0.8,0.7-1.5,1.5-2.4,2.1
			c-1,0.8-2.1,1.5-3.1,2.3c-1,0.7-2.1,1.5-3.2,2.1c-1.6,0.9-3.2,1.8-4.9,2.5c-1.9,0.8-3.8,1.5-5.8,2.1c-1.6,0.5-3.2,0.8-4.8,1.1
			c-1.3,0.2-2.7,0.4-4.1,0.5c-1.5,0.1-3.1,0.3-4.7,0.2c-2.1-0.1-4.1-0.2-6.1-0.5c-2.2-0.3-4.4-0.7-6.6-1.3c-2.2-0.6-4.3-1.4-6.4-2.3
			c-2.7-1.1-5.2-2.6-7.6-4.2c-3.1-2.1-5.9-4.5-8.3-7.3c-1.6-1.7-3-3.6-4.4-5.5c-0.8-1-1.3-2.2-1.9-3.3c-1.4-2.3-2.5-4.7-3.4-7.2
			c-0.9-2.6-1.5-5.2-2.1-7.8c-0.8-3.7-0.8-7.5-0.6-11.3c0.1-1.9,0.3-3.7,0.7-5.6c0.4-2.1,0.9-4.2,1.6-6.3c0.6-1.7,1.2-3.4,2-5
			c1.1-2.6,2.5-5.1,4.2-7.4c1.4-1.8,2.8-3.7,4.4-5.4c1.8-1.9,3.8-3.5,5.7-5.2c0.2-0.2,0.3-0.3,0.2-0.6
			C152.9,78.9,152.4,78,151.8,77.1z M182,157.1c10.5-0.1,19.3-3.4,26.7-10.2c7.8-7.2,12.1-16.2,12.6-26.8
			c0.5-11.1-3.1-20.7-10.7-28.7c-7.2-7.6-16.3-11.6-26.7-12c-11.2-0.4-21,3.5-28.9,11.4c-7.2,7.3-11.1,16.2-11.3,26.4
			c-0.2,10.5,3.2,19.8,10.4,27.5C161.8,152.8,171.3,156.9,182,157.1z"/>
		<g>
			<path class="st2" d="M155,116.9c-1.2,0-2.5,0-3.7,0c-1.3,0-2.6,0-3.9,0c-0.5,0-0.6,0.2-0.6,0.6c0,0.7,0,1.5,0,2.2
				c0,0.5,0.2,0.6,0.6,0.6c2.5,0,5,0,7.5,0c0.5,0,0.6-0.2,0.6-0.6c0-0.7,0-1.4,0-2.1C155.7,117,155.5,116.9,155,116.9z"/>
			<path class="st2" d="M217.5,117.7c0-0.6-0.1-0.8-0.7-0.8c-2.3,0-4.5,0-6.8,0c-0.4,0-0.7,0-1.1,0c0,1.1,0,2.2,0,3.3
				c2.7,0,5.4,0,8.1,0c0.4,0,0.5-0.2,0.5-0.5C217.5,119,217.4,118.3,217.5,117.7z"/>
			<path class="st2" d="M180.9,153.7c1.1,0,2.2,0,3.2,0c0-2.9,0-5.7,0-8.6c-1.1,0-2.1,0-3.2,0C180.9,148,180.9,150.9,180.9,153.7z"
				/>
			<path class="st2" d="M181.4,91.8c0.9,0,1.8,0,2.7,0c0-0.1,0-0.2,0-0.3c0-2.7,0-5.4,0-8.1c0-0.1-0.2-0.3-0.2-0.3c-1,0-2,0-3,0
				c0,2.8,0,5.5,0,8.2C180.9,91.6,181,91.8,181.4,91.8z"/>
			<path class="st2" d="M179.4,131.9c-0.7,0-1.5-0.2-1.8,0.8c-0.5,1.7-1.1,3.4-1.7,5.1c-0.3,0.8-0.6,1.6-1,2.6
				c-0.9-2.8-1.8-5.4-2.6-8c-0.1-0.2-0.4-0.5-0.6-0.5c-0.6-0.1-1.2,0-1.8,0c0,3.6,0,7,0,10.5c0.6-0.2,1.4,0.4,1.5-0.6
				c0.1-2.4,0-4.7,0-7c0.1,0.1,0.3,0.3,0.4,0.5c0.6,1.9,1.3,3.9,1.9,5.8c0.5,1.4,0.5,1.5,1.9,1.3c0.9-2.5,1.8-5,2.6-7.5
				c0.1,0,0.1,0,0.2,0c0,2.5,0,5,0,7.5c0.6,0,1,0,1.5,0c0-3.1,0-6.2,0-9.2C180,132.6,180.3,131.9,179.4,131.9z"/>
			<path class="st2" d="M192.8,132c0,2.5,0,5,0,7.5c-0.1,0-0.1,0-0.2,0.1c-0.3-0.5-0.7-1-1-1.5c-1.3-1.9-2.7-3.9-3.9-5.8
				c-0.4-0.7-1-0.4-1.5-0.3c-0.1,0-0.2,0.6-0.2,0.9c0,0.8,0,1.6,0,2.4c0,2,0,3.9,0,5.9c0,1.2,0,1.2,1.4,1.1c0-2.5,0-5,0-7.6
				c0.2,0.3,0.3,0.3,0.3,0.4c1.6,2.3,3.1,4.6,4.6,7c0.4,0.7,1,0.4,1.5,0.3c0.1,0,0.4-0.6,0.4-0.9c0-2.7,0-5.5,0-8.2
				C194.4,131.8,194.4,131.8,192.8,132z"/>
			<path class="st2" d="M182.1,141.1c0,1.3,0,1.4,1.5,1.2c0-3.4,0-6.8,0-10.3c-1.5-0.2-1.5-0.2-1.5,1.2
				C182.1,135.8,182.1,138.5,182.1,141.1z"/>
			<g>
				<path class="st2" d="M160.4,119.3v-1.8v-1.8l14.2-19.8h1.6h1.6V116h4.4v3.3h-4.4v7.4h-3.9v-7.4H160.4z M173.9,116v-14l-9.8,13.7
					l-0.2,0.3H173.9z"/>
				<path class="st2" d="M204.1,116.8c0,3.1-1,5.7-3,7.7c-2,2-4.5,3-7.6,3c-3.1,0-5.5-0.8-7.4-2.3c-1.9-1.5-2.9-3.7-3.1-6.4h4
					c0.2,1.7,0.9,3,2.1,4c1.2,0.9,2.7,1.4,4.6,1.4c1.8,0,3.4-0.6,4.5-1.9c1.2-1.3,1.8-3,1.8-5c0-2.1-0.6-3.8-1.8-5.1
					c-1.2-1.3-2.9-1.9-5-1.9c-1.1,0-2.2,0.3-3.3,0.8c-1.1,0.5-1.9,1.2-2.4,2.1l-3.2-0.2l2.2-16.4h15.9v3.7h-13l-1.3,8.4l0.1-0.1
					c1.7-1.2,3.5-1.8,5.4-1.8c3.2,0,5.8,0.9,7.7,2.7C203.2,111.3,204.1,113.7,204.1,116.8z"/>
			</g>
		</g>
	</g>
</g>
</svg>
