<?xml version="1.0" encoding="utf-8"?>
<!-- Generator: Adobe Illustrator 24.3.0, SVG Export Plug-In . SVG Version: 6.00 Build 0)  -->
<svg version="1.1" id="Layer_1" xmlns="http://www.w3.org/2000/svg" xmlns:xlink="http://www.w3.org/1999/xlink" x="0px" y="0px"
	 viewBox="0 0 290.83 290.83" style="enable-background:new 0 0 290.83 290.83;" xml:space="preserve">
<style type="text/css">
	.st0{fill:#EC1E52;}
	.st1{fill:url(#SVGID_1_);}
	.st2{fill:#FFFFFF;}
</style>
<g>
	<path class="st0" d="M267.66,290.83H23.17C10.37,290.83,0,280.46,0,267.66V23.17C0,10.37,10.37,0,23.17,0h244.49
		c12.8,0,23.17,10.37,23.17,23.17v244.49C290.83,280.46,280.46,290.83,267.66,290.83z"/>
	<g>
		<linearGradient id="SVGID_1_" gradientUnits="userSpaceOnUse" x1="11.5075" y1="17.634" x2="300.1367" y2="293.058">
			<stop  offset="0.0611" style="stop-color:#7D431D"/>
			<stop  offset="0.1247" style="stop-color:#AD802C"/>
			<stop  offset="0.1349" style="stop-color:#BB892F"/>
			<stop  offset="0.1533" style="stop-color:#D09634"/>
			<stop  offset="0.175" style="stop-color:#E1A13A"/>
			<stop  offset="0.202" style="stop-color:#EEAA3F"/>
			<stop  offset="0.2397" style="stop-color:#F8B142"/>
			<stop  offset="0.3445" style="stop-color:#FCB342"/>
			<stop  offset="0.5787" style="stop-color:#FAEE67"/>
			<stop  offset="0.6629" style="stop-color:#FFFFFF"/>
			<stop  offset="0.7459" style="stop-color:#FDDF15"/>
			<stop  offset="0.8982" style="stop-color:#5C2311"/>
		</linearGradient>
		<path class="st1" d="M249.5,272.64H41.33c-12.76,0-23.14-10.38-23.14-23.14V41.33c0-12.76,10.38-23.14,23.14-23.14H249.5
			c12.76,0,23.14,10.38,23.14,23.14V249.5C272.64,262.26,262.26,272.64,249.5,272.64z M41.33,22.61c-10.32,0-18.71,8.39-18.71,18.71
			V249.5c0,10.32,8.39,18.71,18.71,18.71H249.5c10.32,0,18.71-8.39,18.71-18.71V41.33c0-10.32-8.39-18.71-18.71-18.71H41.33z"/>
	</g>
	<g>
		<path class="st2" d="M88.84,107.32c1.55-1.07,3.11-2.13,4.65-3.22c0.47-0.34,1.26-0.76,1.26-1.15c0-1.77,1.16-2.53,2.48-3.09
			c1.58-0.67,3.31-1,4.86-1.72c3.24-1.51,7.21,0.12,8.97,2.65c0.98,1.41,1.58,3.12,2.19,4.76c0.93,2.51-0.57,6.43-2.95,7.66
			c-1.65,0.85-3.43,1.45-5.12,2.21c-3.09,1.4-6.27,2.37-9.72,2.2c-0.19-0.01-0.46,0.02-0.57,0.15c-0.22,0.24-0.54,0.59-0.5,0.84
			c0.13,0.87,0.27,1.77,0.62,2.57c1.09,2.5,2.31,4.95,3.42,7.44c1.78,3.99,0.46,7.49-1.76,10.85c-0.41,0.62-0.8,1.26-1.08,1.94
			c-0.69,1.71-1.38,3.42-1.95,5.17c-0.64,1.97-1.43,3.94-1.65,5.97c-0.35,3.34-1.07,6.54-2.19,9.68c-0.74,2.05-1.5,4.09-2.26,6.13
			c-0.51,1.36-0.99,2.72-1.57,4.05c-1.07,2.43-2.25,4.8-3.28,7.24c-1.25,2.96-3.17,5.4-5.34,7.72c-0.73,0.78-1.41,1.8-1.65,2.82
			c-0.27,1.15-0.09,2.43,0.01,3.64c0.2,2.29,0.57,4.57,0.73,6.86c0.33,4.64-0.21,9.22-1.26,13.75c-0.4,1.75-0.79,3.52-1.36,5.22
			c-0.77,2.28-2.15,4.38-1.78,6.96c0.1,0.69-0.02,1.41-0.11,2.11c-0.27,2.02,1,3.56,1.72,5.23c0.54,1.25,1.78,2.18,2.63,3.31
			c0.67,0.89,0.28,2.79-0.55,3.49c-1.76,1.48-3.84,1.28-5.89,1.19c-0.21-0.01-0.45-0.32-0.6-0.54c-1.78-2.6-2.29-5.63-2.8-8.64
			c-0.13-0.74,0.08-1.54-0.05-2.28c-0.4-2.16-0.81-4.28,0.74-6.21c0.18-0.23,0.16-0.69,0.12-1.03c-0.25-1.81-0.53-3.63-0.82-5.43
			c-0.39-2.41-0.92-4.8-1.14-7.22c-0.14-1.53,0.18-3.09,0.28-4.64c0.18-2.81,0.35-5.61,0.51-8.42c0.01-0.18-0.12-0.38-0.19-0.56
			c-0.45-1.07-0.9-2.13-1.29-3.07c-0.07,0.22-0.18,0.64-0.32,1.06c-0.74,2.24-1.38,4.43-0.63,6.87c0.51,1.64,0.83,3.42,0.81,5.13
			c-0.03,2.29-0.73,4.58-0.66,6.85c0.11,3.49-0.49,6.98,0.58,10.52c0.69,2.28,0.14,4.94,0.12,7.42c-0.01,0.62-0.16,1.24-0.22,1.86
			c-0.05,0.61-0.02,1.22-0.11,1.83c-0.1,0.74-0.35,1.46-0.42,2.2c-0.07,0.78-0.02,1.57-0.02,2.43c-0.86,0-1.46,0-2.07,0
			c-1.02,0-2.03,0.05-3.05-0.01c-2.75-0.18-4.19-3.03-2.66-5.29c1.38-2.03,2.7-4.03,2.19-6.66c-0.03-0.14-0.01-0.32,0.05-0.45
			c1.14-2.62-0.37-4.92-0.94-7.31c-0.45-1.85-1.33-3.59-1.9-5.41c-0.52-1.65-0.93-3.33-1.28-5.02c-0.43-2.09-0.98-4.19-1.07-6.31
			c-0.11-2.39,0.23-4.8,0.37-7.2c0.01-0.15-0.01-0.36,0.08-0.44c1.62-1.51,0.58-3.46,0.06-4.64c-0.87-1.98-0.23-4.18-1.66-6.1
			c-1.1-1.48-1.15-3.72-1.7-5.61c-0.22-0.74-0.57-1.44-0.79-2.18c-0.19-0.66-0.26-1.36-0.42-2.04c-0.26-1.06-0.74-2.09-0.8-3.15
			c-0.2-3.32-0.32-6.65-0.34-9.98c-0.01-1.65-0.07-3.41,0.45-4.93c1.04-3.03,1.86-6.07,2.29-9.24c0.12-0.88,0.41-1.73,0.67-2.58
			c0.56-1.79,1.2-3.56,1.72-5.36c0.6-2.08,0.97-4.23,1.66-6.28c0.95-2.81,1.98-5.6,3.19-8.3c1.18-2.64,2.53-5.22,3.98-7.73
			c1.38-2.38,2.93-4.65,4.5-6.91c0.9-1.29,1.88-2.55,3.01-3.65c1.89-1.85,3.96-3.51,5.89-5.33c0.83-0.79,1.38-1.89,2.25-2.63
			c2.57-2.21,5.17-4.39,7.88-6.43c1.78-1.34,3.72-2.51,5.68-3.57c1.9-1.02,3.94-1.79,5.91-2.7c1.61-0.75,3.07-1.71,4.81-2.31
			c2.39-0.82,4.72-1.68,7.18-2.33c3.55-0.94,7.14-1.35,10.74-1.85c0.83-0.12,1.63-0.45,2.44-0.69c1.45-0.43,2.92-1.28,4.34-1.21
			c2.25,0.12,4.52,0.7,6.68,1.39c1.3,0.41,2.52,1.28,3.6,2.17c0.86,0.71,2.26,1.71,0.2,2.77c-0.07,0.04-0.11,0.17-0.14,0.26
			c-0.39,1.29-1.34,1.72-2.59,1.73c-0.32,0-0.9,0.13-0.92,0.28c-0.26,1.46-1.03,0.79-1.78,0.51c-0.34-0.13-0.79-0.14-1.14-0.04
			c-2.03,0.57-3.96,0.53-5.52-1.05c-1.11-1.12-2.19-0.73-3.33-0.21c-0.27,0.12-0.49,0.37-0.77,0.44c-2.11,0.55-4.26,0.99-6.34,1.64
			c-1.21,0.38-2.38,1-3.46,1.68c-2.37,1.5-4.86,2.6-7.63,3.13c-1.12,0.21-2.59,0.34-3.19,1.08c-1.45,1.79-3.43,2.76-5.19,4.08
			c-0.72,0.54-1.63,0.91-2.19,1.58c-0.92,1.1-1.69,2.34-2.38,3.59c-0.68,1.23-1.17,2.55-1.75,3.84
			C88.62,107.14,88.73,107.23,88.84,107.32z M81.16,166.61c0.59-3.83,0.03-7.79,1.56-11.53c1.02-2.51,1.64-5.19,2.36-7.82
			c0.22-0.81,0.16-1.7,0.31-2.54c0.4-2.18,0.85-4.36,1.28-6.54c-0.15-0.09-0.29-0.19-0.44-0.28c-0.74,0.27-1.46,0.6-2.22,0.79
			c-0.35,0.09-0.81-0.02-1.16-0.19c-0.69-0.33-1.05-0.2-1.41,0.52c-1.43,2.84-2.51,5.74-2.29,9c0.33,4.91,0.65,9.82,0.85,14.73
			c0.12,2.99,0.02,5.98,0.02,8.98c0,0.59,0,1.18,0,1.77c0.18,0.02,0.36,0.03,0.54,0.05C80.75,171.24,80.81,168.9,81.16,166.61z"/>
		<path class="st2" d="M122.92,165.21c-0.52-0.05-1.05-0.17-1.57-0.13c-0.33,0.03-0.82,0.24-0.92,0.49
			c-0.18,0.46,0.21,0.69,0.66,0.9c1.67,0.78,3.35,1.47,5.25,1.23c0.62-0.08,1.28-0.02,1.84-0.24c1.2-0.46,2.18,0.01,2.96,0.73
			c1.68,1.54,3.25,3.2,4.85,4.82c1.01,1.03,2.05,2.05,2.97,3.16c0.67,0.81,1.22,1.74,1.71,2.67c0.32,0.61-0.19,1.72-0.94,2.15
			c-0.33-0.88-0.65-1.75-1.03-2.76c-0.17,0.46-0.28,0.77-0.43,1.2c-0.09-0.28-0.14-0.44-0.19-0.62c-0.05,0.06-0.11,0.1-0.1,0.13
			c0.15,0.55,0.27,1.12,0.49,1.65c0.22,0.56,0.42,0.94-0.17,1.52c-1.14,1.12-0.54,3.31,1.28,3.91c1.03,0.34,1.17,1.07,1.42,1.86
			c0.16,0.52,0.36,1.02,0.53,1.51c1.24-1.09,0.06-2.2,0.02-3.3c0.09-0.02,0.17-0.05,0.26-0.07c0.28,0.48,0.7,0.93,0.81,1.44
			c0.27,1.27,1.36,1.69,2.2,2.38c0.21,0.17,0.46,0.39,0.53,0.63c0.65,2.43,1.16,4.9,1.93,7.29c0.39,1.22,1.1,2.41,1.9,3.42
			c1.71,2.17,3.62,4.17,5.33,6.34c0.6,0.76,1.04,1.75,1.23,2.71c0.33,1.7,0.48,3.44,0.57,5.17c0.09,1.71-0.69,3.24-1.43,4.71
			c-0.19,0.37-0.81,0.74-1.23,0.74c-2.6-0.01-5.75,1.98-6.25,4.67c-0.14,0.76-0.82,0.86-1.36,1.03c-2.42,0.73-4.87,1.39-7.29,2.11
			c-2.08,0.62-4.14,1.32-6.22,1.94c-1.76,0.52-3.55,0.98-5.32,1.46c-1.18,0.32-2.35,0.76-3.56,0.92c-1.64,0.21-3.29,0.13-4.94-0.32
			c-2.29-0.64-4.6-0.37-6.9,0.14c-1.35,0.3-2.75,0.4-4.13,0.59c-2.27,0.32-4.53,0.63-6.8,0.95c-1.32,0.18-2.63,0.38-3.95,0.55
			c-1.06,0.14-2.07-0.05-2.84-0.83c-1.87-1.89-3.24-0.98-4.67,0.7c-0.65,0.76-1.38,1.13-2.32,1.29c-1.15,0.2-2.31,0.39-3.41,0.76
			c-0.9,0.31-1.74,0.84-2.55,1.35c-0.21,0.13-0.34,0.6-0.29,0.88c0.05,0.28,0.31,0.64,0.57,0.75c0.42,0.17,0.91,0.21,1.37,0.21
			c3.32,0.02,6.63,0.04,9.95,0.01c2.64-0.02,5.28-0.22,7.91-0.16c5.2,0.12,10.4,0.34,15.6,0.57c0.65,0.03,1.28,0.47,1.94,0.52
			c1.23,0.09,2.47,0.08,3.7,0.01c1.3-0.07,2.6-0.28,3.9-0.35c1.85-0.1,3.7-0.05,5.54-0.22c2.68-0.25,5.36-0.65,8.03-0.98
			c0.99-0.12,1.97-0.3,2.96-0.31c2.57-0.03,4.94-1.01,7.39-1.57c1.41-0.32,2.79-0.27,4.28,0.04c-0.65,0.39-1.32,0.77-1.96,1.19
			c-0.83,0.55-1.65,1.11-2.43,1.72c-0.35,0.27-0.02,1.03,0.49,1.03c1.57-0.01,3.18,0.11,4.69-0.22c2.41-0.53,4.69-1.49,7.27-1.31
			c2.24,0.16,4.52-0.04,6.77-0.15c3.52-0.18,7.04-0.42,10.57-0.62c1.23-0.07,2.45-0.06,3.68-0.13c1.84-0.11,3.71-0.07,5.5-0.42
			c3-0.59,4.05-2.71,2.87-5.53c-0.27-0.65-1.06-1.22-1.75-1.55c-1.8-0.89-3.63-1.78-5.54-2.37c-1.81-0.56-3.73-0.81-5.62-1.08
			c-2.94-0.43-5.89-0.71-8.87-0.59c-1.28,0.05-1.32-0.13-1.04-1.34c0.33-1.44,0.51-2.91,0.77-4.36c0.21-1.18,0.44-2.36,0.64-3.55
			c0.17-1,0.32-2.01,0.49-3.02c0.83-4.75,0.14-9.53,0.38-14.29c0.12-2.44-1.08-4.14-3.09-5.2c-1.86-0.99-3.96-1.53-5.81-2.55
			c-1.48-0.81-3.01-1.73-3.93-3.26c-0.63-1.04-0.25-2.58,0.69-3.5c0.73-0.71,1.38-1.51,2.15-2.17c0.76-0.65,0.55-1.18,0.04-1.81
			c-0.65-0.8-1.28-1.62-1.87-2.47c-0.11-0.16-0.03-0.54,0.08-0.75c0.34-0.65,0.41-1.01-0.46-1.38c-1.38-0.58-2.67-1.34-3.78-2.46
			c-0.5-0.5-1.14-0.78-1.18-1.61c-0.01-0.14-0.3-0.36-0.48-0.39c-1.42-0.22-2.85-0.49-4.28-0.56c-0.85-0.04-1.51-0.27-2.21-0.73
			c-1.7-1.11-3.46-2.13-5.22-3.16c-1.75-1.02-3.54-1.98-5.29-3.01c-2.22-1.31-4.43-2.64-6.62-4.01c-1.11-0.7-2.15-1.52-3.23-2.26
			c-1.46-0.99-3.01-1.96-4.82-1.68c-0.98,0.15-1.95-0.03-2.83,0.13c-0.96,0.18-1.81,0.97-2.71,1.5c-0.02,0.01-0.04,0.06-0.03,0.09
			c0.36,0.92,0.5,2.09,1.16,2.7c0.73,0.69,1.93,0.87,2.91,1.29c0.95,0.41,1.89,0.85,2.83,1.28
			C122.94,165.07,122.93,165.14,122.92,165.21z"/>
	</g>
	<g>
		<g>
			<path class="st2" d="M223.22,44.73l-4.02,20.38c-0.13,0.66-0.78,1.1-1.44,0.96c-0.6-0.12-1.01-0.65-0.99-1.25l0.76-20.76
				c0.06-1.59,1.39-2.83,2.98-2.77c1.59,0.06,2.83,1.39,2.77,2.98C223.26,44.43,223.24,44.59,223.22,44.73z"/>
		</g>
		<g>
			<path class="st2" d="M249.82,70.91l-19.74,6.48c-0.64,0.21-1.33-0.14-1.55-0.78c-0.19-0.58,0.08-1.2,0.6-1.47l18.47-9.51
				c1.41-0.73,3.15-0.17,3.87,1.24c0.73,1.41,0.17,3.15-1.24,3.87C250.1,70.81,249.95,70.87,249.82,70.91z"/>
		</g>
		<g>
			<path class="st2" d="M251.62,40.06l-27.11,29.71c-0.45,0.5-1.23,0.53-1.73,0.08c-0.47-0.43-0.53-1.15-0.14-1.65l24.59-31.83
				c0.97-1.25,2.77-1.48,4.02-0.52c1.25,0.97,1.48,2.77,0.52,4.02C251.73,39.94,251.68,40,251.62,40.06z"/>
		</g>
	</g>
	<g>
		<path class="st0" d="M151.68,76.11c0.59,0.94,1.13,1.81,1.69,2.67c0.18,0.28,0.09,0.4-0.15,0.61c-1.92,1.71-3.9,3.35-5.67,5.2
			c-1.59,1.67-2.97,3.55-4.37,5.39c-1.71,2.27-3.08,4.76-4.22,7.36c-0.72,1.65-1.37,3.33-1.96,5.03c-0.72,2.05-1.14,4.17-1.58,6.29
			c-0.38,1.87-0.62,3.74-0.71,5.61c-0.19,3.77-0.11,7.56,0.64,11.27c0.54,2.64,1.22,5.27,2.08,7.83c0.85,2.53,1.94,4.97,3.39,7.24
			c0.69,1.08,1.2,2.28,1.95,3.31c1.38,1.89,2.79,3.78,4.35,5.51c2.48,2.75,5.27,5.16,8.33,7.25c2.4,1.64,4.9,3.09,7.57,4.22
			c2.08,0.88,4.2,1.7,6.38,2.3c2.16,0.6,4.38,0.99,6.6,1.31c2.03,0.29,4.09,0.45,6.14,0.51c1.55,0.05,3.1-0.11,4.65-0.24
			c1.36-0.12,2.73-0.28,4.08-0.52c1.63-0.3,3.27-0.6,4.85-1.09c1.97-0.61,3.91-1.33,5.81-2.15c1.69-0.73,3.32-1.61,4.93-2.51
			c1.1-0.62,2.12-1.37,3.16-2.09c1.07-0.74,2.13-1.48,3.15-2.29c0.83-0.66,1.59-1.39,2.38-2.11c0.59-0.54,1.19-1.07,1.73-1.65
			c0.66-0.71,1.29-1.46,1.89-2.23c1.29-1.65,2.67-3.23,3.79-4.99c1.27-1.99,2.36-4.11,3.41-6.23c1.23-2.46,2.1-5.07,2.76-7.74
			c0.38-1.55,0.71-3.12,0.9-4.7c0.29-2.37,0.52-4.76,0.63-7.15c0.07-1.5-0.11-3.02-0.24-4.52c-0.13-1.47-0.26-2.95-0.56-4.39
			c-0.36-1.78-0.82-3.55-1.38-5.28c-0.63-1.95-1.3-3.91-2.17-5.76c-0.95-2.03-2.04-4.02-3.26-5.91c-1.29-1.99-2.7-3.94-4.27-5.72
			c-1.62-1.84-3.42-3.55-5.28-5.16c-1.6-1.39-3.33-2.66-5.13-3.78c-2.01-1.25-4.12-2.35-6.26-3.34c-1.74-0.81-3.59-1.4-5.42-2
			c-1.23-0.41-2.5-0.71-3.77-0.98c-1.29-0.27-2.61-0.46-3.92-0.66c-0.87-0.13-1.75-0.23-2.61-0.34c0-1.61,0-3.19,0-4.84
			c2.06,0,4.09,0,6.15,0c0-1.53-0.07-2.99,0.01-4.44c0.14-2.53-2.52-5.01-4.97-4.96c-3.18,0.06-6.36,0.02-9.53,0.01
			c-1.25,0-2.3,0.5-3.2,1.29c-1.21,1.06-1.78,2.43-1.76,4.05c0.01,1.34,0,2.69,0,4.1c2.15,0,4.22,0,6.31,0
			c0,1.51,0.01,2.95-0.02,4.38c0,0.16-0.25,0.44-0.42,0.46c-2.18,0.37-4.37,0.66-6.54,1.05c-3.26,0.59-6.36,1.69-9.36,3.09
			c-1.38,0.65-2.74,1.36-4.08,2.09c-0.47,0.26-0.72,0.27-0.98-0.27c-0.3-0.62-0.66-1.23-1.07-1.78c-0.33-0.44-0.17-0.62,0.21-0.84
			c0.56-0.32,1.11-0.68,1.67-1.03c-0.68-1.06-1.3-2.05-1.95-3.04c-0.89-1.36-2.33-1.77-3.75-0.99c-1.36,0.75-2.7,1.55-3.97,2.44
			c-1.14,0.8-1.76,2.14-1.04,3.63c0.5,1.03,1.15,2,1.74,2.99c0.2,0.34,0.48,0.29,0.76,0.11C150.66,76.75,151.12,76.46,151.68,76.11z
			"/>
		<path class="st2" d="M151.68,76.11c-0.56,0.35-1.02,0.64-1.49,0.93c-0.29,0.18-0.56,0.23-0.76-0.11
			c-0.59-0.99-1.24-1.95-1.74-2.99c-0.72-1.49-0.1-2.83,1.04-3.63c1.27-0.89,2.61-1.69,3.97-2.44c1.42-0.78,2.86-0.36,3.75,0.99
			c0.65,0.98,1.27,1.98,1.95,3.04c-0.56,0.35-1.11,0.7-1.67,1.03c-0.38,0.22-0.54,0.4-0.21,0.84c0.42,0.55,0.77,1.16,1.07,1.78
			c0.25,0.53,0.5,0.52,0.98,0.27c1.34-0.73,2.7-1.44,4.08-2.09c2.99-1.4,6.1-2.5,9.36-3.09c2.17-0.4,4.37-0.68,6.54-1.05
			c0.17-0.03,0.42-0.3,0.42-0.46c0.03-1.44,0.02-2.88,0.02-4.38c-2.09,0-4.16,0-6.31,0c0-1.41,0.01-2.76,0-4.1
			c-0.02-1.62,0.55-2.99,1.76-4.05c0.9-0.79,1.95-1.29,3.2-1.29c3.18,0.01,6.36,0.05,9.53-0.01c2.45-0.04,5.12,2.44,4.97,4.96
			c-0.08,1.45-0.01,2.91-0.01,4.44c-2.06,0-4.09,0-6.15,0c0,1.65,0,3.23,0,4.84c0.86,0.11,1.74,0.2,2.61,0.34
			c1.31,0.2,2.62,0.39,3.92,0.66c1.27,0.27,2.54,0.57,3.77,0.98c1.83,0.6,3.67,1.2,5.42,2c2.15,0.99,4.26,2.1,6.26,3.34
			c1.8,1.12,3.53,2.39,5.13,3.78c1.86,1.61,3.66,3.32,5.28,5.16c1.57,1.78,2.97,3.73,4.27,5.72c1.22,1.88,2.31,3.87,3.26,5.91
			c0.87,1.85,1.54,3.81,2.17,5.76c0.56,1.73,1.02,3.5,1.38,5.28c0.3,1.44,0.43,2.92,0.56,4.39c0.14,1.5,0.31,3.02,0.24,4.52
			c-0.11,2.39-0.34,4.78-0.63,7.15c-0.19,1.58-0.52,3.15-0.9,4.7c-0.66,2.67-1.53,5.28-2.76,7.74c-1.06,2.12-2.14,4.24-3.41,6.23
			c-1.12,1.76-2.5,3.34-3.79,4.99c-0.6,0.77-1.23,1.51-1.89,2.23c-0.54,0.58-1.14,1.11-1.73,1.65c-0.78,0.71-1.55,1.45-2.38,2.11
			c-1.02,0.8-2.08,1.55-3.15,2.29c-1.04,0.72-2.06,1.47-3.16,2.09c-1.61,0.9-3.24,1.78-4.93,2.51c-1.89,0.82-3.84,1.54-5.81,2.15
			c-1.58,0.49-3.22,0.79-4.85,1.09c-1.35,0.24-2.71,0.4-4.08,0.52c-1.55,0.13-3.1,0.29-4.65,0.24c-2.05-0.06-4.11-0.22-6.14-0.51
			c-2.22-0.32-4.45-0.71-6.6-1.31c-2.17-0.61-4.3-1.42-6.38-2.3c-2.67-1.13-5.18-2.59-7.57-4.22c-3.06-2.09-5.85-4.51-8.33-7.25
			c-1.57-1.74-2.97-3.62-4.35-5.51c-0.75-1.03-1.26-2.23-1.95-3.31c-1.45-2.27-2.54-4.72-3.39-7.24c-0.86-2.56-1.54-5.19-2.08-7.83
			c-0.76-3.71-0.83-7.5-0.64-11.27c0.1-1.87,0.33-3.75,0.71-5.61c0.44-2.13,0.87-4.25,1.58-6.29c0.59-1.7,1.24-3.38,1.96-5.03
			c1.14-2.6,2.5-5.09,4.22-7.36c1.39-1.85,2.77-3.73,4.37-5.39c1.77-1.85,3.75-3.5,5.67-5.2c0.24-0.22,0.33-0.34,0.15-0.61
			C152.81,77.92,152.27,77.04,151.68,76.11z M181.88,156.09c10.54-0.1,19.35-3.4,26.74-10.18c7.84-7.19,12.11-16.19,12.61-26.81
			c0.51-11.06-3.1-20.73-10.74-28.74c-7.24-7.59-16.25-11.61-26.7-11.96c-11.21-0.38-20.96,3.48-28.89,11.43
			c-7.24,7.25-11.07,16.15-11.29,26.41c-0.23,10.52,3.19,19.81,10.44,27.51C161.69,151.87,171.21,155.91,181.88,156.09z"/>
		<g>
			<path class="st2" d="M179.32,99.98c-0.5-1.52-1.28-2.92-2.47-4c-1.54-1.42-3.29-2.43-5.44-2.81c-2.33-0.42-4.54-0.14-6.52,0.97
				c-3.72,2.09-5.15,5.6-5.11,9.68c0.02,1.9,0.5,3.79,1.53,5.51c2.63,4.37,8.27,5.65,12.44,2.99c0.8-0.51,1.47-1.22,2.35-1.95
				c-0.1,1.09-0.1,2.03-0.29,2.92c-0.49,2.4-1.07,4.76-3.06,6.48c-1.52,1.31-4.77,1.43-6.1,0.47c-1.17-0.85-1.81-2.02-2.09-3.41
				c-0.04-0.22-0.23-0.59-0.34-0.59c-1.31,0.05-2.61,0.16-3.97,0.25c0.24,0.93,0.36,1.62,0.59,2.26c1,2.86,2.83,4.71,5.91,5.45
				c2.65,0.64,5.08,0.26,7.38-0.9c2.68-1.36,4.25-3.82,5.08-6.61c0.59-1.95,0.94-4.03,1.03-6.07
				C180.42,107.05,180.47,103.45,179.32,99.98z M174.14,108.06c-1.07,1.29-2.48,1.85-4.13,1.72c-3.49,0.24-5.81-2.79-5.83-5.91
				c-0.01-2.2,0.61-4.05,2.15-5.7c2.32-2.48,6.47-1.8,8.16,0.85C176.02,101.4,176.16,105.63,174.14,108.06z"/>
			<path class="st2" d="M201.57,97.77c-2.31-4.56-7.62-5.86-11.92-4.01c-3.03,1.31-4.62,3.98-5.39,6.97
				c-0.67,2.56-0.75,5.28-1.09,7.93c0.25,2.97,0.44,5.86,1.37,8.69c1.15,3.52,3.11,6.09,6.92,6.93c3.97,0.88,8.17-0.76,10.19-4.59
				c1.67-3.16,1.89-6.61,2.11-10.06c0.07-1.14-0.16-2.3-0.16-3.45C203.6,103.22,202.92,100.43,201.57,97.77z M198.49,116.62
				c-0.83,3.55-4.18,5.29-7.18,3.67c-1.59-0.86-2.54-2.36-2.83-4.11c-0.33-2-0.44-4.05-0.61-6.07c-0.26-3.12-0.04-6.21,0.77-9.25
				c0.45-1.68,1.34-3.08,2.89-3.83c1.56-0.75,3.38-0.6,4.95,0.71c1.55,1.29,2.2,3.01,2.42,4.91c0.24,2.06,0.37,4.14,0.6,6.82
				C199.24,111.47,199.08,114.09,198.49,116.62z"/>
			<path class="st2" d="M154.96,115.91c-1.24,0.02-2.49,0.01-3.73,0.01c-1.29,0-2.57,0.01-3.86-0.01c-0.45-0.01-0.61,0.15-0.59,0.6
				c0.03,0.73,0.03,1.46,0,2.19c-0.02,0.47,0.18,0.58,0.61,0.58c2.51-0.01,5.02-0.02,7.53,0c0.5,0,0.63-0.22,0.63-0.64
				c0-0.71-0.02-1.42,0.01-2.12C155.57,116.06,155.41,115.9,154.96,115.91z"/>
			<path class="st2" d="M217.4,116.68c0.04-0.58-0.13-0.79-0.75-0.78c-2.25,0.04-4.51,0.01-6.76,0.01c-0.36,0-0.72,0-1.11,0
				c0,1.13,0,2.19,0,3.35c2.75,0,5.45,0,8.15,0c0.39,0,0.46-0.2,0.46-0.53C217.38,118.05,217.36,117.36,217.4,116.68z"/>
			<path class="st2" d="M180.78,152.71c1.14,0,2.18,0,3.2,0c0-2.88,0-5.7,0-8.55c-1.05,0-2.07,0-3.2,0
				C180.78,147.05,180.78,149.89,180.78,152.71z"/>
			<path class="st2" d="M181.29,90.79c0.88-0.01,1.76,0,2.68,0c0.03-0.14,0.05-0.2,0.05-0.26c0.02-2.7,0.03-5.4,0.04-8.1
				c0-0.11-0.15-0.32-0.24-0.33c-0.99-0.02-1.99-0.01-3.01-0.01c0,2.84,0,5.52,0,8.21C180.79,90.66,180.93,90.8,181.29,90.79z"/>
			<path class="st2" d="M179.33,130.94c-0.7-0.03-1.45-0.24-1.76,0.81c-0.51,1.72-1.14,3.4-1.73,5.1c-0.29,0.82-0.6,1.63-0.97,2.6
				c-0.93-2.82-1.77-5.39-2.64-7.96c-0.08-0.23-0.35-0.51-0.56-0.54c-0.59-0.07-1.19-0.03-1.78-0.03c0,3.58,0,6.99,0,10.48
				c0.56-0.18,1.44,0.43,1.47-0.61c0.07-2.35,0.02-4.71,0.02-7.05c0.1,0.12,0.3,0.26,0.37,0.45c0.64,1.94,1.25,3.89,1.87,5.84
				c0.45,1.42,0.55,1.49,1.95,1.26c0.88-2.52,1.76-5.01,2.64-7.51c0.06,0.02,0.13,0.03,0.19,0.05c0,2.48,0,4.96,0,7.5
				c0.56,0,1,0,1.53,0c0-3.11,0.01-6.17-0.01-9.24C179.9,131.66,180.19,130.97,179.33,130.94z"/>
			<path class="st2" d="M192.76,131c0,2.5,0,5.01,0,7.52c-0.07,0.02-0.14,0.05-0.22,0.07c-0.33-0.49-0.65-0.98-0.99-1.46
				c-1.32-1.93-2.65-3.86-3.94-5.81c-0.43-0.65-1.01-0.36-1.53-0.32c-0.1,0.01-0.2,0.61-0.2,0.94c-0.01,0.79,0.04,1.58,0.05,2.37
				c0,1.97-0.03,3.95-0.01,5.92c0.01,1.24,0.04,1.24,1.43,1.08c0-2.47,0-4.95,0-7.65c0.22,0.25,0.28,0.31,0.33,0.38
				c1.55,2.31,3.13,4.61,4.64,6.96c0.45,0.69,1.03,0.36,1.55,0.35c0.15,0,0.39-0.59,0.4-0.91c0.03-2.75,0.02-5.49,0.02-8.24
				C194.27,130.84,194.27,130.84,192.76,131z"/>
			<path class="st2" d="M182.05,140.15c0,1.33,0.04,1.36,1.51,1.15c0-3.41,0-6.82,0-10.31c-1.51-0.16-1.51-0.16-1.51,1.2
				C182.05,134.85,182.05,137.5,182.05,140.15z"/>
		</g>
	</g>
</g>
</svg>
