<?xml version="1.0" encoding="UTF-8"?>
<svg id="Layer_1" data-name="Layer 1" xmlns="http://www.w3.org/2000/svg" viewBox="0 0 1920 1080">
  <defs>
    <style>
      .cls-1 {
        fill: #ee4065;
      }

      .cls-1, .cls-2, .cls-3, .cls-4 {
        stroke-width: 0px;
      }

      .cls-2 {
        fill: #58595b;
      }

      .cls-3 {
        fill: #005e7e;
      }

      .cls-4 {
        fill: #ee3f65;
      }
    </style>
  </defs>
  <g>
    <path class="cls-3" d="m446.13,749.53c-11.42-6.58-20.36-15.58-26.79-27-6.44-11.42-9.66-24.06-9.66-37.91,0-14.7,3.47-27.83,10.41-39.4,3.53-5.88,8.02-11.17,13.27-15.58,12.43-10.42,27.39-15.64,44.86-15.64,12.18,0,22.57,1.59,31.16,4.78,8.58,3.19,14.95,7.2,19.11,12.05,2.35,3.05,3.84,6.92,4.47,11.63.62,4.71.93,10.46.93,17.24h0c-3.6,0-6.69-2.44-7.69-5.89-2.8-9.62-7.12-16.86-12.97-21.73-7-5.82-16.59-8.72-28.77-8.72-15.51,0-27,5.82-34.48,17.45-7.48,11.63-11.22,26.24-11.22,43.83,0,23.68,4.12,40.68,12.36,50.99,8.24,10.32,19.35,15.47,33.34,15.47,10.8,0,20.15-1.8,28.04-5.4v-36.97c0-7.34,2.77-13.4,8.31-18.17,5.54-4.78,16.2-7.17,31.99-7.17h0c0,2.74-1.88,4.99-4.48,5.87-5.88,1.99-8.81,8.34-8.81,19.05v29c0,5.35-3.1,10.19-7.92,12.52-5.56,2.68-11.36,4.77-17.42,6.26-9,2.21-18.9,3.32-29.7,3.32-14.13,0-26.9-3.29-38.32-9.87Z"/>
    <path class="cls-3" d="m1091.9,749.53c-11.42-6.58-20.36-15.58-26.79-27-6.44-11.42-9.66-24.06-9.66-37.91,0-14.7,3.47-27.83,10.41-39.4,3.53-5.88,8.02-11.17,13.27-15.58,12.43-10.42,27.39-15.64,44.86-15.64,12.18,0,22.57,1.59,31.16,4.78,8.58,3.19,14.95,7.2,19.11,12.05,2.35,3.05,3.84,6.92,4.47,11.63.62,4.71.93,10.46.93,17.24h0c-3.6,0-6.69-2.44-7.69-5.89-2.8-9.62-7.12-16.86-12.97-21.73-7-5.82-16.59-8.72-28.77-8.72-15.51,0-27,5.82-34.48,17.45-7.48,11.63-11.22,26.24-11.22,43.83,0,23.68,4.12,40.68,12.36,50.99,8.24,10.32,19.35,15.47,33.34,15.47,10.8,0,20.15-1.8,28.04-5.4v-36.97c0-7.34,2.77-13.4,8.31-18.17,5.54-4.78,16.2-7.17,31.99-7.17h0c0,2.74-1.88,4.99-4.48,5.87-5.88,1.99-8.81,8.34-8.81,19.05v29c0,5.35-3.1,10.19-7.92,12.52-5.56,2.68-11.36,4.77-17.42,6.26-9,2.21-18.9,3.32-29.7,3.32-14.13,0-26.9-3.29-38.32-9.87Z"/>
    <path class="cls-3" d="m560.58,749.74c-6.16-5.05-9.24-11.87-9.24-20.46,0-6.92,1.63-12.67,4.88-17.24,3.25-4.57,8.96-8.03,17.14-10.39,8.17-2.35,19.53-3.53,34.07-3.53h3.11c0-12.05-1.66-20.6-4.98-25.65-3.32-5.05-8.24-7.58-14.75-7.58-5.4,0-9.83,1.32-13.29,3.95-1.92,1.46-3.55,3.63-4.87,6.5-2.27,4.92-6.99,8.25-12.41,8.25h0c-.89,0-1.63-.75-1.61-1.64.07-4,.37-7.47.92-10.4.62-3.32,2.04-6.23,4.26-8.72,4.29-4.85,14.68-7.27,31.16-7.27,13.84,0,24.41,3.63,31.68,10.9,7.27,7.27,10.9,18.17,10.9,32.71v42.26c0,7.63-6.19,13.82-13.82,13.82h-11.1s0-9.35,0-9.35h-1.04c-1.25,1.94-3.19,3.88-5.82,5.82-4.71,3.74-11.08,5.61-19.11,5.61-11.22,0-19.91-2.52-26.07-7.58Zm39.78-4.57c2.08-1.18,4.08-2.8,6.02-4.88,1.8-1.94,3.18-4.22,4.15-6.85v-25.96h-3.11c-9.84,0-16.96,1.77-21.39,5.3-4.43,3.53-6.65,9.03-6.65,16.51,0,5.68,1.18,10.04,3.53,13.09,2.35,3.05,5.68,4.57,9.97,4.57,2.91,0,5.4-.59,7.48-1.76Z"/>
    <path class="cls-3" d="m956.26,749.74c-6.16-5.05-9.24-11.87-9.24-20.46,0-6.92,1.63-12.67,4.88-17.24,3.25-4.57,8.96-8.03,17.14-10.39,8.17-2.35,19.53-3.53,34.07-3.53h3.11c0-12.05-1.66-20.6-4.98-25.65-3.32-5.05-8.24-7.58-14.75-7.58-5.4,0-9.83,1.32-13.29,3.95-1.92,1.46-3.55,3.63-4.87,6.5-2.27,4.92-6.99,8.25-12.41,8.25h0c-.89,0-1.63-.75-1.61-1.64.07-4,.37-7.47.92-10.4.62-3.32,2.04-6.23,4.26-8.72,4.29-4.85,14.68-7.27,31.16-7.27,13.84,0,24.41,3.63,31.68,10.9,7.27,7.27,10.9,18.17,10.9,32.71v42.26c0,7.63-6.19,13.82-13.82,13.82h-11.1s0-9.35,0-9.35h-1.04c-1.25,1.94-3.19,3.88-5.82,5.82-4.71,3.74-11.08,5.61-19.11,5.61-11.22,0-19.91-2.52-26.07-7.58Zm39.78-4.57c2.08-1.18,4.08-2.8,6.02-4.88,1.8-1.94,3.18-4.22,4.15-6.85v-25.96h-3.11c-9.84,0-16.96,1.77-21.39,5.3-4.43,3.53-6.65,9.03-6.65,16.51,0,5.68,1.18,10.04,3.53,13.09,2.35,3.05,5.68,4.57,9.97,4.57,2.91,0,5.4-.59,7.48-1.76Z"/>
    <path class="cls-3" d="m1318.71,749.74c-6.16-5.05-9.24-11.87-9.24-20.46,0-6.92,1.63-12.67,4.88-17.24,3.25-4.57,8.96-8.03,17.14-10.39,8.17-2.35,19.53-3.53,34.07-3.53h3.11c0-12.05-1.66-20.6-4.98-25.65-3.32-5.05-8.24-7.58-14.75-7.58-5.4,0-9.83,1.32-13.29,3.95-1.92,1.46-3.55,3.63-4.87,6.5-2.27,4.92-6.99,8.25-12.41,8.25h0c-.89,0-1.63-.75-1.61-1.64.07-4,.37-7.47.92-10.4.62-3.32,2.04-6.23,4.26-8.72,4.29-4.85,14.68-7.27,31.16-7.27,13.84,0,24.41,3.63,31.68,10.9,7.27,7.27,10.9,18.17,10.9,32.71v42.26c0,7.63-6.19,13.82-13.82,13.82h-11.1s0-9.35,0-9.35h-1.04c-1.25,1.94-3.19,3.88-5.82,5.82-4.71,3.74-11.08,5.61-19.11,5.61-11.22,0-19.91-2.52-26.07-7.58Zm39.78-4.57c2.08-1.18,4.08-2.8,6.02-4.88,1.8-1.94,3.18-4.22,4.15-6.85v-25.96h-3.11c-9.84,0-16.96,1.77-21.39,5.3-4.43,3.53-6.65,9.03-6.65,16.51,0,5.68,1.18,10.04,3.53,13.09,2.35,3.05,5.68,4.57,9.97,4.57,2.91,0,5.4-.59,7.48-1.76Z"/>
    <path class="cls-3" d="m728.72,665.61l.03.06c.99,1.91.46,4.26-1.25,5.57l-3.08,2.35c-2.5,1.91-6,1.76-8.33-.36l-.05-.04c-3.05-2.77-6.58-4.15-10.59-4.15-8.03,0-14.19,2.15-18.49,6.44l.41,3.12c.28,2.49.42,4.78.42,6.85v55.97c0,7.63-6.19,13.82-13.82,13.82h-13.18v-70.62c0-7.06-.94-12.29-2.8-15.68-1.87-3.39-5.71-5.09-11.53-5.09h-2.08c0-3.44,2.79-6.23,6.23-6.23h14.33c4.71,0,8.41.59,11.11,1.77,2.7,1.18,4.81,3.15,6.34,5.92,7.48-6.51,16.2-9.76,26.17-9.76,5.95,0,10.87,1.39,14.75,4.15,2.49,1.8,4.29,3.77,5.4,5.92Z"/>
    <path class="cls-3" d="m770.88,751.71c-2.35-1.66-4.23-3.6-5.61-5.82h-1.04l-3.12,4.01c-2.62,3.37-6.64,5.34-10.91,5.34h-10.89v-110.09c0-7.06-.97-12.29-2.91-15.68-1.94-3.39-5.81-5.09-11.63-5.09h-2.08c0-3.44,2.79-6.23,6.23-6.23h18.69c4.99,0,8.79.83,11.43,2.49,2.63,1.66,4.5,4.4,5.61,8.2,1.11,3.81,1.66,9.24,1.66,16.31v16.62c1.8-1.11,3.74-2.15,5.82-3.12,5.68-2.08,11.01-3.12,15.99-3.12,14.4,0,25.44,4.75,33.13,14.23,7.69,9.49,11.53,21.71,11.53,36.66s-3.77,27.18-11.32,36.66c-7.55,9.49-18.31,14.23-32.3,14.23-7.48,0-13.57-1.87-18.28-5.61Zm29.08-14.95c3.18-7.48,4.78-17.59,4.78-30.33,0-27.69-6.93-41.54-20.77-41.54-4.02,0-8.24,1.04-12.67,3.12-1.94,1.11-3.6,2.15-4.99,3.12v63.35c1.25,2.77,2.77,5.06,4.57,6.85,4.15,4.43,8.86,6.65,14.13,6.65,6.78,0,11.77-3.74,14.95-11.22Z"/>
    <path class="cls-3" d="m844.62,645.15c0-7.06-.97-12.29-2.91-15.68-1.94-3.39-5.82-5.09-11.63-5.09h-2.08c0-3.44,2.79-6.23,6.23-6.23h18.69c4.99,0,8.79.83,11.42,2.49,2.63,1.66,4.5,4.4,5.61,8.2,1.1,3.81,1.66,9.24,1.66,16.31v18.28c1.25-.97,3.39-2.28,6.44-3.95,5.54-2.63,11.01-3.95,16.41-3.95,11.22,0,20.59,2.87,28.14,8.62,7.55,5.75,11.32,15.55,11.32,29.39v47.87c0,7.63-6.19,13.82-13.82,13.82h-13.18v-60.65c0-9.97-1.76-17.24-5.3-21.81-3.53-4.57-8-6.85-13.4-6.85-3.74,0-7.69,1.25-11.84,3.74-1.66.97-3.25,2.15-4.78,3.53v68.22c0,7.63-6.19,13.82-13.82,13.82h-13.18v-110.09Z"/>
    <path class="cls-3" d="m1208.94,684.62c0-7.06-.93-12.29-2.8-15.68-1.87-3.39-5.71-5.09-11.53-5.09h-2.08c0-3.44,2.79-6.23,6.23-6.23h14.33c4.71,0,8.41.59,11.11,1.77,2.7,1.18,4.81,3.15,6.34,5.92,7.06-6.51,17.17-9.76,30.33-9.76s23.02,3.08,29.6,9.24c6.58,6.16,9.87,15.82,9.87,28.98v47.66c0,7.63-6.19,13.82-13.82,13.82h-13.18v-61.69c0-9.55-1.77-16.55-5.3-20.98-3.53-4.43-8.34-6.65-14.44-6.65-4.29,0-8.07.59-11.32,1.77-3.25,1.18-5.85,2.74-7.79,4.67l.62,2.91c.55,1.66.83,4.36.83,8.1v58.05c0,7.63-6.19,13.82-13.82,13.82h-13.18v-70.62Z"/>
    <path class="cls-3" d="m1418.93,684.62c0-7.06-.93-12.29-2.8-15.68-1.87-3.39-5.71-5.09-11.53-5.09h-2.08c0-3.44,2.79-6.23,6.23-6.23h14.33c4.71,0,8.41.59,11.11,1.77,2.7,1.18,4.81,3.15,6.34,5.92,7.06-6.51,17.17-9.76,30.33-9.76s23.02,3.08,29.6,9.24c6.58,6.16,9.87,15.82,9.87,28.98v47.66c0,7.63-6.19,13.82-13.82,13.82h-13.18v-61.69c0-9.55-1.77-16.55-5.3-20.98-3.53-4.43-8.34-6.65-14.44-6.65-4.29,0-8.07.59-11.32,1.77-3.25,1.18-5.85,2.74-7.79,4.67l.62,2.91c.55,1.66.83,4.36.83,8.1v58.05c0,7.63-6.19,13.82-13.82,13.82h-13.18v-70.62Z"/>
    <g>
      <path class="cls-2" d="m426.64,862.69h-11.35v-84.02h58.16v10.06h-46.81v25.74h41.19v10.06h-41.19v38.15Z"/>
      <path class="cls-2" d="m605.34,820.68c0,3.04-.29,6.24-.88,9.6-.59,3.35-1.52,6.67-2.81,9.95-1.29,3.28-2.97,6.4-5.03,9.36-2.07,2.96-4.62,5.6-7.67,7.9-3.04,2.3-6.59,4.12-10.65,5.44-4.06,1.33-8.7,1.99-13.93,1.99s-9.87-.66-13.93-1.99c-4.06-1.33-7.61-3.14-10.65-5.44-3.04-2.3-5.6-4.93-7.66-7.9-2.07-2.96-3.75-6.09-5.03-9.36-1.29-3.28-2.22-6.59-2.81-9.95-.59-3.35-.88-6.55-.88-9.6s.29-6.24.88-9.6c.58-3.35,1.52-6.67,2.81-9.95,1.29-3.28,2.96-6.4,5.03-9.36,2.07-2.96,4.62-5.6,7.66-7.9,3.04-2.3,6.59-4.11,10.65-5.44,4.05-1.32,8.7-1.99,13.93-1.99s9.87.66,13.93,1.99c4.06,1.33,7.61,3.14,10.65,5.44,3.04,2.3,5.6,4.94,7.67,7.9,2.06,2.96,3.74,6.09,5.03,9.36,1.29,3.28,2.22,6.59,2.81,9.95.58,3.35.88,6.55.88,9.6Zm-11.7,0c0-4.91-.66-9.46-1.99-13.63-1.33-4.17-3.26-7.78-5.79-10.83-2.54-3.04-5.62-5.42-9.25-7.14-3.63-1.71-7.71-2.57-12.23-2.57s-8.7.86-12.29,2.57c-3.59,1.72-6.65,4.1-9.19,7.14-2.54,3.04-4.47,6.65-5.79,10.83-1.33,4.17-1.99,8.72-1.99,13.63s.66,9.46,1.99,13.63c1.33,4.18,3.26,7.78,5.79,10.83,2.53,3.04,5.6,5.42,9.19,7.14,3.59,1.72,7.68,2.58,12.29,2.58s8.6-.86,12.23-2.58c3.63-1.71,6.71-4.1,9.25-7.14,2.53-3.04,4.46-6.65,5.79-10.83,1.32-4.17,1.99-8.72,1.99-13.63Z"/>
      <path class="cls-2" d="m724.24,778.67v54.53c0,4.29-.68,8.37-2.05,12.23-1.37,3.86-3.44,7.24-6.2,10.12-2.77,2.89-6.28,5.17-10.53,6.85-4.25,1.68-9.26,2.52-15.04,2.52s-10.47-.84-14.57-2.52c-4.1-1.68-7.45-3.92-10.07-6.73-2.61-2.81-4.55-6.03-5.79-9.65-1.25-3.63-1.87-7.39-1.87-11.29v-56.05h11.35v52.89c0,4.6.62,8.39,1.87,11.35,1.25,2.97,2.89,5.35,4.92,7.14,2.03,1.8,4.31,3.04,6.85,3.75,2.53.7,5.09,1.05,7.66,1.05s5.19-.35,7.84-1.05c2.65-.7,5.03-1.91,7.14-3.63,2.11-1.71,3.82-4.05,5.15-7.02,1.32-2.96,1.99-6.75,1.99-11.35v-53.13h11.35Z"/>
      <path class="cls-2" d="m837.75,778.67h11v84.02h-12.75l-42.72-67.87h-.23v67.87h-11v-84.02h13.46l42.01,67.87h.23v-67.87Z"/>
      <path class="cls-2" d="m906.91,778.67h34.06c5.46,0,10.37.99,14.74,2.98,4.37,1.99,8.07,4.78,11.12,8.37,3.04,3.59,5.38,7.88,7.02,12.87,1.64,4.99,2.46,10.53,2.46,16.62,0,4.68-.57,9.58-1.7,14.69-1.13,5.11-3.08,9.77-5.85,13.99-2.77,4.21-6.46,7.69-11.06,10.41-4.6,2.73-10.34,4.1-17.2,4.1h-33.59v-84.02Zm11.35,74.31h22c7.41,0,13.32-2.79,17.73-8.37,4.41-5.58,6.61-13.71,6.61-24.4s-2.26-18.57-6.79-23.87c-4.52-5.3-10.65-7.96-18.37-7.96h-21.18v64.6Z"/>
      <path class="cls-2" d="m1034,838.23l-8.78,24.46h-11.7l31.6-84.02h12.87l30.43,84.02h-12.4l-8.31-24.46h-33.7Zm29.61-10.06l-12.4-36.98h-.23l-13.46,36.98h26.1Z"/>
      <path class="cls-2" d="m1119.89,778.67h68.23v10.06h-28.44v73.96h-11.35v-73.96h-28.44v-10.06Z"/>
      <path class="cls-2" d="m1251.55,862.69h-11.35v-84.02h11.35v84.02Z"/>
      <path class="cls-2" d="m1387.65,820.68c0,3.04-.29,6.24-.88,9.6-.59,3.35-1.52,6.67-2.81,9.95-1.29,3.28-2.97,6.4-5.03,9.36-2.07,2.96-4.62,5.6-7.67,7.9-3.04,2.3-6.59,4.12-10.65,5.44-4.06,1.33-8.7,1.99-13.93,1.99s-9.87-.66-13.93-1.99c-4.06-1.33-7.61-3.14-10.65-5.44-3.04-2.3-5.6-4.93-7.66-7.9-2.07-2.96-3.75-6.09-5.03-9.36-1.29-3.28-2.22-6.59-2.81-9.95-.59-3.35-.88-6.55-.88-9.6s.29-6.24.88-9.6c.58-3.35,1.52-6.67,2.81-9.95,1.29-3.28,2.96-6.4,5.03-9.36,2.07-2.96,4.62-5.6,7.66-7.9,3.04-2.3,6.59-4.11,10.65-5.44,4.05-1.32,8.7-1.99,13.93-1.99s9.87.66,13.93,1.99c4.06,1.33,7.61,3.14,10.65,5.44,3.04,2.3,5.6,4.94,7.67,7.9,2.06,2.96,3.74,6.09,5.03,9.36,1.29,3.28,2.22,6.59,2.81,9.95.58,3.35.88,6.55.88,9.6Zm-11.7,0c0-4.91-.66-9.46-1.99-13.63-1.33-4.17-3.26-7.78-5.79-10.83-2.54-3.04-5.62-5.42-9.25-7.14-3.63-1.71-7.71-2.57-12.23-2.57s-8.7.86-12.29,2.57c-3.59,1.72-6.65,4.1-9.19,7.14-2.54,3.04-4.47,6.65-5.79,10.83-1.33,4.17-1.99,8.72-1.99,13.63s.66,9.46,1.99,13.63c1.33,4.18,3.26,7.78,5.79,10.83,2.53,3.04,5.6,5.42,9.19,7.14,3.59,1.72,7.68,2.58,12.29,2.58s8.6-.86,12.23-2.58c3.63-1.71,6.71-4.1,9.25-7.14,2.53-3.04,4.46-6.65,5.79-10.83,1.32-4.17,1.99-8.72,1.99-13.63Z"/>
      <path class="cls-2" d="m1495.9,778.67h11v84.02h-12.75l-42.72-67.87h-.23v67.87h-11v-84.02h13.46l42.01,67.87h.23v-67.87Z"/>
    </g>
  </g>
  <circle class="cls-4" cx="960.18" cy="283.38" r="67.51"/>
  <path class="cls-4" d="m956.81,597.17s2.04-130.37-42.58-189.22c-35.03-46.21-88.24-63.04-166.29-71.35-73.61-7.83-114.57-56.75-114.57-56.75-1.86,88.48,11.87,140.17,11.87,140.17,2.09,3.34,30.49,5.72,45.56,2.46,249.2-53.98,262.99,154.37,266.01,174.68Z"/>
  <path class="cls-3" d="m956.81,589.84s2.41-105.96-50.41-162.1c-41.47-44.07-103.94-64.9-196.85-64.47-85.99.4-140.96-67.37-140.96-67.37-2.2,84.39,19.38,124.98,19.38,124.98,2.48,3.18,36.09,5.46,53.93,2.35,295-51.49,311.32,147.24,314.9,166.61Z"/>
  <path class="cls-1" d="m969.48,579.34c-.16-1.58-.34-3.13-.54-4.68-.39-3.1-.86-6.17-1.38-9.22-1.05-6.11-2.33-12.17-3.84-18.18-3.01-12.02-6.93-23.85-11.89-35.36-4.94-11.51-10.98-22.66-18.14-33.2-7.28-10.46-15.6-20.4-25.29-29.04-9.61-8.63-19.98-16.14-31.21-22.56-11.17-6.47-23.14-11.47-35.32-15.48-12.21-3.93-24.68-6.69-37.14-8.52-12.47-1.75-24.92-2.7-37.27-3.02-24.71-.42-48.95,1.3-72.82,4.01-5.97.67-11.92,1.36-17.85,2.13l-17.66,2.46c-10.89,1.55-21.86,2.37-32.84,2.6-21.96.36-43.99-2.17-65.37-7.58-10.68-2.71-21.21-6.07-31.54-9.96-5.15-1.96-10.26-4.05-15.25-6.31-2.5-1.11-5-2.24-7.42-3.44l-6.76-3.46-3.12-1.6c-2.76-1.4-6.02-1.85-9.25-1.02-7.05,1.81-11.3,8.99-9.49,16.04h0c5.19,19.23,13.33,37.16,23.67,53.25,5.16,8.05,10.84,15.66,17,22.79,6.18,7.11,12.68,13.81,19.96,19.74.42.35,1.05.37,1.5.02.53-.41.63-1.17.22-1.69l-.04-.05c-5.51-7.16-10.23-15-14.41-22.95-4.17-7.98-7.74-16.19-10.69-24.54-2.44-6.89-4.41-13.87-5.95-20.88,2.39,1.27,4.79,2.51,7.22,3.68,5.67,2.76,11.48,5.18,17.34,7.49,5.89,2.21,11.86,4.23,17.89,6.03,24.16,7.04,49.35,10.94,74.62,11.08,12.63.14,25.27-.68,37.76-2.39l34.73-4.48c11.51-1.42,23-2.51,34.41-3.52,11.41-.98,22.78-1.66,34.04-1.79,22.51-.52,44.7.92,65.66,6.2,10.45,2.7,20.58,6.37,30.14,11.21,4.82,2.35,9.44,5.1,13.99,7.98,2.21,1.54,4.5,2.98,6.64,4.64l3.26,2.42,3.09,2.52c8.26,6.71,15.57,14.69,22.17,23.31,6.5,8.71,12.2,18.16,17.02,28.15,4.83,9.98,8.85,20.46,12.05,31.22,1.61,5.38,3.01,10.82,4.21,16.3.59,2.74,1.14,5.49,1.61,8.23l.66,4.09c.2,1.31.39,2.81.51,3.84l.04.39c.65,5.67,5.64,9.89,11.39,9.52,5.94-.38,10.46-5.5,10.08-11.44-.12-1.91-.25-3.34-.42-4.96Z"/>
  <path class="cls-4" d="m963.55,597.17s-2.04-130.37,42.58-189.22c35.03-46.21,88.24-63.04,166.29-71.35,73.61-7.83,114.57-56.75,114.57-56.75,1.86,88.48-11.87,140.17-11.87,140.17-2.09,3.34-30.49,5.72-45.56,2.46-249.2-53.98-262.99,154.37-266.01,174.68Z"/>
  <path class="cls-3" d="m963.55,589.84s-2.41-105.96,50.41-162.1c41.47-44.07,103.94-64.9,196.85-64.47,85.99.4,140.96-67.37,140.96-67.37,2.2,84.39-19.38,124.98-19.38,124.98-2.48,3.18-36.09,5.46-53.93,2.35-295-51.49-311.32,147.24-314.9,166.61Z"/>
  <path class="cls-1" d="m1441.21,384.68c-3.31-6.48-11.25-9.05-17.73-5.73l-3.1,1.59-6.76,3.46c-2.42,1.2-4.92,2.33-7.42,3.44-4.99,2.26-10.1,4.35-15.25,6.31-10.32,3.89-20.85,7.24-31.54,9.96-21.38,5.41-43.41,7.93-65.37,7.58-10.98-.23-21.95-1.05-32.84-2.6l-17.66-2.46c-5.93-.77-11.88-1.47-17.85-2.13-23.87-2.71-48.11-4.44-72.82-4.01-12.35.32-24.8,1.27-37.27,3.02-12.46,1.83-24.93,4.59-37.14,8.52-12.18,4.01-24.15,9.01-35.32,15.48-11.23,6.42-21.6,13.93-31.21,22.56-9.69,8.65-18.01,18.59-25.29,29.04-7.16,10.55-13.2,21.7-18.14,33.2-4.95,11.51-8.88,23.34-11.88,35.36-1.51,6.01-2.79,12.07-3.84,18.18-.52,3.06-.99,6.12-1.38,9.22-.2,1.55-.38,3.1-.54,4.68-.17,1.62-.3,3.05-.42,4.96-.35,5.69,3.82,10.75,9.55,11.4,5.92.67,11.26-3.59,11.93-9.5l.04-.36c.12-1.03.31-2.53.51-3.84l.66-4.09c.47-2.74,1.02-5.49,1.61-8.23,1.19-5.48,2.6-10.93,4.21-16.3,3.21-10.76,7.22-21.24,12.05-31.22,4.82-9.99,10.53-19.44,17.02-28.15,6.6-8.62,13.91-16.59,22.17-23.31l3.09-2.52,3.26-2.42c2.14-1.66,4.43-3.1,6.64-4.64,4.55-2.88,9.17-5.63,13.99-7.98,9.56-4.84,19.69-8.51,30.14-11.21,20.96-5.28,43.15-6.72,65.66-6.2,11.26.13,22.63.81,34.04,1.79,11.41,1.01,22.9,2.1,34.41,3.52l34.73,4.48c12.5,1.7,25.13,2.53,37.76,2.39,25.27-.14,50.45-4.04,74.62-11.08,6.03-1.8,12-3.82,17.89-6.03,5.86-2.31,11.67-4.73,17.34-7.49,2.43-1.17,4.83-2.41,7.22-3.68-1.54,7.01-3.51,14-5.95,20.88-2.94,8.35-6.51,16.57-10.69,24.54-4.18,7.95-8.9,15.8-14.41,22.95l-.04.05c-.33.43-.34,1.06.02,1.5.42.52,1.18.59,1.7.17,7.28-5.93,13.78-12.63,19.96-19.74,6.15-7.12,11.84-14.74,17-22.79,10.34-16.08,18.49-34.02,23.68-53.25h0c.76-3,.49-6.3-1.03-9.27Z"/>
</svg>