<?xml version="1.0" encoding="UTF-8"?>
<svg id="Layer_1" data-name="Layer 1" xmlns="http://www.w3.org/2000/svg" viewBox="0 0 1920 1080">
  <defs>
    <style>
      .cls-1 {
        fill: #58595b;
      }

      .cls-1, .cls-2, .cls-3 {
        stroke-width: 0px;
      }

      .cls-2 {
        fill: #ee3f65;
        fill-rule: evenodd;
      }

      .cls-3 {
        fill: #6d6e70;
      }
    </style>
  </defs>
  <g>
    <path class="cls-1" d="m1085.47,137.99c-35.71,36.54-71.44,73.09-107.2,109.65,4.14,4.94,8.24,9.85,12.34,14.79,26.3-26.7,52.57-53.41,78.84-80.11,41.95,50.01,74.98,108.88,101.37,174.41,44.29,110,73.02,199.66,38.65,316.4-52.17,177.16-258.29,241.8-404.52,128.99-86.11-66.46-109.97-186.45,4.59-233.56,34.17-14.07,75.23-15.5,121.9-6.64,76.84,19.3,154.17,38.85,231.01,58.19l28.76-67.68c-3.67-1.64-8.72-3.57-12.42-5.22-.94,8.84-.94,22.67-12.69,27.96-12.36,5.54-57.03-6.21-73.26-9.82-61.45-13.66-124.02-37.26-174.17-45.73-47.42-8.03-85.94,2.74-126.06,29.06-59.46,39-94.14,107.39-64.53,189.44,89.02,196.85,408.76,196.25,491.01-34.73,51.05-143.29,12.29-372.62-133.63-565.41Z"/>
    <polygon class="cls-1" points="1168.72 168 1172.29 168 1172.29 144.21 1181.14 144.21 1181.14 141.05 1159.84 141.05 1159.84 144.21 1168.72 144.21 1168.72 168"/>
    <path class="cls-1" d="m1188.19,145.05l7.77,22.96h3.22l7.82-22.55v22.55h3.45v-26.95h-4.78l-6.45,18.75c-.66,1.9-1.16,3.35-1.45,4.3-.29-.87-.7-2.19-1.31-3.98l-6.37-19.07h-5.31v26.95h3.41v-22.96Z"/>
    <path class="cls-1" d="m1185.18,194.27c10.94,0,20.87-4.46,28.06-11.67,7.2-7.16,11.64-17.1,11.64-28.06s-4.44-20.91-11.64-28.12c-7.19-7.18-17.13-11.61-28.06-11.61s-20.93,4.43-28.1,11.61c-7.23,7.21-11.68,17.15-11.68,28.12s4.45,20.9,11.68,28.06c7.17,7.21,17.11,11.67,28.1,11.67Zm-25.33-65.05c6.45-6.49,15.4-10.48,25.33-10.48s18.81,4,25.28,10.48c6.48,6.47,10.48,15.43,10.48,25.32s-4.01,18.83-10.48,25.31c-6.47,6.47-15.44,10.46-25.28,10.46s-18.88-4-25.33-10.46c-6.48-6.49-10.5-15.43-10.5-25.31s4.02-18.86,10.5-25.32Z"/>
  </g>
  <path class="cls-2" d="m896.36,718.53c-3.6-17.83-16.28-26.05-30.72-26.74-33.98-1.64-52.21,38.33-48.49,67.76,3.49,27.69,25.63,48.47,67.19,44.19,27.45,17.26,49.46,30.55,74.36,36.89,36.2,9.24,88.28,5.04,105.09-34.22,11.65-27.19-8.21-56.69-40.84-65.46-1.04-13.02-2.06-26.07-3.11-39.16,9.37-17.84-8.37-28.41-19.9-31.67-6.9-.33-11.74,7.35-8.25,12.27,5.22,5.8,10.11,8.58,13.24,16.94-1.33,13.7-12.43,29.2-18.66,42.25-7.39,12.99-6.13,24,6.85,32.34,10.18,4.06,14.06,9,11.19,14.92-9.52,2.1-10.73-11.08-22.37-15.54-11.45.73-22.57,13.3-32.29,7.45,3.18-11.8,5.14-23.32,3.7-34.19-.31-8.5-10.48-10.36-14.28-18.03,3.09-4.35,6.71-7.71,5.28-15.53-5.88-6.99-17.91-4.87-18.52-.53.8,5.17.92,11.25,3.03,16.12,2.53,7.49,3.17,14.53,8.33,20.47-2.69,4.13-5.38,8.29-8.1,12.43-1.69,3.75-8.55-1.6-5.69-7.62,9.14-14.32-.53-27.54-6.78-29.36.4-2.48-.9-6.8-2.43-8.79-5.19,2.67-11.6,3.7-17.82,2.81"/>
  <path class="cls-2" d="m1103.5,259.62c-5.93,28.35-11.87,56.69-17.84,85.04-2.04-16.19-6.47-27.95-12.9-36.1-22.35-28.39-104.83-13.23-133.87-1.76-28.57,11.23-53.56,29.32-75.12,54.02-62.36,69.46-102.95,252.75,4.14,290.06,63.69,22.2,170.36-33.12,179.81-107.14,4.14-32.27-6.46-65.94-31.77-87.69,50.89-6.84,81.11,10.58,61.21,86.73-12.29,29.25-28.16,53.3-47.33,72.55-66.17,66.28-228.73,96.86-259.92-16.14-23.94-86.56,14.39-191.14,79.14-251.48,29.64-27.61,66.19-49.68,109.95-65.98,47.06-17.43,95.01-26.67,144.51-22.11"/>
  <g>
    <polygon class="cls-3" points="692.86 845.98 697.04 842.44 673.09 814.35 668.94 817.9 678.77 829.44 644.98 858.2 649.22 863.15 682.98 834.38 692.86 845.98"/>
    <polygon class="cls-3" points="724.82 868.48 710.76 883.87 692.95 867.6 707.01 852.2 702.28 847.87 668.64 884.68 673.39 889.03 689.16 871.77 706.96 888.04 691.2 905.29 696 909.68 729.63 872.85 724.82 868.48"/>
    <polygon class="cls-3" points="711.29 921.58 734.21 937.8 737.32 933.38 719.68 920.88 730.08 906.2 745.9 917.42 748.97 913.07 733.15 901.86 742.26 888.99 759 900.84 762.12 896.44 740.13 880.86 711.29 921.58"/>
    <path class="cls-3" d="m807.15,925.92c3.73,1.78,6.5,4.08,8.21,6.19l3.66-4.08c-1.15-1.53-4.12-4.42-9.74-7.11-13.97-6.65-28.08-1.64-34.82,12.47-7.01,14.78-1.3,27.35,11.42,33.39,5.49,2.6,10.26,3.58,12.92,3.54l1-5.19c-2.88,0-6.85-.97-10.39-2.65-10.96-5.22-13.95-15.34-8.69-26.36,5.64-11.84,15.88-15.24,26.43-10.21Z"/>
    <path class="cls-3" d="m846.73,935.32c-12.68-4.08-25.22,2.76-30.09,17.83-4.63,14.36,1.05,26.91,13.58,30.93,12.11,3.91,24.84-1.56,30.09-17.89,4.53-14.08-.65-26.7-13.58-30.88Zm7.02,29.07c-3.46,10.77-11.83,17.95-21.56,14.8-9.63-3.1-12.2-13.94-8.95-24.08,3.36-10.43,11.45-18.14,21.58-14.89,10.21,3.29,11.95,14.74,8.93,24.16Z"/>
    <path class="cls-3" d="m873.94,957.06c-1.28,6.92,2.87,11.98,10.36,16.31,6.15,3.78,8.28,6.88,7.42,11.46-.92,4.95-5.33,7.67-11.82,6.47-4.34-.82-8.23-3.06-10.75-5.32l-2.58,5.02c2.28,2.22,7.21,4.57,11.92,5.45,11.56,2.14,18.39-3.35,19.79-10.91,1.35-7.2-2.13-12-9.84-16.74-6.26-3.87-8.82-6.67-7.99-11.26.63-3.35,3.92-6.87,10.62-5.63,4.44.84,7.44,2.89,8.88,4.05l2.71-4.83c-1.95-1.65-5.36-3.49-10.4-4.42-9.54-1.77-16.89,2.71-18.33,10.35Z"/>
    <path class="cls-3" d="m953.62,953.61l-10,23.67c-2.52,6.19-4.55,11.56-6.07,16.53l-.2-.02c-1.01-5.21-2.44-10.77-4.23-17.01l-7.35-24.49-8.21-.39-5.84,49.64,6.12.3,2.36-21.3c.81-7.43,1.57-15.77,2.02-21.98l.14.02c1.11,5.98,2.81,12.49,4.84,19.63l6.93,24.1,4.88.22,9.93-23.72c2.83-6.76,5.22-12.87,7.2-18.61h.2c-.34,6.2-.29,14.57-.28,21.54l.22,21.92,6.29.33-.75-49.96-8.21-.41Z"/>
    <rect class="cls-3" x="978.52" y="952.4" width="6.44" height="49.88" transform="translate(-64.47 69.34) rotate(-3.92)"/>
    <path class="cls-3" d="m1026.87,992.27c-11.97,1.92-20.16-4.71-22.11-16.76-2.07-12.94,4.43-21.56,15.99-23.41,4.09-.64,7.65-.33,10.26.46l.72-5.46c-1.83-.6-5.92-1.3-12.07-.3-15.28,2.45-24.06,14.58-21.57,29.99,2.59,16.15,14.45,23.24,28.34,21.03,5.98-.97,10.48-2.89,12.62-4.43l-2.13-4.84c-2.34,1.65-6.17,3.1-10.05,3.72Z"/>
    <path class="cls-3" d="m1103.1,922.28l2.66,25.88c.73,6.37,1.37,12.05,2.32,17.55l-.14.05c-2.55-4.66-5.89-9.75-9.27-14.8l-14.58-21.57-6.28,2.36,2.58,25.9c.67,6.64,1.3,12.73,2.28,17.67l-.14.04c-2.52-4.19-5.95-9.56-9.53-14.85l-14.39-21.56-6.38,2.38,29.35,42.29,6.3-2.36-2.44-26.84c-.53-6.67-1.2-11.64-2.1-16.6l.13-.06c2.38,4.48,5.08,8.7,8.77,14.12l15,22.12,6.32-2.36-4.27-51.7-6.17,2.32Z"/>
    <path class="cls-3" d="m1132.81,905.15c-11.58,6.65-14.91,20.54-7.03,34.26,7.54,13.09,20.64,17.34,32.07,10.76,11.04-6.34,15.54-19.44,6.98-34.33-7.39-12.84-20.24-17.48-32.02-10.69Zm22.75,40.28c-8.79,5.06-18.58-.34-23.88-9.58-5.48-9.49-5.75-20.68,3.48-26,9.32-5.38,18.96,1.04,23.91,9.64,5.65,9.81,5.31,20.84-3.51,25.93Z"/>
    <path class="cls-3" d="m1190.43,865.24l8.21,24.35c2.21,6.28,4.27,11.67,6.46,16.36l-.17.15c-4.23-3.24-9.01-6.43-14.46-9.92l-21.76-13.43-6.4,5.16,28.59,41,4.76-3.84-12.37-17.49c-4.36-6.09-9.31-12.82-13.08-17.76l.1-.09c4.81,3.73,10.4,7.47,16.65,11.45l21.19,13.45,3.81-3.08-8.34-24.35c-2.35-6.95-4.64-13.09-6.99-18.7l.17-.14c3.86,4.88,9.43,11.1,14.11,16.29l14.71,16.26,4.91-3.95-33.73-36.86-6.38,5.15Z"/>
    <path class="cls-3" d="m1254.54,850.99c-5.45-5.04-12.09-3.64-16.16-.99l-.14-.1c2.18-5.15,1.25-10.37-2.28-13.64-2.84-2.66-6.08-3.54-9.25-2.96-3.98.57-7.6,2.85-11.99,7.59-3.06,3.29-5.76,6.87-7.24,9.33l35.98,33.38c1.66-1.37,4.2-3.66,7.22-6.91,5.53-5.98,8.28-11.12,8.32-15.82-.09-3.5-1.32-6.97-4.46-9.88Zm-39.47-2.52c.53-.91,1.53-2.31,3.52-4.48,4.45-4.77,9.15-6.47,13.44-2.49,3.54,3.27,3.42,8.63-1.22,13.6l-3.98,4.29-11.76-10.93Zm33.2,23.43c-1.6,1.69-2.89,3-3.92,3.76l-13.95-12.95,3.63-3.91c4.78-5.15,10.83-7.52,15.82-2.89,5.31,4.94,2.91,11.1-1.59,15.99Z"/>
  </g>
</svg>