<?xml version="1.0" encoding="UTF-8"?>
<svg id="Layer_1" data-name="Layer 1" xmlns="http://www.w3.org/2000/svg" viewBox="0 0 1920 1080">
  <defs>
    <style>
      .cls-1 {
        fill: #fff;
      }

      .cls-1, .cls-2, .cls-3, .cls-4, .cls-5, .cls-6 {
        stroke-width: 0px;
      }

      .cls-2 {
        fill: #fff;
      }

      .cls-3 {
        fill-rule: evenodd;
      }

      .cls-3, .cls-6 {
        fill: #fff;
      }

      .cls-4 {
        fill: #fff;
      }

      .cls-5 {
        fill: #fff;
      }
    </style>
  </defs>
  <path class="cls-1" d="m1821.41,615.94c1.42-20.56-9.7-39.7-32.47-39.7-20.31,0-34.14,15.25-34.14,35.31s13.06,35.18,34.14,35.18c15.14,0,26.13-6.59,31.31-22.49h-16.17c-1.16,4.13-7.12,8.67-14.49,8.67-10.35,0-15.91-5.18-16.43-16.96h48.25Zm-48.25-11.63c.39-5.18,3.36-14.25,15.26-14.25,8.93,0,12.94,4.92,14.62,14.25h-29.88Z"/>
  <polygon class="cls-6" points="1305.14 498.62 1408.04 498.62 1408.04 525.68 1337.32 525.68 1337.32 559.5 1398.61 559.5 1398.61 584.5 1337.32 584.5 1337.32 644.97 1305.14 644.97 1305.14 498.62"/>
  <polygon class="cls-6" points="1243.77 644.97 1207.49 644.97 1159.93 498.62 1193.14 498.62 1225.73 601.52 1226.14 601.52 1259.15 498.62 1292.35 498.62 1243.77 644.97"/>
  <rect class="cls-4" x="1060.7" y="472.79" width="3.91" height="172.75"/>
  <path class="cls-2" d="m1744.53,706.03l.84-3.98h3.98l-.86,3.98h-3.96Zm-11.05,0l.83-3.98h3.98l-.85,3.98h-3.96Zm-11.05,0l.83-3.98h3.98l-.85,3.98h-3.96Zm-18.19-12.18h11.63c.02-.35.03-.61.03-.77,0-1.75-.45-3.1-1.32-4.03-.89-.93-2.03-1.4-3.42-1.4-1.51,0-2.89.52-4.13,1.55-1.25,1.03-2.16,2.58-2.79,4.65m10.27,5.17l3.42.32c-.48,1.7-1.62,3.3-3.4,4.84-1.77,1.52-3.88,2.29-6.33,2.29-1.53,0-2.94-.35-4.21-1.06-1.28-.7-2.26-1.72-2.93-3.07-.67-1.35-.99-2.88-.99-4.59,0-2.25.51-4.43,1.56-6.55,1.05-2.12,2.4-3.69,4.06-4.71,1.67-1.03,3.47-1.53,5.39-1.53,2.47,0,4.44.75,5.91,2.29,1.47,1.52,2.21,3.6,2.21,6.23,0,1-.09,2.04-.27,3.09h-15.25c-.05.41-.08.77-.08,1.09,0,1.94.43,3.41,1.33,4.43.89,1.01,1.99,1.52,3.29,1.52,1.2,0,2.4-.39,3.56-1.18,1.17-.77,2.08-1.91,2.73-3.4m-20.85-.51l3.54.35c-.89,2.58-2.13,4.48-3.77,5.73-1.62,1.24-3.47,1.87-5.54,1.87-2.26,0-4.07-.73-5.47-2.18-1.39-1.44-2.09-3.46-2.09-6.06,0-2.25.44-4.45,1.33-6.63.9-2.17,2.18-3.83,3.85-4.96,1.67-1.14,3.57-1.7,5.71-1.7s3.97.63,5.27,1.87c1.29,1.26,1.94,2.91,1.94,4.97l-3.46.24c-.01-1.3-.39-2.33-1.13-3.07-.75-.73-1.74-1.1-2.95-1.1-1.42,0-2.64.44-3.68,1.34-1.04.88-1.85,2.24-2.44,4.05-.6,1.82-.88,3.57-.88,5.25s.39,3.07,1.17,3.95c.78.88,1.73,1.32,2.87,1.32s2.23-.44,3.29-1.3c1.04-.86,1.86-2.18,2.46-3.95m-21.12-2.96c-.5.19-1.03.35-1.6.46-.56.1-1.51.21-2.83.33-2.05.17-3.48.41-4.33.69-.84.27-1.48.72-1.9,1.33-.43.61-.64,1.29-.64,2.02,0,.99.34,1.79,1.02,2.42.68.63,1.64.96,2.91.96,1.16,0,2.28-.3,3.35-.93,1.09-.62,1.93-1.47,2.56-2.57.62-1.1,1.11-2.67,1.47-4.71m-1.32,7.91c-1.23,1.04-2.4,1.8-3.52,2.28-1.13.48-2.32.72-3.62.72-1.91,0-3.44-.56-4.61-1.68-1.16-1.11-1.74-2.54-1.74-4.29,0-1.15.27-2.17.78-3.06.53-.88,1.22-1.59,2.08-2.13.87-.53,1.92-.93,3.19-1.15.8-.16,2.29-.28,4.52-.38,2.21-.09,3.8-.32,4.76-.69.27-.96.41-1.76.41-2.39,0-.81-.29-1.45-.89-1.92-.82-.64-2.01-.97-3.59-.97-1.49,0-2.7.33-3.64.98-.94.66-1.63,1.59-2.05,2.8l-3.55-.31c.72-2.04,1.87-3.62,3.44-4.69,1.57-1.09,3.56-1.63,5.96-1.63,2.54,0,4.56.61,6.05,1.82,1.13.91,1.7,2.09,1.7,3.54,0,1.09-.16,2.37-.48,3.82l-1.12,5.13c-.37,1.62-.54,2.95-.54,3.98,0,.65.13,1.58.42,2.8h-3.55c-.19-.67-.33-1.53-.41-2.56m-27.13,2.56l4.3-20.65h3.13l-.89,4.22c1.07-1.58,2.12-2.76,3.14-3.52,1.02-.76,2.05-1.15,3.11-1.15.7,0,1.56.26,2.57.75l-1.43,3.26c-.61-.44-1.28-.67-2-.67-1.23,0-2.5.7-3.8,2.07-1.29,1.37-2.33,3.84-3.07,7.4l-1.73,8.28h-3.34Zm-17.95-9.12c0,1.4.14,2.46.41,3.18.39,1,.95,1.76,1.67,2.28.72.53,1.52.79,2.41.79,1.15,0,2.3-.4,3.44-1.21,1.15-.81,2.08-2.06,2.78-3.76.71-1.7,1.06-3.33,1.06-4.87,0-1.69-.47-3.04-1.41-4.06-.94-1-2.1-1.5-3.5-1.5-.84,0-1.68.23-2.49.69-.8.45-1.56,1.16-2.25,2.09-.7.94-1.22,2.07-1.58,3.37-.35,1.32-.54,2.3-.54,2.99m-4.42,10.99l3.59.31c-.03.81.07,1.42.29,1.82.22.41.58.72,1.05.94.64.28,1.45.42,2.46.42,2.12,0,3.65-.54,4.58-1.65.61-.73,1.17-2.35,1.69-4.82l.35-1.67c-1.82,1.85-3.76,2.78-5.82,2.78s-3.82-.77-5.22-2.3c-1.42-1.53-2.11-3.7-2.11-6.51,0-2.33.54-4.45,1.65-6.39,1.1-1.95,2.41-3.42,3.95-4.4,1.52-.99,3.09-1.49,4.7-1.49,2.7,0,4.78,1.26,6.25,3.79l.72-3.35h3.25l-4.19,19.93c-.46,2.2-1.05,3.9-1.78,5.13-.74,1.22-1.77,2.18-3.08,2.84-1.31.68-2.84,1.02-4.55,1.02s-3.09-.21-4.29-.64c-1.2-.42-2.09-1.06-2.68-1.87-.59-.83-.88-1.77-.88-2.84,0-.32.03-.67.07-1.05m-35.91-11.06l3.74-.36-.04.99c0,1.1.25,2.11.75,3.02.5.91,1.34,1.62,2.51,2.12,1.16.5,2.54.75,4.14.75,2.27,0,4.01-.5,5.21-1.5,1.19-1,1.8-2.14,1.8-3.43,0-.9-.32-1.72-.95-2.45-.65-.73-2.42-1.71-5.31-2.95-2.23-.97-3.75-1.71-4.57-2.24-1.28-.84-2.22-1.75-2.83-2.75-.61-.99-.91-2.11-.91-3.39,0-1.46.4-2.79,1.21-3.96.8-1.19,1.97-2.09,3.52-2.69,1.54-.63,3.29-.94,5.23-.94,2.32,0,4.28.38,5.86,1.16,1.59.78,2.75,1.82,3.46,3.1.72,1.3,1.07,2.54,1.07,3.72v.58l-3.69.29c0-.81-.08-1.44-.22-1.89-.25-.78-.65-1.45-1.19-1.99-.55-.55-1.29-.99-2.23-1.32-.96-.32-2.01-.49-3.19-.49-2.07,0-3.67.47-4.81,1.41-.89.71-1.32,1.66-1.32,2.84,0,.7.17,1.33.54,1.88.36.55,1.02,1.09,1.96,1.62.67.38,2.28,1.11,4.78,2.23,2.05.91,3.45,1.62,4.23,2.13,1.03.7,1.82,1.52,2.37,2.5.57.98.85,2.09.85,3.33,0,1.54-.48,2.96-1.41,4.25-.94,1.3-2.24,2.31-3.89,3.02-1.66.71-3.55,1.07-5.7,1.07-3.23,0-5.85-.69-7.89-2.1-2.04-1.4-3.07-3.92-3.08-7.57m-11.53,9.19l5.97-28.49h3.78l-5.96,28.49h-3.78Zm-29.32,0l5.97-28.49h3.78l-2.49,11.86h14.85l2.48-11.86h3.78l-5.97,28.49h-3.78l2.8-13.41h-14.84l-2.8,13.41h-3.78Zm-21.5,0l.83-3.98h3.98l-.86,3.98h-3.95Zm-11.06,0l.84-3.98h3.97l-.86,3.98h-3.95Zm-11.05,0l.84-3.98h3.97l-.86,3.98h-3.96Zm-20.53-7.09l3.55-.2c0,1.01.15,1.87.47,2.59.31.71.87,1.29,1.7,1.74.83.46,1.8.69,2.9.69,1.54,0,2.7-.31,3.48-.93.77-.63,1.15-1.36,1.15-2.2,0-.61-.24-1.18-.69-1.72-.46-.55-1.64-1.22-3.47-2.01-1.85-.79-3.03-1.34-3.55-1.67-.87-.52-1.52-1.14-1.97-1.87-.45-.72-.66-1.54-.66-2.48,0-1.61.64-3.01,1.93-4.18,1.29-1.16,3.1-1.74,5.41-1.74,2.59,0,4.56.59,5.9,1.79,1.36,1.2,2.05,2.78,2.11,4.73l-3.43.24c-.06-1.24-.49-2.24-1.31-2.97-.82-.73-1.98-1.09-3.48-1.09-1.22,0-2.16.28-2.83.83-.68.57-1.01,1.17-1.01,1.82s.29,1.22.87,1.71c.39.34,1.38.86,2.99,1.55,2.68,1.16,4.36,2.07,5.05,2.75,1.12,1.06,1.67,2.37,1.67,3.91,0,1.02-.31,2.03-.95,3.01-.62.98-1.57,1.76-2.86,2.36-1.28.58-2.8.88-4.53.88-2.37,0-4.41-.59-6.06-1.78-1.67-1.17-2.46-3.09-2.39-5.75m-3.19,4.23l-.58,2.88c-.85.21-1.66.33-2.45.33-1.4,0-2.51-.35-3.33-1.03-.61-.52-.93-1.23-.93-2.13,0-.45.17-1.5.5-3.13l2.51-12.01h-2.79l.56-2.7h2.79l1.06-5.07,4.03-2.41-1.6,7.48h3.47l-.6,2.7h-3.42l-2.39,11.42c-.29,1.44-.44,2.32-.44,2.61,0,.41.13.73.36.95.24.22.64.33,1.17.33.77,0,1.48-.08,2.08-.22m-21.42,2.85l4.29-20.65h3.13l-.88,4.22c1.07-1.58,2.11-2.76,3.13-3.52,1.01-.76,2.06-1.15,3.12-1.15.7,0,1.55.26,2.58.75l-1.43,3.26c-.61-.44-1.28-.67-2-.67-1.23,0-2.5.7-3.8,2.07-1.3,1.37-2.32,3.84-3.08,7.4l-1.72,8.28h-3.34Zm-18.03-8.19c0,1.94.47,3.41,1.4,4.41.93,1,2.13,1.51,3.57,1.51.76,0,1.51-.16,2.24-.46.74-.3,1.43-.76,2.07-1.38.65-.62,1.19-1.33,1.64-2.13.45-.79.81-1.65,1.09-2.57.4-1.28.6-2.5.6-3.69,0-1.86-.47-3.3-1.41-4.33-.95-1.03-2.14-1.55-3.56-1.55-1.11,0-2.12.27-3.02.8-.92.51-1.74,1.28-2.48,2.29-.73,1.01-1.27,2.18-1.61,3.53-.35,1.34-.52,2.53-.52,3.58m-3.5.35c0-4.02,1.18-7.35,3.56-9.99,1.95-2.17,4.51-3.25,7.69-3.25,2.47,0,4.48.78,6,2.33,1.51,1.55,2.28,3.64,2.28,6.28,0,2.36-.48,4.56-1.43,6.6-.95,2.04-2.32,3.6-4.09,4.68-1.77,1.09-3.63,1.64-5.58,1.64-1.6,0-3.06-.35-4.36-1.04-1.32-.68-2.32-1.65-3.01-2.9-.7-1.26-1.04-2.71-1.04-4.34m-11.3,7.84l3.81-17.94h-3.1l.56-2.7h3.12l.6-2.93c.3-1.46.63-2.51.95-3.16.33-.64.86-1.17,1.6-1.6.74-.41,1.76-.62,3.04-.62.9,0,2.19.18,3.88.55l-.64,3.08c-1.18-.3-2.19-.45-2.98-.45-.67,0-1.21.17-1.56.51-.36.33-.68,1.14-.93,2.42l-.47,2.21h3.97l-.56,2.7h-3.99l-3.8,17.94h-3.5Zm-11.05,0l3.8-17.94h-3.1l.56-2.7h3.12l.6-2.93c.3-1.46.62-2.51.95-3.16.34-.64.86-1.17,1.6-1.6.75-.41,1.76-.62,3.04-.62.89,0,2.18.18,3.88.55l-.64,3.08c-1.19-.3-2.19-.45-2.99-.45-.68,0-1.21.17-1.57.51-.35.33-.65,1.14-.92,2.42l-.46,2.21h3.97l-.55,2.7h-3.99l-3.82,17.94h-3.49Zm-17.59-12.18h11.64c0-.35.02-.61.02-.77,0-1.75-.44-3.1-1.32-4.03-.89-.93-2.03-1.4-3.43-1.4-1.51,0-2.89.52-4.12,1.55-1.25,1.03-2.17,2.58-2.79,4.65m10.27,5.17l3.42.32c-.5,1.7-1.64,3.3-3.41,4.84-1.77,1.52-3.88,2.29-6.33,2.29-1.53,0-2.94-.35-4.22-1.06-1.28-.7-2.26-1.72-2.92-3.07-.67-1.35-1-2.88-1-4.59,0-2.25.52-4.43,1.57-6.55,1.05-2.12,2.4-3.69,4.06-4.71,1.66-1.03,3.46-1.53,5.4-1.53,2.47,0,4.42.75,5.9,2.29,1.49,1.52,2.21,3.6,2.21,6.23,0,1-.09,2.04-.27,3.09h-15.25c-.05.41-.07.77-.07,1.09,0,1.94.44,3.41,1.34,4.43.88,1.01,1.98,1.52,3.27,1.52,1.21,0,2.4-.39,3.57-1.18,1.16-.77,2.08-1.91,2.73-3.4m-39.48,7.01l4.3-20.65h3.14l-.89,4.22c1.07-1.58,2.11-2.76,3.14-3.52,1.01-.76,2.05-1.15,3.11-1.15.69,0,1.55.26,2.58.75l-1.43,3.26c-.61-.44-1.28-.67-2-.67-1.23,0-2.51.7-3.8,2.07-1.3,1.37-2.32,3.84-3.07,7.4l-1.72,8.28h-3.35Zm-8.05-3.74c-2.47,2.78-5.01,4.17-7.61,4.17-1.59,0-2.87-.45-3.85-1.36-.98-.91-1.47-2.02-1.47-3.33,0-.88.25-2.35.72-4.47l2.7-11.92h3.54l-3.01,13.36c-.25,1.11-.37,1.98-.37,2.6,0,.71.24,1.27.72,1.65.48.4,1.19.6,2.13.6,1,0,1.97-.23,2.93-.71.95-.48,1.77-1.12,2.47-1.94.68-.81,1.25-1.77,1.69-2.88.29-.7.62-1.94,1-3.72l1.96-8.97h3.49l-4.56,20.65h-3.25l.77-3.74Zm-32.09-4.45c0,1.94.47,3.41,1.4,4.41.93,1,2.13,1.51,3.57,1.51.75,0,1.5-.16,2.24-.46.74-.3,1.43-.76,2.07-1.38.65-.62,1.19-1.33,1.64-2.13.44-.79.81-1.65,1.07-2.57.41-1.28.61-2.5.61-3.69,0-1.86-.48-3.3-1.41-4.33-.95-1.03-2.14-1.55-3.57-1.55-1.11,0-2.11.27-3.01.8-.92.51-1.74,1.28-2.47,2.29-.74,1.01-1.28,2.18-1.63,3.53-.34,1.34-.51,2.53-.51,3.58m-3.51.35c0-4.02,1.19-7.35,3.56-9.99,1.96-2.17,4.51-3.25,7.69-3.25,2.48,0,4.48.78,6.01,2.33,1.52,1.55,2.28,3.64,2.28,6.28,0,2.36-.49,4.56-1.44,6.6-.95,2.04-2.32,3.6-4.08,4.68-1.77,1.09-3.63,1.64-5.59,1.64-1.61,0-3.06-.35-4.38-1.04-1.32-.68-2.32-1.65-3.02-2.9-.68-1.26-1.03-2.71-1.03-4.34m-21.74,7.84l.83-3.98h3.99l-.85,3.98h-3.96Zm-11.05,0l.83-3.98h3.99l-.86,3.98h-3.96Zm-11.06,0l.83-3.98h3.98l-.85,3.98h-3.96Zm-23.08,0l5.97-28.49h3.49l-2.29,10.94c1.28-1.26,2.49-2.17,3.59-2.73,1.11-.54,2.25-.82,3.43-.82,1.68,0,2.99.45,3.92,1.35.93.89,1.39,2.08,1.39,3.56,0,.73-.21,2.05-.66,3.99l-2.69,12.18h-3.5l2.76-12.47c.39-1.81.59-2.95.59-3.42,0-.67-.22-1.23-.69-1.65-.46-.42-1.12-.64-1.98-.64-1.24,0-2.44.33-3.56,1-1.13.67-2.01,1.58-2.66,2.73-.64,1.15-1.23,3.02-1.75,5.6l-1.86,8.85h-3.49Zm-2.87-2.85l-.59,2.88c-.84.21-1.65.33-2.44.33-1.4,0-2.51-.35-3.34-1.03-.62-.52-.93-1.23-.93-2.13,0-.45.17-1.5.5-3.13l2.51-12.01h-2.79l.56-2.7h2.78l1.07-5.07,4.03-2.41-1.59,7.48h3.47l-.61,2.7h-3.42l-2.38,11.42c-.3,1.44-.44,2.32-.44,2.61,0,.41.12.73.36.95.23.22.63.33,1.17.33.78,0,1.48-.08,2.09-.22m-17.1,2.85l4.33-20.65h3.48l-4.31,20.65h-3.5Zm5.13-24.51l.84-3.98h3.49l-.84,3.98h-3.5Zm-11.97,14.03c-.5.19-1.04.35-1.6.46-.57.1-1.51.21-2.84.33-2.04.17-3.48.41-4.32.69-.85.27-1.48.72-1.9,1.33-.43.61-.64,1.29-.64,2.02,0,.99.35,1.79,1.02,2.42.68.63,1.65.96,2.9.96,1.16,0,2.29-.3,3.37-.93,1.07-.62,1.93-1.47,2.56-2.57.62-1.1,1.11-2.67,1.46-4.71m-1.31,7.91c-1.23,1.04-2.4,1.8-3.52,2.28-1.13.48-2.33.72-3.63.72-1.9,0-3.43-.56-4.6-1.68-1.16-1.11-1.75-2.54-1.75-4.29,0-1.15.27-2.17.79-3.06.52-.88,1.22-1.59,2.07-2.13.88-.53,1.94-.93,3.2-1.15.79-.16,2.3-.28,4.51-.38,2.22-.09,3.81-.32,4.77-.69.27-.96.4-1.76.4-2.39,0-.81-.29-1.45-.89-1.92-.82-.64-2.02-.97-3.59-.97-1.48,0-2.69.33-3.64.98-.94.66-1.63,1.59-2.05,2.8l-3.54-.31c.72-2.04,1.86-3.62,3.43-4.69,1.57-1.09,3.55-1.63,5.95-1.63,2.55,0,4.56.61,6.05,1.82,1.13.91,1.71,2.09,1.71,3.54,0,1.09-.17,2.37-.48,3.82l-1.13,5.13c-.37,1.62-.54,2.95-.54,3.98,0,.65.14,1.58.43,2.8h-3.56c-.19-.67-.34-1.53-.4-2.56m-24.58,2.56l3.8-17.94h-3.09l.55-2.7h3.12l.6-2.93c.3-1.46.63-2.51.95-3.16.33-.64.87-1.17,1.6-1.6.75-.41,1.76-.62,3.04-.62.9,0,2.18.18,3.89.55l-.64,3.08c-1.18-.3-2.2-.45-2.99-.45-.68,0-1.2.17-1.56.51-.35.33-.66,1.14-.93,2.42l-.46,2.21h3.97l-.58,2.7h-3.99l-3.81,17.94h-3.49Zm-24.66,0l4.29-20.65h3.14l-.89,4.22c1.07-1.58,2.11-2.76,3.13-3.52,1.02-.76,2.06-1.15,3.11-1.15.7,0,1.56.26,2.59.75l-1.43,3.26c-.61-.44-1.28-.67-2.01-.67-1.23,0-2.51.7-3.8,2.07-1.29,1.37-2.33,3.84-3.08,7.4l-1.72,8.28h-3.34Zm-8.07-3.74c-2.47,2.78-5.01,4.17-7.6,4.17-1.58,0-2.89-.45-3.85-1.36-.98-.91-1.48-2.02-1.48-3.33,0-.88.25-2.35.72-4.47l2.72-11.92h3.54l-3.01,13.36c-.25,1.11-.38,1.98-.38,2.6,0,.71.24,1.27.72,1.65.48.4,1.19.6,2.12.6,1,0,1.98-.23,2.93-.71.96-.48,1.78-1.12,2.46-1.94.69-.81,1.26-1.77,1.7-2.88.28-.7.62-1.94.99-3.72l1.97-8.97h3.5l-4.56,20.65h-3.25l.76-3.74Zm-32.09-4.45c0,1.94.48,3.41,1.41,4.41.94,1,2.13,1.51,3.57,1.51.76,0,1.51-.16,2.24-.46.74-.3,1.43-.76,2.07-1.38.65-.62,1.18-1.33,1.63-2.13.45-.79.81-1.65,1.09-2.57.41-1.28.6-2.5.6-3.69,0-1.86-.47-3.3-1.41-4.33-.95-1.03-2.14-1.55-3.56-1.55-1.11,0-2.12.27-3.02.8-.92.51-1.74,1.28-2.47,2.29-.74,1.01-1.28,2.18-1.62,3.53-.35,1.34-.52,2.53-.52,3.58m-3.5.35c0-4.02,1.18-7.35,3.54-9.99,1.96-2.17,4.52-3.25,7.7-3.25,2.47,0,4.47.78,6,2.33,1.52,1.55,2.29,3.64,2.29,6.28,0,2.36-.48,4.56-1.43,6.6-.96,2.04-2.33,3.6-4.09,4.68-1.77,1.09-3.62,1.64-5.59,1.64-1.59,0-3.06-.35-4.37-1.04-1.32-.68-2.32-1.65-3.01-2.9-.69-1.26-1.03-2.71-1.03-4.34m-21.84,15.78l.19-3.33c.73.21,1.43.31,2.12.31s1.29-.15,1.73-.49c.58-.41,1.2-1.22,1.87-2.39l1.13-2.01-3.43-20.69h3.46l1.55,10.38c.31,2.05.58,4.09.8,6.15l9.22-16.53h3.65l-13.14,23.35c-1.27,2.28-2.4,3.8-3.38,4.54-.99.74-2.12,1.11-3.4,1.11-.82,0-1.61-.14-2.39-.41"/>
  <path class="cls-1" d="m1498.51,583.59c-2.46-21.34-19.66-33.23-39.84-33.23-28.46,0-45.39,21.33-45.39,48.77s16.93,47.98,45.39,47.98c22.77,0,38.55-14.6,40.62-37.76h-19.66c-1.55,12.29-8.54,20.7-20.96,20.7-18.24,0-25.1-15.53-25.1-30.93,0-16.18,6.86-31.71,25.1-31.71,9.96,0,18.76,6.99,20.18,16.17h19.66Z"/>
  <path class="cls-1" d="m1574.58,615.94c1.42-20.56-9.7-39.7-32.47-39.7-20.31,0-34.14,15.25-34.14,35.31s13.06,35.18,34.14,35.18c15.14,0,26.13-6.59,31.31-22.49h-16.17c-1.17,4.13-7.12,8.67-14.49,8.67-10.35,0-15.91-5.18-16.43-16.96h48.26Zm-48.26-11.63c.39-5.18,3.36-14.25,15.27-14.25,8.93,0,12.94,4.92,14.62,14.25h-29.88Z"/>
  <path class="cls-1" d="m1585.46,644.92h18.35v-35.06c0-13.58,4.27-19.15,14.24-19.15,8.67,0,11.78,5.43,11.78,16.43v37.78h18.36v-41.14c0-16.56-4.91-27.54-24.44-27.54-7.77,0-15.79,3.49-20.45,11.11h-.39v-9.3h-17.45v66.87Z"/>
  <path class="cls-1" d="m1685.44,558h-18.35v20.05h-11.12v12.27h11.12v39.47c0,13.44,9.69,15.9,21.07,15.9,3.62,0,7.63-.13,10.74-.64v-14.35c-1.68.39-3.62.52-5.69.52-6.21,0-7.76-1.55-7.76-7.77v-33.13h13.45v-12.27h-13.45v-20.05Z"/>
  <path class="cls-1" d="m1707.71,644.92h18.36v-30.14c0-11.9,4.53-21.48,18.11-21.48,2.2,0,4.92.26,6.6.65v-17.06c-1.29-.39-2.59-.64-4.01-.64-9.18,0-17.85,5.81-21.34,14.22h-.26s0-12.41,0-12.41h-17.45v66.87Z"/>
  <path class="cls-6" d="m1131.19,445.83c-12.59,0-22.79,10.21-22.79,22.79,0,10.73,7.42,19.71,17.41,22.13.46-3.4,1.23-5.65,1.23-5.65,0,0,.62-3.18,1.24-6.81.62-3.63-2.09-5.04-2.09-5.04-1.77-2.95-3.77-6.95,0-14.15,3.77-7.19,8.25,1.42,8.25,1.42,0,0,2.22,3.42,2.75,4.3.53.88,2.05,6.48.19,8.78-1.86,2.3-2.3,4.24-2.3,4.24,0,0-1.59,7.16-1.59,7.43s-.26,2.29-1.77,4.77c-.31.51-.57.94-.81,1.35.1,0,.19.01.29.01,12.58,0,22.79-10.2,22.79-22.79s-10.21-22.79-22.79-22.79Z"/>
  <path class="cls-3" d="m1128.75,498.62c-.07,5.58,3.29,8.14,4.82,13.01,1.91,6.09-2.52,14.09-3.19,21.54-.57,6.3,1.52,27.17,1.52,27.17-.6-1.84-4.32-18.07-3.87-26.94.26-10.03,5.5-17.02,3.19-21.39-2.32-4.37-4.34-6.19-5.15-10.2-.22-1.08-.37-2.15-.46-3.19h-10.5v146.36h32.19v-146.36h-18.52Z"/>
  <g>
    <g>
      <path class="cls-2" d="m400.64,615.53h18.72c-1.07,11.85-7.94,18.24-20.14,18.24-16.71,0-22.97-14.22-22.97-28.31,0-14.81,6.27-29.02,22.97-29.02,8.89,0,15.64,4.74,17.89,14.21h17.77c-1.9-19.31-18.37-29.85-35.66-29.85-26.06,0-41.58,19.55-41.58,44.66s15.52,43.95,41.58,43.95c8.18,0,16.58-3.08,23.22-11.61l1.9,9.6h11.84v-45.73h-35.54v13.86Z"/>
      <path class="cls-2" d="m504.39,601.9c0-14.68-14.69-17.41-26.89-17.41-13.74,0-27.83,4.86-28.78,20.49h16.82c.59-6.64,4.62-9.24,11.14-9.24,5.92,0,10.9,1.18,10.9,8.29.71,13.74-40.52-1.18-40.75,26.65,0,12.56,9.12,18.36,20.84,18.36,7.58,0,15.28-2.01,20.62-7.58.12,2.01.59,4.03,1.18,5.92h17.06c-1.54-2.49-2.14-8.05-2.14-13.62v-31.87Zm-16.82,21.8c0,3.79-.48,14.09-13.63,14.09-5.44,0-10.3-1.66-10.3-7.82s4.74-8.06,9.95-9c5.2-.95,11.13-1.07,13.98-3.55v6.28Z"/>
      <path class="cls-2" d="m533.64,597.52h-.24v-11.37h-15.99v61.24h16.82v-27.6c0-10.9,4.15-19.66,16.58-19.66,2.01,0,4.5.23,6.05.59v-15.63c-1.18-.35-2.37-.59-3.67-.59-8.41,0-16.35,5.33-19.55,13.03Z"/>
      <path class="cls-2" d="m599.86,584.49c-7.58,0-15.16,2.84-19.31,9.12h-.24v-30.8h-16.82v84.58h16v-7.83h.23c3.67,6.76,11.14,9.48,20.14,9.48,12.2,0,25.35-9.95,25.35-32.34s-13.15-32.22-25.35-32.22Zm-5.81,51.88c-9.95,0-14.33-9.36-14.33-19.55s4.38-19.66,14.33-19.66,14.33,9.24,14.33,19.66-4.38,19.55-14.33,19.55Z"/>
      <path class="cls-2" d="m670.92,584.49c-6.28,0-13.62,3.2-17.89,10.19h-.36v-31.86h-16.82v84.58h16.82v-32.1c0-12.44,3.91-17.54,13.03-17.54,7.94,0,10.79,4.98,10.79,15.05v34.59h16.82v-37.67c0-15.16-4.5-25.23-22.38-25.23Z"/>
      <path class="cls-2" d="m761.05,601.9c0-14.68-14.69-17.41-26.89-17.41-13.74,0-27.83,4.86-28.78,20.49h16.82c.59-6.64,4.62-9.24,11.14-9.24,5.92,0,10.9,1.18,10.9,8.29.71,13.74-40.51-1.18-40.75,26.65,0,12.56,9.12,18.36,20.84,18.36,7.58,0,15.28-2.01,20.61-7.58.12,2.01.59,4.03,1.18,5.92h17.06c-1.54-2.49-2.14-8.05-2.14-13.62v-31.87Zm-16.82,21.8c0,3.79-.48,14.09-13.63,14.09-5.45,0-10.3-1.66-10.3-7.82s4.74-8.06,9.95-9c5.21-.95,11.14-1.07,13.98-3.55v6.28Z"/>
      <path class="cls-2" d="m815.17,615.53h18.71c-1.06,11.85-7.93,18.24-20.14,18.24-16.71,0-22.98-14.22-22.98-28.31,0-14.81,6.28-29.02,22.98-29.02,8.89,0,15.64,4.74,17.89,14.21h17.77c-1.9-19.31-18.36-29.85-35.65-29.85-26.06,0-41.58,19.55-41.58,44.66s15.53,43.95,41.58,43.95c8.18,0,16.58-3.08,23.22-11.61l1.9,9.6h11.84v-45.73h-35.54v13.86Z"/>
      <path class="cls-2" d="m904.6,618.25c0,12.44-3.9,17.53-13.03,17.53-7.94,0-10.79-4.98-10.79-15.05v-34.59h-16.81v37.67c0,15.16,4.5,25.23,22.38,25.23,7.11,0,14.46-3.2,18.72-10.19h.36v8.53h15.99v-61.24h-16.82v32.1Z"/>
      <path class="cls-2" d="m977.08,593.61h-.24c-3.79-6.04-10.89-9.12-18.12-9.12-18,0-27.13,15.28-27.13,31.75s9,32.81,27.49,32.81c7.94,0,14.69-2.84,18.59-9.48h.23v7.83h16v-84.58h-16.82v30.8Zm-13.86,42.76c-10.43,0-14.81-10.07-14.81-19.66s3.79-19.54,14.81-19.54,14.44,9.48,14.44,19.43-3.43,19.78-14.44,19.78Z"/>
      <rect class="cls-2" x="1007.05" y="586.15" width="16.82" height="61.24"/>
      <rect class="cls-2" x="1007.04" y="562.82" width="16.82" height="13.86"/>
    </g>
    <g>
      <path class="cls-2" d="m259.77,374.1c-13.07,13.38-26.16,26.77-39.25,40.15,1.51,1.81,3.02,3.61,4.52,5.42,9.63-9.78,19.25-19.56,28.87-29.33,15.36,18.31,27.46,39.87,37.12,63.87,16.22,40.28,26.74,73.11,14.15,115.86-19.1,64.87-94.58,88.54-148.13,47.23-31.53-24.34-40.27-68.27,1.68-85.53,12.51-5.15,27.55-5.68,44.64-2.43,28.14,7.07,56.46,14.23,84.59,21.31l10.53-24.78c-1.35-.6-3.19-1.31-4.55-1.91-.35,3.24-.35,8.3-4.65,10.24-4.53,2.03-20.88-2.27-26.83-3.59-22.5-5-45.41-13.64-63.78-16.74-17.36-2.94-31.47,1-46.16,10.64-21.77,14.28-34.47,39.33-23.63,69.37,32.6,72.08,149.68,71.86,179.8-12.72,18.7-52.47,4.5-136.45-48.93-207.04Z"/>
      <polygon class="cls-2" points="290.25 385.1 291.56 385.1 291.56 376.38 294.8 376.38 294.8 375.23 287.01 375.23 287.01 376.38 290.25 376.38 290.25 385.1"/>
      <path class="cls-2" d="m297.39,376.69l2.85,8.41h1.18l2.86-8.26v8.26h1.26v-9.87h-1.75l-2.36,6.86c-.24.69-.42,1.23-.53,1.58-.11-.32-.26-.8-.48-1.46l-2.33-6.98h-1.94v9.87h1.25v-8.41Z"/>
      <path class="cls-2" d="m296.28,394.71c4,0,7.64-1.63,10.28-4.27,2.64-2.62,4.26-6.26,4.26-10.28s-1.63-7.66-4.26-10.3c-2.63-2.63-6.27-4.25-10.28-4.25s-7.66,1.62-10.29,4.25c-2.65,2.64-4.28,6.28-4.28,10.3s1.63,7.65,4.28,10.28c2.63,2.64,6.26,4.27,10.29,4.27Zm-9.28-23.82c2.36-2.38,5.64-3.84,9.28-3.84s6.89,1.46,9.26,3.84c2.37,2.37,3.84,5.65,3.84,9.27s-1.47,6.89-3.84,9.27c-2.37,2.37-5.65,3.83-9.26,3.83s-6.92-1.46-9.28-3.83c-2.37-2.37-3.85-5.65-3.85-9.27s1.47-6.9,3.85-9.27Z"/>
    </g>
    <path class="cls-3" d="m190.52,586.69c-1.32-6.53-5.96-9.54-11.25-9.79-12.44-.6-19.12,14.04-17.76,24.81,1.28,10.14,9.39,17.75,24.6,16.18,10.05,6.32,18.11,11.19,27.23,13.51,13.25,3.38,32.33,1.85,38.48-12.53,4.27-9.96-3.01-20.76-14.96-23.97-.38-4.77-.76-9.55-1.14-14.34,3.43-6.53-3.07-10.4-7.29-11.6-2.53-.12-4.3,2.69-3.02,4.49,1.91,2.12,3.7,3.14,4.85,6.2-.49,5.02-4.55,10.69-6.83,15.47-2.71,4.76-2.24,8.79,2.51,11.84,3.73,1.49,5.15,3.3,4.1,5.47-3.49.77-3.93-4.06-8.19-5.69-4.19.27-8.26,4.87-11.82,2.73,1.17-4.32,1.88-8.54,1.36-12.52-.11-3.11-3.84-3.79-5.23-6.6,1.13-1.59,2.46-2.82,1.93-5.69-2.15-2.56-6.56-1.78-6.78-.19.29,1.89.34,4.12,1.11,5.9.92,2.74,1.16,5.32,3.05,7.49-.99,1.51-1.97,3.04-2.96,4.55-.62,1.37-3.13-.59-2.08-2.79,3.35-5.24-.19-10.09-2.48-10.75.15-.91-.33-2.49-.89-3.22-1.9.98-4.25,1.36-6.53,1.03"/>
    <path class="cls-3" d="m266.37,418.64c-2.17,10.38-4.35,20.76-6.53,31.14-.75-5.93-2.37-10.24-4.72-13.22-8.19-10.39-38.39-4.84-49.02-.64-10.46,4.11-19.61,10.74-27.51,19.78-22.84,25.43-37.7,92.55,1.51,106.22,23.32,8.13,62.38-12.13,65.84-39.23,1.51-11.82-2.36-24.15-11.63-32.11,18.63-2.5,29.7,3.87,22.41,31.76-4.5,10.71-10.31,19.52-17.33,26.57-24.23,24.27-83.76,35.47-95.18-5.91-8.77-31.7,5.27-69.99,28.98-92.09,10.85-10.11,24.24-18.19,40.26-24.16,17.23-6.38,34.79-9.76,52.92-8.1"/>
    <g>
      <polygon class="cls-5" points="116 633.36 117.53 632.06 108.77 621.78 107.25 623.08 110.84 627.3 98.47 637.83 100.02 639.65 112.38 629.11 116 633.36"/>
      <polygon class="cls-5" points="127.71 641.6 122.56 647.24 116.04 641.28 121.18 635.64 119.45 634.05 107.14 647.53 108.87 649.13 114.65 642.81 121.17 648.76 115.39 655.08 117.15 656.69 129.47 643.2 127.71 641.6"/>
      <polygon class="cls-5" points="122.75 661.04 131.14 666.98 132.29 665.36 125.82 660.79 129.63 655.41 135.43 659.52 136.55 657.93 130.76 653.82 134.09 649.11 140.22 653.45 141.36 651.84 133.31 646.13 122.75 661.04"/>
      <path class="cls-5" d="m157.86,662.63c1.37.65,2.38,1.49,3.01,2.27l1.34-1.49c-.42-.56-1.51-1.62-3.57-2.6-5.12-2.44-10.28-.6-12.75,4.56-2.57,5.41-.48,10.01,4.18,12.23,2.01.95,3.76,1.31,4.73,1.3l.36-1.9c-1.06,0-2.51-.36-3.8-.97-4.01-1.91-5.11-5.62-3.18-9.65,2.06-4.34,5.81-5.58,9.68-3.74Z"/>
      <path class="cls-5" d="m172.35,666.08c-4.64-1.49-9.24,1.01-11.02,6.53-1.69,5.26.39,9.85,4.97,11.33,4.43,1.43,9.1-.57,11.02-6.55,1.66-5.15-.24-9.78-4.97-11.31Zm2.57,10.65c-1.27,3.94-4.33,6.57-7.89,5.42-3.53-1.13-4.47-5.1-3.28-8.82,1.23-3.82,4.19-6.64,7.9-5.45,3.74,1.21,4.38,5.4,3.27,8.85Z"/>
      <path class="cls-5" d="m182.31,674.04c-.47,2.53,1.05,4.39,3.79,5.97,2.25,1.38,3.03,2.52,2.72,4.19-.34,1.81-1.95,2.81-4.33,2.37-1.59-.3-3.01-1.12-3.93-1.95l-.94,1.84c.84.81,2.64,1.67,4.37,2,4.23.78,6.73-1.23,7.25-4,.5-2.64-.78-4.39-3.6-6.13-2.29-1.42-3.23-2.44-2.93-4.12.23-1.23,1.44-2.52,3.89-2.06,1.63.31,2.72,1.06,3.25,1.48l.99-1.77c-.71-.6-1.96-1.28-3.81-1.62-3.49-.65-6.19.99-6.71,3.79Z"/>
      <path class="cls-5" d="m211.49,672.77l-3.66,8.67c-.92,2.27-1.67,4.23-2.22,6.05h-.07c-.37-1.92-.89-3.95-1.55-6.24l-2.69-8.97-3-.14-2.14,18.18,2.24.11.86-7.8c.3-2.72.57-5.78.74-8.05h.05c.41,2.2,1.03,4.58,1.77,7.2l2.54,8.83,1.79.08,3.64-8.69c1.04-2.48,1.91-4.71,2.64-6.82h.07c-.12,2.27-.11,5.33-.1,7.89l.08,8.03,2.3.12-.27-18.29-3.01-.15Z"/>
      <rect class="cls-5" x="220.61" y="672.33" width="2.36" height="18.26" transform="translate(-46.03 16.74) rotate(-3.92)"/>
      <path class="cls-5" d="m238.31,686.93c-4.38.7-7.38-1.72-8.1-6.14-.76-4.74,1.62-7.89,5.85-8.57,1.5-.24,2.8-.12,3.76.17l.26-2c-.67-.22-2.17-.48-4.42-.11-5.59.9-8.81,5.34-7.9,10.98.95,5.92,5.29,8.51,10.38,7.7,2.19-.36,3.84-1.06,4.62-1.62l-.78-1.77c-.86.61-2.26,1.13-3.68,1.36Z"/>
      <path class="cls-5" d="m266.23,661.3l.97,9.48c.27,2.33.5,4.41.85,6.43l-.05.02c-.93-1.71-2.16-3.57-3.39-5.42l-5.34-7.9-2.3.87.95,9.48c.25,2.43.48,4.66.83,6.47l-.05.02c-.92-1.53-2.18-3.5-3.49-5.44l-5.27-7.9-2.33.87,10.75,15.49,2.31-.86-.89-9.83c-.2-2.44-.44-4.26-.77-6.08l.05-.02c.87,1.64,1.86,3.18,3.21,5.17l5.49,8.1,2.32-.86-1.56-18.93-2.26.85Z"/>
      <path class="cls-5" d="m277.11,655.03c-4.24,2.43-5.46,7.52-2.57,12.54,2.76,4.79,7.56,6.35,11.74,3.94,4.04-2.32,5.69-7.12,2.56-12.57-2.71-4.7-7.41-6.4-11.73-3.91Zm8.33,14.75c-3.22,1.85-6.8-.12-8.74-3.51-2.01-3.47-2.11-7.57,1.28-9.52,3.41-1.97,6.94.38,8.75,3.53,2.07,3.59,1.95,7.63-1.29,9.5Z"/>
      <path class="cls-5" d="m298.21,640.41l3.01,8.92c.81,2.3,1.57,4.27,2.37,5.99l-.06.05c-1.55-1.19-3.3-2.36-5.3-3.63l-7.97-4.92-2.34,1.89,10.47,15.01,1.74-1.41-4.53-6.41c-1.6-2.23-3.41-4.69-4.79-6.5l.04-.03c1.76,1.36,3.81,2.74,6.1,4.19l7.76,4.92,1.39-1.13-3.05-8.92c-.86-2.54-1.7-4.79-2.56-6.85l.06-.05c1.41,1.79,3.45,4.07,5.17,5.96l5.39,5.95,1.8-1.45-12.35-13.5-2.34,1.88Z"/>
      <path class="cls-5" d="m321.68,635.19c-2-1.85-4.43-1.33-5.92-.36l-.05-.04c.8-1.89.46-3.8-.84-4.99-1.04-.97-2.23-1.3-3.39-1.08-1.46.21-2.78,1.04-4.39,2.78-1.12,1.21-2.11,2.51-2.65,3.42l13.17,12.22c.61-.5,1.54-1.34,2.64-2.53,2.02-2.19,3.03-4.07,3.05-5.79-.03-1.28-.48-2.55-1.63-3.62Zm-14.45-.92c.2-.33.56-.84,1.29-1.64,1.63-1.75,3.35-2.37,4.92-.91,1.3,1.2,1.25,3.16-.45,4.98l-1.46,1.57-4.31-4Zm12.16,8.58c-.59.62-1.06,1.1-1.43,1.38l-5.11-4.74,1.33-1.43c1.75-1.89,3.97-2.75,5.79-1.06,1.94,1.81,1.07,4.07-.58,5.85Z"/>
    </g>
    <g>
      <path class="cls-6" d="m771.85,470.6c-.14.42-.25.73-.32.94-.05-.19-.14-.48-.28-.87l-1.39-4.18h-1.17v5.9h.75v-5.03l1.7,5.03h.7l1.72-4.94v4.94h.75v-5.9h-1.05l-1.42,4.1Z"/>
      <path class="cls-6" d="m774.92,463.29c-1.57-1.58-3.75-2.55-6.16-2.55s-4.58.97-6.15,2.55c-1.58,1.58-2.56,3.75-2.56,6.16s.98,4.58,2.56,6.15c1.57,1.57,3.75,2.56,6.15,2.56s4.58-.98,6.16-2.56c1.57-1.57,2.55-3.76,2.55-6.15s-.98-4.58-2.55-6.16Zm-.61,11.7c-1.42,1.42-3.37,2.3-5.55,2.3s-4.13-.87-5.55-2.3c-1.42-1.42-2.3-3.38-2.3-5.54s.88-4.13,2.3-5.55c1.42-1.42,3.38-2.29,5.55-2.29s4.13.87,5.55,2.29c1.42,1.42,2.3,3.38,2.3,5.55s-.88,4.12-2.3,5.54Z"/>
      <polygon class="cls-6" points="763.23 467.19 765.16 467.19 765.16 472.4 765.95 472.4 765.95 467.19 767.89 467.19 767.89 466.5 763.23 466.5 763.23 467.19"/>
      <path class="cls-6" d="m426.22,447.33c-2.2-.17-4.16.25-5.88,1.26-1.71,1.02-2.75,2.5-3.1,4.45-.44,2.65.61,5.49,3.17,8.49,2.74,3.27,4.1,5.63,4.1,7.03,0,3.1-2.11,4.65-6.34,4.65h-52.55c-2.29,0-3.76-.16-4.42-.48-.66-.32-1.61-1.39-2.84-3.22l-.39.53c1.5,2.29,2.16,4.49,1.98,6.6-.09,1.24-.55,2.69-1.39,4.36-.83,1.68-1.21,3.21-1.12,4.62.09,2.91.92,5.28,2.51,7.13l.39-.39c-.53-1.05-.79-1.98-.79-2.77,0-2.2,1.67-3.3,5.02-3.3h8.05c-4.49,1.59-7.94,4.3-10.36,8.14-2.43,3.84-3.64,8.19-3.64,13.05,0,6.09.7,11.3,2.12,15.63,2.19,6.35,5.68,9.53,10.43,9.53,1.31,0,2.99-.75,5.01-2.24,2.02-1.5,3.7-2.24,5.02-2.24,2.9,0,4.53,1.5,4.88,4.49,2.73-3,4.23-4.67,4.49-5.03,1.23-1.77,1.85-3.89,1.85-6.36,0-4.67-1.9-7.46-5.68-8.34-3.52-.26-7-.57-10.43-.93-3.79-1.06-5.68-4.14-5.68-9.27,0-5.38,2.81-9.62,8.45-12.71,4.58-2.47,9.82-3.7,15.71-3.7s11.22,1.28,15.98,3.84c5.72,3.09,8.58,7.33,8.58,12.71,0,4.59-1.85,7.55-5.54,8.87-3.44.62-6.87,1.24-10.3,1.85-3.7.97-5.55,3.48-5.55,7.54,0,2.74.61,5.21,1.85,7.41,1.49,2.74,3.52,4.11,6.07,4.11,1.4,0,3.28-.75,5.61-2.24,2.34-1.5,4.21-2.24,5.61-2.24,3.43,0,5.28,1.5,5.55,4.49,5.55-5.55,8.32-14.35,8.32-26.41,0-5.19-1.81-9.9-5.42-14.13-1.99-2.26-4.39-4.17-7.11-5.81,4.05,0,7.38-1.21,10.02-3.63,2.64-2.42,3.87-5.79,3.69-10.1-.09-1.85-.94-4.49-2.57-7.92-1.63-3.43-2.45-5.9-2.45-7.39,0-2.91,1.19-4.36,3.57-4.36,1.33,0,2.51.66,3.57,1.98-.7-4.66-3.39-7.17-8.05-7.53Z"/>
      <path class="cls-6" d="m472.7,528.8c-1.76,2.32-3.47,4.63-5.15,6.96-2.02,2.76-3.04,5.44-3.04,8.03,0,2.86,1.24,4.54,3.7,5.08.61.09,1.78-.29,3.5-1.11,1.72-.83,2.88-1.3,3.5-1.4.62-.09,1.21.15,1.78.72.58.57.86,1.17.86,1.78,2.02-1.15,3.04-2.9,3.04-5.28,0-2.55-1.01-5.19-3.04-7.92-1.67-2.29-3.38-4.58-5.15-6.87Z"/>
      <path class="cls-6" d="m504.13,447.33c-2.21-.17-4.17.25-5.88,1.26-1.71,1.02-2.75,2.5-3.1,4.45-.44,2.65.62,5.49,3.17,8.49,2.73,3.27,4.09,5.63,4.09,7.03,0,3.1-2.11,4.65-6.34,4.65h-11.88c-3.87,0-6.69-1.23-8.45-3.7l-.39.53c1.41,1.96,2.11,3.74,2.11,5.34,0,1.25-.44,2.98-1.32,5.21-.88,2.23-1.32,3.97-1.32,5.21,0,2.85.84,5.26,2.5,7.21l.4-.41c-.53-1.1-.79-2.01-.79-2.75,0-2.38,2.78-3.57,8.32-3.57,4.22,0,7.92,1.09,11.09,3.28,3.43,2.45,5.15,5.74,5.15,9.85s-1.39,7.1-4.16,9.45c-2.77,2.37-6.18,3.55-10.23,3.55-5.19,0-8.81-.87-10.83-2.61-2.29-1.92-3.26-5.36-2.91-10.33h-1.45v3.79c.09,6.1-3.78,9.15-11.61,9.15-5.82,0-8.73-2.14-8.73-6.43,0-2.1,1.82-3.67,5.48-4.72,5.64-1.75,8.99-2.92,10.04-3.54,3.65-2.1,5.48-5.42,5.48-9.97,0-4.99-1.84-8.74-5.54-11.28-3.17-2.19-7.35-3.28-12.54-3.28s-9.03,1.05-12.28,3.15c-3.7,2.54-5.54,6.13-5.54,10.77,0,4.03,1.32,7.31,3.96,9.85.61-2.64,2.24-3.96,4.89-3.96.7,0,1.85.11,3.43.33,1.59.22,2.78.33,3.57.33,3.08,0,4.97-1.06,5.68-3.17-1.5.53-3,.8-4.49.8-3.08,0-4.62-1.3-4.62-3.91,0-1.73.88-3.12,2.65-4.17,1.49-.95,3.21-1.44,5.15-1.44,5.72,0,8.58,2.16,8.58,6.48,0,3.26-2.49,5.33-7.47,6.2-7.67,1.32-12.29,2.37-13.86,3.17-4.97,2.64-7.45,7.65-7.45,15.05,0,6.34,2.1,11.31,6.31,14.92,3.94,3.35,9.12,5.02,15.52,5.02,3.16,0,7.5-1.19,13.02-3.57,5.53-2.38,9.82-3.56,12.89-3.56,5.27,0,8.55,2.38,9.87,7.13,9.65-4.84,14.47-13.64,14.47-26.41,0-6.34-1.45-11.62-4.36-15.84-1.22-1.79-2.71-3.25-4.34-4.53,2.42-.53,4.54-1.57,6.32-3.2,2.64-2.42,3.87-5.79,3.7-10.1-.09-1.85-.95-4.49-2.57-7.92-1.63-3.43-2.45-5.9-2.45-7.39,0-2.91,1.19-4.36,3.57-4.36,1.33,0,2.51.66,3.57,1.98-.7-4.66-3.39-7.17-8.05-7.53Z"/>
      <path class="cls-6" d="m569.87,476.64c-.18-2.11.49-4.31,1.99-6.6l-.39-.53c-1.24,1.83-2.19,2.9-2.85,3.22-.66.32-2.13.48-4.42.48h-34.99c-4.05,0-7.55,1.47-10.5,4.42-2.95,2.95-4.42,6.45-4.42,10.49,0,6.34,2.51,10.57,7.53,12.67-5.02,3-7.53,7.62-7.53,13.87,0,5.11,1.36,9.37,4.09,12.81,2.73,3.43,6.47,5.15,11.22,5.15,1.93,0,4.38-.86,7.32-2.58,2.95-1.71,5.35-2.57,7.2-2.57,4.4,0,6.82,1.72,7.26,5.15,5.37-4.69,8.05-10.97,8.05-18.84,0-1.95-.13-4.51-.4-7.69-2.19,4.75-8.85,7.13-19.94,7.13-7.75,0-11.67-1.8-11.75-5.41-.09-2.2,1.19-3.57,3.83-4.09.88-.27,3.47-.44,7.79-.53.88,0,1.78.24,2.71.72.92.48,1.39,1.08,1.39,1.78,0,.35-.14.71-.4,1.06l.26.13c.79-.88,1.23-2.07,1.32-3.56,0-.71-.2-1.5-.6-2.38-.39-.88-.63-1.63-.72-2.25-.09-1.15.35-2.29,1.32-3.43l-.27-.27c-1.16,1.68-3.21,2.51-6.16,2.51-7.6,0-11.39-2.02-11.39-6.07,0-1.41.61-2.62,1.85-3.63,1.23-1.02,2.59-1.52,4.1-1.52h32.34c3.7,0,5.55,1.19,5.55,3.56,0,.71-.27,1.54-.8,2.51l.4.4c1.59-1.85,2.42-4.22,2.51-7.13.09-1.41-.29-2.95-1.12-4.62-.84-1.67-1.3-3.12-1.39-4.36Z"/>
      <path class="cls-6" d="m674.95,473.21c-.88,0-2.11.26-3.7.79-1.59.53-2.78.79-3.56.79-3.88,0-7.05-1.76-9.51-5.28l-.4.53c1.41,1.94,2.11,3.74,2.11,5.41,0,1.15-.44,2.82-1.32,5.02-.88,2.2-1.32,3.92-1.32,5.15,0,2.73.84,5.11,2.5,7.13l.4-.39-.66-2.59c0-2.33,2.38-3.49,7.13-3.49,11.09,0,16.63,4.42,16.63,13.27,0,4.29-1.58,7.57-4.75,9.86-2.82,2.1-6.43,3.15-10.82,3.15-8.43,0-13.68-1.9-15.86-5.65,0-.24.02-.45.02-.69,0-5.19-1.81-9.9-5.42-14.13-1.99-2.26-4.39-4.17-7.11-5.81,4.04,0,7.38-1.21,10.02-3.63,2.64-2.42,3.87-5.79,3.7-10.1-.09-1.85-.94-4.49-2.57-7.92-1.63-3.43-2.45-5.9-2.45-7.39,0-2.91,1.19-4.36,3.57-4.36,1.33,0,2.51.66,3.57,1.98-.7-4.66-3.39-7.17-8.05-7.53-2.2-.17-4.16.25-5.87,1.26-1.71,1.02-2.75,2.5-3.11,4.45-.44,2.65.62,5.49,3.17,8.49,2.73,3.27,4.09,5.63,4.09,7.03,0,3.1-2.11,4.65-6.34,4.65h-52.55c-2.29,0-3.76-.16-4.42-.48-.66-.32-1.61-1.39-2.83-3.22l-.4.53c1.5,2.29,2.16,4.49,1.99,6.6-.09,1.24-.55,2.69-1.39,4.36-.84,1.68-1.21,3.21-1.12,4.62.09,2.91.93,5.28,2.51,7.13l.39-.39c-.53-1.05-.79-1.98-.79-2.77,0-2.2,1.67-3.3,5.02-3.3h8.05c-4.48,1.59-7.94,4.3-10.36,8.14-2.42,3.84-3.63,8.19-3.63,13.05,0,6.09.7,11.3,2.12,15.63,2.19,6.35,5.68,9.53,10.43,9.53,1.31,0,2.99-.75,5.02-2.24,2.01-1.5,3.69-2.24,5.01-2.24,2.9,0,4.53,1.5,4.89,4.49,2.72-3,4.22-4.67,4.49-5.03,1.23-1.77,1.85-3.89,1.85-6.36,0-4.67-1.9-7.46-5.68-8.34-3.52-.26-7-.57-10.43-.93-3.78-1.06-5.68-4.14-5.68-9.27,0-5.38,2.81-9.62,8.45-12.71,4.57-2.47,9.81-3.7,15.71-3.7s11.22,1.28,15.98,3.84c5.72,3.09,8.58,7.33,8.58,12.71,0,4.59-1.84,7.55-5.55,8.87-3.43.62-6.86,1.24-10.3,1.85-3.7.97-5.55,3.48-5.55,7.54,0,2.74.61,5.21,1.85,7.41,1.5,2.74,3.52,4.11,6.07,4.11,1.41,0,3.28-.75,5.61-2.24,2.33-1.5,4.2-2.24,5.61-2.24,3.43,0,5.28,1.5,5.55,4.49,2.49-2.48,4.38-5.66,5.76-9.45.11.27.19.57.31.83,2.56,5.75,6.61,8.62,12.15,8.62,1.5,0,3.43-.86,5.81-2.57,2.38-1.72,4.31-2.57,5.81-2.57,3.96,0,6.12,1.71,6.47,5.15,5.81-5.65,8.71-15.39,8.71-29.25,0-6.97-.75-13.01-2.24-18.12-2.3-8.03-6.08-12.04-11.36-12.04Z"/>
      <path class="cls-6" d="m760.25,490.82c-1.41-8.12-5.28-14.42-11.63-18.92-5.89-4.23-13.11-6.35-21.64-6.35-5.64,0-10.65.92-15.05,2.78-5.9,2.46-8.85,6.08-8.85,10.84,0,4.15,1.27,7.23,3.83,9.26-8.71,4.06-13.07,10.72-13.07,19.98,0,6.44,2.02,11.99,6.07,16.67,4.31,5.02,9.59,7.54,15.84,7.54,3.17,0,7.53-1.19,13.07-3.56,5.55-2.38,9.9-3.57,13.07-3.57,5.19,0,8.45,2.38,9.77,7.13,9.68-4.85,14.53-13.23,14.53-25.14,0-7.94-1.99-13.49-5.94-16.67Zm-7.2,2.99c.92.97,1.38,2.11,1.38,3.44s-.46,2.46-1.38,3.43c-.92.97-2.05,1.46-3.37,1.46s-2.44-.48-3.37-1.46c-.92-.97-1.39-2.11-1.39-3.43s.46-2.47,1.39-3.44c.93-.97,2.05-1.45,3.37-1.45s2.44.49,3.37,1.45Zm-32.95-18.88c1.67-1.23,3.57-1.84,5.68-1.84,1.84,0,3.49.61,4.95,1.84,1.45,1.24,2.17,2.78,2.17,4.62s-.77,3.43-2.31,4.75c-1.54,1.32-3.24,1.98-5.09,1.98-2.11,0-3.95-.57-5.54-1.72-1.58-1.14-2.38-2.73-2.38-4.75s.84-3.65,2.51-4.89Zm24.56,37.5c-9.33,0-13.95-3.44-13.86-10.3h-1.32c0,3.21-1.1,5.73-3.3,7.55-2.2,1.83-4.93,2.74-8.19,2.74-7.92,0-11.89-3.41-11.89-10.24,0-4.2,1.94-7.96,5.82-11.28,3.07,1.24,6.02,1.85,8.84,1.85,4.93,0,9.15-1.01,12.67-3.02,4.22-2.36,6.34-5.86,6.34-10.49,0-2.18-.66-4.2-1.98-6.03,7.13.61,11.97,5.76,14.52,15.45-1.24-.88-2.86-1.32-4.89-1.32-3.87,0-7.13.84-9.77,2.51-3.16,2.02-4.76,4.84-4.76,8.44,0,3.26,1.37,5.97,4.1,8.12,2.73,2.16,5.77,3.23,9.11,3.23,4.58,0,8.32-1.63,11.22-4.89-2.03,5.11-6.25,7.66-12.68,7.66Z"/>
    </g>
  </g>
</svg>
