<?xml version="1.0" encoding="UTF-8"?>
<svg id="Layer_1" data-name="Layer 1" xmlns="http://www.w3.org/2000/svg" viewBox="0 0 1920 1080">
  <defs>
    <style>
      .cls-1 {
        fill: #b47aa5;
      }

      .cls-1, .cls-2, .cls-3, .cls-4, .cls-5, .cls-6 {
        stroke-width: 0px;
      }

      .cls-2, .cls-3 {
        fill: #58595b;
      }

      .cls-2, .cls-4 {
        fill-rule: evenodd;
      }

      .cls-4, .cls-6 {
        fill: #ee3f65;
      }

      .cls-5 {
        fill: #5a595c;
      }
    </style>
  </defs>
  <path class="cls-3" d="m1272,1010.56l.85-4h3.99l-.86,4h-3.98Zm-11.1,0l.84-4h4l-.86,4h-3.98Zm-11.1,0l.84-4h3.99l-.86,4h-3.97Zm-18.27-12.24h11.68c.02-.35.03-.61.03-.77,0-1.76-.45-3.12-1.33-4.05-.9-.93-2.04-1.41-3.43-1.41-1.52,0-2.91.52-4.15,1.56-1.25,1.04-2.17,2.59-2.8,4.67m10.32,5.2l3.43.32c-.49,1.71-1.63,3.31-3.42,4.86-1.78,1.53-3.9,2.3-6.36,2.3-1.54,0-2.95-.36-4.23-1.07-1.29-.71-2.27-1.72-2.94-3.08-.67-1.36-1-2.89-1-4.62,0-2.26.52-4.45,1.57-6.57,1.05-2.13,2.41-3.7,4.07-4.74,1.68-1.03,3.48-1.54,5.42-1.54,2.48,0,4.46.76,5.93,2.3,1.48,1.53,2.22,3.62,2.22,6.26,0,1.01-.09,2.05-.27,3.1h-15.31c-.05.41-.08.77-.08,1.09,0,1.95.44,3.42,1.33,4.45.9,1.02,2,1.53,3.3,1.53,1.2,0,2.41-.39,3.58-1.18,1.18-.78,2.09-1.92,2.74-3.41m-20.94-.51l3.56.35c-.89,2.59-2.14,4.51-3.78,5.76-1.63,1.25-3.49,1.88-5.57,1.88-2.27,0-4.09-.73-5.5-2.19-1.39-1.45-2.1-3.48-2.1-6.09,0-2.26.45-4.48,1.34-6.66.9-2.18,2.19-3.85,3.86-4.98,1.68-1.14,3.59-1.7,5.74-1.7s3.98.63,5.29,1.88c1.29,1.26,1.95,2.93,1.95,5l-3.48.24c-.01-1.31-.39-2.34-1.14-3.09-.75-.74-1.75-1.11-2.97-1.11-1.42,0-2.65.45-3.69,1.35-1.04.89-1.86,2.25-2.45,4.07-.6,1.83-.89,3.59-.89,5.27s.39,3.08,1.17,3.96c.78.88,1.74,1.33,2.88,1.33s2.24-.44,3.3-1.31c1.04-.86,1.87-2.19,2.47-3.96m-21.22-2.97c-.5.2-1.04.36-1.61.46-.56.1-1.52.21-2.85.33-2.06.17-3.5.41-4.35.7-.84.27-1.49.73-1.91,1.33-.43.62-.64,1.29-.64,2.03,0,.99.34,1.8,1.02,2.43.68.64,1.65.96,2.92.96,1.16,0,2.29-.31,3.36-.93,1.09-.62,1.94-1.47,2.57-2.58.63-1.11,1.12-2.68,1.47-4.73m-1.33,7.95c-1.24,1.05-2.41,1.81-3.53,2.29-1.13.48-2.33.73-3.63.73-1.91,0-3.45-.56-4.63-1.69-1.16-1.12-1.75-2.55-1.75-4.31,0-1.16.27-2.18.78-3.07.53-.89,1.23-1.59,2.09-2.13.87-.54,1.93-.93,3.2-1.16.8-.16,2.3-.29,4.54-.38,2.22-.1,3.82-.32,4.78-.7.28-.96.42-1.77.42-2.4,0-.82-.29-1.46-.9-1.93-.83-.64-2.02-.97-3.61-.97-1.49,0-2.71.33-3.66.98-.94.67-1.63,1.6-2.06,2.81l-3.57-.31c.73-2.05,1.88-3.63,3.46-4.71,1.58-1.1,3.57-1.64,5.98-1.64,2.55,0,4.58.61,6.08,1.83,1.13.92,1.71,2.1,1.71,3.55,0,1.09-.16,2.38-.48,3.84l-1.13,5.15c-.37,1.63-.54,2.96-.54,3.99,0,.65.13,1.59.42,2.81h-3.57c-.19-.68-.34-1.54-.42-2.57m-27.25,2.57l4.32-20.74h3.15l-.9,4.24c1.08-1.59,2.13-2.77,3.15-3.53,1.02-.77,2.06-1.15,3.13-1.15.7,0,1.57.26,2.58.75l-1.43,3.28c-.61-.45-1.28-.68-2.01-.68-1.24,0-2.52.7-3.82,2.08-1.3,1.38-2.34,3.86-3.08,7.44l-1.74,8.31h-3.35Zm-18.03-9.16c0,1.41.14,2.47.41,3.19.39,1,.95,1.77,1.68,2.29.72.53,1.53.8,2.42.8,1.16,0,2.31-.4,3.45-1.22,1.16-.81,2.09-2.07,2.8-3.77.71-1.71,1.07-3.34,1.07-4.89,0-1.7-.47-3.05-1.42-4.07-.94-1.01-2.11-1.51-3.52-1.51-.85,0-1.69.23-2.5.7-.81.45-1.56,1.16-2.26,2.1-.7.94-1.23,2.08-1.58,3.38-.35,1.33-.54,2.31-.54,3m-4.45,11.04l3.61.32c-.03.81.07,1.42.29,1.83.22.42.58.72,1.05.94.64.29,1.46.43,2.47.43,2.13,0,3.66-.55,4.6-1.65.61-.74,1.17-2.36,1.7-4.85l.35-1.67c-1.83,1.86-3.78,2.79-5.85,2.79s-3.84-.77-5.24-2.31c-1.42-1.54-2.12-3.72-2.12-6.54,0-2.34.54-4.47,1.66-6.42,1.11-1.96,2.42-3.43,3.96-4.42,1.53-.99,3.1-1.49,4.73-1.49,2.71,0,4.8,1.26,6.28,3.8l.73-3.36h3.27l-4.21,20.01c-.46,2.21-1.06,3.91-1.79,5.16-.75,1.23-1.77,2.19-3.09,2.85-1.32.68-2.85,1.02-4.57,1.02s-3.1-.22-4.3-.65c-1.2-.43-2.1-1.06-2.69-1.88-.6-.84-.89-1.78-.89-2.85,0-.32.03-.67.07-1.05m-36.07-11.11l3.76-.36-.04,1c0,1.11.25,2.12.75,3.03.5.91,1.34,1.63,2.52,2.13,1.16.5,2.55.75,4.16.75,2.28,0,4.02-.5,5.23-1.5,1.2-1.01,1.81-2.15,1.81-3.45,0-.91-.33-1.73-.96-2.46-.65-.73-2.43-1.72-5.33-2.96-2.24-.98-3.77-1.72-4.59-2.25-1.28-.85-2.23-1.76-2.84-2.76-.61-.99-.92-2.12-.92-3.4,0-1.46.4-2.8,1.21-3.98.8-1.2,1.98-2.1,3.53-2.7,1.55-.63,3.3-.95,5.26-.95,2.33,0,4.3.38,5.89,1.16,1.6.79,2.76,1.83,3.48,3.11.73,1.31,1.08,2.55,1.08,3.74v.58l-3.71.29c0-.82-.08-1.44-.23-1.9-.25-.79-.65-1.46-1.2-2-.56-.55-1.3-.99-2.24-1.33-.96-.33-2.02-.5-3.21-.5-2.08,0-3.68.47-4.84,1.41-.89.71-1.33,1.67-1.33,2.85,0,.7.18,1.34.54,1.89.36.55,1.02,1.09,1.96,1.63.67.38,2.29,1.12,4.8,2.24,2.06.91,3.46,1.63,4.25,2.14,1.04.7,1.83,1.53,2.38,2.51.57.98.85,2.1.85,3.35,0,1.55-.48,2.98-1.42,4.27-.95,1.31-2.25,2.32-3.91,3.03-1.67.71-3.57,1.07-5.72,1.07-3.24,0-5.87-.7-7.92-2.11-2.05-1.41-3.09-3.94-3.1-7.6m-11.58,9.23l5.99-28.61h3.8l-5.99,28.61h-3.8Zm-29.45,0l5.99-28.61h3.79l-2.5,11.91h14.91l2.49-11.91h3.8l-6,28.61h-3.79l2.81-13.47h-14.91l-2.81,13.47h-3.79Zm-21.6,0l.83-4h4l-.87,4h-3.96Zm-11.11,0l.84-4h3.99l-.86,4h-3.97Zm-11.1,0l.85-4h3.99l-.86,4h-3.97Zm-20.62-7.12l3.56-.2c0,1.01.15,1.88.47,2.6.31.71.87,1.3,1.71,1.75.84.46,1.81.69,2.92.69,1.55,0,2.71-.32,3.49-.94.78-.63,1.16-1.37,1.16-2.21,0-.61-.24-1.18-.69-1.73-.47-.55-1.64-1.23-3.49-2.02-1.86-.79-3.04-1.34-3.56-1.68-.87-.53-1.53-1.15-1.97-1.88-.45-.73-.67-1.55-.67-2.49,0-1.62.64-3.02,1.94-4.2,1.3-1.17,3.11-1.75,5.44-1.75,2.6,0,4.58.59,5.92,1.8,1.36,1.2,2.05,2.79,2.12,4.75l-3.44.24c-.06-1.25-.49-2.25-1.31-2.98-.83-.73-1.99-1.1-3.5-1.1-1.23,0-2.17.28-2.84.84-.68.57-1.01,1.17-1.01,1.83s.29,1.23.87,1.71c.39.34,1.38.86,3,1.56,2.7,1.16,4.38,2.08,5.08,2.76,1.13,1.07,1.68,2.38,1.68,3.93,0,1.03-.32,2.04-.95,3.02-.63.99-1.58,1.77-2.87,2.37-1.29.58-2.81.89-4.55.89-2.38,0-4.43-.6-6.09-1.79-1.68-1.18-2.47-3.1-2.4-5.77m-3.2,4.25l-.58,2.89c-.86.21-1.67.33-2.46.33-1.41,0-2.52-.35-3.35-1.03-.62-.53-.93-1.24-.93-2.14,0-.45.17-1.51.51-3.14l2.52-12.07h-2.8l.56-2.71h2.8l1.06-5.09,4.05-2.42-1.6,7.51h3.48l-.6,2.71h-3.43l-2.4,11.47c-.29,1.45-.45,2.33-.45,2.62,0,.41.13.73.36.95.24.23.64.34,1.18.34.77,0,1.49-.08,2.09-.23m-21.52,2.87l4.31-20.74h3.15l-.89,4.24c1.08-1.59,2.12-2.77,3.14-3.53,1.02-.77,2.07-1.15,3.14-1.15.7,0,1.56.26,2.59.75l-1.44,3.28c-.61-.45-1.28-.68-2.01-.68-1.24,0-2.51.7-3.82,2.08-1.31,1.38-2.33,3.86-3.09,7.44l-1.73,8.31h-3.35Zm-18.11-8.22c0,1.95.47,3.42,1.41,4.43.93,1,2.14,1.52,3.59,1.52.77,0,1.51-.16,2.25-.46.75-.31,1.44-.77,2.08-1.39.66-.63,1.2-1.34,1.65-2.14.45-.79.81-1.65,1.09-2.58.4-1.29.6-2.51.6-3.71,0-1.87-.47-3.31-1.42-4.35-.96-1.03-2.15-1.56-3.58-1.56-1.12,0-2.13.27-3.04.8-.92.52-1.75,1.29-2.49,2.3-.74,1.02-1.28,2.19-1.62,3.54-.35,1.34-.52,2.54-.52,3.6m-3.52.35c0-4.04,1.18-7.38,3.57-10.04,1.96-2.18,4.53-3.27,7.73-3.27,2.48,0,4.5.78,6.03,2.34,1.52,1.56,2.29,3.66,2.29,6.31,0,2.37-.48,4.58-1.44,6.63-.96,2.05-2.33,3.62-4.11,4.7-1.78,1.1-3.65,1.64-5.61,1.64-1.6,0-3.07-.36-4.38-1.04-1.33-.68-2.33-1.66-3.03-2.91-.7-1.26-1.05-2.72-1.05-4.36m-11.35,7.88l3.83-18.03h-3.11l.56-2.71h3.13l.61-2.94c.3-1.46.63-2.52.96-3.18.34-.64.87-1.18,1.61-1.6.75-.42,1.77-.63,3.05-.63.9,0,2.2.18,3.9.56l-.65,3.09c-1.19-.3-2.2-.45-3-.45-.68,0-1.21.17-1.57.51-.36.34-.68,1.15-.93,2.43l-.47,2.22h3.98l-.56,2.71h-4.01l-3.82,18.03h-3.52Zm-11.09,0l3.82-18.03h-3.12l.57-2.71h3.13l.61-2.94c.31-1.46.63-2.52.96-3.18.34-.64.86-1.18,1.61-1.6.76-.42,1.77-.63,3.06-.63.89,0,2.19.18,3.9.56l-.64,3.09c-1.2-.3-2.2-.45-3-.45-.69,0-1.21.17-1.57.51-.35.34-.66,1.15-.93,2.43l-.46,2.22h3.98l-.56,2.71h-4l-3.84,18.03h-3.51Zm-17.67-12.24h11.69c0-.35.02-.61.02-.77,0-1.76-.45-3.12-1.33-4.05-.89-.93-2.04-1.41-3.44-1.41-1.52,0-2.9.52-4.14,1.56-1.25,1.04-2.18,2.59-2.8,4.67m10.32,5.2l3.44.32c-.5,1.71-1.64,3.31-3.42,4.86-1.78,1.53-3.9,2.3-6.36,2.3-1.54,0-2.96-.36-4.24-1.07-1.28-.71-2.27-1.72-2.93-3.08-.67-1.36-1.01-2.89-1.01-4.62,0-2.26.53-4.45,1.58-6.57,1.05-2.13,2.41-3.7,4.07-4.74,1.67-1.03,3.48-1.54,5.42-1.54,2.48,0,4.44.76,5.93,2.3,1.49,1.53,2.22,3.62,2.22,6.26,0,1.01-.09,2.05-.27,3.1h-15.31c-.05.41-.07.77-.07,1.09,0,1.95.44,3.42,1.34,4.45.89,1.02,1.99,1.53,3.28,1.53,1.21,0,2.41-.39,3.59-1.18,1.17-.78,2.09-1.92,2.75-3.41m-39.65,7.04l4.32-20.74h3.15l-.89,4.24c1.08-1.59,2.12-2.77,3.15-3.53,1.01-.77,2.06-1.15,3.12-1.15.7,0,1.56.26,2.59.75l-1.44,3.28c-.62-.45-1.28-.68-2.01-.68-1.23,0-2.52.7-3.82,2.08-1.31,1.38-2.33,3.86-3.09,7.44l-1.73,8.31h-3.37Zm-8.09-3.75c-2.48,2.79-5.04,4.19-7.65,4.19-1.59,0-2.88-.45-3.87-1.37-.98-.91-1.48-2.03-1.48-3.35,0-.88.25-2.36.73-4.5l2.72-11.97h3.56l-3.02,13.42c-.25,1.12-.37,1.99-.37,2.61,0,.71.24,1.28.72,1.66.49.41,1.2.6,2.14.6,1,0,1.98-.23,2.94-.71.95-.48,1.78-1.13,2.48-1.95.68-.81,1.26-1.78,1.7-2.89.29-.7.63-1.95,1.01-3.73l1.97-9.01h3.51l-4.58,20.74h-3.26l.77-3.75Zm-32.23-4.47c0,1.95.47,3.42,1.41,4.43.94,1,2.14,1.52,3.59,1.52.76,0,1.5-.16,2.25-.46.74-.31,1.44-.77,2.08-1.39.65-.63,1.2-1.34,1.65-2.14.45-.79.81-1.65,1.08-2.58.41-1.29.61-2.51.61-3.71,0-1.87-.48-3.31-1.41-4.35-.96-1.03-2.15-1.56-3.59-1.56-1.11,0-2.12.27-3.03.8-.92.52-1.75,1.29-2.48,2.3-.75,1.02-1.28,2.19-1.64,3.54-.34,1.34-.51,2.54-.51,3.6m-3.52.35c0-4.04,1.2-7.38,3.57-10.04,1.96-2.18,4.53-3.27,7.72-3.27,2.49,0,4.5.78,6.03,2.34,1.53,1.56,2.3,3.66,2.3,6.31,0,2.37-.49,4.58-1.45,6.63-.95,2.05-2.33,3.62-4.09,4.7-1.78,1.1-3.65,1.64-5.61,1.64-1.62,0-3.07-.36-4.4-1.04-1.33-.68-2.33-1.66-3.03-2.91-.68-1.26-1.04-2.72-1.04-4.36m-21.84,7.88l.83-4h4.01l-.86,4h-3.98Zm-11.1,0l.83-4h4l-.86,4h-3.97Zm-11.11,0l.84-4h3.99l-.85,4h-3.98Zm-23.18,0l6-28.61h3.51l-2.3,10.99c1.29-1.27,2.5-2.18,3.61-2.74,1.12-.55,2.26-.82,3.44-.82,1.69,0,3,.45,3.94,1.36.93.9,1.4,2.09,1.4,3.58,0,.73-.22,2.06-.66,4.01l-2.7,12.24h-3.52l2.77-12.53c.39-1.82.59-2.97.59-3.43,0-.68-.23-1.24-.69-1.66-.46-.43-1.12-.64-1.99-.64-1.25,0-2.45.34-3.58,1-1.13.67-2.02,1.58-2.67,2.74-.64,1.15-1.23,3.04-1.76,5.62l-1.87,8.89h-3.51Zm-2.88-2.87l-.59,2.89c-.84.21-1.66.33-2.45.33-1.41,0-2.52-.35-3.35-1.03-.62-.53-.93-1.24-.93-2.14,0-.45.17-1.51.5-3.14l2.52-12.07h-2.8l.57-2.71h2.79l1.07-5.09,4.05-2.42-1.6,7.51h3.48l-.61,2.71h-3.44l-2.39,11.47c-.3,1.45-.44,2.33-.44,2.62,0,.41.12.73.36.95.23.23.63.34,1.17.34.79,0,1.49-.08,2.1-.23m-17.17,2.87l4.35-20.74h3.49l-4.33,20.74h-3.51Zm5.15-24.61l.85-4h3.51l-.84,4h-3.51Zm-12.02,14.09c-.5.2-1.04.36-1.6.46-.57.1-1.52.21-2.85.33-2.04.17-3.49.41-4.34.7-.85.27-1.49.73-1.91,1.33-.43.62-.65,1.29-.65,2.03,0,.99.35,1.8,1.02,2.43.68.64,1.66.96,2.91.96,1.17,0,2.3-.31,3.38-.93,1.08-.62,1.93-1.47,2.57-2.58.63-1.11,1.12-2.68,1.47-4.73m-1.32,7.95c-1.23,1.05-2.41,1.81-3.54,2.29-1.14.48-2.34.73-3.64.73-1.91,0-3.44-.56-4.62-1.69-1.17-1.12-1.75-2.55-1.75-4.31,0-1.16.27-2.18.8-3.07.52-.89,1.23-1.59,2.08-2.13.89-.54,1.95-.93,3.22-1.16.79-.16,2.31-.29,4.53-.38,2.23-.1,3.82-.32,4.79-.7.27-.96.41-1.77.41-2.4,0-.82-.3-1.46-.9-1.93-.82-.64-2.03-.97-3.61-.97-1.49,0-2.7.33-3.65.98-.95.67-1.63,1.6-2.06,2.81l-3.56-.31c.72-2.05,1.87-3.63,3.45-4.71,1.58-1.1,3.57-1.64,5.98-1.64,2.56,0,4.58.61,6.08,1.83,1.14.92,1.71,2.1,1.71,3.55,0,1.09-.17,2.38-.48,3.84l-1.14,5.15c-.37,1.63-.54,2.96-.54,3.99,0,.65.14,1.59.43,2.81h-3.57c-.19-.68-.34-1.54-.41-2.57m-24.69,2.57l3.82-18.03h-3.1l.56-2.71h3.14l.61-2.94c.3-1.46.63-2.52.95-3.18.34-.64.87-1.18,1.61-1.6.75-.42,1.77-.63,3.05-.63.91,0,2.19.18,3.9.56l-.65,3.09c-1.18-.3-2.21-.45-3-.45-.68,0-1.21.17-1.57.51-.35.34-.66,1.15-.93,2.43l-.46,2.22h3.99l-.58,2.71h-4l-3.83,18.03h-3.51Zm-24.77,0l4.31-20.74h3.16l-.89,4.24c1.07-1.59,2.12-2.77,3.15-3.53,1.02-.77,2.07-1.15,3.13-1.15.7,0,1.57.26,2.6.75l-1.44,3.28c-.61-.45-1.29-.68-2.02-.68-1.23,0-2.52.7-3.82,2.08-1.3,1.38-2.34,3.86-3.09,7.44l-1.73,8.31h-3.35Zm-8.1-3.75c-2.48,2.79-5.03,4.19-7.64,4.19-1.59,0-2.9-.45-3.87-1.37-.99-.91-1.48-2.03-1.48-3.35,0-.88.24-2.36.72-4.5l2.73-11.97h3.55l-3.02,13.42c-.25,1.12-.38,1.99-.38,2.61,0,.71.24,1.28.72,1.66.49.41,1.2.6,2.13.6,1.01,0,1.99-.23,2.94-.71.96-.48,1.78-1.13,2.48-1.95.69-.81,1.26-1.78,1.7-2.89.29-.7.63-1.95,1-3.73l1.98-9.01h3.51l-4.58,20.74h-3.27l.77-3.75Zm-32.23-4.47c0,1.95.48,3.42,1.41,4.43.94,1,2.14,1.52,3.58,1.52.76,0,1.51-.16,2.26-.46.74-.31,1.44-.77,2.08-1.39.65-.63,1.19-1.34,1.64-2.14.45-.79.82-1.65,1.09-2.58.41-1.29.6-2.51.6-3.71,0-1.87-.47-3.31-1.42-4.35-.96-1.03-2.15-1.56-3.58-1.56-1.11,0-2.13.27-3.04.8-.92.52-1.75,1.29-2.48,2.3-.75,1.02-1.29,2.19-1.63,3.54-.35,1.34-.53,2.54-.53,3.6m-3.51.35c0-4.04,1.19-7.38,3.56-10.04,1.97-2.18,4.54-3.27,7.74-3.27,2.48,0,4.49.78,6.03,2.34,1.53,1.56,2.3,3.66,2.3,6.31,0,2.37-.48,4.58-1.44,6.63-.97,2.05-2.34,3.62-4.11,4.7-1.78,1.1-3.64,1.64-5.61,1.64-1.6,0-3.07-.36-4.39-1.04-1.33-.68-2.33-1.66-3.02-2.91-.7-1.26-1.04-2.72-1.04-4.36m-21.94,15.85l.2-3.34c.73.21,1.44.32,2.13.32.73,0,1.29-.16,1.74-.49.58-.42,1.21-1.23,1.88-2.4l1.13-2.02-3.45-20.78h3.47l1.56,10.42c.31,2.06.58,4.11.8,6.18l9.26-16.6h3.67l-13.2,23.45c-1.27,2.29-2.41,3.81-3.39,4.56-1,.74-2.13,1.12-3.41,1.12-.82,0-1.62-.14-2.4-.41"/>
  <g>
    <polygon class="cls-6" points="761.51 842.5 834.25 842.5 834.25 861.63 784.26 861.63 784.26 885.53 827.58 885.53 827.58 903.21 784.26 903.21 784.26 945.95 761.51 945.95 761.51 842.5"/>
    <polygon class="cls-6" points="718.14 945.95 692.49 945.95 658.87 842.5 682.35 842.5 705.38 915.24 705.67 915.24 729 842.5 752.47 842.5 718.14 945.95"/>
    <path class="cls-1" d="m952.83,880.71c-2.58-22.43-20.66-34.92-41.87-34.92-29.91,0-47.7,22.42-47.7,51.24s17.8,50.43,47.7,50.43c23.93,0,40.51-15.35,42.69-39.68h-20.66c-1.63,12.91-8.97,21.75-22.02,21.75-19.17,0-26.38-16.31-26.38-32.5,0-17,7.2-33.32,26.38-33.32,10.47,0,19.71,7.34,21.21,16.99h20.66Z"/>
    <path class="cls-1" d="m1032.77,914.7c1.5-21.61-10.19-41.72-34.12-41.72-21.34,0-35.87,16.03-35.87,37.1s13.72,36.97,35.87,36.97c15.91,0,27.46-6.93,32.9-23.64h-16.99c-1.22,4.35-7.48,9.11-15.23,9.11-10.87,0-16.72-5.44-17.27-17.83h50.71Zm-50.71-12.22c.41-5.44,3.54-14.97,16.04-14.97,9.38,0,13.6,5.17,15.36,14.97h-31.41Z"/>
    <path class="cls-1" d="m1044.21,945.15h19.29v-36.84c0-14.28,4.49-20.12,14.96-20.12,9.11,0,12.38,5.71,12.38,17.27v39.7h19.29v-43.23c0-17.4-5.16-28.94-25.68-28.94-8.16,0-16.59,3.67-21.49,11.67h-.41v-9.77h-18.34v70.27Z"/>
    <path class="cls-1" d="m1149.28,853.81h-19.29v21.07h-11.69v12.9h11.69v41.48c0,14.13,10.19,16.71,22.14,16.71,3.81,0,8.02-.14,11.28-.68v-15.07c-1.77.41-3.8.54-5.98.54-6.53,0-8.16-1.63-8.16-8.16v-34.82h14.14v-12.9h-14.14v-21.07Z"/>
    <path class="cls-1" d="m1172.68,945.15h19.29v-31.67c0-12.51,4.76-22.57,19.03-22.57,2.31,0,5.17.27,6.93.68v-17.93c-1.36-.41-2.72-.68-4.22-.68-9.65,0-18.76,6.11-22.43,14.94h-.27s0-13.04,0-13.04h-18.34v70.27Z"/>
    <path class="cls-1" d="m1292.16,914.7c1.5-21.61-10.2-41.72-34.12-41.72-21.34,0-35.87,16.03-35.87,37.1s13.72,36.97,35.87,36.97c15.91,0,27.46-6.93,32.9-23.64h-16.99c-1.22,4.35-7.48,9.11-15.23,9.11-10.88,0-16.72-5.44-17.27-17.83h50.71Zm-50.71-12.22c.41-5.44,3.54-14.97,16.04-14.97,9.38,0,13.6,5.17,15.36,14.97h-31.41Z"/>
    <path class="cls-6" d="m638.55,805.19c-8.9,0-16.11,7.22-16.11,16.11,0,7.59,5.26,13.9,12.32,15.62.33-2.38.86-3.97.86-3.97,0,0,.44-2.25.88-4.81.44-2.56-1.48-3.56-1.48-3.56-1.25-2.08-2.66-4.92,0-10,2.67-5.08,5.83,1,5.83,1,0,0,1.57,2.41,1.95,3.04.37.63,1.45,4.58.14,6.21-1.31,1.63-1.62,3-1.62,3,0,0-1.12,5.06-1.12,5.25s-.18,1.62-1.25,3.37c-.22.36-.4.66-.57.94.07,0,.13.02.19.02,8.89,0,16.11-7.21,16.11-16.11s-7.22-16.11-16.11-16.11Z"/>
    <path class="cls-4" d="m636.84,842.5c-.05,3.95,2.33,5.76,3.41,9.2,1.35,4.31-1.78,9.96-2.26,15.23-.4,4.45,1.07,19.2,1.07,19.2-.43-1.3-3.05-12.78-2.74-19.04.18-7.09,3.89-12.03,2.25-15.12-1.64-3.09-3.07-4.37-3.64-7.21-.15-.76-.26-1.52-.33-2.26h-7.43v103.45h22.75v-103.45h-13.09Z"/>
  </g>
  <g>
    <g>
      <path class="cls-3" d="m626.49,764.11c-8.25,10.6-18.7,14.43-28.86,14.43-32.39,0-51.68-24.29-51.68-54.62s19.29-55.51,51.68-55.51c21.5,0,41.96,13.1,44.33,37.1h-22.09c-2.8-11.78-11.19-17.67-22.24-17.67-20.76,0-28.56,17.67-28.56,36.07s7.79,35.19,28.56,35.19c15.17,0,23.71-7.95,25.03-22.68h-23.27v-17.22h44.17v56.84h-14.72l-2.36-11.93Z"/>
      <path class="cls-3" d="m659.16,723.33c1.18-19.43,18.7-25.47,35.78-25.47,15.16,0,33.42,3.39,33.42,21.64v39.61c0,6.93.74,13.84,2.65,16.93h-21.2c-.74-2.35-1.33-4.86-1.47-7.36-6.63,6.92-16.2,9.42-25.63,9.42-14.57,0-25.91-7.21-25.91-22.82.3-34.6,51.54-16.05,50.65-33.13,0-8.83-6.19-10.3-13.55-10.3-8.1,0-13.11,3.23-13.84,11.48h-20.9Zm48.3,15.46c-3.54,3.09-10.91,3.24-17.37,4.42-6.48,1.17-12.37,3.53-12.37,11.19s6.04,9.72,12.8,9.72c16.34,0,16.94-12.81,16.94-17.52v-7.81Z"/>
      <path class="cls-3" d="m744.55,699.92h19.87v14.13h.3c3.98-9.57,13.84-16.2,24.3-16.2,1.62,0,3.1.3,4.57.74v19.43c-1.92-.44-5.01-.73-7.51-.73-15.46,0-20.61,10.89-20.61,24.44v34.31h-20.9v-76.12Z"/>
      <path class="cls-3" d="m801.81,670.91h20.91v38.28h.29c5.16-7.81,14.58-11.34,24.01-11.34,15.16,0,31.51,12.22,31.51,40.05s-16.34,40.2-31.51,40.2c-11.19,0-20.47-3.38-25.03-11.78h-.29v9.73h-19.88v-105.13Zm37.99,42.7c-12.37,0-17.81,11.49-17.81,24.44s5.44,24.3,17.81,24.3,17.81-11.63,17.81-24.3-5.44-24.44-17.81-24.44"/>
      <path class="cls-3" d="m891.76,670.91h20.9v39.61h.45c5.3-8.68,14.43-12.66,22.24-12.66,22.22,0,27.82,12.52,27.82,31.36v46.82h-20.9v-42.99c0-12.52-3.53-18.71-13.41-18.71-11.33,0-16.19,6.33-16.19,21.8v39.9h-20.9v-105.13Z"/>
      <path class="cls-3" d="m978.18,723.33c1.18-19.43,18.7-25.47,35.77-25.47,15.17,0,33.42,3.39,33.42,21.64v39.61c0,6.93.74,13.84,2.66,16.93h-21.21c-.74-2.35-1.33-4.86-1.47-7.36-6.62,6.92-16.2,9.42-25.62,9.42-14.57,0-25.91-7.21-25.91-22.82.29-34.6,51.53-16.05,50.65-33.13,0-8.83-6.19-10.3-13.54-10.3-8.1,0-13.11,3.23-13.84,11.48h-20.9Zm48.29,15.46c-3.53,3.09-10.9,3.24-17.37,4.42-6.48,1.17-12.36,3.53-12.36,11.19s6.03,9.72,12.8,9.72c16.34,0,16.94-12.81,16.94-17.52v-7.81Z"/>
      <path class="cls-3" d="m1141.74,764.11c-8.25,10.6-18.7,14.43-28.86,14.43-32.39,0-51.69-24.29-51.69-54.62s19.3-55.51,51.69-55.51c21.5,0,41.96,13.1,44.32,37.1h-22.08c-2.8-11.78-11.19-17.67-22.24-17.67-20.76,0-28.56,17.67-28.56,36.07s7.8,35.19,28.56,35.19c15.17,0,23.71-7.95,25.03-22.68h-23.26v-17.22h44.17v56.84h-14.72l-2.36-11.93Z"/>
      <path class="cls-3" d="m1246.71,776.04h-19.88v-10.61h-.45c-5.29,8.69-14.43,12.66-23.27,12.66-22.22,0-27.82-12.52-27.82-31.36v-46.82h20.9v42.99c0,12.51,3.54,18.7,13.41,18.7,11.34,0,16.2-6.34,16.2-21.79v-39.9h20.91v76.12Z"/>
      <path class="cls-3" d="m1316.92,766.32h-.29c-4.85,8.25-13.24,11.78-23.11,11.78-22.97,0-34.17-19.58-34.17-40.78s11.34-39.46,33.72-39.46c8.99,0,17.82,3.83,22.53,11.34h.3v-38.28h20.9v105.13h-19.88v-9.73Zm-18.24-52.71c-13.7,0-18.41,11.93-18.41,24.29s5.45,24.44,18.41,24.44c13.69,0,17.95-12.07,17.95-24.59s-4.42-24.15-17.95-24.15"/>
      <path class="cls-3" d="m1374.04,688.14h-20.9v-17.22h20.9v17.22Zm-20.9,11.77h20.9v76.12h-20.9v-76.12Z"/>
    </g>
    <g>
      <path class="cls-2" d="m980.49,130.17c-1.92-2.31-3.84-4.61-5.78-6.92,16.74-17.12,33.48-34.23,50.19-51.34,68.32,90.26,86.47,197.64,62.57,264.72-38.51,108.15-188.21,108.43-229.89,16.26-13.87-38.42,2.37-70.44,30.21-88.7,18.78-12.32,36.82-17.37,59.02-13.6,23.48,3.96,52.78,15.01,81.55,21.41,7.6,1.69,28.51,7.19,34.3,4.6,5.5-2.48,5.5-8.96,5.94-13.09,1.73.77,4.09,1.68,5.81,2.45l-13.46,31.69c-35.97-9.06-72.18-18.21-108.16-27.24-21.85-4.15-41.08-3.48-57.07,3.11-53.63,22.06-42.47,78.24-2.15,109.35,68.46,52.82,164.97,22.55,189.39-60.39,16.09-54.66,2.64-96.63-18.1-148.14-12.35-30.68-27.82-58.24-47.46-81.66-12.3,12.5-24.6,25-36.91,37.51"/>
      <path class="cls-3" d="m1071.39,85.95v-12.62h2.48l2.98,8.93c.28.83.48,1.45.62,1.86.14-.45.37-1.13.68-2.01l3.02-8.78h2.24v12.62h-1.62v-10.55l-3.66,10.55h-1.51l-3.64-10.75v10.75h-1.6Zm-7.52,0v-11.14h-4.16v-1.48h9.97v1.48h-4.15v11.14h-1.67Zm19.54-18.16c-3.03-3.04-7.23-4.91-11.84-4.91s-8.84,1.87-11.86,4.91c-3.03,3.03-4.92,7.22-4.92,11.86s1.89,8.81,4.92,11.85c3.02,3.03,7.21,4.9,11.86,4.9s8.81-1.87,11.84-4.9c3.03-3.04,4.91-7.22,4.91-11.85s-1.88-8.83-4.91-11.86m-11.84-6.75c5.12,0,9.77,2.08,13.14,5.44,3.37,3.37,5.45,8.03,5.45,13.16s-2.08,9.79-5.45,13.14c-3.37,3.38-8.02,5.46-13.14,5.46s-9.8-2.09-13.16-5.46c-3.38-3.35-5.47-8-5.47-13.14s2.08-9.79,5.47-13.16c3.36-3.36,8.01-5.44,13.16-5.44"/>
      <path class="cls-4" d="m936.36,343.72c-1.69-8.35-7.62-12.19-14.38-12.52-15.91-.76-24.45,17.95-22.7,31.73,1.63,12.97,12,22.69,31.46,20.69,12.85,8.08,23.16,14.3,34.82,17.27,16.95,4.33,41.33,2.36,49.2-16.02,5.46-12.73-3.84-26.54-19.12-30.65-.49-6.1-.97-12.21-1.46-18.33,4.39-8.35-3.92-13.3-9.32-14.83-3.23-.16-5.5,3.44-3.86,5.74,2.45,2.71,4.74,4.02,6.2,7.93-.62,6.41-5.82,13.67-8.74,19.78-3.46,6.08-2.87,11.24,3.21,15.14,4.76,1.9,6.58,4.21,5.23,6.99-4.46.99-5.02-5.18-10.47-7.27-5.36.34-10.57,6.22-15.12,3.49,1.49-5.52,2.41-10.92,1.73-16.01-.14-3.98-4.91-4.85-6.68-8.44,1.44-2.03,3.14-3.61,2.47-7.27-2.75-3.28-8.39-2.28-8.67-.25.38,2.42.43,5.27,1.42,7.55,1.18,3.51,1.48,6.8,3.9,9.58-1.26,1.93-2.52,3.88-3.79,5.82-.79,1.76-4-.75-2.66-3.57,4.28-6.71-.25-12.9-3.18-13.75.19-1.16-.42-3.18-1.14-4.11-2.43,1.25-5.43,1.73-8.34,1.32"/>
      <path class="cls-4" d="m1033.34,128.85c-2.78,13.27-5.56,26.54-8.35,39.82-.95-7.58-3.03-13.09-6.04-16.9-10.47-13.29-49.08-6.19-62.68-.82-13.38,5.26-25.08,13.73-35.17,25.29-29.2,32.52-48.2,118.34,1.94,135.81,29.82,10.4,79.76-15.51,84.19-50.16,1.94-15.11-3.03-30.88-14.88-41.05,23.83-3.2,37.97,4.95,28.66,40.61-5.75,13.69-13.18,24.96-22.16,33.97-30.98,31.03-107.09,45.35-121.7-7.56-11.21-40.53,6.74-89.49,37.05-117.74,13.88-12.93,30.99-23.26,51.48-30.89,22.03-8.16,44.49-12.49,67.66-10.36"/>
      <polygon class="cls-5" points="833.84 386.44 829.85 380.56 831.97 379.13 841.68 393.42 839.55 394.85 835.55 388.95 818.37 400.62 816.65 398.1 833.84 386.44"/>
      <polygon class="cls-5" points="845.82 398.47 838.5 404.92 845.96 413.4 853.29 406.95 855.3 409.23 837.77 424.66 835.76 422.37 843.98 415.15 836.52 406.67 828.3 413.9 826.31 411.63 843.84 396.21 845.82 398.47"/>
      <polygon class="cls-5" points="860.6 430.8 853.81 424.78 848.22 431.08 855.8 437.79 854.12 439.69 844.29 430.98 859.78 413.49 869.22 421.87 867.54 423.76 860.36 417.39 855.46 422.92 862.26 428.94 860.6 430.8"/>
      <path class="cls-5" d="m882.53,458.12c-1.24-.12-3.41-.81-5.84-2.31-5.61-3.46-7.63-9.6-3.61-16.12,3.85-6.22,10.67-7.84,16.84-4.03,2.48,1.54,3.71,3.03,4.17,3.81l-1.91,1.71c-.69-1.07-1.86-2.28-3.5-3.3-4.66-2.88-9.6-1.82-12.82,3.41-3.01,4.86-2.13,9.72,2.7,12.71,1.56.96,3.36,1.62,4.7,1.76l-.73,2.36Z"/>
      <path class="cls-5" d="m911.36,459.34c-3.28,7.33-9.48,9.23-14.92,6.79-5.62-2.52-7.63-8.64-4.74-15.09,3.03-6.77,9.22-9.31,14.91-6.77,5.81,2.61,7.57,8.74,4.75,15.07m-16.69-7.05c-2.03,4.55-1.38,9.73,2.94,11.66,4.37,1.96,8.63-.96,10.79-5.79,1.89-4.23,1.66-9.65-2.92-11.7-4.55-2.03-8.71,1.15-10.8,5.83"/>
      <path class="cls-5" d="m914.48,468.99c1.06,1.18,2.75,2.42,4.73,3.03,2.96.89,5.15-.15,5.83-2.41.63-2.08-.2-3.64-2.87-5.71-3.27-2.4-4.94-4.96-3.99-8.12,1.06-3.48,4.71-5.2,9.06-3.89,2.3.69,3.79,1.72,4.61,2.59l-1.51,2.11c-.61-.62-1.9-1.73-3.92-2.34-3.05-.92-4.77.56-5.23,2.08-.62,2.1.43,3.53,3.15,5.65,3.34,2.6,4.72,5.01,3.73,8.29-1.04,3.45-4.49,5.66-9.76,4.07-2.15-.65-4.32-2-5.27-3.15l1.46-2.2Z"/>
      <path class="cls-5" d="m955.14,471.44c.35-3.24.76-7.14,1.23-10.01h-.09c-1.22,2.56-2.63,5.29-4.3,8.28l-5.83,10.54-2.26-.35-2-11.57c-.58-3.43-1.04-6.55-1.25-9.39l-.07-.02c-.52,2.87-1.3,6.71-2.06,10.13l-2.18,9.8-2.83-.45,5.25-22.8,3.8.6,2.17,11.77c.52,3,.9,5.66,1.1,8.13l.09.02c.96-2.24,2.17-4.63,3.66-7.38l5.86-10.5,3.8.61-2.2,23.29-2.91-.47,1.01-10.22Z"/>
      <rect class="cls-5" x="955.64" y="469.2" width="23.35" height="3.01" transform="translate(457.63 1418.06) rotate(-87.67)"/>
      <path class="cls-5" d="m993.17,481.1c-1.07.61-3.26,1.27-6.1,1.42-6.57.32-11.73-3.58-12.12-11.23-.37-7.3,4.33-12.5,11.57-12.86,2.91-.15,4.78.38,5.6.76l-.61,2.5c-1.17-.5-2.82-.83-4.75-.74-5.48.27-8.93,3.95-8.63,10.08.29,5.71,3.77,9.22,9.44,8.93,1.84-.09,3.69-.56,4.86-1.22l.74,2.36Z"/>
      <path class="cls-5" d="m1013.45,478.71l-11.51-21.18,3.09-.79,5.6,10.77c1.39,2.65,2.71,5.32,3.68,7.4h.07c-.21-2.36-.19-5.23-.16-8.35l.12-12.19,3.04-.78,5.69,10.78c1.32,2.52,2.61,5.06,3.56,7.36l.07-.02c-.16-2.61-.17-5.29-.19-8.28l.08-12.18,2.99-.77-.65,24.28-3.06.78-5.85-11.06c-1.44-2.71-2.48-4.81-3.36-7.02l-.07.02c.17,2.35.23,4.7.14,7.83l-.23,12.62-3.05.78Z"/>
      <path class="cls-5" d="m1055.67,451.41c3.22,7.37.46,13.23-5,15.62-5.65,2.48-11.54-.17-14.38-6.64-2.97-6.79-.71-13.09,5.02-15.59,5.83-2.56,11.58.25,14.36,6.61m-16.45,7.62c2,4.57,6.28,7.58,10.63,5.67,4.37-1.92,5.09-7.03,2.95-11.89-1.86-4.25-6.03-7.73-10.63-5.71-4.57,2-5.01,7.23-2.95,11.92"/>
      <path class="cls-5" d="m1078.7,439.24c-1.91-2.65-4.19-5.83-5.74-8.3l-.09.05c.81,2.73,1.56,5.71,2.3,9.06l2.64,11.76-1.93,1.24-9.18-7.34c-2.71-2.17-5.11-4.2-7.16-6.18l-.05.04c1.5,2.49,3.46,5.87,5.18,8.93l4.86,8.77-2.41,1.55-11.22-20.54,3.24-2.08,9.44,7.36c2.36,1.9,4.42,3.63,6.22,5.36l.09-.06c-.78-2.29-1.46-4.91-2.18-7.95l-2.58-11.75,3.23-2.07,13.82,18.87-2.48,1.59-6.02-8.32Z"/>
      <path class="cls-5" d="m1078.86,423.04c.81-1.07,2.25-2.59,3.84-3.97,2.28-1.98,4.09-2.86,5.96-2.92,1.5-.11,2.97.47,4.16,1.85,1.48,1.7,1.65,4.18.37,6.47l.06.05c2.03-1.03,5.2-1.34,7.47,1.28,1.31,1.52,1.71,3.19,1.57,4.83-.26,2.19-1.8,4.44-4.68,6.94-1.57,1.36-2.87,2.29-3.71,2.85l-15.05-17.37Zm8.54,5.25l2.07-1.79c2.41-2.08,2.74-4.57,1.26-6.27-1.8-2.07-4.07-1.52-6.38.47-1.04.91-1.57,1.52-1.87,1.91l4.92,5.68Zm7.33,8.46c.52-.3,1.18-.84,2.01-1.55,2.34-2.04,3.77-4.79,1.56-7.36-2.09-2.41-5.02-1.61-7.51.54l-1.89,1.63,5.83,6.73Z"/>
    </g>
    <g>
      <path class="cls-4" d="m1256.85,538.42v-8.47h1.68l2,5.99c.2.56.33.97.4,1.25.11-.3.26-.76.46-1.35l2.04-5.89h1.5v8.47h-1.07v-7.09l-2.47,7.09h-1.01l-2.44-7.21v7.21h-1.08Zm-5.05,0v-7.47h-2.78v-.99h6.69v.99h-2.79v7.47h-1.12Zm13.12-12.19c-2.03-2.03-4.84-3.29-7.96-3.29s-5.92,1.25-7.95,3.29c-2.03,2.04-3.3,4.85-3.3,7.96s1.27,5.91,3.3,7.95c2.03,2.04,4.84,3.29,7.95,3.29s5.92-1.25,7.96-3.29c2.03-2.03,3.3-4.84,3.3-7.95s-1.26-5.92-3.3-7.96m-7.96-4.52c3.44,0,6.57,1.39,8.83,3.65,2.25,2.26,3.66,5.37,3.66,8.83s-1.41,6.57-3.66,8.82c-2.26,2.25-5.38,3.66-8.83,3.66s-6.57-1.41-8.82-3.66c-2.27-2.26-3.67-5.39-3.67-8.82s1.4-6.57,3.67-8.83c2.25-2.26,5.38-3.65,8.82-3.65"/>
      <path class="cls-6" d="m772.59,586.92c0,17.3-3.98,29.92-11.93,37.87-.37-4.28-3.03-6.43-7.95-6.43-2.01,0-4.69,1.07-8.05,3.22-3.34,2.14-6.03,3.22-8.04,3.22-3.67,0-6.57-1.96-8.71-5.89-1.77-3.16-2.65-6.7-2.65-10.63,0-5.82,2.65-9.42,7.96-10.82,4.92-.88,9.85-1.77,14.77-2.66,5.29-1.91,7.94-6.14,7.94-12.72,0-7.72-4.11-13.8-12.31-18.22-6.82-3.67-14.46-5.51-22.91-5.51s-15.96,1.77-22.53,5.31c-8.08,4.43-12.11,10.51-12.11,18.23s2.71,11.77,8.14,13.29c4.92.52,9.91.96,14.96,1.34,5.41,1.26,8.14,5.25,8.14,11.96,0,3.55-.89,6.59-2.65,9.12-.38.51-2.53,2.91-6.44,7.21-.51-4.28-2.84-6.43-7-6.43-1.9,0-4.3,1.07-7.2,3.22-2.9,2.14-5.3,3.22-7.19,3.22-6.82,0-11.81-4.56-14.96-13.67-2.03-6.21-3.04-13.67-3.04-22.41,0-6.97,1.73-13.2,5.22-18.71,3.46-5.5,8.42-9.4,14.86-11.67h-11.55c-4.8,0-7.19,1.57-7.19,4.73,0,1.14.37,2.46,1.13,3.98l-.56.57c-2.27-2.65-3.47-6.05-3.6-10.22-.13-2.02.42-4.23,1.61-6.63,1.2-2.39,1.86-4.48,1.99-6.25.25-3.03-.69-6.18-2.84-9.46l.57-.75c1.76,2.62,3.13,4.16,4.07,4.62.95.46,3.06.68,6.34.68h67.78v14.77c7.45,2.9,13.51,7,18.17,12.3,5.17,6.06,7.76,12.81,7.76,20.26"/>
      <path class="cls-6" d="m777.33,513.27c-1.52-1.89-3.21-2.83-5.11-2.83-3.41,0-5.11,2.08-5.11,6.24,0,2.14,1.17,5.68,3.5,10.6,2.34,4.92,3.56,8.71,3.69,11.36.26,6.18-1.51,11.02-5.3,14.48-3.78,3.48-8.58,5.21-14.4,5.21h-18.36v-18.75h17.99c6.06,0,9.09-2.22,9.09-6.66,0-2.02-1.95-5.39-5.87-10.08-3.66-4.31-5.17-8.38-4.54-12.18.5-2.79,1.99-4.92,4.45-6.37,2.47-1.46,5.27-2.06,8.43-1.81,6.69.51,10.54,4.11,11.55,10.79"/>
      <path class="cls-6" d="m884.11,586.92c0,18.31-6.92,30.93-20.75,37.87-1.89-6.82-6.6-10.22-14.15-10.22-4.4,0-10.56,1.7-18.48,5.11-7.92,3.41-14.15,5.12-18.68,5.12-9.18,0-16.6-2.39-22.26-7.2-6.04-5.17-9.05-12.3-9.05-21.39,0-10.6,3.56-17.8,10.69-21.58,2.25-1.15,8.88-2.65,19.88-4.55,7.14-1.26,10.71-4.22,10.71-8.89,0-6.19-4.11-9.29-12.31-9.29-2.78,0-5.24.69-7.38,2.06-2.53,1.5-3.79,3.49-3.79,5.98,0,3.74,2.21,5.61,6.63,5.61,2.14,0,4.29-.38,6.44-1.14-1.01,3.03-3.73,4.55-8.14,4.55-1.13,0-2.84-.16-5.12-.47-2.26-.32-3.91-.47-4.91-.47-3.79,0-6.13,1.89-7.01,5.68-3.79-3.64-5.68-8.34-5.68-14.12,0-6.65,2.64-11.8,7.94-15.43,4.67-3.01,10.54-4.52,17.61-4.52,7.45,0,13.45,1.57,17.99,4.7,5.3,3.64,7.95,9.02,7.95,16.18,0,6.51-2.62,11.28-7.85,14.29-1.5.88-6.3,2.57-14.39,5.08-5.24,1.51-7.86,3.76-7.86,6.77,0,6.14,4.18,9.21,12.52,9.21,11.22,0,16.76-4.37,16.64-13.12v-5.43h2.08c-.5,7.13.88,12.05,4.17,14.81,2.9,2.49,8.08,3.74,15.52,3.74,5.81,0,10.7-1.7,14.67-5.09,3.97-3.38,5.96-7.9,5.96-13.56s-2.46-10.61-7.38-14.13c-4.54-3.14-9.85-4.7-15.9-4.7-7.95,0-11.93,1.7-11.93,5.12,0,1.05.38,2.37,1.14,3.94l-.57.59c-2.39-2.81-3.59-6.25-3.59-10.34,0-1.78.63-4.27,1.89-7.47,1.26-3.19,1.89-5.68,1.89-7.47,0-2.29-1.01-4.85-3.02-7.66l.56-.76c2.52,3.53,6.57,5.3,12.11,5.3h9.28v11.93c8.58,1.77,15.15,6,19.69,12.69,4.16,6.05,6.25,13.63,6.25,22.71"/>
      <path class="cls-6" d="m844.16,640.5c0,3.42-1.45,5.93-4.36,7.58,0-.88-.4-1.74-1.23-2.56-.81-.82-1.67-1.16-2.56-1.04-.89.14-2.55.81-5.01,2-2.46,1.19-4.14,1.72-5.02,1.6-3.53-.77-5.31-3.19-5.31-7.29,0-3.71,1.46-7.55,4.37-11.51,2.4-3.33,4.85-6.65,7.38-9.98,2.53,3.28,4.99,6.57,7.38,9.85,2.9,3.91,4.36,7.7,4.36,11.36"/>
      <path class="cls-6" d="m889.03,513.27c-1.51-1.89-3.22-2.83-5.11-2.83-3.4,0-5.12,2.08-5.12,6.24,0,2.14,1.18,5.68,3.51,10.6,2.33,4.92,3.56,8.71,3.69,11.36.25,6.18-1.52,11.02-5.3,14.48-3.78,3.48-8.58,5.21-14.39,5.21h-18.36v-18.75h17.99c6.06,0,9.09-2.22,9.09-6.66,0-2.02-1.95-5.39-5.87-10.08-3.66-4.31-5.17-8.38-4.55-12.18.51-2.79,1.99-4.92,4.45-6.37,2.46-1.46,5.27-2.06,8.44-1.81,6.69.51,10.54,4.11,11.54,10.79"/>
      <path class="cls-6" d="m975.36,557.38c-.12,4.17-1.31,7.57-3.6,10.23l-.57-.57c.76-1.39,1.14-2.58,1.14-3.6,0-3.4-2.65-5.11-7.96-5.11h-46.38c-2.15,0-4.11.72-5.87,2.18-1.77,1.44-2.65,3.18-2.65,5.2,0,5.81,5.44,8.7,16.34,8.7,4.23,0,7.17-1.19,8.83-3.59l.38.39c-1.39,1.65-2.01,3.28-1.89,4.92.13.88.48,1.96,1.04,3.22.58,1.26.85,2.4.85,3.41-.13,2.13-.76,3.84-1.89,5.1l-.38-.19c.38-.5.58-1.01.58-1.52,0-1.01-.67-1.86-2-2.56-1.32-.69-2.62-1.04-3.88-1.04-6.19.13-9.91.38-11.17.76-3.79.75-5.62,2.71-5.49,5.87.12,5.18,5.74,7.76,16.85,7.76,15.9,0,25.44-3.41,28.59-10.22.38,4.56.57,8.24.57,11.03,0,11.3-3.85,20.3-11.55,27.02-.64-4.92-4.1-7.38-10.41-7.38-2.65,0-6.09,1.23-10.32,3.69-4.23,2.47-7.73,3.7-10.5,3.7-6.81,0-12.18-2.46-16.09-7.38-3.91-4.92-5.87-11.04-5.87-18.36,0-8.96,3.59-15.58,10.8-19.89-7.2-3.02-10.8-9.08-10.8-18.17,0-5.8,2.11-10.82,6.34-15.05,4.23-4.23,9.25-6.34,15.06-6.34h50.17c3.29,0,5.4-.23,6.34-.69.94-.46,2.3-1.99,4.08-4.62l.57.76c-2.15,3.29-3.1,6.44-2.85,9.47.13,1.77.79,3.86,2,6.24,1.19,2.4,1.73,4.61,1.6,6.63"/>
      <path class="cls-6" d="m1089.32,586.92c0,17.3-3.98,29.92-11.93,37.87-.38-4.28-3.03-6.43-7.95-6.43-2.02,0-4.7,1.07-8.05,3.22-3.35,2.14-6.03,3.22-8.05,3.22-3.66,0-6.56-1.96-8.71-5.89-1.77-3.16-2.65-6.7-2.65-10.63,0-5.82,2.65-9.42,7.95-10.82,4.93-.88,9.85-1.77,14.76-2.66,5.31-1.91,7.95-6.14,7.95-12.72,0-7.72-4.1-13.8-12.3-18.22-6.83-3.67-14.46-5.51-22.91-5.51s-15.97,1.77-22.53,5.31c-8.08,4.43-12.12,10.51-12.12,18.23s2.72,11.77,8.14,13.29c4.93.52,9.91.96,14.96,1.34,5.42,1.26,8.15,5.25,8.15,11.96,0,3.55-.89,6.59-2.65,9.12-.38.51-2.54,2.91-6.44,7.21-.51-4.28-2.85-6.43-7.01-6.43-1.89,0-4.3,1.07-7.19,3.22-2.91,2.14-5.31,3.22-7.2,3.22-6.82,0-11.81-4.56-14.96-13.67-2.03-6.21-3.04-13.67-3.04-22.41,0-6.97,1.74-13.2,5.21-18.71,3.47-5.5,8.43-9.4,14.86-11.67h-11.54c-4.8,0-7.2,1.57-7.2,4.73,0,1.14.38,2.46,1.14,3.98l-.56.57c-2.27-2.65-3.47-6.05-3.61-10.22-.12-2.02.42-4.23,1.61-6.63,1.2-2.39,1.87-4.48,2-6.25.24-3.03-.7-6.18-2.85-9.46l.58-.75c1.76,2.62,3.12,4.16,4.06,4.62.95.46,3.07.68,6.34.68h67.78v14.77c7.46,2.9,13.51,7,18.17,12.3,5.18,6.06,7.77,12.81,7.77,20.26"/>
      <path class="cls-6" d="m1094.04,513.27c-1.52-1.89-3.22-2.83-5.12-2.83-3.41,0-5.11,2.08-5.11,6.24,0,2.14,1.17,5.68,3.51,10.6,2.34,4.92,3.56,8.71,3.69,11.36.25,6.18-1.52,11.02-5.3,14.48-3.78,3.48-8.58,5.21-14.39,5.21h-18.36v-18.75h17.98c6.06,0,9.09-2.22,9.09-6.66,0-2.02-1.95-5.39-5.87-10.08-3.66-4.31-5.17-8.38-4.55-12.18.51-2.79,2-4.92,4.45-6.37,2.46-1.46,5.27-2.06,8.42-1.81,6.69.51,10.55,4.11,11.55,10.79"/>
      <path class="cls-6" d="m1141.94,582.85c0,19.86-4.16,33.84-12.49,41.94-.51-4.92-3.6-7.38-9.28-7.38-2.14,0-4.92,1.23-8.33,3.69-3.41,2.46-6.18,3.69-8.33,3.69-7.95,0-13.76-4.11-17.42-12.36-2.77-6.08-4.16-13.69-4.16-22.82l5.68-8.93c-.38,10.22,7.76,15.33,24.43,15.33,6.3,0,11.48-1.5,15.52-4.51,4.55-3.27,6.81-7.98,6.81-14.13,0-12.69-7.95-19.03-23.85-19.03-6.82,0-10.23,1.67-10.23,5.01l.95,3.71-.57.55c-2.39-2.9-3.59-6.31-3.59-10.22,0-1.77.63-4.22,1.89-7.38,1.26-3.16,1.9-5.56,1.9-7.2,0-2.39-1.01-4.98-3.03-7.76l.57-.75c3.53,5.05,8.07,7.57,13.64,7.57,1.13,0,2.83-.38,5.11-1.14,2.27-.75,4.04-1.13,5.3-1.13,7.57,0,12.99,5.76,16.29,17.27,2.14,7.34,3.21,15.99,3.21,25.99"/>
      <path class="cls-6" d="m1253.28,588.74c0,17.07-6.96,29.09-20.83,36.04-1.9-6.82-6.57-10.22-14.01-10.22-4.55,0-10.79,1.7-18.75,5.12-7.95,3.4-14.2,5.11-18.74,5.11-8.97,0-16.55-3.6-22.72-10.81-5.81-6.71-8.71-14.68-8.71-23.91,0-13.28,6.24-22.83,18.74-28.65-3.66-2.91-5.49-7.33-5.49-13.28,0-6.83,4.23-12.01,12.69-15.54,6.31-2.66,13.5-3.99,21.58-3.99,12.24,0,22.59,3.03,31.04,9.1,9.09,6.45,14.65,15.49,16.68,27.13,5.68,4.55,8.52,12.52,8.52,23.9m-12.69-3.91c-4.17,4.67-9.53,7.01-16.1,7.01-4.79,0-9.16-1.54-13.06-4.64-3.91-3.09-5.87-6.97-5.87-11.65,0-5.17,2.28-9.21,6.82-12.11,3.79-2.4,8.46-3.6,14.01-3.6,2.9,0,5.24.63,7.01,1.9-3.67-13.89-10.61-21.28-20.82-22.15,1.89,2.63,2.84,5.52,2.84,8.65,0,6.64-3.03,11.66-9.09,15.04-5.06,2.88-11.11,4.33-18.17,4.33-4.04,0-8.28-.88-12.68-2.65-5.55,4.77-8.34,10.16-8.34,16.18,0,9.79,5.68,14.69,17.04,14.69,4.67,0,8.58-1.31,11.74-3.93,3.15-2.62,4.73-6.24,4.73-10.83h1.9c-.12,9.84,6.5,14.77,19.88,14.77,9.22,0,15.27-3.66,18.18-10.99m-35.03-36.16c0-2.65-1.03-4.86-3.12-6.63-2.08-1.77-4.46-2.65-7.1-2.65-3.04,0-5.75.88-8.15,2.65-2.4,1.77-3.59,4.1-3.59,7.01s1.14,5.18,3.41,6.82c2.27,1.64,4.92,2.46,7.94,2.46,2.65,0,5.08-.95,7.3-2.84,2.2-1.9,3.31-4.17,3.31-6.81m30.86,25.37c0-1.9-.66-3.54-1.99-4.92-1.32-1.39-2.94-2.09-4.82-2.09s-3.5.7-4.83,2.09c-1.32,1.39-1.99,3.03-1.99,4.92s.67,3.53,1.99,4.91c1.33,1.4,2.93,2.09,4.83,2.09s3.5-.69,4.82-2.09c1.32-1.39,1.99-3.03,1.99-4.91"/>
    </g>
  </g>
</svg>