<?xml version="1.0" encoding="UTF-8"?>
<svg id="Layer_1" data-name="Layer 1" xmlns="http://www.w3.org/2000/svg" viewBox="0 0 1920 1080">
  <defs>
    <style>
      .cls-1, .cls-2 {
        fill: #58595b;
      }

      .cls-1, .cls-2, .cls-3, .cls-4, .cls-5 {
        stroke-width: 0px;
      }

      .cls-1, .cls-3 {
        fill-rule: evenodd;
      }

      .cls-3 {
        fill: #ee3f65;
      }

      .cls-4 {
        fill: #5a595c;
      }

      .cls-5 {
        fill: #46c0bc;
      }
    </style>
  </defs>
  <g>
    <path class="cls-1" d="m990.4,194.28c-3.04-3.67-6.09-7.32-9.17-10.99,26.56-27.15,53.09-54.29,79.61-81.43,108.36,143.16,137.15,313.47,99.24,419.88-61.08,171.53-298.53,171.97-364.63,25.79-21.99-60.93,3.77-111.72,47.92-140.68,29.79-19.55,58.4-27.55,93.61-21.58,37.24,6.29,83.71,23.81,129.34,33.96,12.05,2.68,45.23,11.41,54.4,7.29,8.72-3.93,8.72-14.2,9.42-20.76,2.75,1.22,6.49,2.66,9.22,3.88l-21.36,50.26c-57.06-14.36-114.48-28.88-171.55-43.21-34.66-6.58-65.15-5.52-90.53,4.93-85.07,34.99-67.36,124.09-3.41,173.45,108.59,83.77,261.66,35.77,300.4-95.79,25.53-86.69,4.19-153.27-28.7-234.96-19.6-48.66-44.13-92.38-75.28-129.52-19.51,19.83-39.02,39.66-58.55,59.49"/>
    <path class="cls-2" d="m1134.59,124.15v-20.02h3.94l4.73,14.16c.45,1.33.76,2.31.98,2.95.22-.71.59-1.79,1.08-3.19l4.79-13.92h3.55v20.02h-2.56v-16.74l-5.81,16.74h-2.39l-5.77-17.05v17.05h-2.54Zm-11.93,0v-17.67h-6.59v-2.35h15.82v2.35h-6.58v17.67h-2.65Zm31-28.8c-4.8-4.82-11.47-7.78-18.77-7.78s-14.02,2.97-18.81,7.78c-4.81,4.8-7.8,11.46-7.8,18.81s2.99,13.98,7.8,18.8c4.79,4.8,11.43,7.77,18.81,7.77s13.97-2.97,18.77-7.77c4.81-4.82,7.78-11.46,7.78-18.8s-2.98-14-7.78-18.81m-18.77-10.7c8.12,0,15.5,3.29,20.84,8.62,5.35,5.35,8.64,12.73,8.64,20.88s-3.3,15.52-8.64,20.84c-5.34,5.35-12.72,8.66-20.84,8.66s-15.54-3.31-20.87-8.66c-5.37-5.32-8.67-12.7-8.67-20.84s3.3-15.53,8.67-20.88c5.32-5.33,12.7-8.62,20.87-8.62"/>
    <path class="cls-3" d="m920.4,532.98c-2.67-13.24-12.09-19.34-22.81-19.86-25.23-1.22-38.77,28.47-36.01,50.32,2.59,20.57,19.03,36,49.9,32.82,20.39,12.81,36.73,22.69,55.22,27.39,26.88,6.86,65.56,3.74,78.04-25.41,8.65-20.19-6.09-42.1-30.33-48.61-.77-9.67-1.53-19.36-2.31-29.08,6.96-13.25-6.22-21.09-14.78-23.52-5.13-.25-8.72,5.46-6.13,9.11,3.88,4.31,7.51,6.37,9.83,12.58-.99,10.18-9.23,21.68-13.86,31.37-5.49,9.65-4.55,17.82,5.08,24.01,7.56,3.02,10.44,6.69,8.31,11.08-7.07,1.56-7.97-8.22-16.61-11.54-8.51.54-16.76,9.87-23.98,5.53,2.36-8.76,3.82-17.32,2.75-25.39-.23-6.31-7.78-7.7-10.6-13.39,2.29-3.23,4.98-5.72,3.92-11.54-4.36-5.19-13.3-3.61-13.76-.39.6,3.84.68,8.36,2.25,11.97,1.88,5.56,2.36,10.79,6.18,15.2-2,3.06-4,6.16-6.01,9.23-1.26,2.78-6.35-1.19-4.23-5.66,6.79-10.64-.39-20.45-5.04-21.8.3-1.84-.67-5.05-1.81-6.53-3.85,1.99-8.62,2.75-13.23,2.09"/>
    <path class="cls-3" d="m1074.22,192.19c-4.4,21.05-8.82,42.1-13.25,63.15-1.51-12.02-4.8-20.76-9.58-26.81-16.6-21.08-77.85-9.83-99.42-1.31-21.22,8.34-39.78,21.77-55.79,40.11-46.31,51.58-76.45,187.7,3.07,215.41,47.29,16.48,126.51-24.6,133.53-79.57,3.07-23.97-4.8-48.97-23.6-65.12,37.79-5.08,60.23,7.85,45.45,64.41-9.12,21.72-20.91,39.58-35.15,53.88-49.14,49.22-169.86,71.93-193.02-11.98-17.78-64.28,10.68-141.94,58.77-186.75,22.01-20.5,49.16-36.89,81.65-49,34.95-12.95,70.56-19.8,107.32-16.42"/>
    <polygon class="cls-4" points="758.82 615.35 751.52 606.77 754.6 604.14 772.38 625 769.28 627.63 761.94 619.02 736.87 640.38 733.73 636.7 758.82 615.35"/>
    <polygon class="cls-4" points="779.79 632.25 769.35 643.68 782.57 655.77 793.02 644.33 796.59 647.59 771.61 674.93 768.05 671.67 779.75 658.86 766.53 646.78 754.82 659.6 751.3 656.37 776.27 629.03 779.79 632.25"/>
    <polygon class="cls-4" points="808.67 680.68 796.92 672.35 789.2 683.25 802.3 692.53 799.98 695.81 782.97 683.77 804.38 653.53 820.71 665.1 818.4 668.37 805.96 659.57 799.2 669.13 810.95 677.45 808.67 680.68"/>
    <path class="cls-4" d="m847.96,719.97c-1.98.03-5.52-.7-9.6-2.63-9.44-4.49-13.69-13.83-8.48-24.8,5-10.47,15.48-14.2,25.85-9.26,4.17,2,6.38,4.14,7.23,5.28l-2.72,3.03c-1.27-1.57-3.32-3.28-6.1-4.6-7.84-3.74-15.44-1.21-19.63,7.58-3.9,8.18-1.68,15.69,6.46,19.57,2.63,1.25,5.57,1.98,7.72,1.97l-.74,3.85Z"/>
    <path class="cls-4" d="m893.63,716.9c-3.9,12.12-13.35,16.18-22.34,13.28-9.3-2.99-13.52-12.31-10.08-22.97,3.61-11.19,12.93-16.27,22.34-13.24,9.6,3.1,13.45,12.48,10.08,22.93m-27.53-8.23c-2.41,7.53-.5,15.58,6.65,17.88,7.22,2.33,13.44-3,16.01-10.99,2.25-7,.95-15.5-6.63-17.94-7.53-2.41-13.53,3.31-16.03,11.06"/>
    <path class="cls-4" d="m900.2,731.59c1.87,1.68,4.76,3.34,7.98,3.95,4.82.89,8.09-1.13,8.78-4.8.64-3.39-.95-5.7-5.51-8.51-5.56-3.21-8.64-6.98-7.69-12.11,1.07-5.67,6.53-9,13.61-7.69,3.74.69,6.27,2.06,7.72,3.28l-2.01,3.59c-1.07-.86-3.3-2.39-6.59-3.01-4.97-.92-7.42,1.7-7.89,4.18-.61,3.41,1.29,5.49,5.93,8.36,5.72,3.52,8.31,7.08,7.3,12.43-1.04,5.62-6.11,9.7-14.69,8.11-3.5-.65-7.16-2.4-8.86-4.05l1.91-3.73Z"/>
    <path class="cls-4" d="m964.74,728.44c-.01-5.18-.04-11.39.21-16h-.14c-1.47,4.27-3.24,8.8-5.34,13.82l-7.38,17.62-3.63-.16-5.15-17.9c-1.51-5.3-2.77-10.14-3.59-14.58l-.11-.02c-.33,4.61-.9,10.81-1.5,16.32l-1.75,15.82-4.54-.22,4.34-36.86,6.09.29,5.46,18.19c1.33,4.63,2.39,8.76,3.14,12.63l.15.02c1.12-3.7,2.63-7.68,4.5-12.28l7.43-17.57,6.09.3.56,37.1-4.67-.24-.16-16.28Z"/>
    <rect class="cls-4" x="981.41" y="706.66" width="4.78" height="37.04" transform="translate(-47.24 68.89) rotate(-3.92)"/>
    <path class="cls-4" d="m1026.37,737.1c-1.59,1.15-4.93,2.57-9.37,3.29-10.31,1.64-19.12-3.62-21.04-15.62-1.85-11.44,4.67-20.45,16.02-22.27,4.56-.74,7.6-.22,8.96.22l-.53,4.05c-1.94-.58-4.58-.82-7.62-.34-8.59,1.38-13.41,7.77-11.87,17.38,1.44,8.95,7.53,13.88,16.42,12.45,2.88-.46,5.72-1.53,7.46-2.76l1.58,3.59Z"/>
    <path class="cls-4" d="m1057.93,729.85l-21.8-31.41,4.73-1.77,10.69,16.01c2.66,3.93,5.2,7.92,7.08,11.03l.11-.03c-.73-3.67-1.19-8.19-1.69-13.12l-1.92-19.23,4.67-1.75,10.83,16.02c2.51,3.75,4.99,7.53,6.88,10.99l.11-.04c-.71-4.08-1.18-8.3-1.72-13.03l-1.97-19.22,4.58-1.72,3.17,38.39-4.7,1.75-11.14-16.43c-2.74-4.03-4.74-7.16-6.51-10.48l-.1.05c.67,3.68,1.17,7.37,1.56,12.33l1.81,19.93-4.68,1.75Z"/>
    <path class="cls-4" d="m1119.78,679.51c6.35,11.06,3.01,20.79-5.19,25.49-8.49,4.89-18.22,1.73-23.82-7.99-5.85-10.19-3.38-20.5,5.22-25.44,8.75-5.04,18.29-1.59,23.78,7.94m-24.62,14.86c3.94,6.86,11.21,10.87,17.73,7.11,6.55-3.79,6.8-11.97,2.61-19.26-3.67-6.39-10.84-11.15-17.75-7.16-6.86,3.94-6.66,12.26-2.59,19.3"/>
    <path class="cls-4" d="m1154,656.35c-3.47-3.85-7.61-8.47-10.48-12.1l-.13.1c1.74,4.16,3.44,8.73,5.19,13.89l6.2,18.08-2.83,2.29-15.73-9.99c-4.64-2.95-8.79-5.74-12.36-8.5l-.08.06c2.79,3.67,6.47,8.66,9.71,13.19l9.18,12.99-3.54,2.85-21.23-30.45,4.75-3.83,16.16,9.98c4.05,2.59,7.6,4.96,10.74,7.37l.13-.11c-1.63-3.49-3.16-7.49-4.8-12.15l-6.1-18.09,4.74-3.82,25.05,27.37-3.65,2.94-10.92-12.08Z"/>
    <path class="cls-4" d="m1151.44,630.77c1.09-1.83,3.1-4.48,5.37-6.93,3.26-3.52,5.95-5.21,8.9-5.63,2.35-.43,4.76.23,6.87,2.2,2.62,2.43,3.32,6.3,1.7,10.13l.1.07c3.03-1.97,7.96-3.01,12,.73,2.33,2.16,3.24,4.74,3.31,7.34-.03,3.49-2.08,7.31-6.18,11.75-2.25,2.41-4.13,4.11-5.36,5.13l-26.72-24.79Zm14.37,6.81l2.96-3.19c3.45-3.69,3.54-7.67.91-10.1-3.19-2.96-6.68-1.7-9.98,1.85-1.48,1.61-2.22,2.66-2.61,3.33l8.73,8.11Zm13.01,12.08c.76-.57,1.72-1.54,2.91-2.79,3.34-3.63,5.12-8.21,1.18-11.87-3.71-3.44-8.2-1.67-11.75,2.15l-2.7,2.9,10.36,9.61Z"/>
  </g>
  <g>
    <g>
      <path class="cls-5" d="m654.61,925.72c-7.83,0-15.29-1.39-22.37-4.17-7.09-2.78-13.36-6.86-18.8-12.25-5.44-5.39-9.73-11.91-12.85-19.56-3.12-7.66-4.68-16.42-4.68-26.28,0-8.51,1.59-16.39,4.76-23.65,3.17-7.26,7.57-13.64,13.19-19.14,5.61-5.5,12.16-9.78,19.65-12.85,7.49-3.06,15.59-4.59,24.33-4.59,10.89,0,20.76,2.36,29.6,7.06,8.85,4.71,15.42,11.15,19.74,19.31l-24.67,18.88c-2.38-4.76-5.96-8.59-10.72-11.48-4.77-2.89-9.81-4.34-15.14-4.34-3.97,0-7.6.79-10.89,2.38-3.29,1.59-6.15,3.8-8.59,6.64-2.44,2.84-4.31,6.21-5.61,10.12-1.31,3.91-1.96,8.2-1.96,12.85s.68,9.08,2.04,12.93c1.36,3.86,3.26,7.18,5.7,9.95,2.44,2.78,5.36,4.93,8.76,6.47,3.4,1.53,7.2,2.3,11.4,2.3,5.33,0,10.43-1.33,15.31-4,4.88-2.66,9.3-6.44,13.27-11.31v32.33c-9.08,8.28-19.56,12.42-31.47,12.42Zm29.77-41.34h-22.29v-23.82h49.68v64.31h-27.39v-40.49Z"/>
      <path class="cls-5" d="m780.34,925.72c-7.83,0-15.29-1.39-22.37-4.17-7.09-2.78-13.36-6.86-18.8-12.25-5.44-5.39-9.73-11.91-12.85-19.56-3.12-7.66-4.68-16.42-4.68-26.28,0-8.51,1.59-16.39,4.76-23.65,3.17-7.26,7.57-13.64,13.19-19.14,5.61-5.5,12.16-9.78,19.65-12.85,7.49-3.06,15.59-4.59,24.33-4.59,10.89,0,20.76,2.36,29.6,7.06,8.85,4.71,15.42,11.15,19.74,19.31l-24.67,18.88c-2.38-4.76-5.96-8.59-10.72-11.48-4.77-2.89-9.81-4.34-15.14-4.34-3.97,0-7.6.79-10.89,2.38-3.29,1.59-6.15,3.8-8.59,6.64-2.44,2.84-4.31,6.21-5.61,10.12-1.31,3.91-1.96,8.2-1.96,12.85s.68,9.08,2.04,12.93c1.36,3.86,3.26,7.18,5.7,9.95,2.44,2.78,5.36,4.93,8.76,6.47,3.4,1.53,7.2,2.3,11.4,2.3,5.33,0,10.43-1.33,15.31-4,4.88-2.66,9.3-6.44,13.27-11.31v32.33c-9.08,8.28-19.56,12.42-31.47,12.42Zm29.77-41.34h-22.29v-23.82h49.68v64.31h-27.39v-40.49Z"/>
      <path class="cls-5" d="m885.48,863.28c0-7.37,1.39-14.6,4.17-21.69,2.78-7.09,6.83-13.53,12.16-19.31,5.33-5.78,11.83-10.4,19.48-13.87,7.66-3.46,16.3-5.19,25.94-5.19,11.57,0,21.66,2.41,30.28,7.23,8.62,4.82,15.03,11.2,19.23,19.14l-25.35,18.03c-1.47-3.97-3.6-7.03-6.38-9.19-2.78-2.15-5.78-3.66-9.02-4.51s-6.38-1.28-9.44-1.28c-4.76,0-8.88.93-12.33,2.81-3.46,1.87-6.3,4.34-8.51,7.4-2.21,3.06-3.86,6.47-4.93,10.21-1.08,3.74-1.62,7.49-1.62,11.23,0,4.2.62,8.23,1.87,12.08,1.25,3.86,3.06,7.29,5.45,10.29,2.38,3.01,5.3,5.36,8.76,7.06,3.46,1.7,7.34,2.55,11.66,2.55,3.06,0,6.18-.48,9.36-1.45,3.17-.96,6.07-2.52,8.68-4.68,2.61-2.16,4.59-5.05,5.96-8.68l27.05,16.16c-2.38,5.9-6.35,10.95-11.91,15.14-5.56,4.2-11.85,7.4-18.88,9.61-7.03,2.21-14.01,3.32-20.93,3.32-8.96,0-17.16-1.79-24.59-5.36-7.43-3.57-13.84-8.34-19.22-14.29-5.39-5.96-9.56-12.65-12.51-20.08-2.95-7.43-4.42-15-4.42-22.71Z"/>
      <path class="cls-5" d="m1037.58,804.08h37.09l38.45,120.8h-33.69l-6.25-23.65h-34.13l-6.25,23.65h-33.85l38.62-120.8Zm29.77,75.03l-11.23-42.53-11.23,42.53h22.45Z"/>
      <path class="cls-5" d="m1123.16,924.87v-120.8h55.46c5.9,0,11.34,1.19,16.33,3.57,4.99,2.38,9.3,5.59,12.93,9.61,3.63,4.03,6.44,8.54,8.42,13.53,1.98,4.99,2.98,10.04,2.98,15.14,0,4.65-.68,9.13-2.04,13.44-1.36,4.31-3.35,8.25-5.96,11.82-2.61,3.57-5.73,6.67-9.36,9.27l25.52,44.4h-36.41l-21.27-37.09h-13.44v37.09h-33.18Zm33.18-66.01h20.93c1.36,0,2.66-.51,3.91-1.53,1.25-1.02,2.3-2.49,3.15-4.42.85-1.93,1.28-4.25,1.28-6.98s-.49-5.19-1.45-7.06c-.96-1.87-2.16-3.32-3.57-4.34-1.42-1.02-2.81-1.53-4.17-1.53h-20.07v25.86Z"/>
      <path class="cls-5" d="m1324.09,895.95v28.92h-86.09v-120.8h84.56v28.92h-51.38v17.02h43.89v26.88h-43.89v19.05h52.91Z"/>
    </g>
    <g>
      <path class="cls-2" d="m729.87,958.37c0,1.12-.76,1.7-1.43,1.7-1.34,0-3-3.53-8.27-3.53-6.71,0-10.33,7.2-10.33,13.68s3.22,12.79,10.91,12.79c5.59,0,7.29-3.13,8.45-3.13.8,0,1.34.49,1.34,1.61,0,1.39-4.11,4.47-9.97,4.47-9.75,0-14.22-7.25-14.22-15.74s4.47-16.63,13.86-16.63c5.36,0,9.66,3.22,9.66,4.78Z"/>
      <path class="cls-2" d="m743.05,985.96c-6.84,0-10.24-5.46-10.24-12.16,0-5.99,3.27-12.16,10.24-12.16s10.24,6.17,10.24,12.16c0,6.71-3.4,12.16-10.24,12.16Zm0-2.68c5.01,0,6.75-5.14,6.75-9.48s-1.74-9.48-6.75-9.48-6.75,5.14-6.75,9.48,1.74,9.48,6.75,9.48Z"/>
      <path class="cls-2" d="m775.24,983.9c0,1.34-.58,2.06-1.61,2.06s-1.61-.72-1.61-2.06v-13.1c0-5.23-2.86-6.22-5.36-6.22s-5.45,2.15-5.45,6.22v13.1c0,1.34-.58,2.06-1.61,2.06s-1.61-.72-1.61-2.06v-20.21c0-1.34.58-2.06,1.61-2.06s1.61.71,1.61,2.06v1.16h.09c1.21-1.74,3.18-3.22,6.22-3.22,2.77,0,5.19,1.57,6.26,4.16,1.61-2.73,4.43-4.16,6.98-4.16,4.2,0,8.54,2.82,8.54,8.5v13.77c0,1.34-.58,2.06-1.61,2.06s-1.61-.72-1.61-2.06v-13.1c0-5.23-2.86-6.22-5.36-6.22s-5.45,2.15-5.45,6.22v13.1Z"/>
      <path class="cls-2" d="m812.43,983.9c0,1.34-.58,2.06-1.61,2.06s-1.61-.72-1.61-2.06v-13.1c0-5.23-2.86-6.22-5.36-6.22s-5.45,2.15-5.45,6.22v13.1c0,1.34-.58,2.06-1.61,2.06s-1.61-.72-1.61-2.06v-20.21c0-1.34.58-2.06,1.61-2.06s1.61.71,1.61,2.06v1.16h.09c1.21-1.74,3.18-3.22,6.22-3.22,2.77,0,5.19,1.57,6.26,4.16,1.61-2.73,4.43-4.16,6.98-4.16,4.2,0,8.54,2.82,8.54,8.5v13.77c0,1.34-.58,2.06-1.61,2.06s-1.61-.72-1.61-2.06v-13.1c0-5.23-2.86-6.22-5.36-6.22s-5.45,2.15-5.45,6.22v13.1Z"/>
      <path class="cls-2" d="m833.97,953.59c1.21,0,2.19.98,2.19,2.19s-.98,2.19-2.19,2.19-2.19-.98-2.19-2.19.98-2.19,2.19-2.19Zm1.61,30.32c0,1.34-.58,2.06-1.61,2.06s-1.61-.72-1.61-2.06v-20.21c0-1.34.58-2.06,1.61-2.06s1.61.71,1.61,2.06v20.21Z"/>
      <path class="cls-2" d="m845.51,983.9c0,1.34-.58,2.06-1.61,2.06s-1.61-.72-1.61-2.06v-19.32h-2.1c-1.07,0-1.38-.8-1.38-1.34s.31-1.34,1.38-1.34h2.1v-5.23c0-1.38.58-2.1,1.61-2.1s1.61.71,1.61,2.1v5.23h2.1c1.07,0,1.39.8,1.39,1.34s-.31,1.34-1.39,1.34h-2.1v19.32Z"/>
      <path class="cls-2" d="m856.24,983.9c0,1.34-.58,2.06-1.61,2.06s-1.61-.72-1.61-2.06v-19.32h-2.1c-1.07,0-1.38-.8-1.38-1.34s.31-1.34,1.38-1.34h2.1v-5.23c0-1.38.58-2.1,1.61-2.1s1.61.71,1.61,2.1v5.23h2.1c1.07,0,1.39.8,1.39,1.34s-.31,1.34-1.39,1.34h-2.1v19.32Z"/>
      <path class="cls-2" d="m865.22,975.23c.13,4.16,2.95,8.05,7.06,8.05,5.1,0,6.44-3.67,7.96-3.67.89,0,1.52.31,1.52,1.57,0,1.43-3.71,4.78-9.25,4.78-7.6,0-10.78-6.17-10.78-12.16s3.53-12.16,10.24-12.16,10.15,5.63,10.15,11.63c0,.85-.27,1.97-2.19,1.97h-14.71Zm13.41-2.68c-.13-3.98-2.37-8.23-6.71-8.23s-6.57,4.25-6.7,8.23h13.41Z"/>
      <path class="cls-2" d="m901.88,953.23c0-1.34.58-2.06,1.61-2.06s1.61.71,1.61,2.06v30.67c0,1.34-.58,2.06-1.61,2.06s-1.61-.72-1.61-2.06v-1.48h-.13c-1.43,2.33-3.8,3.53-6.58,3.53-6.84,0-10.24-5.46-10.24-12.16,0-5.99,3.27-12.16,10.15-12.16,2.77,0,4.83,1.16,6.66,3.53h.13v-11.94Zm-6.71,30.05c5.01,0,6.71-5.14,6.71-9.48s-1.7-9.48-6.71-9.48-6.75,5.14-6.75,9.48,1.74,9.48,6.75,9.48Z"/>
      <path class="cls-2" d="m925.75,983.9c0,1.34-.58,2.06-1.61,2.06s-1.61-.72-1.61-2.06v-19.32h-2.1c-1.07,0-1.38-.8-1.38-1.34s.31-1.34,1.38-1.34h2.1v-5.23c0-1.38.58-2.1,1.61-2.1s1.61.71,1.61,2.1v5.23h2.1c1.07,0,1.39.8,1.39,1.34s-.31,1.34-1.39,1.34h-2.1v19.32Z"/>
      <path class="cls-2" d="m941.48,985.96c-6.84,0-10.24-5.46-10.24-12.16,0-5.99,3.27-12.16,10.24-12.16s10.24,6.17,10.24,12.16c0,6.71-3.4,12.16-10.24,12.16Zm0-2.68c5.01,0,6.75-5.14,6.75-9.48s-1.74-9.48-6.75-9.48-6.75,5.14-6.75,9.48,1.74,9.48,6.75,9.48Z"/>
      <path class="cls-2" d="m989.5,958.37c0,1.12-.76,1.7-1.43,1.7-1.34,0-3-3.53-8.27-3.53-6.71,0-10.33,7.2-10.33,13.68s3.22,12.79,10.91,12.79c5.59,0,7.29-3.13,8.45-3.13.8,0,1.34.49,1.34,1.61,0,1.39-4.11,4.47-9.97,4.47-9.75,0-14.22-7.25-14.22-15.74s4.47-16.63,13.86-16.63c5.36,0,9.66,3.22,9.66,4.78Z"/>
      <path class="cls-2" d="m1002.68,985.96c-6.84,0-10.24-5.46-10.24-12.16,0-5.99,3.27-12.16,10.24-12.16s10.24,6.17,10.24,12.16c0,6.71-3.4,12.16-10.24,12.16Zm0-2.68c5.01,0,6.75-5.14,6.75-9.48s-1.74-9.48-6.75-9.48-6.75,5.14-6.75,9.48,1.74,9.48,6.75,9.48Z"/>
      <path class="cls-2" d="m1017.61,963.69c0-1.34.58-2.06,1.61-2.06s1.61.71,1.61,2.06v13.37c0,4.07,2.19,6.22,5.81,6.22s5.81-2.15,5.81-6.22v-13.37c0-1.34.58-2.06,1.61-2.06s1.61.71,1.61,2.06v14.17c0,5.14-3.94,8.09-9.03,8.09s-9.03-2.95-9.03-8.09v-14.17Z"/>
      <path class="cls-2" d="m1041.57,963.69c0-1.34.58-2.06,1.61-2.06s1.61.71,1.61,2.06v1.48h.13c1.43-2.33,3.8-3.53,6.58-3.53,6.84,0,10.24,5.46,10.24,12.16,0,5.99-3.27,12.16-10.15,12.16-2.77,0-4.83-1.16-6.66-3.53h-.13v10.87c0,1.34-.58,2.06-1.61,2.06s-1.61-.71-1.61-2.06v-29.6Zm9.93,19.59c5.01,0,6.75-5.14,6.75-9.48s-1.74-9.48-6.75-9.48-6.75,5.14-6.75,9.48,1.74,9.48,6.75,9.48Z"/>
      <path class="cls-2" d="m1069.65,983.9c0,1.34-.58,2.06-1.61,2.06s-1.61-.72-1.61-2.06v-30.67c0-1.34.58-2.06,1.61-2.06s1.61.71,1.61,2.06v30.67Z"/>
      <path class="cls-2" d="m1077.83,975.23c.13,4.16,2.95,8.05,7.06,8.05,5.1,0,6.44-3.67,7.96-3.67.89,0,1.52.31,1.52,1.57,0,1.43-3.71,4.78-9.25,4.78-7.6,0-10.78-6.17-10.78-12.16s3.53-12.16,10.24-12.16,10.15,5.63,10.15,11.63c0,.85-.27,1.97-2.19,1.97h-14.71Zm13.41-2.68c-.13-3.98-2.37-8.23-6.71-8.23s-6.57,4.25-6.7,8.23h13.41Z"/>
      <path class="cls-2" d="m1109.48,955.56c0-1.12.54-1.7,1.97-1.7h7.96c9.66,0,13.5,8.72,13.5,16.14,0,9.79-6.03,15.7-13.77,15.7h-7.69c-1.43,0-1.97-.58-1.97-1.7v-28.44Zm3.22,27.18h6.26c7.74,0,10.46-5.86,10.46-13.32,0-6.08-2.68-12.61-10.28-12.61h-6.44v25.93Z"/>
      <path class="cls-2" d="m1139.92,975.23c.13,4.16,2.95,8.05,7.06,8.05,5.1,0,6.44-3.67,7.96-3.67.89,0,1.52.31,1.52,1.57,0,1.43-3.71,4.78-9.25,4.78-7.6,0-10.78-6.17-10.78-12.16s3.53-12.16,10.24-12.16,10.15,5.63,10.15,11.63c0,.85-.27,1.97-2.19,1.97h-14.71Zm13.41-2.68c-.13-3.98-2.37-8.23-6.71-8.23s-6.57,4.25-6.7,8.23h13.41Z"/>
      <path class="cls-2" d="m1164.06,983.9c0,1.34-.58,2.06-1.61,2.06s-1.61-.72-1.61-2.06v-30.67c0-1.34.58-2.06,1.61-2.06s1.61.71,1.61,2.06v30.67Z"/>
      <path class="cls-2" d="m1171.57,953.59c1.21,0,2.19.98,2.19,2.19s-.98,2.19-2.19,2.19-2.19-.98-2.19-2.19.98-2.19,2.19-2.19Zm1.61,30.32c0,1.34-.58,2.06-1.61,2.06s-1.61-.72-1.61-2.06v-20.21c0-1.34.58-2.06,1.61-2.06s1.61.71,1.61,2.06v20.21Z"/>
      <path class="cls-2" d="m1194.82,963.69c0-1.34.58-2.06,1.61-2.06s1.61.71,1.61,2.06v20.88c0,7.38-5.14,10.78-10.37,10.78-4.74,0-9.12-2.68-9.12-4.29,0-.94.49-1.65,1.61-1.65,1.29,0,3.44,3,7.2,3s7.47-2.19,7.47-7.56v-2.5h-.09c-1.38,2.41-3.76,3.62-6.62,3.62-6.84,0-10.24-5.46-10.24-12.16,0-5.99,3.27-12.16,10.15-12.16,2.82,0,5.36,1.57,6.7,3.49h.09v-1.43Zm-6.71,19.59c4.34,0,6.75-3.89,6.75-7.2v-4.56c0-3.36-2.41-7.2-6.75-7.2-5.01,0-6.75,5.14-6.75,9.48s1.74,9.48,6.75,9.48Z"/>
      <path class="cls-2" d="m1207.16,983.9c0,1.34-.58,2.06-1.61,2.06s-1.61-.72-1.61-2.06v-30.67c0-1.34.58-2.06,1.61-2.06s1.61.71,1.61,2.06v11.63h.09c1.21-1.74,3.18-3.22,6.22-3.22,4.2,0,8.54,2.82,8.54,8.5v13.77c0,1.34-.58,2.06-1.61,2.06s-1.61-.72-1.61-2.06v-13.86c0-3.31-2.23-5.45-5.81-5.45-2.99,0-5.81,2.15-5.81,6.22v13.1Z"/>
      <path class="cls-2" d="m1231.92,983.9c0,1.34-.58,2.06-1.61,2.06s-1.61-.72-1.61-2.06v-19.32h-2.1c-1.07,0-1.38-.8-1.38-1.34s.31-1.34,1.38-1.34h2.1v-5.23c0-1.38.58-2.1,1.61-2.1s1.61.71,1.61,2.1v5.23h2.1c1.07,0,1.39.8,1.39,1.34s-.31,1.34-1.39,1.34h-2.1v19.32Z"/>
    </g>
  </g>
</svg>