<?xml version="1.0" encoding="UTF-8"?>
<svg id="Layer_1" data-name="Layer 1" xmlns="http://www.w3.org/2000/svg" viewBox="0 0 1920 1080">
  <defs>
    <style>
      .cls-1 {
        fill: #79b5e2;
      }

      .cls-1, .cls-2, .cls-3, .cls-4, .cls-5, .cls-6, .cls-7, .cls-8, .cls-9 {
        stroke-width: 0px;
      }

      .cls-2 {
        fill: #209bbe;
      }

      .cls-3 {
        fill: #58595b;
      }

      .cls-4, .cls-6, .cls-7 {
        fill-rule: evenodd;
      }

      .cls-4, .cls-8 {
        fill: #ee3f65;
      }

      .cls-5 {
        fill: #a6a8ab;
      }

      .cls-6, .cls-9 {
        fill: #59595c;
      }

      .cls-7 {
        fill: #4d4e4e;
      }
    </style>
  </defs>
  <g>
    <path class="cls-7" d="m537.38,126.54c-1.42-1.79-2.84-3.57-4.27-5.37,12.38-13.25,24.75-26.5,37.1-39.74,50.51,69.87,63.93,152.99,46.25,204.92-28.47,83.72-139.14,83.93-169.95,12.58-10.25-29.74,1.76-54.52,22.33-68.65,13.89-9.54,27.22-13.44,43.63-10.53,17.36,3.07,39.02,11.62,60.28,16.57,5.62,1.31,21.08,5.57,25.36,3.56,4.07-1.92,4.07-6.93,4.39-10.14,1.28.6,3.03,1.3,4.3,1.89l-9.95,24.53c-26.6-7.01-53.36-14.1-79.96-21.09-16.15-3.2-30.37-2.69-42.19,2.41-39.65,17.07-31.39,60.56-1.59,84.65,50.61,40.88,121.96,17.45,140.01-46.75,11.9-42.31,1.95-74.8-13.37-114.67-9.14-23.74-20.57-45.09-35.09-63.21-9.09,9.68-18.19,19.36-27.29,29.04"/>
    <path class="cls-3" d="m604.58,92.31v-9.77h1.84l2.21,6.91c.21.65.35,1.13.45,1.44.1-.35.27-.87.5-1.56l2.23-6.79h1.66v9.77h-1.19v-8.17l-2.71,8.17h-1.12l-2.69-8.32v8.32h-1.18Zm-5.56,0v-8.62h-3.07v-1.15h7.37v1.15h-3.06v8.62h-1.24Zm14.45-14.06c-2.24-2.35-5.35-3.8-8.75-3.8s-6.53,1.45-8.77,3.8c-2.25,2.34-3.64,5.59-3.64,9.18s1.39,6.83,3.64,9.18c2.23,2.34,5.33,3.79,8.77,3.79s6.51-1.45,8.75-3.79c2.24-2.35,3.63-5.59,3.63-9.18s-1.39-6.83-3.63-9.18m-8.75-5.22c3.79,0,7.22,1.61,9.72,4.21,2.49,2.61,4.03,6.21,4.03,10.19s-1.54,7.58-4.03,10.17c-2.49,2.61-5.93,4.23-9.72,4.23s-7.24-1.62-9.72-4.23c-2.5-2.6-4.04-6.2-4.04-10.17s1.54-7.58,4.04-10.19c2.48-2.6,5.92-4.21,9.72-4.21"/>
    <path class="cls-4" d="m504.75,291.84c-1.25-6.46-5.64-9.44-10.63-9.69-11.76-.59-18.07,13.9-16.78,24.56,1.21,10.04,8.87,17.57,23.26,16.02,9.5,6.25,17.12,11.07,25.74,13.37,12.53,3.35,30.56,1.83,36.37-12.39,4.03-9.85-2.84-20.55-14.14-23.73-.36-4.71-.71-9.44-1.08-14.19,3.24-6.47-2.9-10.29-6.89-11.47-2.39-.12-4.06,2.66-2.86,4.44,1.81,2.1,3.5,3.11,4.58,6.14-.46,4.97-4.3,10.59-6.46,15.31-2.56,4.71-2.12,8.7,2.37,11.72,3.52,1.47,4.87,3.26,3.87,5.41-3.3.76-3.71-4.01-7.74-5.63-3.96.26-7.81,4.82-11.18,2.7,1.1-4.28,1.78-8.45,1.28-12.39-.11-3.08-3.63-3.75-4.94-6.53,1.07-1.57,2.32-2.79,1.83-5.63-2.03-2.53-6.2-1.76-6.41-.19.28,1.87.32,4.08,1.05,5.84.87,2.72,1.1,5.26,2.88,7.42-.93,1.49-1.86,3-2.8,4.5-.59,1.36-2.96-.57-1.97-2.76,3.16-5.19-.18-9.99-2.35-10.64.14-.9-.31-2.46-.84-3.19-1.8.97-4.02,1.34-6.17,1.02"/>
    <path class="cls-4" d="m576.45,125.52c-2.06,10.27-4.11,20.55-6.17,30.82-.7-5.87-2.24-10.13-4.46-13.09-7.74-10.29-36.29-4.79-46.34-.63-9.89,4.07-18.54,10.63-26,19.57-21.58,25.17-35.63,91.6,1.43,105.13,22.04,8.04,58.96-12.01,62.24-38.83,1.43-11.7-2.23-23.9-11-31.78,17.61-2.48,28.08,3.83,21.18,31.43-4.25,10.6-9.74,19.32-16.38,26.3-22.9,24.01-79.17,35.1-89.96-5.85-8.28-31.37,4.98-69.27,27.39-91.14,10.26-10.01,22.91-18.01,38.05-23.91,16.29-6.32,32.89-9.67,50.02-8.01"/>
    <path class="cls-3" d="m745.65,338c-8.24,11.1-18.68,15.1-28.83,15.1-32.35,0-51.63-25.41-51.63-57.14s19.27-58.06,51.63-58.06c21.47,0,41.92,13.71,44.28,38.81h-22.07c-2.79-12.32-11.18-18.48-22.21-18.48-20.74,0-28.53,18.48-28.53,37.74s7.79,36.8,28.53,36.8c15.15,0,23.68-8.31,25.01-23.72h-23.25v-18.02h44.13v59.46h-14.7l-2.36-12.49Z"/>
    <path class="cls-3" d="m778.29,295.34c1.18-20.33,18.67-26.65,35.74-26.65,15.15,0,33.39,3.54,33.39,22.63v41.44c0,7.24.73,14.47,2.65,17.71h-21.19c-.74-2.46-1.32-5.08-1.47-7.7-6.62,7.24-16.19,9.86-25.6,9.86-14.55,0-25.88-7.54-25.88-23.87.29-36.2,51.48-16.79,50.6-34.66,0-9.24-6.19-10.78-13.54-10.78-8.09,0-13.09,3.39-13.82,12.02h-20.89Zm48.24,16.17c-3.53,3.24-10.89,3.39-17.35,4.62-6.48,1.23-12.36,3.69-12.36,11.7s6.03,10.16,12.79,10.16c16.32,0,16.92-13.39,16.92-18.32v-8.16Z"/>
    <path class="cls-3" d="m863.59,270.86h19.85v14.78h.3c3.97-10.01,13.82-16.94,24.27-16.94,1.62,0,3.09.31,4.56.78v20.32c-1.93-.46-5.01-.76-7.51-.76-15.44,0-20.59,11.39-20.59,25.56v35.89h-20.88v-79.62Z"/>
    <path class="cls-3" d="m920.8,240.51h20.89v40.05h.29c5.15-8.16,14.57-11.87,23.98-11.87,15.15,0,31.47,12.79,31.47,41.9s-16.32,42.04-31.47,42.04c-11.17,0-20.45-3.53-25.01-12.32h-.29v10.17h-19.86v-109.97Zm37.95,44.67c-12.35,0-17.8,12.02-17.8,25.56s5.44,25.41,17.8,25.41,17.8-12.17,17.8-25.41-5.44-25.56-17.8-25.56"/>
    <path class="cls-3" d="m1010.65,240.51h20.89v41.43h.44c5.3-9.09,14.42-13.25,22.22-13.25,22.2,0,27.79,13.1,27.79,32.81v48.98h-20.88v-44.98c0-13.09-3.53-19.56-13.39-19.56-11.32,0-16.18,6.62-16.18,22.8v41.74h-20.89v-109.97Z"/>
    <path class="cls-3" d="m1096.98,295.34c1.18-20.33,18.67-26.65,35.73-26.65,15.15,0,33.39,3.54,33.39,22.63v41.44c0,7.24.74,14.47,2.66,17.71h-21.19c-.74-2.46-1.33-5.08-1.48-7.7-6.61,7.24-16.18,9.86-25.59,9.86-14.55,0-25.88-7.54-25.88-23.87.29-36.2,51.48-16.79,50.59-34.66,0-9.24-6.18-10.78-13.53-10.78-8.09,0-13.09,3.39-13.82,12.02h-20.89Zm48.24,16.17c-3.52,3.24-10.89,3.39-17.35,4.62-6.47,1.23-12.35,3.69-12.35,11.7s6.03,10.16,12.79,10.16c16.32,0,16.92-13.39,16.92-18.32v-8.16Z"/>
    <path class="cls-3" d="m1260.38,338c-8.24,11.1-18.68,15.1-28.83,15.1-32.36,0-51.64-25.41-51.64-57.14s19.28-58.06,51.64-58.06c21.47,0,41.91,13.71,44.27,38.81h-22.06c-2.79-12.32-11.18-18.48-22.21-18.48-20.75,0-28.53,18.48-28.53,37.74s7.79,36.8,28.53,36.8c15.15,0,23.68-8.31,25-23.72h-23.23v-18.02h44.13v59.46h-14.7l-2.36-12.49Z"/>
    <path class="cls-3" d="m1365.23,350.48h-19.85v-11.09h-.45c-5.29,9.08-14.42,13.24-23.24,13.24-22.2,0-27.78-13.09-27.78-32.81v-48.96h20.87v44.97c0,13.09,3.54,19.56,13.39,19.56,11.33,0,16.18-6.63,16.18-22.8v-41.73h20.89v79.62Z"/>
    <path class="cls-3" d="m1435.37,340.31h-.29c-4.85,8.63-13.23,12.32-23.09,12.32-22.95,0-34.13-20.48-34.13-42.65s11.33-41.29,33.68-41.29c8.97,0,17.8,4.01,22.5,11.87h.3v-40.05h20.88v109.97h-19.86v-10.17Zm-18.22-55.13c-13.69,0-18.4,12.48-18.4,25.41s5.45,25.56,18.4,25.56c13.67,0,17.94-12.62,17.94-25.71s-4.41-25.26-17.94-25.26"/>
    <path class="cls-3" d="m1492.43,258.53h-20.88v-18.02h20.88v18.02Zm-20.88,12.32h20.89v79.62h-20.89v-79.62Z"/>
    <polygon class="cls-9" points="428.97 324.91 426.02 320.36 427.58 319.25 434.76 330.31 433.19 331.42 430.23 326.85 417.53 335.89 416.26 333.94 428.97 324.91"/>
    <polygon class="cls-9" points="437.83 334.22 432.41 339.22 437.93 345.78 443.35 340.79 444.84 342.56 431.88 354.49 430.39 352.73 436.46 347.14 430.95 340.57 424.87 346.17 423.4 344.41 436.36 332.48 437.83 334.22"/>
    <polygon class="cls-9" points="448.76 359.25 443.73 354.59 439.6 359.47 445.2 364.67 443.96 366.14 436.69 359.39 448.15 345.85 455.13 352.33 453.89 353.8 448.57 348.87 444.95 353.15 449.98 357.81 448.76 359.25"/>
    <path class="cls-9" d="m464.96,380.4c-.92-.09-2.52-.63-4.31-1.78-4.15-2.68-5.64-7.43-2.67-12.49,2.85-4.81,7.89-6.06,12.45-3.11,1.83,1.19,2.74,2.34,3.08,2.94l-1.41,1.32c-.51-.83-1.37-1.77-2.59-2.55-3.44-2.24-7.09-1.41-9.48,2.63-2.22,3.77-1.58,7.53,2,9.84,1.16.75,2.48,1.26,3.47,1.37l-.54,1.83Z"/>
    <path class="cls-9" d="m486.28,381.34c-2.42,5.67-7.01,7.15-11.03,5.25-4.16-1.94-5.64-6.68-3.51-11.68,2.24-5.24,6.81-7.21,11.02-5.24,4.29,2.02,5.6,6.77,3.51,11.66m-12.34-5.45c-1.5,3.52-1.02,7.53,2.17,9.02,3.23,1.52,6.38-.74,7.97-4.48,1.4-3.28,1.23-7.47-2.16-9.06-3.37-1.57-6.44.89-7.99,4.52"/>
    <path class="cls-9" d="m488.58,388.81c.78.91,2.03,1.87,3.5,2.34,2.19.69,3.81-.12,4.31-1.87.47-1.61-.15-2.82-2.12-4.43-2.41-1.85-3.65-3.84-2.95-6.28.78-2.7,3.48-4.02,6.7-3.01,1.7.53,2.8,1.33,3.41,2l-1.11,1.64c-.45-.48-1.41-1.33-2.9-1.81-2.26-.72-3.52.42-3.87,1.61-.46,1.62.32,2.73,2.32,4.37,2.47,2.02,3.49,3.88,2.75,6.42-.77,2.68-3.32,4.39-7.22,3.16-1.59-.5-3.2-1.55-3.9-2.43l1.08-1.71Z"/>
    <path class="cls-9" d="m518.64,390.71c.26-2.52.56-5.53.91-7.75h-.07c-.9,1.98-1.95,4.09-3.18,6.42l-4.31,8.15-1.67-.27-1.48-8.96c-.43-2.65-.77-5.06-.93-7.26h-.05c-.39,2.21-.96,5.18-1.52,7.83l-1.61,7.58-2.09-.35,3.88-17.65,2.81.46,1.61,9.12c.38,2.32.66,4.38.81,6.29l.07.02c.71-1.74,1.61-3.59,2.71-5.72l4.33-8.13,2.81.46-1.62,18.03-2.15-.37.75-7.9Z"/>
    <polygon class="cls-6" points="529.1 381.16 528.4 399.22 526.18 399.12 526.88 381.06 529.1 381.16"/>
    <path class="cls-9" d="m546.76,398.18c-.79.47-2.41.99-4.51,1.1-4.86.25-8.68-2.77-8.96-8.69-.28-5.65,3.2-9.67,8.55-9.96,2.15-.11,3.53.3,4.14.59l-.45,1.94c-.87-.39-2.08-.64-3.51-.57-4.05.22-6.61,3.06-6.38,7.81.21,4.42,2.78,7.13,6.98,6.91,1.36-.07,2.73-.44,3.6-.94l.55,1.83Z"/>
    <path class="cls-9" d="m561.75,396.34l-8.51-16.4,2.28-.61,4.14,8.33c1.03,2.05,2.01,4.11,2.72,5.72h.05c-.15-1.83-.14-4.05-.12-6.47l.09-9.42,2.25-.61,4.2,8.34c.97,1.96,1.93,3.92,2.64,5.7h.05c-.12-2.03-.12-4.11-.14-6.44l.07-9.42,2.21-.59-.48,18.8-2.26.6-4.33-8.56c-1.06-2.1-1.83-3.72-2.48-5.43h-.05c.12,1.83.17,3.65.1,6.08l-.17,9.76-2.25.61Z"/>
    <path class="cls-9" d="m592.96,375.2c2.38,5.7.34,10.25-3.69,12.09-4.18,1.93-8.53-.12-10.63-5.14-2.19-5.26-.52-10.13,3.71-12.07,4.31-1.98,8.56.2,10.62,5.11m-12.16,5.9c1.48,3.54,4.64,5.87,7.85,4.4,3.23-1.49,3.76-5.45,2.19-9.2-1.38-3.3-4.46-5.98-7.86-4.42-3.37,1.55-3.7,5.59-2.17,9.22"/>
    <path class="cls-9" d="m609.98,365.78c-1.41-2.06-3.09-4.51-4.24-6.42l-.07.04c.59,2.11,1.15,4.42,1.7,7.02l1.96,9.1-1.43.96-6.78-5.68c-2-1.68-3.78-3.25-5.29-4.78l-.04.03c1.1,1.93,2.56,4.55,3.82,6.91l3.6,6.79-1.78,1.2-8.3-15.9,2.4-1.61,6.98,5.7c1.74,1.47,3.27,2.81,4.6,4.14l.07-.05c-.57-1.78-1.08-3.8-1.61-6.15l-1.91-9.1,2.39-1.61,10.21,14.61-1.83,1.23-4.45-6.44Z"/>
    <path class="cls-9" d="m610.1,353.24c.59-.83,1.66-2.01,2.84-3.07,1.68-1.53,3.02-2.21,4.41-2.26,1.12-.08,2.2.36,3.07,1.43,1.09,1.32,1.22,3.23.27,5l.05.04c1.5-.79,3.84-1.03,5.52,1,.97,1.17,1.26,2.47,1.16,3.73-.19,1.7-1.33,3.43-3.46,5.37-1.16,1.05-2.12,1.78-2.74,2.21l-11.12-13.44Zm6.31,4.07l1.53-1.39c1.79-1.61,2.03-3.53.93-4.85-1.32-1.6-3.01-1.17-4.72.37-.76.71-1.16,1.17-1.38,1.48l3.64,4.4Zm5.41,6.55c.39-.24.87-.65,1.49-1.2,1.73-1.58,2.79-3.71,1.15-5.7-1.55-1.86-3.71-1.25-5.55.42l-1.4,1.26,4.31,5.21Z"/>
    <path class="cls-4" d="m1175.58,122.96v-7.68h1.46l1.72,5.42c.17.52.28.89.35,1.14.09-.27.22-.69.4-1.23l1.76-5.33h1.3v7.68h-.93v-6.43l-2.14,6.43h-.87l-2.11-6.54v6.54h-.93Zm-4.37,0v-6.77h-2.41v-.9h5.8v.9h-2.41v6.77h-.97Zm11.36-11.06c-1.76-1.85-4.18-2.98-6.89-2.98s-5.13,1.14-6.89,2.98c-1.76,1.85-2.86,4.4-2.86,7.21s1.1,5.36,2.86,7.21c1.76,1.85,4.19,2.99,6.89,2.99s5.13-1.14,6.89-2.99c1.76-1.84,2.86-4.39,2.86-7.21s-1.1-5.37-2.86-7.21m-6.89-4.11c2.98,0,5.68,1.27,7.64,3.32,1.95,2.05,3.17,4.87,3.17,8s-1.22,5.96-3.17,8c-1.96,2.05-4.66,3.32-7.64,3.32s-5.68-1.27-7.64-3.32c-1.96-2.04-3.17-4.88-3.17-8s1.21-5.95,3.17-8c1.96-2.05,4.66-3.32,7.64-3.32"/>
    <path class="cls-8" d="m756.26,166.93c0,15.68-3.45,27.13-10.33,34.34-.33-3.88-2.62-5.83-6.89-5.83-1.74,0-4.07.97-6.97,2.92-2.89,1.94-5.22,2.91-6.96,2.91-3.18,0-5.69-1.78-7.54-5.34-1.53-2.87-2.3-6.08-2.3-9.64,0-5.28,2.3-8.54,6.89-9.81,4.26-.8,8.52-1.61,12.79-2.41,4.59-1.72,6.88-5.57,6.88-11.54,0-7-3.56-12.51-10.66-16.53-5.9-3.33-12.52-4.99-19.83-4.99s-13.83,1.61-19.51,4.82c-6.99,4.02-10.49,9.53-10.49,16.53s2.35,10.67,7.05,12.05c4.27.46,8.58.87,12.96,1.21,4.69,1.15,7.05,4.76,7.05,10.84,0,3.22-.77,5.97-2.3,8.27-.33.46-2.19,2.64-5.57,6.54-.44-3.88-2.46-5.83-6.06-5.83-1.64,0-3.72.97-6.24,2.92-2.51,1.94-4.59,2.91-6.22,2.91-5.91,0-10.23-4.12-12.96-12.39-1.76-5.63-2.63-12.4-2.63-20.32,0-6.32,1.51-11.97,4.52-16.96,3-4.99,7.29-8.52,12.86-10.59h-10.01c-4.16,0-6.23,1.43-6.23,4.29,0,1.04.33,2.24.98,3.61l-.48.51c-1.97-2.4-3.01-5.49-3.12-9.27-.11-1.83.36-3.82,1.39-6,1.04-2.17,1.61-4.07,1.73-5.67.22-2.74-.6-5.61-2.46-8.58l.49-.68c1.52,2.37,2.7,3.77,3.52,4.18.82.41,2.65.62,5.5.62h58.69v13.39c6.45,2.63,11.7,6.35,15.74,11.15,4.48,5.5,6.72,11.62,6.72,18.37"/>
    <path class="cls-8" d="m760.36,100.14c-1.31-1.71-2.78-2.57-4.43-2.57-2.95,0-4.43,1.88-4.43,5.66,0,1.94,1.01,5.16,3.03,9.61,2.02,4.46,3.09,7.9,3.2,10.3.22,5.61-1.31,9.99-4.59,13.13-3.28,3.15-7.43,4.73-12.47,4.73h-15.9v-17h15.57c5.25,0,7.87-2.01,7.87-6.04,0-1.83-1.69-4.89-5.08-9.15-3.17-3.91-4.48-7.59-3.94-11.04.44-2.53,1.73-4.46,3.85-5.78,2.14-1.32,4.57-1.87,7.3-1.64,5.79.46,9.12,3.73,10,9.78"/>
    <path class="cls-8" d="m852.82,166.93c0,16.6-5.99,28.04-17.97,34.34-1.63-6.18-5.72-9.27-12.26-9.27-3.8,0-9.14,1.54-16,4.63-6.86,3.09-12.25,4.63-16.17,4.63-7.95,0-14.38-2.17-19.27-6.52-5.23-4.69-7.84-11.16-7.84-19.4,0-9.62,3.09-16.14,9.25-19.57,1.95-1.04,7.69-2.41,17.22-4.12,6.18-1.14,9.27-3.83,9.27-8.07,0-5.61-3.56-8.42-10.66-8.42-2.41,0-4.54.63-6.39,1.87-2.19,1.36-3.28,3.16-3.28,5.42,0,3.39,1.91,5.08,5.74,5.08,1.85,0,3.72-.35,5.58-1.04-.88,2.75-3.23,4.12-7.06,4.12-.98,0-2.45-.14-4.43-.43-1.96-.29-3.39-.43-4.26-.43-3.28,0-5.31,1.72-6.06,5.15-3.28-3.3-4.92-7.56-4.92-12.81,0-6.02,2.29-10.7,6.88-13.99,4.05-2.73,9.13-4.1,15.25-4.1,6.45,0,11.64,1.42,15.57,4.26,4.59,3.3,6.89,8.18,6.89,14.67,0,5.91-2.26,10.23-6.8,12.96-1.3.8-5.46,2.33-12.46,4.6-4.54,1.36-6.81,3.41-6.81,6.14,0,5.57,3.62,8.35,10.84,8.35,9.71,0,14.52-3.96,14.41-11.9v-4.93h1.8c-.44,6.47.76,10.93,3.61,13.43,2.51,2.26,6.99,3.39,13.44,3.39,5.03,0,9.27-1.54,12.71-4.61,3.43-3.07,5.16-7.17,5.16-12.3s-2.13-9.62-6.4-12.81c-3.94-2.85-8.52-4.27-13.77-4.27-6.89,0-10.33,1.55-10.33,4.64,0,.96.33,2.15.99,3.58l-.5.54c-2.07-2.54-3.11-5.67-3.11-9.37,0-1.62.54-3.88,1.64-6.77,1.09-2.9,1.64-5.15,1.64-6.77,0-2.08-.87-4.4-2.62-6.95l.48-.69c2.19,3.2,5.69,4.8,10.49,4.8h8.03v10.81c7.43,1.61,13.12,5.44,17.05,11.51,3.6,5.49,5.4,12.35,5.4,20.59"/>
    <path class="cls-8" d="m818.23,215.51c0,3.1-1.26,5.38-3.77,6.87,0-.8-.35-1.58-1.06-2.32-.7-.74-1.45-1.05-2.21-.94-.77.12-2.21.73-4.35,1.81-2.13,1.08-3.58,1.56-4.34,1.45-3.06-.71-4.6-2.9-4.6-6.61,0-3.37,1.27-6.85,3.78-10.44,2.08-3.02,4.2-6.03,6.39-9.05,2.19,2.98,4.33,5.95,6.4,8.93,2.51,3.54,3.77,6.98,3.77,10.29"/>
    <path class="cls-8" d="m857.08,100.14c-1.31-1.71-2.78-2.57-4.43-2.57-2.94,0-4.43,1.88-4.43,5.66,0,1.94,1.02,5.16,3.04,9.61,2.02,4.46,3.08,7.9,3.2,10.3.22,5.61-1.32,9.99-4.59,13.13-3.28,3.15-7.43,4.73-12.46,4.73h-15.91v-17h15.57c5.25,0,7.87-2.01,7.87-6.04,0-1.83-1.69-4.89-5.08-9.15-3.17-3.91-4.48-7.59-3.94-11.04.44-2.53,1.72-4.46,3.84-5.78,2.13-1.32,4.57-1.87,7.31-1.64,5.79.46,9.12,3.73,9.99,9.78"/>
    <path class="cls-8" d="m931.84,140.15c-.1,3.78-1.14,6.87-3.11,9.27l-.5-.52c.66-1.26.99-2.35.99-3.26,0-3.09-2.3-4.63-6.89-4.63h-40.16c-1.87,0-3.56.65-5.08,1.98-1.53,1.31-2.3,2.88-2.3,4.72,0,5.26,4.72,7.89,14.15,7.89,3.65,0,6.21-1.08,7.65-3.26l.33.35c-1.2,1.49-1.75,2.97-1.64,4.46.11.8.41,1.78.9,2.92.5,1.14.74,2.17.74,3.09-.11,1.93-.66,3.49-1.64,4.63l-.33-.17c.33-.46.5-.91.5-1.38,0-.91-.59-1.68-1.73-2.32-1.14-.63-2.27-.94-3.36-.94-5.36.12-8.58.34-9.67.69-3.28.69-4.87,2.46-4.76,5.32.11,4.7,4.98,7.04,14.59,7.04,13.77,0,22.03-3.09,24.76-9.27.33,4.14.5,7.47.5,10.01,0,10.24-3.34,18.4-10,24.5-.55-4.47-3.56-6.7-9.02-6.7-2.3,0-5.27,1.12-8.94,3.35-3.65,2.24-6.69,3.35-9.09,3.35-5.9,0-10.55-2.24-13.94-6.7-3.39-4.46-5.08-10.01-5.08-16.65,0-8.12,3.11-14.13,9.35-18.03-6.24-2.73-9.35-8.23-9.35-16.47,0-5.26,1.83-9.82,5.49-13.65,3.66-3.84,8.01-5.75,13.03-5.75h43.45c2.85,0,4.68-.21,5.49-.62.82-.42,2-1.81,3.54-4.19l.49.69c-1.86,2.98-2.69,5.84-2.47,8.59.11,1.61.69,3.49,1.72,5.66,1.04,2.18,1.5,4.18,1.39,6.01"/>
    <path class="cls-8" d="m1030.52,166.93c0,15.68-3.45,27.13-10.33,34.34-.33-3.88-2.63-5.83-6.89-5.83-1.76,0-4.07.97-6.97,2.92-2.9,1.94-5.22,2.91-6.97,2.91-3.17,0-5.68-1.78-7.54-5.34-1.53-2.87-2.3-6.08-2.3-9.64,0-5.28,2.3-8.54,6.89-9.81,4.27-.8,8.53-1.61,12.79-2.41,4.59-1.72,6.89-5.57,6.89-11.54,0-7-3.55-12.51-10.65-16.53-5.91-3.33-12.52-4.99-19.84-4.99s-13.83,1.61-19.51,4.82c-7,4.02-10.49,9.53-10.49,16.53s2.35,10.67,7.05,12.05c4.27.46,8.58.87,12.96,1.21,4.69,1.15,7.06,4.76,7.06,10.84,0,3.22-.77,5.97-2.3,8.27-.33.46-2.19,2.64-5.58,6.54-.44-3.88-2.46-5.83-6.06-5.83-1.64,0-3.73.97-6.23,2.92-2.52,1.94-4.59,2.91-6.23,2.91-5.91,0-10.23-4.12-12.96-12.39-1.76-5.63-2.63-12.4-2.63-20.32,0-6.32,1.5-11.97,4.52-16.96,3-4.99,7.3-8.52,12.86-10.59h-10c-4.16,0-6.23,1.43-6.23,4.29,0,1.04.33,2.24.99,3.61l-.49.51c-1.96-2.4-3-5.49-3.12-9.27-.1-1.83.36-3.82,1.4-6,1.04-2.17,1.61-4.07,1.72-5.67.22-2.74-.6-5.61-2.46-8.58l.5-.68c1.52,2.37,2.7,3.77,3.52,4.18.82.41,2.66.62,5.49.62h58.7v13.39c6.45,2.63,11.7,6.35,15.74,11.15,4.48,5.5,6.73,11.62,6.73,18.37"/>
    <path class="cls-8" d="m1034.61,100.14c-1.31-1.71-2.78-2.57-4.43-2.57-2.95,0-4.43,1.88-4.43,5.66,0,1.94,1.01,5.16,3.04,9.61,2.02,4.46,3.09,7.9,3.2,10.3.22,5.61-1.32,9.99-4.59,13.13-3.28,3.15-7.43,4.73-12.46,4.73h-15.9v-17h15.57c5.25,0,7.87-2.01,7.87-6.04,0-1.83-1.69-4.89-5.08-9.15-3.17-3.91-4.48-7.59-3.94-11.04.44-2.53,1.73-4.46,3.86-5.78,2.13-1.32,4.56-1.87,7.3-1.64,5.8.46,9.13,3.73,10,9.78"/>
    <path class="cls-8" d="m1076.08,163.24c0,18.01-3.6,30.69-10.81,38.02-.44-4.46-3.12-6.69-8.04-6.69-1.85,0-4.26,1.11-7.21,3.35-2.95,2.23-5.35,3.34-7.21,3.34-6.89,0-11.91-3.72-15.08-11.21-2.4-5.51-3.6-12.41-3.6-20.69l4.91-8.1c-.33,9.27,6.72,13.9,21.15,13.9,5.46,0,9.94-1.36,13.44-4.09,3.94-2.97,5.89-7.24,5.89-12.82,0-11.51-6.89-17.25-20.65-17.25-5.91,0-8.86,1.51-8.86,4.54l.82,3.37-.49.5c-2.08-2.64-3.11-5.72-3.11-9.27,0-1.6.55-3.82,1.64-6.69,1.09-2.86,1.64-5.04,1.64-6.53,0-2.17-.87-4.52-2.62-7.04l.5-.69c3.06,4.58,6.99,6.87,11.81,6.87.98,0,2.45-.34,4.43-1.03,1.97-.68,3.5-1.02,4.59-1.02,6.56,0,11.25,5.22,14.1,15.66,1.85,6.65,2.78,14.5,2.78,23.56"/>
    <path class="cls-8" d="m1172.5,168.58c0,15.48-6.02,26.37-18.04,32.68-1.64-6.18-5.68-9.27-12.13-9.27-3.94,0-9.35,1.54-16.23,4.64-6.89,3.09-12.3,4.63-16.23,4.63-7.77,0-14.33-3.27-19.67-9.8-5.03-6.08-7.54-13.31-7.54-21.68,0-12.04,5.41-20.7,16.23-25.97-3.17-2.64-4.75-6.65-4.75-12.05,0-6.19,3.66-10.89,10.99-14.09,5.46-2.41,11.69-3.62,18.69-3.62,10.59,0,19.56,2.75,26.88,8.25,7.88,5.85,12.69,14.05,14.44,24.6,4.91,4.13,7.38,11.36,7.38,21.67m-10.99-3.54c-3.61,4.24-8.26,6.36-13.93,6.36-4.15,0-7.93-1.4-11.32-4.21-3.38-2.8-5.08-6.32-5.08-10.56,0-4.69,1.98-8.35,5.91-10.98,3.28-2.18,7.32-3.27,12.13-3.27,2.51,0,4.54.57,6.07,1.72-3.18-12.6-9.19-19.3-18.03-20.09,1.63,2.38,2.45,5.01,2.45,7.85,0,6.02-2.62,10.57-7.87,13.64-4.37,2.61-9.62,3.92-15.74,3.92-3.5,0-7.17-.8-10.98-2.41-4.81,4.33-7.22,9.22-7.22,14.67,0,8.88,4.92,13.31,14.76,13.31,4.04,0,7.43-1.18,10.17-3.56,2.73-2.38,4.09-5.66,4.09-9.82h1.64c-.1,8.92,5.63,13.39,17.22,13.39,7.98,0,13.22-3.32,15.74-9.96m-30.34-32.78c0-2.41-.89-4.41-2.7-6.02-1.81-1.6-3.86-2.4-6.15-2.4-2.63,0-4.98.8-7.06,2.4-2.08,1.61-3.11,3.72-3.11,6.36s.99,4.69,2.95,6.18c1.97,1.49,4.26,2.23,6.88,2.23,2.3,0,4.41-.86,6.32-2.58,1.91-1.72,2.87-3.78,2.87-6.17m26.73,23.01c0-1.72-.57-3.21-1.72-4.47-1.15-1.25-2.55-1.89-4.18-1.89s-3.03.63-4.18,1.89c-1.14,1.26-1.72,2.75-1.72,4.47s.58,3.2,1.72,4.46c1.16,1.27,2.54,1.89,4.18,1.89s3.03-.63,4.18-1.89c1.14-1.26,1.72-2.75,1.72-4.46"/>
  </g>
  <rect class="cls-5" x="417.28" y="458.29" width="1086.46" height="3.07"/>
  <g>
    <path class="cls-3" d="m860.95,991.75h4.56l10.02-38.09h-4.56l-10.02,38.09Zm11.92-45.26h4.56l1.96-7.45h-4.56l-1.96,7.45Z"/>
    <polygon class="cls-3" points="875.81 991.75 880.37 991.75 894.25 939.04 889.68 939.04 875.81 991.75"/>
    <polygon class="cls-3" points="890.68 991.75 895.25 991.75 909.12 939.04 904.56 939.04 890.68 991.75"/>
    <path class="cls-3" d="m945.82,953.66h-4.56l-5.27,20.01c-2.04,7.76-7.43,15.28-15.27,15.28-7.26,0-8.84-3.61-7.26-10.48l6.54-24.82h-4.56l-6.51,24.74c-2.35,8.93-.19,14.46,9.31,14.46,5.59,0,11.28-2.88,15.02-7.97h.14l-1.8,6.85h4.2l10.02-38.09Z"/>
    <path class="cls-3" d="m945.88,991.75h4.56l5.6-21.27c2.1-7.97,7.03-14.03,14.87-14.03,5.88,0,6.71,4.28,5.36,9.46l-6.81,25.84h4.57l5.67-21.55c1.86-7.09,5.86-13.74,13.77-13.74,6.6,0,7.96,3.4,6.31,9.67l-6.74,25.62h4.56l6.8-25.84c2.36-8.94-.6-13.36-8.88-13.36-4.94,0-10.3,2.43-13.86,7.45-.05-5.02-3.84-7.45-8.77-7.45-6.02,0-10.63,2.87-14.24,7.52h-.22l1.68-6.42h-4.2l-10.02,38.09Z"/>
    <path class="cls-3" d="m1007.83,991.75h4.56l10.02-38.09h-4.56l-10.02,38.09Zm11.9-45.26h4.57l1.96-7.45h-4.56l-1.97,7.45Z"/>
    <path class="cls-3" d="m1022.56,991.75h4.56l5.85-22.22c2.18-7.46,7.87-13.07,15.19-13.07s8.19,5.03,6.47,11.52l-6.25,23.77h4.56l6.45-24.51c2.39-9.09.68-14.69-9.84-14.69-5.29,0-11.04,3.09-13.99,7.67h-.14l1.73-6.57h-4.56l-10.02,38.09Z"/>
    <path class="cls-3" d="m1090.84,977c-1.96,7.45-9.17,11.96-16.21,11.96-4.35,0-7.59-2.88-6.36-7.52,1.95-7.39,11.6-7.39,19.73-8.79,1.29-.22,3.42-.6,4.3-1.7h.14l-1.6,6.06Zm-16.74-11.67c1.85-6.21,6.61-8.87,12.34-8.87s9.39,1.55,7.74,7.83c-1.09,4.14-3.37,4.8-7.24,5.18-10.18,1.18-20.52,1.63-23.32,12.25-2.02,7.68,2.65,11.15,9.61,11.15s11.12-2.81,15.68-7.75h.15c-1.04,3.91-1.03,6.63,3.61,6.63,1.23,0,1.9-.07,3.05-.29l1.03-3.91c-.56.22-1.02.3-1.53.3-1.8,0-2.43-.96-1.93-2.81l5.32-20.23c2.7-10.27-3.95-12.25-10.55-12.25-8.64,0-15.66,3.83-18.52,12.77h4.56Z"/>
    <path class="cls-3" d="m1122.4,942.21h-4.56l-3.02,11.45h-6.53l-1.03,3.9h6.53l-6.86,26.08c-1.78,6.49-.22,8.56,5.87,8.56,1.38,0,2.72-.15,4.1-.15l1.05-3.99c-1.34.16-2.68.23-3.98.23-3.2-.22-3.17-2-2.37-5.03l6.76-25.71h7.62l1.03-3.9h-7.62l3.02-11.45Z"/>
    <path class="cls-3" d="m1125.11,991.75h4.56l10.02-38.09h-4.56l-10.02,38.09Zm11.92-45.26h4.56l1.96-7.45h-4.56l-1.96,7.45Z"/>
    <path class="cls-3" d="m1139.84,991.75h4.56l5.85-22.22c2.19-7.46,7.87-13.07,15.19-13.07s8.19,5.03,6.48,11.52l-6.26,23.77h4.56l6.46-24.51c2.38-9.09.68-14.69-9.84-14.69-5.3,0-11.05,3.09-13.99,7.67h-.15l1.73-6.57h-4.56l-10.02,38.09Z"/>
    <path class="cls-3" d="m1196.46,987.4c-8.48,0-10.37-7.46-8.35-15.13,2.09-7.91,7.79-15.81,16.51-15.81s9.84,8.35,7.88,15.81c-2.02,7.67-8.12,15.13-16.04,15.13Zm25.49-33.74h-4.56l-1.73,6.57h-.15c-.7-4.21-4.36-7.67-9.87-7.67-10.82,0-19.2,8.7-21.95,19.19-2.89,10.94-.23,19.57,11.74,19.57,5.44,0,10.61-3.09,13.96-7.82h.14l-1.36,5.17c-2.47,9.38-7.35,14.4-15.84,14.4-5.01,0-9.49-1.99-8.95-7.6h-4.56c-1.54,8.05,5.02,11.51,12.48,11.51,12.12,0,18.42-6.87,21.43-18.31l9.22-35Z"/>
    <path class="cls-3" d="m1245.87,991.75h4.56l5.6-21.27c2.1-7.97,7.03-14.03,14.87-14.03,5.88,0,6.71,4.28,5.35,9.46l-6.8,25.84h4.56l5.67-21.55c1.87-7.09,5.87-13.74,13.78-13.74,6.6,0,7.96,3.4,6.31,9.67l-6.74,25.62h4.56l6.8-25.84c2.35-8.94-.61-13.36-8.88-13.36-4.94,0-10.3,2.43-13.86,7.45-.05-5.02-3.84-7.45-8.78-7.45-6.02,0-10.63,2.87-14.24,7.52h-.22l1.69-6.42h-4.2l-10.02,38.09Z"/>
    <path class="cls-3" d="m1307.81,991.75h4.56l10.04-38.09h-4.57l-10.02,38.09Zm11.92-45.26h4.56l1.97-7.45h-4.56l-1.97,7.45Z"/>
    <path class="cls-3" d="m1322.54,991.75h4.56l5.86-22.22c2.18-7.46,7.86-13.07,15.19-13.07s8.18,5.03,6.47,11.52l-6.26,23.77h4.57l6.45-24.51c2.39-9.09.68-14.69-9.84-14.69-5.3,0-11.05,3.09-13.99,7.67h-.14l1.73-6.57h-4.57l-10.02,38.09Z"/>
    <path class="cls-3" d="m1370.99,972.7c2.08-7.9,7.83-16.25,16.54-16.25,9.64,0,10.93,8.35,8.85,16.25-2.08,7.91-7.76,16.25-17.41,16.25-8.7,0-10.07-8.34-7.98-16.25Zm38.82-33.67h-4.57l-5.75,21.85h-.14c-.45-5.46-5.28-8.33-10.79-8.33-11.39,0-19.27,9.29-22.14,20.15-2.85,10.86.13,20.16,11.52,20.16,5.44,0,12.27-3.32,15.54-8.34h.14l-1.9,7.23h4.2l13.88-52.71Z"/>
    <path class="cls-3" d="m1440.17,964.81c1.81-8.28-2.94-12.25-10.48-12.25-6.6,0-14.84,2.94-16.89,10.7-1.68,6.42,2.22,8.64,7.76,10.19l5.53,1.33c3.86,1.03,7.53,2.51,6.37,6.94-1.4,5.32-7.78,7.24-12.14,7.24-6.09,0-9.81-3.24-8.52-9.52h-4.56c-1.67,9.37,3.05,13.43,11.83,13.43,6.97,0,15.85-3.17,18.03-11.44,1.75-6.65-2.86-9.76-7.88-10.56l-5.72-1.4c-2.98-.82-7.15-2.37-6.08-6.43,1.3-4.95,6.51-6.58,10.58-6.58,5.23,0,8.9,2.59,7.6,8.35h4.57Z"/>
    <polygon class="cls-3" points="1451.21 991.75 1453.26 983.94 1447.18 983.94 1445.12 991.75 1451.21 991.75"/>
    <polygon class="cls-3" points="1472.82 991.75 1474.88 983.94 1468.8 983.94 1466.73 991.75 1472.82 991.75"/>
    <polygon class="cls-3" points="1494.43 991.75 1496.5 983.94 1490.41 983.94 1488.35 991.75 1494.43 991.75"/>
    <path class="cls-8" d="m792.22,595.86c-73.15,10.86-96.14-10.51-96.14-10.51l-19.8,24.32h0c29.92,21.88,69.45,8.69,119.69-1.8,24.19-5.06,42.87,4.64,56.06,16.72-16.8-23.41-34.13-32.54-59.81-28.73"/>
    <path class="cls-8" d="m916.18,595.86c73.15,10.86,96.13-10.51,96.13-10.51l19.81,24.32h0c-29.92,21.88-69.46,8.69-119.7-1.8-24.18-5.06-42.86,4.64-56.06,16.72,16.81-23.41,34.14-32.54,59.82-28.73"/>
    <path class="cls-2" d="m800.68,575.31c-69.87-8.71-82.19-26.28-82.19-26.28l-20.75,17.14h0c26.07,23.15,58.12,21.84,104.95,21.55,22.56-.14,36.11,10.66,46.67,24.98-12.52-26.07-24.88-34.43-48.68-37.4"/>
    <path class="cls-2" d="m907.71,575.31c69.88-8.71,82.2-26.28,82.2-26.28l20.75,17.14h0c-26.07,23.15-58.12,21.84-104.96,21.55-22.54-.14-36.1,10.66-46.64,24.98,12.52-26.07,24.87-34.43,48.66-37.4"/>
    <path class="cls-1" d="m811.14,555.97c-43.96-4.03-52.13-32.37-52.13-32.37l-21.96,9.81h-.01c18.93,29.48,27.75,26.95,74.1,33.93,23.87,3.59,32.04,17.41,38.38,34.11-5.1-28.55-14.52-43.31-38.38-45.49"/>
    <path class="cls-1" d="m897.26,555.97c43.97-4.03,52.13-32.37,52.13-32.37l21.97,9.81h0c-18.93,29.48-27.75,26.95-74.1,33.93-23.87,3.59-32.03,17.41-38.38,34.11,5.1-28.55,14.52-43.31,38.38-45.49"/>
    <rect class="cls-2" x="830.58" y="653.13" width="51.11" height="236.61"/>
    <polygon class="cls-2" points="1100.15 653.42 1151.25 653.42 1151.25 744.22 1245.33 744.22 1245.33 653.42 1296.43 653.42 1296.43 890.03 1245.33 890.03 1245.33 787.96 1151.25 787.96 1151.25 890.03 1100.15 890.03 1100.15 653.42"/>
    <path class="cls-2" d="m1070.96,834.49c-1.63-24.19-8.78-48.38-33.85-55.34v-.66c26.05-10.61,36.78-31.48,36.78-59.32,0-35.78-26.37-65.27-68.03-65.27h-101.54v40.42h83.31c23.11,0,35.17,9.95,35.17,32.82s-12.06,33.8-35.17,33.8h-70.45v37.11h65.58c25.71,0,35.14,10.95,38.72,35.79,2.61,18.88,2.27,41.74,8.15,56.68h51.1c-9.43-12.93-8.79-41.1-9.77-56.02"/>
    <path class="cls-2" d="m1483.85,834.49c-1.62-24.19-8.78-48.38-33.84-55.34v-.66c26.03-10.61,36.78-31.48,36.78-59.32,0-35.78-26.37-65.27-68.04-65.27h-101.55v40.42h83.32c23.12,0,35.16,9.95,35.16,32.82s-12.04,33.8-35.16,33.8h-70.44v37.11h65.56c25.71,0,35.16,10.95,38.74,35.79,2.6,18.88,2.27,41.74,8.14,56.68h51.09c-9.43-12.93-8.78-41.1-9.76-56.02"/>
    <path class="cls-2" d="m639.22,889.48h-32.54l-5.21-26.84c-18.22,23.87-41.33,32.48-63.81,32.48-71.61,0-114.26-54.68-114.26-122.94s42.64-124.93,114.26-124.93c27.91,0,55.04,10.16,73.72,29.49-11.75,13.93-20.43,30.82-25.69,49.75-7.12-23.67-24.96-35.51-48.03-35.51-45.89,0-63.14,39.77-63.14,81.19s17.25,79.2,63.14,79.2c33.54,0,52.43-17.89,55.35-51.02h-51.43v-38.78h97.65v127.91Z"/>
    <path class="cls-2" d="m643.56,750.92h-51.39c7.86-59.59,48.75-103.42,112.87-103.42,47.54,0,92.79,29.49,98,83.51h-48.83c-6.18-26.52-24.75-39.78-49.17-39.78-37.81,0-56.18,27.02-61.48,59.68m163.05,138.82h-32.55l-5.2-26.85c-18.23,23.86-41.34,32.49-63.82,32.49-21.24,0-39.94-4.82-55.74-13.37v-68.34c8.95,21.86,26.56,37.95,55.74,37.95,33.54,0,52.43-17.89,55.36-51.03h-51.44v-38.77h97.66v127.91Z"/>
  </g>
</svg>