<?xml version="1.0" encoding="UTF-8"?>
<svg id="Layer_1" data-name="Layer 1" xmlns="http://www.w3.org/2000/svg" viewBox="0 0 1920 1080">
  <defs>
    <style>
      .cls-1, .cls-2 {
        fill: #58595b;
      }

      .cls-1, .cls-2, .cls-3, .cls-4, .cls-5, .cls-6, .cls-7, .cls-8 {
        stroke-width: 0px;
      }

      .cls-1, .cls-3 {
        fill-rule: evenodd;
      }

      .cls-3, .cls-7 {
        fill: #ee3f65;
      }

      .cls-4 {
        fill: #79b6e3;
      }

      .cls-5 {
        fill: #a6a8ab;
      }

      .cls-6 {
        fill: #1f9cbe;
      }

      .cls-8 {
        fill: #59595c;
      }
    </style>
  </defs>
  <g>
    <path class="cls-1" d="m260.85,415.01c-1.56-1.88-3.12-3.74-4.69-5.62,13.59-13.89,27.16-27.78,40.73-41.66,55.44,73.25,70.17,160.38,50.77,214.83-31.25,87.76-152.74,87.99-186.56,13.2-11.25-31.18,1.93-57.16,24.52-71.98,15.24-10,29.88-14.09,47.89-11.04,19.05,3.22,42.83,12.18,66.18,17.37,6.17,1.37,23.14,5.84,27.84,3.73,4.46-2.01,4.46-7.27,4.82-10.62,1.41.63,3.32,1.36,4.72,1.98l-10.93,25.72c-29.19-7.35-58.57-14.78-87.77-22.11-17.73-3.36-33.33-2.82-46.32,2.52-43.52,17.9-34.46,63.49-1.74,88.74,55.56,42.86,133.88,18.3,153.7-49.01,13.06-44.35,2.14-78.42-14.68-120.21-10.03-24.9-22.58-47.27-38.52-66.27-9.98,10.15-19.96,20.29-29.96,30.44"/>
    <path class="cls-2" d="m334.63,379.13v-10.24h2.02l2.42,7.25c.23.68.39,1.18.5,1.51.11-.36.3-.91.55-1.63l2.45-7.12h1.82v10.24h-1.31v-8.57l-2.97,8.57h-1.22l-2.95-8.72v8.72h-1.3Zm-6.1,0v-9.04h-3.37v-1.2h8.09v1.2h-3.36v9.04h-1.36Zm15.86-14.74c-2.46-2.46-5.87-3.98-9.6-3.98s-7.18,1.52-9.63,3.98c-2.46,2.46-3.99,5.86-3.99,9.62s1.53,7.15,3.99,9.62c2.45,2.46,5.85,3.98,9.63,3.98s7.15-1.52,9.6-3.98c2.46-2.46,3.98-5.86,3.98-9.62s-1.52-7.16-3.98-9.62m-9.6-5.47c4.16,0,7.93,1.68,10.66,4.41,2.74,2.74,4.42,6.51,4.42,10.68s-1.69,7.94-4.42,10.66c-2.73,2.74-6.51,4.43-10.66,4.43s-7.95-1.69-10.68-4.43c-2.75-2.72-4.44-6.5-4.44-10.66s1.69-7.94,4.44-10.68c2.72-2.73,6.5-4.41,10.68-4.41"/>
    <path class="cls-3" d="m225.04,588.31c-1.37-6.77-6.19-9.9-11.67-10.16-12.91-.62-19.84,14.56-18.42,25.75,1.33,10.52,9.74,18.42,25.53,16.79,10.43,6.56,18.79,11.61,28.25,14.02,13.75,3.51,33.54,1.92,39.93-13,4.43-10.33-3.12-21.54-15.52-24.87-.39-4.95-.78-9.91-1.18-14.88,3.56-6.78-3.18-10.79-7.56-12.03-2.62-.13-4.46,2.79-3.14,4.66,1.98,2.2,3.84,3.26,5.03,6.44-.51,5.21-4.72,11.09-7.09,16.05-2.81,4.94-2.33,9.12,2.6,12.29,3.87,1.54,5.34,3.42,4.25,5.67-3.62.8-4.08-4.21-8.5-5.9-4.35.28-8.57,5.05-12.27,2.83,1.21-4.48,1.95-8.86,1.41-12.99-.12-3.23-3.98-3.94-5.42-6.85,1.17-1.65,2.55-2.93,2.01-5.9-2.23-2.66-6.81-1.85-7.04-.2.31,1.97.35,4.27,1.15,6.12.96,2.84,1.21,5.52,3.16,7.78-1.02,1.57-2.05,3.15-3.08,4.72-.64,1.42-3.25-.61-2.16-2.9,3.47-5.44-.2-10.47-2.58-11.15.15-.94-.34-2.58-.92-3.34-1.97,1.02-4.41,1.41-6.77,1.07"/>
    <path class="cls-3" d="m303.74,413.94c-2.25,10.77-4.51,21.54-6.78,32.31-.77-6.15-2.46-10.62-4.9-13.72-8.49-10.79-39.83-5.03-50.87-.67-10.86,4.27-20.35,11.14-28.54,20.52-23.69,26.39-39.12,96.03,1.57,110.21,24.2,8.43,64.73-12.59,68.32-40.71,1.57-12.26-2.45-25.05-12.07-33.32,19.34-2.6,30.82,4.02,23.25,32.95-4.67,11.11-10.7,20.25-17.98,27.56-25.14,25.18-86.91,36.8-98.76-6.13-9.09-32.89,5.47-72.62,30.07-95.55,11.26-10.49,25.15-18.87,41.77-25.07,17.88-6.62,36.1-10.13,54.91-8.4"/>
    <polygon class="cls-8" points="142.37 630.45 138.63 626.06 140.21 624.71 149.31 635.38 147.72 636.73 143.97 632.32 131.14 643.25 129.53 641.37 142.37 630.45"/>
    <polygon class="cls-8" points="153.1 639.09 147.76 644.94 154.52 651.13 159.87 645.28 161.69 646.94 148.92 660.93 147.09 659.26 153.08 652.71 146.32 646.53 140.32 653.09 138.52 651.43 151.3 637.45 153.1 639.09"/>
    <polygon class="cls-8" points="167.88 663.87 161.86 659.61 157.91 665.19 164.62 669.94 163.43 671.61 154.73 665.45 165.68 649.98 174.04 655.9 172.85 657.57 166.49 653.07 163.03 657.96 169.04 662.22 167.88 663.87"/>
    <path class="cls-8" d="m187.98,683.98c-1.01.02-2.83-.36-4.91-1.34-4.83-2.3-7-7.07-4.34-12.69,2.56-5.36,7.92-7.26,13.23-4.74,2.13,1.02,3.26,2.12,3.7,2.7l-1.39,1.55c-.65-.8-1.7-1.68-3.12-2.35-4.01-1.91-7.9-.62-10.04,3.88-2,4.19-.86,8.03,3.3,10.01,1.35.64,2.85,1.01,3.95,1.01l-.38,1.97Z"/>
    <path class="cls-8" d="m211.34,682.41c-1.99,6.2-6.83,8.28-11.43,6.8-4.76-1.53-6.92-6.3-5.16-11.75,1.85-5.73,6.61-8.32,11.43-6.77,4.91,1.59,6.88,6.38,5.16,11.73m-14.09-4.21c-1.23,3.85-.26,7.97,3.4,9.15,3.7,1.19,6.88-1.53,8.19-5.62,1.15-3.58.49-7.93-3.39-9.18-3.85-1.23-6.92,1.69-8.2,5.66"/>
    <path class="cls-8" d="m214.71,689.92c.96.86,2.43,1.71,4.08,2.02,2.47.46,4.14-.58,4.49-2.46.33-1.74-.49-2.92-2.82-4.35-2.85-1.64-4.42-3.57-3.94-6.2.55-2.9,3.34-4.61,6.96-3.93,1.91.35,3.21,1.05,3.95,1.68l-1.03,1.83c-.55-.44-1.69-1.22-3.37-1.54-2.54-.47-3.8.87-4.03,2.14-.31,1.75.66,2.81,3.04,4.28,2.93,1.8,4.25,3.62,3.74,6.36-.53,2.87-3.12,4.96-7.52,4.15-1.79-.33-3.66-1.23-4.53-2.07l.98-1.91Z"/>
    <path class="cls-8" d="m247.72,688.31c0-2.65-.02-5.83.11-8.18h-.07c-.75,2.18-1.66,4.5-2.73,7.07l-3.77,9.01-1.86-.08-2.63-9.16c-.77-2.71-1.42-5.19-1.84-7.46h-.05c-.17,2.35-.46,5.52-.77,8.34l-.9,8.09-2.33-.11,2.22-18.86,3.12.15,2.79,9.31c.68,2.37,1.22,4.48,1.61,6.46h.08c.57-1.88,1.35-3.92,2.3-6.27l3.8-8.99,3.12.15.28,18.98-2.39-.12-.08-8.33Z"/>
    <rect class="cls-8" x="256.26" y="677.17" width="2.45" height="18.95" transform="translate(-46.3 19.19) rotate(-3.92)"/>
    <path class="cls-8" d="m279.26,692.74c-.81.59-2.52,1.32-4.79,1.68-5.28.84-9.78-1.85-10.77-7.99-.94-5.86,2.39-10.46,8.2-11.4,2.33-.38,3.89-.11,4.59.11l-.27,2.07c-.99-.3-2.34-.42-3.9-.17-4.39.7-6.86,3.98-6.07,8.89.74,4.58,3.85,7.1,8.4,6.37,1.47-.24,2.93-.78,3.82-1.41l.81,1.84Z"/>
    <path class="cls-8" d="m295.41,689.03l-11.15-16.07,2.42-.91,5.47,8.19c1.36,2.01,2.66,4.05,3.62,5.64l.05-.02c-.37-1.88-.61-4.19-.87-6.71l-.98-9.84,2.39-.9,5.54,8.2c1.28,1.92,2.55,3.85,3.52,5.62l.05-.02c-.36-2.09-.6-4.25-.88-6.67l-1.01-9.83,2.34-.88,1.62,19.64-2.4.9-5.7-8.41c-1.4-2.06-2.43-3.66-3.33-5.36l-.05.02c.34,1.88.6,3.77.8,6.31l.93,10.2-2.4.9Z"/>
    <path class="cls-8" d="m327.05,663.27c3.25,5.66,1.54,10.64-2.65,13.04-4.34,2.5-9.32.89-12.18-4.09-2.99-5.21-1.73-10.49,2.67-13.02,4.48-2.58,9.36-.82,12.17,4.06m-12.6,7.6c2.01,3.51,5.73,5.56,9.07,3.64,3.35-1.94,3.48-6.12,1.33-9.85-1.88-3.27-5.54-5.71-9.08-3.66-3.51,2.02-3.41,6.27-1.32,9.88"/>
    <path class="cls-8" d="m344.56,651.42c-1.78-1.97-3.89-4.33-5.36-6.19l-.06.05c.89,2.13,1.76,4.46,2.66,7.1l3.17,9.25-1.45,1.17-8.05-5.11c-2.38-1.51-4.5-2.93-6.33-4.35l-.04.03c1.43,1.88,3.31,4.43,4.97,6.75l4.7,6.65-1.81,1.46-10.86-15.58,2.43-1.96,8.27,5.1c2.07,1.33,3.89,2.54,5.49,3.77l.06-.06c-.83-1.78-1.61-3.83-2.46-6.22l-3.12-9.25,2.42-1.96,12.81,14.01-1.87,1.5-5.59-6.18Z"/>
    <path class="cls-8" d="m343.25,638.34c.56-.93,1.58-2.29,2.75-3.54,1.67-1.8,3.04-2.67,4.55-2.88,1.2-.22,2.44.12,3.51,1.13,1.34,1.24,1.7,3.22.87,5.18l.05.04c1.55-1.01,4.07-1.54,6.14.37,1.19,1.11,1.66,2.42,1.69,3.75-.02,1.79-1.06,3.74-3.16,6.01-1.15,1.23-2.11,2.1-2.74,2.62l-13.67-12.68Zm7.35,3.49l1.51-1.63c1.76-1.89,1.81-3.93.46-5.17-1.63-1.51-3.42-.87-5.11.94-.76.83-1.14,1.36-1.34,1.7l4.47,4.15Zm6.66,6.18c.39-.29.88-.79,1.49-1.43,1.71-1.86,2.62-4.2.6-6.07-1.9-1.76-4.2-.86-6.01,1.1l-1.38,1.48,5.3,4.92Z"/>
  </g>
  <path class="cls-2" d="m1391.31,711.78h2.84l6.24-23.29h-2.84l-6.24,23.29Zm7.41-27.67h2.84l1.22-4.55h-2.84l-1.22,4.55Z"/>
  <polygon class="cls-2" points="1400.56 711.78 1403.4 711.78 1412.03 679.55 1409.2 679.55 1400.56 711.78"/>
  <polygon class="cls-2" points="1409.82 711.78 1412.65 711.78 1421.29 679.55 1418.45 679.55 1409.82 711.78"/>
  <path class="cls-2" d="m1444.13,688.49h-2.84l-3.28,12.23c-1.27,4.74-4.63,9.34-9.5,9.34-4.52,0-5.5-2.21-4.51-6.41l4.06-15.17h-2.84l-4.05,15.12c-1.46,5.46-.12,8.84,5.8,8.84,3.48,0,7.02-1.76,9.34-4.87h.09l-1.13,4.19h2.61l6.24-23.29Z"/>
  <path class="cls-2" d="m1444.17,711.78h2.84l3.48-13c1.31-4.88,4.38-8.58,9.25-8.58,3.66,0,4.18,2.62,3.33,5.78l-4.23,15.8h2.84l3.53-13.18c1.16-4.33,3.65-8.4,8.57-8.4,4.11,0,4.95,2.08,3.93,5.92l-4.2,15.66h2.84l4.23-15.8c1.46-5.46-.38-8.17-5.53-8.17-3.07,0-6.41,1.49-8.63,4.56-.03-3.07-2.39-4.56-5.46-4.56-3.75,0-6.61,1.76-8.87,4.6h-.13l1.05-3.92h-2.61l-6.24,23.29Z"/>
  <path class="cls-2" d="m1482.72,711.78h2.84l6.24-23.29h-2.84l-6.24,23.29Zm7.41-27.67h2.84l1.22-4.55h-2.84l-1.22,4.55Z"/>
  <path class="cls-2" d="m1491.88,711.78h2.84l3.64-13.59c1.36-4.56,4.9-7.99,9.46-7.99s5.09,3.07,4.03,7.04l-3.89,14.53h2.84l4.02-14.99c1.49-5.55.42-8.98-6.12-8.98-3.3,0-6.88,1.89-8.71,4.69h-.09l1.07-4.01h-2.84l-6.24,23.29Z"/>
  <path class="cls-2" d="m1534.39,702.76c-1.22,4.56-5.71,7.31-10.09,7.31-2.71,0-4.72-1.76-3.96-4.6,1.21-4.51,7.21-4.51,12.28-5.37.8-.14,2.13-.36,2.67-1.04h.09l-.99,3.7Zm-10.42-7.14c1.15-3.79,4.12-5.42,7.68-5.42s5.85.95,4.82,4.79c-.68,2.53-2.1,2.93-4.51,3.16-6.34.72-12.77.99-14.51,7.49-1.26,4.69,1.65,6.81,5.98,6.81s6.92-1.71,9.76-4.73h.09c-.64,2.39-.64,4.06,2.25,4.06.77,0,1.19-.04,1.9-.18l.64-2.39c-.35.14-.63.18-.95.18-1.13,0-1.51-.58-1.21-1.71l3.32-12.37c1.68-6.28-2.46-7.49-6.57-7.49-5.37,0-9.74,2.34-11.52,7.81h2.84Z"/>
  <path class="cls-2" d="m1554.03,681.49h-2.84l-1.87,7h-4.06l-.64,2.39h4.06l-4.27,15.94c-1.11,3.97-.14,5.23,3.65,5.23.86,0,1.69-.09,2.55-.09l.65-2.44c-.84.1-1.66.14-2.48.14-1.99-.14-1.98-1.22-1.48-3.07l4.21-15.72h4.74l.64-2.39h-4.74l1.88-7Z"/>
  <path class="cls-2" d="m1555.72,711.78h2.84l6.24-23.29h-2.84l-6.24,23.29Zm7.41-27.67h2.84l1.22-4.55h-2.84l-1.22,4.55Z"/>
  <path class="cls-2" d="m1564.88,711.78h2.84l3.64-13.59c1.36-4.56,4.9-7.99,9.46-7.99s5.09,3.07,4.03,7.04l-3.9,14.53h2.84l4.02-14.99c1.49-5.55.42-8.98-6.13-8.98-3.29,0-6.87,1.89-8.71,4.69h-.09l1.07-4.01h-2.84l-6.24,23.29Z"/>
  <path class="cls-2" d="m1600.13,709.12c-5.28,0-6.46-4.56-5.2-9.26,1.3-4.83,4.85-9.66,10.26-9.66s6.13,5.1,4.91,9.66c-1.26,4.7-5.05,9.26-9.97,9.26Zm15.86-20.63h-2.84l-1.07,4.01h-.09c-.44-2.57-2.72-4.69-6.15-4.69-6.73,0-11.94,5.32-13.66,11.74-1.79,6.68-.14,11.96,7.31,11.96,3.39,0,6.6-1.89,8.69-4.78h.09l-.84,3.16c-1.54,5.74-4.57,8.8-9.86,8.8-3.11,0-5.91-1.22-5.57-4.65h-2.84c-.96,4.92,3.12,7.04,7.77,7.04,7.54,0,11.46-4.19,13.33-11.19l5.73-21.4Z"/>
  <path class="cls-2" d="m1630.87,711.78h2.84l3.48-13c1.31-4.88,4.38-8.58,9.25-8.58,3.66,0,4.18,2.62,3.33,5.78l-4.23,15.8h2.84l3.53-13.18c1.16-4.33,3.65-8.4,8.57-8.4,4.11,0,4.95,2.08,3.93,5.92l-4.2,15.66h2.84l4.23-15.8c1.47-5.46-.38-8.17-5.53-8.17-3.07,0-6.4,1.49-8.63,4.56-.03-3.07-2.39-4.56-5.46-4.56-3.75,0-6.61,1.76-8.86,4.6h-.14l1.05-3.92h-2.61l-6.24,23.29Z"/>
  <path class="cls-2" d="m1669.43,711.78h2.84l6.24-23.29h-2.84l-6.24,23.29Zm7.41-27.67h2.84l1.22-4.55h-2.84l-1.22,4.55Z"/>
  <path class="cls-2" d="m1678.59,711.78h2.84l3.64-13.59c1.36-4.56,4.89-7.99,9.46-7.99s5.09,3.07,4.03,7.04l-3.9,14.53h2.84l4.02-14.99c1.49-5.55.42-8.98-6.12-8.98-3.3,0-6.87,1.89-8.71,4.69h-.09l1.07-4.01h-2.84l-6.24,23.29Z"/>
  <path class="cls-2" d="m1708.74,700.13c1.3-4.83,4.87-9.93,10.3-9.93,6.01,0,6.81,5.1,5.51,9.93-1.3,4.83-4.83,9.93-10.84,9.93-5.42,0-6.27-5.1-4.97-9.93Zm24.16-20.58h-2.84l-3.58,13.36h-.09c-.28-3.34-3.29-5.1-6.72-5.1-7.09,0-11.99,5.69-13.77,12.32-1.78,6.64.08,12.32,7.17,12.32,3.39,0,7.63-2.03,9.67-5.09h.09l-1.18,4.42h2.61l8.64-32.22Z"/>
  <path class="cls-2" d="m1751.8,695.3c1.13-5.06-1.83-7.49-6.52-7.49-4.11,0-9.24,1.8-10.51,6.54-1.05,3.93,1.38,5.28,4.83,6.23l3.44.81c2.4.63,4.69,1.53,3.97,4.24-.87,3.25-4.84,4.42-7.55,4.42-3.79,0-6.11-1.99-5.3-5.82h-2.84c-1.04,5.73,1.9,8.21,7.37,8.21,4.34,0,9.86-1.94,11.21-6.99,1.09-4.06-1.78-5.96-4.9-6.46l-3.56-.86c-1.86-.49-4.45-1.44-3.78-3.93.81-3.03,4.06-4.02,6.59-4.02,3.25,0,5.54,1.58,4.73,5.1h2.84Z"/>
  <polygon class="cls-2" points="1758.67 711.78 1759.95 707 1756.16 707 1754.88 711.78 1758.67 711.78"/>
  <polygon class="cls-2" points="1772.12 711.78 1773.4 707 1769.61 707 1768.33 711.78 1772.12 711.78"/>
  <polygon class="cls-2" points="1785.57 711.78 1786.85 707 1783.07 707 1781.78 711.78 1785.57 711.78"/>
  <path class="cls-2" d="m467.47,641.74c-6.88,8.86-15.61,12.05-24.09,12.05-27.04,0-43.14-20.28-43.14-45.6s16.1-46.34,43.14-46.34c17.94,0,35.03,10.94,37,30.97h-18.44c-2.34-9.83-9.34-14.75-18.56-14.75-17.33,0-23.84,14.75-23.84,30.11s6.51,29.37,23.84,29.37c12.66,0,19.79-6.64,20.9-18.93h-19.42v-14.38h36.87v47.45h-12.29l-1.97-9.96Z"/>
  <path class="cls-2" d="m494.74,607.7c.99-16.23,15.61-21.26,29.87-21.26,12.66,0,27.9,2.83,27.9,18.06v33.07c0,5.78.62,11.55,2.22,14.13h-17.7c-.62-1.96-1.11-4.05-1.23-6.15-5.53,5.78-13.52,7.87-21.39,7.87-12.16,0-21.63-6.02-21.63-19.05.25-28.88,43.02-13.4,42.28-27.65,0-7.37-5.17-8.6-11.31-8.6-6.76,0-10.94,2.7-11.56,9.59h-17.45Zm40.32,12.9c-2.95,2.58-9.1,2.7-14.5,3.68-5.41.98-10.33,2.95-10.33,9.34s5.04,8.11,10.69,8.11c13.64,0,14.14-10.69,14.14-14.62v-6.51Z"/>
  <path class="cls-2" d="m566.02,588.16h16.59v11.8h.25c3.32-7.99,11.56-13.52,20.28-13.52,1.35,0,2.58.25,3.81.62v16.22c-1.61-.37-4.18-.61-6.27-.61-12.9,0-17.21,9.09-17.21,20.4v28.64h-17.45v-63.55Z"/>
  <path class="cls-2" d="m613.82,563.94h17.45v31.96h.25c4.31-6.51,12.17-9.47,20.04-9.47,12.66,0,26.3,10.2,26.3,33.44s-13.64,33.55-26.3,33.55c-9.34,0-17.09-2.82-20.9-9.83h-.24v8.12h-16.6v-87.76Zm31.71,35.65c-10.33,0-14.87,9.59-14.87,20.4s4.54,20.28,14.87,20.28,14.87-9.71,14.87-20.28-4.54-20.4-14.87-20.4"/>
  <path class="cls-2" d="m688.91,563.94h17.45v33.06h.37c4.43-7.25,12.05-10.57,18.56-10.57,18.55,0,23.23,10.45,23.23,26.18v39.09h-17.45v-35.89c0-10.45-2.95-15.61-11.19-15.61-9.46,0-13.52,5.28-13.52,18.19v33.31h-17.45v-87.76Z"/>
  <path class="cls-2" d="m761.05,607.7c.99-16.23,15.61-21.26,29.86-21.26,12.66,0,27.9,2.83,27.9,18.06v33.07c0,5.78.62,11.55,2.22,14.13h-17.7c-.62-1.96-1.11-4.05-1.23-6.15-5.53,5.78-13.52,7.87-21.39,7.87-12.16,0-21.63-6.02-21.63-19.05.25-28.88,43.02-13.4,42.28-27.65,0-7.37-5.16-8.6-11.31-8.6-6.76,0-10.94,2.7-11.56,9.59h-17.45Zm40.31,12.9c-2.95,2.58-9.1,2.7-14.5,3.68-5.41.98-10.32,2.95-10.32,9.34s5.04,8.11,10.69,8.11c13.64,0,14.14-10.69,14.14-14.62v-6.51Z"/>
  <path class="cls-2" d="m897.58,641.74c-6.88,8.86-15.61,12.05-24.09,12.05-27.04,0-43.15-20.28-43.15-45.6s16.11-46.34,43.15-46.34c17.94,0,35.02,10.94,36.99,30.97h-18.43c-2.34-9.83-9.34-14.75-18.56-14.75-17.33,0-23.84,14.75-23.84,30.11s6.51,29.37,23.84,29.37c12.66,0,19.79-6.64,20.89-18.93h-19.42v-14.38h36.87v47.45h-12.29l-1.97-9.96Z"/>
  <path class="cls-2" d="m985.21,651.7h-16.59v-8.86h-.37c-4.42,7.25-12.05,10.57-19.42,10.57-18.55,0-23.22-10.45-23.22-26.18v-39.08h17.45v35.89c0,10.45,2.95,15.61,11.19,15.61,9.47,0,13.52-5.29,13.52-18.19v-33.3h17.46v63.55Z"/>
  <path class="cls-2" d="m1043.82,643.59h-.24c-4.05,6.89-11.05,9.83-19.29,9.83-19.18,0-28.52-16.34-28.52-34.04s9.47-32.95,28.15-32.95c7.5,0,14.88,3.2,18.8,9.47h.25v-31.96h17.45v87.76h-16.6v-8.12Zm-15.23-44c-11.43,0-15.37,9.96-15.37,20.28s4.55,20.4,15.37,20.4c11.43,0,14.99-10.08,14.99-20.53s-3.69-20.15-14.99-20.15"/>
  <path class="cls-2" d="m1091.5,578.33h-17.45v-14.38h17.45v14.38Zm-17.45,9.83h17.45v63.55h-17.45v-63.55Z"/>
  <path class="cls-3" d="m826.73,470.13v-6.13h1.22l1.44,4.33c.14.41.24.7.29.9.08-.22.19-.55.33-.98l1.47-4.26h1.09v6.13h-.78v-5.13l-1.79,5.13h-.73l-1.77-5.22v5.22h-.78Zm-3.65,0v-5.41h-2.01v-.72h4.84v.72h-2.02v5.41h-.81Zm9.49-8.82c-1.47-1.47-3.5-2.38-5.76-2.38s-4.28.91-5.75,2.38c-1.47,1.47-2.38,3.51-2.38,5.76s.92,4.28,2.38,5.75c1.47,1.48,3.51,2.38,5.75,2.38s4.29-.9,5.76-2.38c1.47-1.47,2.38-3.51,2.38-5.75s-.92-4.28-2.38-5.76m-5.76-3.27c2.49,0,4.76,1.01,6.39,2.64,1.63,1.64,2.65,3.89,2.65,6.39s-1.02,4.75-2.65,6.39c-1.63,1.63-3.89,2.65-6.39,2.65s-4.75-1.02-6.38-2.65c-1.64-1.63-2.65-3.9-2.65-6.39s1.01-4.75,2.65-6.39c1.63-1.64,3.89-2.64,6.38-2.64"/>
  <path class="cls-7" d="m476.33,505.22c0,12.52-2.88,21.65-8.64,27.4-.27-3.1-2.19-4.65-5.75-4.65-1.46,0-3.4.78-5.82,2.33-2.42,1.55-4.36,2.33-5.82,2.33-2.65,0-4.76-1.42-6.3-4.26-1.28-2.29-1.92-4.85-1.92-7.69,0-4.21,1.92-6.82,5.76-7.83,3.56-.64,7.12-1.28,10.69-1.92,3.83-1.38,5.75-4.45,5.75-9.21,0-5.58-2.97-9.98-8.91-13.19-4.93-2.66-10.46-3.98-16.58-3.98s-11.55,1.28-16.3,3.84c-5.84,3.21-8.76,7.61-8.76,13.19s1.96,8.52,5.89,9.62c3.56.37,7.17.7,10.82.97,3.92.92,5.89,3.8,5.89,8.65,0,2.57-.64,4.77-1.92,6.6-.27.37-1.83,2.1-4.66,5.22-.37-3.1-2.06-4.65-5.07-4.65-1.37,0-3.11.78-5.21,2.33-2.1,1.55-3.84,2.33-5.2,2.33-4.93,0-8.55-3.29-10.82-9.89-1.47-4.49-2.2-9.89-2.2-16.21,0-5.04,1.26-9.55,3.78-13.54,2.51-3.98,6.09-6.8,10.75-8.45h-8.36c-3.48,0-5.2,1.14-5.2,3.42,0,.82.27,1.78.82,2.88l-.41.41c-1.65-1.92-2.51-4.38-2.6-7.4-.09-1.46.3-3.06,1.16-4.8.87-1.73,1.35-3.24,1.44-4.52.18-2.19-.5-4.47-2.06-6.85l.41-.55c1.27,1.89,2.26,3.01,2.95,3.34.69.33,2.21.5,4.59.5h49.05v10.69c5.39,2.1,9.78,5.07,13.15,8.9,3.74,4.39,5.62,9.27,5.62,14.66"/>
  <path class="cls-7" d="m479.75,451.93c-1.1-1.36-2.33-2.05-3.7-2.05-2.47,0-3.7,1.5-3.7,4.52,0,1.55.85,4.11,2.54,7.67,1.69,3.56,2.58,6.3,2.67,8.22.19,4.47-1.09,7.97-3.83,10.48-2.74,2.52-6.21,3.77-10.42,3.77h-13.28v-13.57h13.01c4.39,0,6.58-1.61,6.58-4.82,0-1.46-1.41-3.9-4.25-7.3-2.65-3.12-3.74-6.06-3.29-8.81.36-2.02,1.44-3.56,3.22-4.61,1.79-1.06,3.81-1.49,6.1-1.31,4.84.37,7.63,2.97,8.36,7.81"/>
  <path class="cls-7" d="m557.02,505.22c0,13.25-5.01,22.38-15.02,27.4-1.36-4.93-4.78-7.4-10.24-7.4-3.18,0-7.64,1.23-13.38,3.7-5.73,2.47-10.24,3.7-13.51,3.7-6.64,0-12.01-1.73-16.1-5.2-4.37-3.74-6.55-8.9-6.55-15.48,0-7.67,2.58-12.88,7.73-15.61,1.63-.83,6.43-1.92,14.38-3.29,5.16-.91,7.75-3.06,7.75-6.44,0-4.48-2.97-6.72-8.91-6.72-2.01,0-3.79.5-5.34,1.49-1.83,1.08-2.75,2.52-2.75,4.32,0,2.71,1.6,4.06,4.8,4.06,1.55,0,3.1-.27,4.66-.83-.73,2.19-2.7,3.29-5.89,3.29-.82,0-2.05-.12-3.7-.34-1.64-.23-2.83-.34-3.55-.34-2.75,0-4.43,1.37-5.07,4.11-2.74-2.63-4.11-6.03-4.11-10.22,0-4.81,1.91-8.54,5.75-11.17,3.38-2.18,7.63-3.27,12.74-3.27,5.39,0,9.73,1.13,13.01,3.4,3.84,2.63,5.75,6.53,5.75,11.71,0,4.71-1.89,8.16-5.68,10.34-1.08.64-4.56,1.86-10.41,3.67-3.79,1.09-5.69,2.72-5.69,4.9,0,4.45,3.02,6.67,9.06,6.67,8.12,0,12.13-3.16,12.04-9.5v-3.93h1.5c-.36,5.16.64,8.72,3.02,10.72,2.1,1.81,5.84,2.71,11.23,2.71,4.2,0,7.74-1.23,10.62-3.68,2.87-2.45,4.31-5.72,4.31-9.81s-1.78-7.68-5.34-10.22c-3.29-2.27-7.12-3.41-11.51-3.41-5.75,0-8.63,1.23-8.63,3.7,0,.76.27,1.72.82,2.85l-.41.43c-1.73-2.03-2.6-4.53-2.6-7.48,0-1.29.45-3.09,1.37-5.41.91-2.31,1.37-4.11,1.37-5.4,0-1.66-.73-3.51-2.19-5.54l.41-.55c1.83,2.56,4.75,3.83,8.77,3.83h6.71v8.63c6.21,1.28,10.96,4.34,14.25,9.18,3.01,4.38,4.52,9.86,4.52,16.44"/>
  <path class="cls-7" d="m528.11,543.99c0,2.47-1.05,4.29-3.15,5.48,0-.64-.29-1.26-.89-1.85-.59-.59-1.21-.84-1.85-.75-.64.1-1.85.59-3.63,1.45-1.78.86-2.99,1.24-3.63,1.16-2.56-.56-3.84-2.31-3.84-5.27,0-2.69,1.06-5.46,3.16-8.33,1.74-2.41,3.51-4.81,5.34-7.22,1.83,2.37,3.61,4.75,5.34,7.12,2.1,2.83,3.15,5.57,3.15,8.22"/>
  <path class="cls-7" d="m560.58,451.93c-1.09-1.36-2.33-2.05-3.7-2.05-2.46,0-3.7,1.5-3.7,4.52,0,1.55.85,4.11,2.54,7.67,1.69,3.56,2.57,6.3,2.67,8.22.18,4.47-1.1,7.97-3.84,10.48-2.74,2.52-6.21,3.77-10.41,3.77h-13.29v-13.57h13.01c4.39,0,6.58-1.61,6.58-4.82,0-1.46-1.41-3.9-4.24-7.3-2.65-3.12-3.74-6.06-3.29-8.81.37-2.02,1.44-3.56,3.22-4.61,1.78-1.06,3.81-1.49,6.1-1.31,4.84.37,7.63,2.97,8.35,7.81"/>
  <path class="cls-7" d="m623.05,483.85c-.09,3.02-.95,5.48-2.6,7.4l-.41-.41c.55-1,.83-1.87.83-2.6,0-2.46-1.92-3.7-5.76-3.7h-33.56c-1.56,0-2.97.52-4.25,1.58-1.28,1.04-1.92,2.3-1.92,3.76,0,4.2,3.94,6.3,11.82,6.3,3.06,0,5.18-.86,6.39-2.6l.28.28c-1,1.19-1.46,2.37-1.37,3.56.09.64.35,1.42.75,2.33.41.91.62,1.73.62,2.47-.09,1.54-.55,2.78-1.37,3.69l-.27-.13c.27-.36.41-.73.41-1.1,0-.73-.49-1.35-1.44-1.85-.96-.5-1.9-.75-2.81-.75-4.48.09-7.17.27-8.08.55-2.74.54-4.07,1.96-3.98,4.24.09,3.75,4.16,5.62,12.19,5.62,11.51,0,18.41-2.47,20.69-7.39.27,3.3.41,5.96.41,7.98,0,8.17-2.79,14.69-8.36,19.55-.46-3.56-2.97-5.34-7.54-5.34-1.92,0-4.41.89-7.47,2.67-3.06,1.79-5.59,2.68-7.6,2.68-4.93,0-8.81-1.78-11.65-5.34-2.83-3.56-4.25-7.99-4.25-13.29,0-6.48,2.6-11.27,7.81-14.39-5.21-2.19-7.81-6.57-7.81-13.15,0-4.2,1.53-7.83,4.59-10.89,3.06-3.06,6.7-4.59,10.89-4.59h36.3c2.38,0,3.91-.17,4.59-.5.69-.33,1.67-1.45,2.95-3.34l.41.55c-1.55,2.38-2.24,4.66-2.06,6.85.09,1.28.58,2.79,1.44,4.52.86,1.74,1.26,3.33,1.16,4.8"/>
  <path class="cls-7" d="m705.51,505.22c0,12.52-2.88,21.65-8.64,27.4-.28-3.1-2.19-4.65-5.75-4.65-1.46,0-3.4.78-5.82,2.33-2.42,1.55-4.36,2.33-5.83,2.33-2.65,0-4.75-1.42-6.3-4.26-1.28-2.29-1.92-4.85-1.92-7.69,0-4.21,1.92-6.82,5.76-7.83,3.56-.64,7.12-1.28,10.68-1.92,3.84-1.38,5.75-4.45,5.75-9.21,0-5.58-2.97-9.98-8.9-13.19-4.94-2.66-10.46-3.98-16.58-3.98s-11.56,1.28-16.3,3.84c-5.85,3.21-8.77,7.61-8.77,13.19s1.96,8.52,5.89,9.62c3.56.37,7.17.7,10.82.97,3.92.92,5.9,3.8,5.9,8.65,0,2.57-.64,4.77-1.92,6.6-.28.37-1.84,2.1-4.66,5.22-.37-3.1-2.06-4.65-5.07-4.65-1.37,0-3.11.78-5.2,2.33-2.11,1.55-3.84,2.33-5.2,2.33-4.93,0-8.55-3.29-10.82-9.89-1.47-4.49-2.2-9.89-2.2-16.21,0-5.04,1.26-9.55,3.77-13.54,2.51-3.98,6.1-6.8,10.75-8.45h-8.35c-3.48,0-5.21,1.14-5.21,3.42,0,.82.28,1.78.82,2.88l-.41.41c-1.65-1.92-2.51-4.38-2.61-7.4-.09-1.46.3-3.06,1.17-4.8.87-1.73,1.35-3.24,1.44-4.52.18-2.19-.51-4.47-2.06-6.85l.41-.55c1.27,1.89,2.26,3.01,2.94,3.34.69.33,2.22.5,4.59.5h49.05v10.69c5.39,2.1,9.78,5.07,13.15,8.9,3.75,4.39,5.63,9.27,5.63,14.66"/>
  <path class="cls-7" d="m708.93,451.93c-1.1-1.36-2.33-2.05-3.7-2.05-2.47,0-3.7,1.5-3.7,4.52,0,1.55.85,4.11,2.54,7.67,1.69,3.56,2.58,6.3,2.67,8.22.18,4.47-1.1,7.97-3.84,10.48-2.74,2.52-6.21,3.77-10.41,3.77h-13.28v-13.57h13.01c4.39,0,6.58-1.61,6.58-4.82,0-1.46-1.41-3.9-4.24-7.3-2.65-3.12-3.74-6.06-3.29-8.81.37-2.02,1.45-3.56,3.22-4.61,1.78-1.06,3.81-1.49,6.09-1.31,4.84.37,7.63,2.97,8.36,7.81"/>
  <path class="cls-7" d="m743.58,502.28c0,14.37-3.01,24.49-9.04,30.35-.37-3.56-2.6-5.34-6.72-5.34-1.55,0-3.56.89-6.03,2.67-2.47,1.78-4.47,2.67-6.03,2.67-5.75,0-9.96-2.97-12.61-8.94-2.01-4.4-3.01-9.9-3.01-16.51l4.11-6.46c-.28,7.4,5.62,11.1,17.68,11.1,4.56,0,8.31-1.09,11.23-3.26,3.29-2.37,4.93-5.77,4.93-10.23,0-9.18-5.75-13.77-17.26-13.77-4.93,0-7.4,1.21-7.4,3.62l.69,2.69-.41.4c-1.73-2.1-2.6-4.57-2.6-7.4,0-1.28.45-3.05,1.36-5.34.92-2.28,1.37-4.02,1.37-5.21,0-1.73-.73-3.61-2.19-5.62l.41-.55c2.56,3.65,5.84,5.48,9.87,5.48.82,0,2.05-.27,3.7-.82,1.65-.55,2.92-.82,3.84-.82,5.48,0,9.4,4.17,11.79,12.5,1.55,5.31,2.32,11.57,2.32,18.8"/>
  <path class="cls-7" d="m824.15,506.54c0,12.36-5.03,21.05-15.07,26.08-1.37-4.93-4.75-7.4-10.14-7.4-3.29,0-7.81,1.23-13.57,3.7-5.75,2.46-10.27,3.7-13.56,3.7-6.49,0-11.97-2.61-16.44-7.82-4.2-4.86-6.3-10.62-6.3-17.3,0-9.61,4.52-16.52,13.56-20.73-2.65-2.11-3.97-5.3-3.97-9.61,0-4.94,3.06-8.69,9.18-11.25,4.56-1.93,9.77-2.88,15.62-2.88,8.85,0,16.34,2.19,22.46,6.59,6.58,4.67,10.6,11.21,12.06,19.63,4.11,3.29,6.17,9.06,6.17,17.3m-9.18-2.83c-3.02,3.38-6.9,5.07-11.65,5.07-3.47,0-6.63-1.12-9.45-3.36-2.83-2.24-4.25-5.04-4.25-8.43,0-3.74,1.65-6.66,4.93-8.76,2.74-1.74,6.12-2.61,10.14-2.61,2.1,0,3.79.46,5.07,1.37-2.65-10.05-7.68-15.4-15.07-16.03,1.37,1.9,2.05,3.99,2.05,6.26,0,4.8-2.19,8.44-6.58,10.88-3.66,2.08-8.04,3.13-13.15,3.13-2.92,0-5.99-.63-9.18-1.92-4.02,3.45-6.04,7.35-6.04,11.71,0,7.08,4.11,10.63,12.33,10.63,3.38,0,6.21-.95,8.49-2.85,2.28-1.9,3.42-4.51,3.42-7.84h1.37c-.09,7.12,4.7,10.69,14.38,10.69,6.67,0,11.05-2.65,13.16-7.95m-25.35-26.16c0-1.92-.75-3.52-2.25-4.8-1.51-1.28-3.22-1.91-5.14-1.91-2.2,0-4.16.64-5.9,1.91-1.73,1.28-2.6,2.97-2.6,5.07s.82,3.75,2.47,4.93c1.65,1.19,3.56,1.78,5.75,1.78,1.92,0,3.68-.69,5.28-2.06,1.59-1.37,2.39-3.01,2.39-4.93m22.33,18.36c0-1.37-.48-2.56-1.44-3.56-.96-1-2.13-1.51-3.49-1.51s-2.53.51-3.49,1.51c-.96,1-1.44,2.19-1.44,3.56s.48,2.55,1.44,3.56c.96,1.01,2.12,1.51,3.49,1.51s2.53-.5,3.49-1.51c.96-1,1.44-2.19,1.44-3.56"/>
  <rect class="cls-5" x="1138.42" y="471.5" width="4.1" height="180.81"/>
  <path class="cls-7" d="m1388.65,486.08c-41.91,6.11-55.08-5.91-55.08-5.91l-11.34,13.68h0c17.14,12.32,39.78,4.9,68.57-1.01,13.86-2.84,24.56,2.62,32.11,9.41-9.62-13.18-19.55-18.32-34.26-16.17"/>
  <path class="cls-7" d="m1459.67,486.08c41.9,6.11,55.07-5.91,55.07-5.91l11.35,13.68h0c-17.14,12.32-39.79,4.9-68.57-1.01-13.85-2.84-24.56,2.62-32.11,9.41,9.63-13.18,19.56-18.32,34.27-16.17"/>
  <path class="cls-6" d="m1393.5,474.52c-40.03-4.9-47.09-14.79-47.09-14.79l-11.89,9.65h0c14.94,13.03,33.3,12.29,60.13,12.13,12.92-.07,20.68,6,26.73,14.06-7.17-14.67-14.25-19.38-27.88-21.05"/>
  <path class="cls-6" d="m1454.81,474.52c40.04-4.9,47.09-14.79,47.09-14.79l11.89,9.65h0c-14.94,13.03-33.3,12.29-60.14,12.13-12.92-.07-20.68,6-26.72,14.06,7.17-14.67,14.25-19.38,27.88-21.05"/>
  <path class="cls-4" d="m1399.49,463.63c-25.18-2.26-29.86-18.22-29.86-18.22l-12.58,5.52h0c10.85,16.59,15.9,15.17,42.45,19.09,13.68,2.02,18.35,9.8,21.99,19.2-2.92-16.06-8.32-24.37-21.99-25.6"/>
  <path class="cls-4" d="m1448.83,463.63c25.18-2.26,29.86-18.22,29.86-18.22l12.58,5.52h0c-10.84,16.59-15.9,15.17-42.45,19.09-13.68,2.02-18.35,9.8-21.99,19.2,2.92-16.06,8.32-24.37,21.99-25.6"/>
  <rect class="cls-6" x="1410.63" y="518.31" width="29.28" height="133.15"/>
  <polygon class="cls-6" points="1565.05 518.47 1594.33 518.47 1594.33 569.57 1648.23 569.57 1648.23 518.47 1677.5 518.47 1677.5 651.63 1648.23 651.63 1648.23 594.19 1594.33 594.19 1594.33 651.63 1565.05 651.63 1565.05 518.47"/>
  <path class="cls-6" d="m1548.33,620.37c-.93-13.61-5.03-27.22-19.39-31.14v-.37c14.92-5.96,21.07-17.71,21.07-33.38,0-20.14-15.11-36.74-38.98-36.74h-58.17v22.75h47.73c13.24,0,20.14,5.6,20.14,18.47s-6.9,19.02-20.14,19.02h-40.36v20.89h37.57c14.73,0,20.13,6.16,22.19,20.14,1.5,10.63,1.3,23.49,4.67,31.89h29.28c-5.41-7.27-5.03-23.13-5.6-31.52"/>
  <path class="cls-6" d="m1784.88,620.37c-.93-13.61-5.03-27.22-19.39-31.14v-.37c14.92-5.96,21.07-17.71,21.07-33.38,0-20.14-15.11-36.74-38.98-36.74h-58.18v22.75h47.73c13.24,0,20.14,5.6,20.14,18.47s-6.9,19.02-20.14,19.02h-40.36v20.89h37.56c14.73,0,20.14,6.16,22.19,20.14,1.49,10.63,1.3,23.49,4.66,31.89h29.28c-5.41-7.27-5.03-23.13-5.59-31.52"/>
  <path class="cls-6" d="m1301,651.32h-18.65l-2.98-15.11c-10.44,13.43-23.68,18.27-36.56,18.27-41.03,0-65.45-30.77-65.45-69.18s24.43-70.3,65.45-70.3c15.99,0,31.53,5.72,42.24,16.6-6.74,7.84-11.7,17.34-14.72,28-4.08-13.32-14.3-19.99-27.52-19.99-26.29,0-36.17,22.38-36.17,45.69s9.88,44.57,36.17,44.57c19.21,0,30.03-10.07,31.71-28.71h-29.47v-21.82h55.95v71.98Z"/>
  <path class="cls-6" d="m1303.49,573.34h-29.44c4.5-33.53,27.93-58.2,64.66-58.2,27.23,0,53.15,16.6,56.14,47h-27.97c-3.54-14.92-14.18-22.39-28.17-22.39-21.66,0-32.18,15.2-35.22,33.59m93.41,78.12h-18.65l-2.98-15.11c-10.45,13.43-23.68,18.28-36.56,18.28-12.17,0-22.88-2.71-31.93-7.53v-38.45c5.13,12.3,15.21,21.36,31.93,21.36,19.21,0,30.03-10.07,31.71-28.72h-29.47v-21.82h55.95v71.98Z"/>
</svg>