<?xml version="1.0" encoding="UTF-8"?>
<svg id="Layer_1" data-name="Layer 1" xmlns="http://www.w3.org/2000/svg" viewBox="0 0 1920 1080">
  <defs>
    <style>
      .cls-1 {
        fill: #79b5e2;
      }

      .cls-1, .cls-2, .cls-3, .cls-4, .cls-5, .cls-6, .cls-7, .cls-8, .cls-9 {
        stroke-width: 0px;
      }

      .cls-2 {
        fill: #b47aa5;
      }

      .cls-3 {
        fill: #209bbe;
      }

      .cls-4 {
        fill: #ee4065;
      }

      .cls-5 {
        fill: #58595b;
      }

      .cls-6 {
        fill-rule: evenodd;
      }

      .cls-6, .cls-9 {
        fill: #ee3f65;
      }

      .cls-7 {
        fill: #fff;
      }

      .cls-8 {
        fill: #005e7e;
      }
    </style>
  </defs>
  <g>
    <polygon class="cls-9" points="226.78 509.29 283.88 509.29 283.88 524.3 244.64 524.3 244.64 543.07 278.64 543.07 278.64 556.94 244.64 556.94 244.64 590.49 226.78 590.49 226.78 509.29"/>
    <polygon class="cls-9" points="192.74 590.49 172.61 590.49 146.22 509.29 164.64 509.29 182.73 566.38 182.96 566.38 201.27 509.29 219.69 509.29 192.74 590.49"/>
    <path class="cls-2" d="m376.95,539.28c-2.03-17.6-16.22-27.41-32.87-27.41-23.47,0-37.44,17.59-37.44,40.22s13.97,39.58,37.44,39.58c18.78,0,31.8-12.05,33.51-31.15h-16.22c-1.28,10.14-7.04,17.07-17.29,17.07-15.05,0-20.7-12.81-20.7-25.51,0-13.35,5.66-26.15,20.7-26.15,8.22,0,15.47,5.76,16.65,13.34h16.22Z"/>
    <path class="cls-2" d="m439.7,565.96c1.18-16.96-8-32.75-26.78-32.75-16.75,0-28.16,12.58-28.16,29.12s10.77,29.02,28.16,29.02c12.49,0,21.56-5.44,25.82-18.55h-13.34c-.96,3.41-5.87,7.15-11.95,7.15-8.53,0-13.13-4.27-13.55-13.99h39.8Zm-39.8-9.59c.32-4.27,2.78-11.75,12.59-11.75,7.36,0,10.67,4.06,12.06,11.75h-24.65Z"/>
    <path class="cls-2" d="m448.68,589.86h15.14v-28.92c0-11.21,3.52-15.79,11.75-15.79,7.15,0,9.72,4.48,9.72,13.55v31.16h15.14v-33.93c0-13.66-4.05-22.72-20.16-22.72-6.41,0-13.03,2.88-16.87,9.16h-.32v-7.67h-14.39v55.16Z"/>
    <path class="cls-2" d="m531.15,518.17h-15.14v16.54h-9.18v10.12h9.18v32.56c0,11.09,8,13.11,17.38,13.11,2.99,0,6.3-.11,8.86-.53v-11.83c-1.39.32-2.99.43-4.7.43-5.12,0-6.4-1.28-6.4-6.41v-27.33h11.1v-10.12h-11.1v-16.54Z"/>
    <path class="cls-2" d="m549.51,589.86h15.14v-24.86c0-9.82,3.73-17.71,14.94-17.71,1.81,0,4.06.21,5.44.53v-14.07c-1.07-.32-2.13-.53-3.31-.53-7.57,0-14.73,4.8-17.61,11.73h-.21s0-10.23,0-10.23h-14.39v55.16Z"/>
    <path class="cls-2" d="m643.3,565.96c1.18-16.96-8-32.75-26.78-32.75-16.75,0-28.16,12.58-28.16,29.12s10.77,29.02,28.16,29.02c12.49,0,21.56-5.44,25.82-18.55h-13.34c-.96,3.41-5.87,7.15-11.95,7.15-8.54,0-13.13-4.27-13.55-13.99h39.8Zm-39.8-9.59c.32-4.27,2.78-11.75,12.59-11.75,7.36,0,10.67,4.06,12.06,11.75h-24.65Z"/>
    <path class="cls-9" d="m130.27,480c-6.99,0-12.65,5.67-12.65,12.65,0,5.95,4.13,10.91,9.67,12.26.26-1.87.67-3.11.67-3.11,0,0,.34-1.77.69-3.78.34-2.01-1.16-2.8-1.16-2.8-.98-1.64-2.09-3.86,0-7.85,2.09-3.99,4.58.79,4.58.79,0,0,1.23,1.9,1.53,2.39.29.49,1.14,3.6.11,4.87-1.03,1.28-1.28,2.35-1.28,2.35,0,0-.88,3.98-.88,4.12s-.14,1.27-.98,2.65c-.17.28-.31.52-.45.74.05,0,.1.02.15.02,6.98,0,12.64-5.66,12.64-12.65s-5.66-12.65-12.64-12.65Z"/>
    <path class="cls-6" d="m128.92,509.29c-.04,3.1,1.83,4.52,2.67,7.22,1.06,3.38-1.4,7.82-1.77,11.95-.32,3.49.84,15.07.84,15.07-.33-1.02-2.4-10.03-2.15-14.95.14-5.56,3.05-9.44,1.77-11.87-1.29-2.42-2.41-3.43-2.86-5.66-.12-.6-.2-1.19-.26-1.77h-5.83v81.2h17.86v-81.2h-10.28Z"/>
  </g>
  <g>
    <path class="cls-9" d="m849.24,501.71c-21.97,3.26-28.88-3.16-28.88-3.16l-5.95,7.3h0c8.99,6.57,20.86,2.61,35.95-.54,7.27-1.52,12.88,1.4,16.84,5.02-5.05-7.03-10.25-9.78-17.96-8.63"/>
    <path class="cls-9" d="m886.48,501.71c21.97,3.26,28.88-3.16,28.88-3.16l5.95,7.3h0c-8.99,6.57-20.86,2.61-35.96-.54-7.26-1.52-12.88,1.4-16.84,5.02,5.05-7.03,10.25-9.78,17.97-8.63"/>
    <path class="cls-3" d="m851.78,495.53c-20.99-2.62-24.69-7.89-24.69-7.89l-6.23,5.15h0c7.83,6.95,17.46,6.56,31.53,6.47,6.78-.04,10.85,3.2,14.02,7.51-3.76-7.83-7.47-10.34-14.62-11.23"/>
    <path class="cls-3" d="m883.93,495.53c20.99-2.62,24.69-7.89,24.69-7.89l6.23,5.15h0c-7.83,6.95-17.46,6.56-31.53,6.47-6.77-.04-10.84,3.2-14.01,7.51,3.76-7.83,7.47-10.34,14.62-11.23"/>
    <path class="cls-1" d="m854.93,489.72c-13.2-1.21-15.66-9.72-15.66-9.72l-6.6,2.95h0c5.69,8.86,8.34,8.1,22.26,10.19,7.17,1.08,9.62,5.23,11.53,10.25-1.53-8.57-4.36-13.01-11.53-13.66"/>
    <path class="cls-1" d="m880.79,489.72c13.21-1.21,15.66-9.72,15.66-9.72l6.6,2.95h0c-5.69,8.86-8.34,8.1-22.26,10.19-7.17,1.08-9.62,5.23-11.53,10.25,1.53-8.57,4.36-13.01,11.53-13.66"/>
    <rect class="cls-3" x="860.76" y="518.91" width="15.35" height="71.07"/>
    <polygon class="cls-3" points="941.74 519 957.09 519 957.09 546.27 985.35 546.27 985.35 519 1000.7 519 1000.7 590.07 985.35 590.07 985.35 559.41 957.09 559.41 957.09 590.07 941.74 590.07 941.74 519"/>
    <path class="cls-3" d="m932.97,573.39c-.49-7.27-2.64-14.53-10.17-16.62v-.2c7.82-3.19,11.05-9.46,11.05-17.82,0-10.75-7.92-19.61-20.43-19.61h-30.5v12.14h25.02c6.94,0,10.56,2.99,10.56,9.86s-3.62,10.15-10.56,10.15h-21.16v11.15h19.7c7.72,0,10.56,3.29,11.63,10.75.78,5.67.68,12.54,2.45,17.02h15.35c-2.83-3.89-2.64-12.34-2.94-16.83"/>
    <path class="cls-3" d="m1057,573.39c-.49-7.27-2.64-14.53-10.17-16.62v-.2c7.82-3.19,11.05-9.46,11.05-17.82,0-10.75-7.92-19.61-20.44-19.61h-30.5v12.14h25.03c6.94,0,10.56,2.99,10.56,9.86s-3.62,10.15-10.56,10.15h-21.16v11.15h19.69c7.72,0,10.56,3.29,11.64,10.75.78,5.67.68,12.54,2.45,17.02h15.35c-2.83-3.89-2.64-12.34-2.93-16.83"/>
    <path class="cls-3" d="m803.28,589.9h-9.78l-1.57-8.06c-5.47,7.17-12.42,9.76-19.17,9.76-21.51,0-34.32-16.42-34.32-36.93s12.81-37.53,34.32-37.53c8.38,0,16.53,3.05,22.14,8.86-3.53,4.19-6.14,9.26-7.72,14.94-2.14-7.11-7.5-10.67-14.43-10.67-13.78,0-18.97,11.95-18.97,24.39s5.18,23.79,18.97,23.79c10.07,0,15.75-5.37,16.62-15.33h-15.45v-11.65h29.33v38.42Z"/>
    <path class="cls-3" d="m804.59,548.28h-15.44c2.36-17.9,14.64-31.06,33.9-31.06,14.28,0,27.87,8.86,29.44,25.09h-14.67c-1.86-7.96-7.43-11.95-14.77-11.95-11.36,0-16.87,8.11-18.47,17.93m48.98,41.7h-9.78l-1.56-8.06c-5.48,7.17-12.42,9.76-19.17,9.76-6.38,0-12-1.45-16.74-4.02v-20.53c2.69,6.57,7.98,11.4,16.74,11.4,10.07,0,15.75-5.37,16.63-15.33h-15.45v-11.65h29.34v38.42Z"/>
  </g>
  <g>
    <path class="cls-5" d="m1154.98,511.33c0,1.22,1.02,2.21,2.28,2.21s2.28-.99,2.28-2.21v-17.65c0-1.22-1.02-2.21-2.28-2.21s-2.28.99-2.28,2.21v17.65Z"/>
    <rect class="cls-5" x="1157.26" y="498.42" width="24.7" height="8.17"/>
    <path class="cls-9" d="m1231.79,480h-49.83v12.51h45.35c7.51,0,14.39,1.64,14.39,10.97s-6.88,10.97-14.39,10.97h-28.79v75.79h16.07v-63.29h17.2c18.66,0,25.75-11.59,25.75-23.48s-7.09-23.48-25.75-23.48"/>
    <path class="cls-5" d="m1249.63,526.42h12.94v24.11h.27c3.28-5.29,8.93-7.71,13.76-7.71,13.76,0,17.23,7.62,17.23,19.09v28.51h-12.94v-26.17c0-7.62-2.19-11.38-8.29-11.38-7.02,0-10.03,3.85-10.03,13.26v24.3h-12.94v-64Z"/>
    <path class="cls-5" d="m1303.12,558.33c.73-11.83,11.58-15.51,22.15-15.51,9.39,0,20.69,2.06,20.69,13.18v24.11c0,4.21.46,8.43,1.64,10.31h-13.12c-.46-1.44-.82-2.96-.91-4.48-4.1,4.21-10.02,5.74-15.86,5.74-9.02,0-16.04-4.39-16.04-13.9.18-21.07,31.9-9.77,31.35-20.17,0-5.38-3.83-6.28-8.39-6.28-5.01,0-8.11,1.97-8.57,6.99h-12.94Zm29.9,9.41c-2.19,1.88-6.74,1.97-10.76,2.69-4.01.72-7.66,2.15-7.66,6.81s3.74,5.92,7.93,5.92c10.11,0,10.48-7.8,10.48-10.66v-4.75Z"/>
    <path class="cls-5" d="m1355.98,544.08h12.31v8.6h.18c2.46-5.82,8.57-9.86,15.04-9.86,1,0,1.91.18,2.82.45v11.83c-1.19-.27-3.1-.45-4.65-.45-9.57,0-12.76,6.63-12.76,14.88v20.89h-12.94v-46.34Z"/>
    <path class="cls-5" d="m1391.8,544.08h12.21v6.27h.18c3.37-4.75,8.2-7.53,14.4-7.53s11.21,2.06,13.76,7.71c2.82-4.03,7.66-7.71,14.22-7.71,10.03,0,17.23,4.57,17.23,16.59v31.01h-12.94v-26.27c0-6.19-.55-11.29-7.93-11.29s-8.66,6.01-8.66,11.74v25.82h-12.94v-26c0-5.38.37-11.56-7.84-11.56-2.55,0-8.75,1.61-8.75,10.67v26.89h-12.94v-46.34Z"/>
    <path class="cls-5" d="m1473.46,558.33c.73-11.83,11.58-15.51,22.15-15.51,9.39,0,20.69,2.06,20.69,13.18v24.11c0,4.21.46,8.43,1.64,10.31h-13.12c-.46-1.44-.82-2.96-.91-4.48-4.1,4.21-10.03,5.74-15.86,5.74-9.02,0-16.04-4.39-16.04-13.9.19-21.07,31.9-9.77,31.36-20.17,0-5.38-3.83-6.28-8.38-6.28-5.01,0-8.11,1.97-8.57,6.99h-12.94Zm29.9,9.41c-2.18,1.88-6.74,1.97-10.75,2.69-4.01.72-7.66,2.15-7.66,6.81s3.74,5.92,7.93,5.92c10.12,0,10.48-7.8,10.48-10.66v-4.75Z"/>
    <path class="cls-7" d="m1243.01,500.01v6.04c8.46-.3,14.8-1.54,14.8-3.02s-6.34-2.71-14.8-3.02"/>
    <polygon class="cls-9" points="1280.71 503.54 1257.54 503.54 1257.54 502.51 1278.8 502.51 1280.71 503.54"/>
  </g>
  <g>
    <g>
      <path class="cls-8" d="m1619.26,571.82c-1.97-1.13-3.5-2.68-4.61-4.65-1.11-1.97-1.66-4.14-1.66-6.52,0-2.53.6-4.79,1.79-6.78.61-1.01,1.38-1.92,2.28-2.68,2.14-1.79,4.71-2.69,7.72-2.69,2.1,0,3.88.27,5.36.82,1.48.55,2.57,1.24,3.29,2.07.4.52.66,1.19.77,2,.11.81.16,1.8.16,2.97h0c-.62,0-1.15-.42-1.32-1.01-.48-1.66-1.23-2.9-2.23-3.74-1.2-1-2.85-1.5-4.95-1.5-2.67,0-4.65,1-5.93,3-1.29,2-1.93,4.52-1.93,7.54,0,4.07.71,7,2.13,8.77,1.42,1.78,3.33,2.66,5.74,2.66,1.86,0,3.47-.31,4.82-.93v-6.36c0-1.26.48-2.31,1.43-3.13.95-.82,2.79-1.23,5.5-1.23h0c0,.47-.32.86-.77,1.01-1.01.34-1.52,1.44-1.52,3.28v4.99c0,.92-.53,1.75-1.36,2.15-.96.46-1.96.82-3,1.08-1.55.38-3.25.57-5.11.57-2.43,0-4.63-.57-6.59-1.7Z"/>
      <path class="cls-8" d="m1730.38,571.82c-1.97-1.13-3.5-2.68-4.61-4.65-1.11-1.97-1.66-4.14-1.66-6.52,0-2.53.6-4.79,1.79-6.78.61-1.01,1.38-1.92,2.28-2.68,2.14-1.79,4.71-2.69,7.72-2.69,2.1,0,3.88.27,5.36.82,1.48.55,2.57,1.24,3.29,2.07.4.52.66,1.19.77,2,.11.81.16,1.8.16,2.97h0c-.62,0-1.15-.42-1.32-1.01-.48-1.66-1.23-2.9-2.23-3.74-1.2-1-2.85-1.5-4.95-1.5-2.67,0-4.65,1-5.93,3s-1.93,4.52-1.93,7.54c0,4.07.71,7,2.13,8.77,1.42,1.78,3.33,2.66,5.74,2.66,1.86,0,3.47-.31,4.82-.93v-6.36c0-1.26.48-2.31,1.43-3.13.95-.82,2.79-1.23,5.5-1.23h0c0,.47-.32.86-.77,1.01-1.01.34-1.52,1.44-1.52,3.28v4.99c0,.92-.53,1.75-1.36,2.15-.96.46-1.96.82-3,1.08-1.55.38-3.25.57-5.11.57-2.43,0-4.63-.57-6.59-1.7Z"/>
      <path class="cls-8" d="m1638.96,571.86c-1.06-.87-1.59-2.04-1.59-3.52,0-1.19.28-2.18.84-2.97.56-.79,1.54-1.38,2.95-1.79,1.41-.4,3.36-.61,5.86-.61h.54c0-2.07-.29-3.54-.86-4.41-.57-.87-1.42-1.3-2.54-1.3-.93,0-1.69.23-2.29.68-.33.25-.61.62-.84,1.12-.39.85-1.2,1.42-2.13,1.42h0c-.15,0-.28-.13-.28-.28.01-.69.06-1.29.16-1.79.11-.57.35-1.07.73-1.5.74-.83,2.53-1.25,5.36-1.25,2.38,0,4.2.63,5.45,1.88,1.25,1.25,1.88,3.13,1.88,5.63v7.27c0,1.31-1.06,2.38-2.38,2.38h-1.91s0-1.61,0-1.61h-.18c-.21.33-.55.67-1,1-.81.64-1.91.96-3.29.96-1.93,0-3.43-.43-4.49-1.3Zm6.84-.79c.36-.2.7-.48,1.04-.84.31-.33.55-.73.71-1.18v-4.47h-.54c-1.69,0-2.92.3-3.68.91-.76.61-1.14,1.55-1.14,2.84,0,.98.2,1.73.61,2.25.41.52.98.79,1.72.79.5,0,.93-.1,1.29-.3Z"/>
      <path class="cls-8" d="m1707.04,571.86c-1.06-.87-1.59-2.04-1.59-3.52,0-1.19.28-2.18.84-2.97.56-.79,1.54-1.38,2.95-1.79,1.41-.4,3.36-.61,5.86-.61h.54c0-2.07-.29-3.54-.86-4.41-.57-.87-1.42-1.3-2.54-1.3-.93,0-1.69.23-2.29.68-.33.25-.61.62-.84,1.12-.39.85-1.2,1.42-2.13,1.42h0c-.15,0-.28-.13-.28-.28.01-.69.06-1.29.16-1.79.11-.57.35-1.07.73-1.5.74-.83,2.53-1.25,5.36-1.25,2.38,0,4.2.63,5.45,1.88,1.25,1.25,1.88,3.13,1.88,5.63v7.27c0,1.31-1.06,2.38-2.38,2.38h-1.91s0-1.61,0-1.61h-.18c-.21.33-.55.67-1,1-.81.64-1.91.96-3.29.96-1.93,0-3.43-.43-4.49-1.3Zm6.84-.79c.36-.2.7-.48,1.04-.84.31-.33.55-.73.71-1.18v-4.47h-.54c-1.69,0-2.92.3-3.68.91-.76.61-1.14,1.55-1.14,2.84,0,.98.2,1.73.61,2.25.41.52.98.79,1.72.79.5,0,.93-.1,1.29-.3Z"/>
      <path class="cls-8" d="m1769.41,571.86c-1.06-.87-1.59-2.04-1.59-3.52,0-1.19.28-2.18.84-2.97.56-.79,1.54-1.38,2.95-1.79,1.41-.4,3.36-.61,5.86-.61h.54c0-2.07-.29-3.54-.86-4.41-.57-.87-1.42-1.3-2.54-1.3-.93,0-1.69.23-2.29.68-.33.25-.61.62-.84,1.12-.39.85-1.2,1.42-2.13,1.42h0c-.15,0-.28-.13-.28-.28.01-.69.06-1.29.16-1.79.11-.57.35-1.07.73-1.5.74-.83,2.53-1.25,5.36-1.25,2.38,0,4.2.63,5.45,1.88,1.25,1.25,1.88,3.13,1.88,5.63v7.27c0,1.31-1.06,2.38-2.38,2.38h-1.91s0-1.61,0-1.61h-.18c-.21.33-.55.67-1,1-.81.64-1.91.96-3.29.96-1.93,0-3.43-.43-4.49-1.3Zm6.84-.79c.36-.2.7-.48,1.04-.84.31-.33.55-.73.71-1.18v-4.47h-.54c-1.69,0-2.92.3-3.68.91-.76.61-1.14,1.55-1.14,2.84,0,.98.2,1.73.61,2.25.41.52.98.79,1.72.79.5,0,.93-.1,1.29-.3Z"/>
      <path class="cls-8" d="m1667.89,557.39h0c.17.34.08.74-.22.97l-.53.41c-.43.33-1.03.3-1.43-.06h0c-.52-.48-1.13-.72-1.82-.72-1.38,0-2.44.37-3.18,1.11l.07.54c.05.43.07.82.07,1.18v9.63c0,1.31-1.06,2.38-2.38,2.38h-2.27v-12.15c0-1.22-.16-2.11-.48-2.7-.32-.58-.98-.88-1.98-.88h-.36c0-.59.48-1.07,1.07-1.07h2.47c.81,0,1.45.1,1.91.3.46.2.83.54,1.09,1.02,1.29-1.12,2.79-1.68,4.5-1.68,1.02,0,1.87.24,2.54.71.43.31.74.65.93,1.02Z"/>
      <path class="cls-8" d="m1675.14,572.2c-.41-.29-.73-.62-.96-1h-.18l-.54.69c-.45.58-1.14.92-1.88.92h-1.87v-18.94c0-1.22-.17-2.11-.5-2.7-.33-.58-1-.88-2-.88h-.36c0-.59.48-1.07,1.07-1.07h3.22c.86,0,1.51.14,1.97.43.45.29.77.76.96,1.41.19.66.29,1.59.29,2.81v2.86c.31-.19.64-.37,1-.54.98-.36,1.89-.54,2.75-.54,2.48,0,4.38.82,5.7,2.45,1.32,1.63,1.98,3.73,1.98,6.31s-.65,4.68-1.95,6.31c-1.3,1.63-3.15,2.45-5.56,2.45-1.29,0-2.34-.32-3.15-.96Zm5-2.57c.55-1.29.82-3.03.82-5.22,0-4.77-1.19-7.15-3.57-7.15-.69,0-1.42.18-2.18.54-.33.19-.62.37-.86.54v10.9c.21.48.48.87.79,1.18.71.76,1.52,1.14,2.43,1.14,1.17,0,2.02-.64,2.57-1.93Z"/>
      <path class="cls-8" d="m1687.83,553.87c0-1.22-.17-2.11-.5-2.7-.33-.58-1-.88-2-.88h-.36c0-.59.48-1.07,1.07-1.07h3.22c.86,0,1.51.14,1.97.43.45.29.77.76.97,1.41.19.66.29,1.59.29,2.81v3.15c.21-.17.58-.39,1.11-.68.95-.45,1.89-.68,2.82-.68,1.93,0,3.54.49,4.84,1.48,1.3.99,1.95,2.67,1.95,5.06v8.24c0,1.31-1.06,2.38-2.38,2.38h-2.27v-10.44c0-1.72-.3-2.97-.91-3.75-.61-.79-1.38-1.18-2.31-1.18-.64,0-1.32.21-2.04.64-.29.17-.56.37-.82.61v11.74c0,1.31-1.06,2.38-2.38,2.38h-2.27v-18.94Z"/>
      <path class="cls-8" d="m1750.52,560.66c0-1.22-.16-2.11-.48-2.7-.32-.58-.98-.88-1.98-.88h-.36c0-.59.48-1.07,1.07-1.07h2.47c.81,0,1.45.1,1.91.3.46.2.83.54,1.09,1.02,1.22-1.12,2.95-1.68,5.22-1.68s3.96.53,5.09,1.59c1.13,1.06,1.7,2.72,1.7,4.99v8.2c0,1.31-1.06,2.38-2.38,2.38h-2.27v-10.61c0-1.64-.3-2.85-.91-3.61-.61-.76-1.44-1.14-2.48-1.14-.74,0-1.39.1-1.95.3-.56.2-1.01.47-1.34.8l.11.5c.09.29.14.75.14,1.39v9.99c0,1.31-1.06,2.38-2.38,2.38h-2.27v-12.15Z"/>
      <path class="cls-8" d="m1786.65,560.66c0-1.22-.16-2.11-.48-2.7-.32-.58-.98-.88-1.98-.88h-.36c0-.59.48-1.07,1.07-1.07h2.47c.81,0,1.45.1,1.91.3.46.2.83.54,1.09,1.02,1.22-1.12,2.95-1.68,5.22-1.68s3.96.53,5.09,1.59c1.13,1.06,1.7,2.72,1.7,4.99v8.2c0,1.31-1.06,2.38-2.38,2.38h-2.27v-10.61c0-1.64-.3-2.85-.91-3.61-.61-.76-1.44-1.14-2.48-1.14-.74,0-1.39.1-1.95.3-.56.2-1.01.47-1.34.8l.11.5c.09.29.14.75.14,1.39v9.99c0,1.31-1.06,2.38-2.38,2.38h-2.27v-12.15Z"/>
      <g>
        <path class="cls-5" d="m1615.91,591.3h-1.95v-14.46h10.01v1.73h-8.05v4.43h7.09v1.73h-7.09v6.56Z"/>
        <path class="cls-5" d="m1646.66,584.07c0,.52-.05,1.07-.15,1.65-.1.58-.26,1.15-.48,1.71-.22.56-.51,1.1-.87,1.61-.36.51-.8.96-1.32,1.36-.52.4-1.13.71-1.83.94s-1.5.34-2.4.34-1.7-.11-2.4-.34c-.7-.23-1.31-.54-1.83-.94-.52-.4-.96-.85-1.32-1.36-.36-.51-.64-1.05-.87-1.61-.22-.56-.38-1.13-.48-1.71-.1-.58-.15-1.13-.15-1.65s.05-1.07.15-1.65c.1-.58.26-1.15.48-1.71.22-.56.51-1.1.87-1.61.36-.51.8-.96,1.32-1.36.52-.4,1.13-.71,1.83-.94.7-.23,1.5-.34,2.4-.34s1.7.11,2.4.34c.7.23,1.31.54,1.83.94.52.4.96.85,1.32,1.36.36.51.64,1.05.87,1.61s.38,1.13.48,1.71c.1.58.15,1.13.15,1.65Zm-2.01,0c0-.85-.11-1.63-.34-2.35-.23-.72-.56-1.34-1-1.86-.44-.52-.97-.93-1.59-1.23-.62-.29-1.33-.44-2.1-.44s-1.5.15-2.11.44c-.62.3-1.14.7-1.58,1.23-.44.52-.77,1.14-1,1.86-.23.72-.34,1.5-.34,2.35s.11,1.63.34,2.35c.23.72.56,1.34,1,1.86.44.52.96.93,1.58,1.23.62.3,1.32.44,2.11.44s1.48-.15,2.1-.44c.62-.29,1.15-.7,1.59-1.23.44-.52.77-1.14,1-1.86.23-.72.34-1.5.34-2.35Z"/>
        <path class="cls-5" d="m1667.12,576.84v9.38c0,.74-.12,1.44-.35,2.1-.24.66-.59,1.25-1.07,1.74-.48.5-1.08.89-1.81,1.18s-1.59.43-2.59.43-1.8-.14-2.51-.43c-.71-.29-1.28-.67-1.73-1.16-.45-.48-.78-1.04-1-1.66-.21-.62-.32-1.27-.32-1.94v-9.64h1.95v9.1c0,.79.11,1.44.32,1.95.21.51.5.92.85,1.23.35.31.74.52,1.18.64.44.12.88.18,1.32.18s.89-.06,1.35-.18c.46-.12.87-.33,1.23-.62.36-.29.66-.7.89-1.21.23-.51.34-1.16.34-1.95v-9.14h1.95Z"/>
        <path class="cls-5" d="m1686.65,576.84h1.89v14.46h-2.19l-7.35-11.68h-.04v11.68h-1.89v-14.46h2.32l7.23,11.68h.04v-11.68Z"/>
        <path class="cls-5" d="m1698.55,576.84h5.86c.94,0,1.78.17,2.54.51.75.34,1.39.82,1.91,1.44.52.62.93,1.36,1.21,2.22.28.86.42,1.81.42,2.86,0,.81-.1,1.65-.29,2.53-.2.88-.53,1.68-1.01,2.41-.48.72-1.11,1.32-1.9,1.79-.79.47-1.78.71-2.96.71h-5.78v-14.46Zm1.95,12.79h3.79c1.27,0,2.29-.48,3.05-1.44s1.14-2.36,1.14-4.2-.39-3.2-1.17-4.11-1.83-1.37-3.16-1.37h-3.64v11.12Z"/>
        <path class="cls-5" d="m1720.42,587.09l-1.51,4.21h-2.01l5.44-14.46h2.22l5.24,14.46h-2.13l-1.43-4.21h-5.8Zm5.09-1.73l-2.13-6.36h-.04l-2.32,6.36h4.49Z"/>
        <path class="cls-5" d="m1735.2,576.84h11.74v1.73h-4.89v12.73h-1.95v-12.73h-4.89v-1.73Z"/>
        <path class="cls-5" d="m1757.85,591.3h-1.95v-14.46h1.95v14.46Z"/>
        <path class="cls-5" d="m1781.27,584.07c0,.52-.05,1.07-.15,1.65-.1.58-.26,1.15-.48,1.71-.22.56-.51,1.1-.87,1.61-.36.51-.8.96-1.32,1.36-.52.4-1.13.71-1.83.94s-1.5.34-2.4.34-1.7-.11-2.4-.34c-.7-.23-1.31-.54-1.83-.94-.52-.4-.96-.85-1.32-1.36-.36-.51-.64-1.05-.87-1.61-.22-.56-.38-1.13-.48-1.71-.1-.58-.15-1.13-.15-1.65s.05-1.07.15-1.65c.1-.58.26-1.15.48-1.71.22-.56.51-1.1.87-1.61.36-.51.8-.96,1.32-1.36.52-.4,1.13-.71,1.83-.94.7-.23,1.5-.34,2.4-.34s1.7.11,2.4.34c.7.23,1.31.54,1.83.94.52.4.96.85,1.32,1.36.36.51.64,1.05.87,1.61s.38,1.13.48,1.71c.1.58.15,1.13.15,1.65Zm-2.01,0c0-.85-.11-1.63-.34-2.35-.23-.72-.56-1.34-1-1.86-.44-.52-.97-.93-1.59-1.23-.62-.29-1.33-.44-2.1-.44s-1.5.15-2.11.44c-.62.3-1.14.7-1.58,1.23-.44.52-.77,1.14-1,1.86-.23.72-.34,1.5-.34,2.35s.11,1.63.34,2.35c.23.72.56,1.34,1,1.86.44.52.96.93,1.58,1.23.62.3,1.32.44,2.11.44s1.48-.15,2.1-.44c.62-.29,1.15-.7,1.59-1.23.44-.52.77-1.14,1-1.86.23-.72.34-1.5.34-2.35Z"/>
        <path class="cls-5" d="m1799.89,576.84h1.89v14.46h-2.19l-7.35-11.68h-.04v11.68h-1.89v-14.46h2.32l7.23,11.68h.04v-11.68Z"/>
      </g>
    </g>
    <circle class="cls-9" cx="1707.71" cy="491.62" r="11.62"/>
    <path class="cls-9" d="m1707.13,545.61s.35-22.43-7.33-32.56c-6.03-7.95-15.18-10.85-28.61-12.28-12.67-1.35-19.71-9.76-19.71-9.76-.32,15.22,2.04,24.12,2.04,24.12.36.57,5.25.98,7.84.42,42.88-9.29,45.25,26.56,45.77,30.06Z"/>
    <path class="cls-8" d="m1707.13,544.35s.42-18.23-8.67-27.89c-7.14-7.58-17.88-11.17-33.87-11.09-14.8.07-24.25-11.59-24.25-11.59-.38,14.52,3.34,21.5,3.34,21.5.43.55,6.21.94,9.28.4,50.76-8.86,53.57,25.33,54.18,28.67Z"/>
    <path class="cls-4" d="m1709.31,542.54c-.03-.27-.06-.54-.09-.81-.07-.53-.15-1.06-.24-1.59-.18-1.05-.4-2.09-.66-3.13-.52-2.07-1.19-4.1-2.05-6.08-.85-1.98-1.89-3.9-3.12-5.71-1.25-1.8-2.68-3.51-4.35-5-1.65-1.48-3.44-2.78-5.37-3.88-1.92-1.11-3.98-1.97-6.08-2.66-2.1-.68-4.25-1.15-6.39-1.47-2.15-.3-4.29-.46-6.41-.52-4.25-.07-8.42.22-12.53.69-1.03.11-2.05.23-3.07.37l-3.04.42c-1.87.27-3.76.41-5.65.45-3.78.06-7.57-.37-11.25-1.3-1.84-.47-3.65-1.04-5.43-1.71-.89-.34-1.77-.7-2.62-1.09-.43-.19-.86-.39-1.28-.59l-1.16-.59-.54-.27c-.47-.24-1.04-.32-1.59-.18-1.21.31-1.94,1.55-1.63,2.76h0c.89,3.31,2.29,6.39,4.07,9.16.89,1.39,1.87,2.7,2.92,3.92,1.06,1.22,2.18,2.38,3.43,3.4.07.06.18.06.26,0,.09-.07.11-.2.04-.29h0c-.95-1.24-1.76-2.59-2.48-3.96-.72-1.37-1.33-2.79-1.84-4.22-.42-1.18-.76-2.39-1.02-3.59.41.22.82.43,1.24.63.97.48,1.98.89,2.98,1.29,1.01.38,2.04.73,3.08,1.04,4.16,1.21,8.49,1.88,12.84,1.91,2.17.02,4.35-.12,6.5-.41l5.98-.77c1.98-.24,3.96-.43,5.92-.61,1.96-.17,3.92-.29,5.86-.31,3.87-.09,7.69.16,11.3,1.07,1.8.47,3.54,1.1,5.19,1.93.83.4,1.62.88,2.41,1.37.38.27.77.51,1.14.8l.56.42.53.43c1.42,1.15,2.68,2.53,3.82,4.01,1.12,1.5,2.1,3.12,2.93,4.84.83,1.72,1.52,3.52,2.07,5.37.28.93.52,1.86.72,2.81.1.47.2.94.28,1.42l.11.7c.03.23.07.48.09.66v.07c.12.97.98,1.7,1.97,1.64,1.02-.06,1.8-.95,1.73-1.97-.02-.33-.04-.57-.07-.85Z"/>
    <path class="cls-9" d="m1708.29,545.61s-.35-22.43,7.33-32.56c6.03-7.95,15.18-10.85,28.61-12.28,12.67-1.35,19.71-9.76,19.71-9.76.32,15.22-2.04,24.12-2.04,24.12-.36.57-5.25.98-7.84.42-42.88-9.29-45.25,26.56-45.77,30.06Z"/>
    <path class="cls-8" d="m1708.29,544.35s-.42-18.23,8.67-27.89c7.14-7.58,17.88-11.17,33.87-11.09,14.8.07,24.25-11.59,24.25-11.59.38,14.52-3.34,21.5-3.34,21.5-.43.55-6.21.94-9.28.4-50.76-8.86-53.57,25.33-54.18,28.67Z"/>
    <path class="cls-4" d="m1790.48,509.05c-.57-1.11-1.94-1.56-3.05-.99l-.53.27-1.16.59c-.42.21-.85.4-1.28.59-.86.39-1.74.75-2.62,1.09-1.78.67-3.59,1.25-5.43,1.71-3.68.93-7.47,1.36-11.25,1.3-1.89-.04-3.78-.18-5.65-.45l-3.04-.42c-1.02-.13-2.04-.25-3.07-.37-4.11-.47-8.28-.76-12.53-.69-2.13.06-4.27.22-6.41.52-2.14.32-4.29.79-6.39,1.47-2.1.69-4.16,1.55-6.08,2.66-1.93,1.1-3.72,2.4-5.37,3.88-1.67,1.49-3.1,3.2-4.35,5-1.23,1.81-2.27,3.73-3.12,5.71-.85,1.98-1.53,4.02-2.04,6.08-.26,1.03-.48,2.08-.66,3.13-.09.53-.17,1.05-.24,1.59-.03.27-.07.53-.09.81-.03.28-.05.53-.07.85-.06.98.66,1.85,1.64,1.96,1.02.12,1.94-.62,2.05-1.64v-.06c.03-.18.06-.44.09-.66l.11-.7c.08-.47.18-.94.28-1.42.21-.94.45-1.88.72-2.81.55-1.85,1.24-3.65,2.07-5.37.83-1.72,1.81-3.34,2.93-4.84,1.14-1.48,2.39-2.86,3.82-4.01l.53-.43.56-.42c.37-.29.76-.53,1.14-.8.78-.5,1.58-.97,2.41-1.37,1.65-.83,3.39-1.46,5.19-1.93,3.61-.91,7.43-1.16,11.3-1.07,1.94.02,3.89.14,5.86.31,1.96.17,3.94.36,5.92.61l5.98.77c2.15.29,4.32.44,6.5.41,4.35-.02,8.68-.69,12.84-1.91,1.04-.31,2.06-.66,3.08-1.04,1.01-.4,2.01-.81,2.98-1.29.42-.2.83-.41,1.24-.63-.26,1.21-.6,2.41-1.02,3.59-.51,1.44-1.12,2.85-1.84,4.22-.72,1.37-1.53,2.72-2.48,3.95h0c-.06.08-.06.19,0,.27.07.09.2.1.29.03,1.25-1.02,2.37-2.17,3.43-3.4,1.06-1.23,2.04-2.54,2.92-3.92,1.78-2.77,3.18-5.85,4.07-9.16h0c.13-.52.08-1.08-.18-1.6Z"/>
  </g>
  <rect class="cls-4" x="688.36" y="480" width="4.87" height="111.68"/>
  <rect class="cls-4" x="1104.44" y="480" width="4.87" height="111.68"/>
  <rect class="cls-4" x="1562.29" y="480" width="4.87" height="111.68"/>
</svg>