<?xml version="1.0" encoding="UTF-8"?>
<svg id="Layer_1" data-name="Layer 1" xmlns="http://www.w3.org/2000/svg" viewBox="0 0 1920 1080">
  <defs>
    <style>
      .cls-1 {
        fill: #79b5e2;
      }

      .cls-1, .cls-2, .cls-3, .cls-4, .cls-5, .cls-6, .cls-7, .cls-8, .cls-9 {
        stroke-width: 0px;
      }

      .cls-2 {
        fill: #b47aa5;
      }

      .cls-3 {
        fill: #209bbe;
      }

      .cls-4 {
        fill: #ee4065;
      }

      .cls-5 {
        fill: #58595b;
      }

      .cls-6 {
        fill-rule: evenodd;
      }

      .cls-6, .cls-9 {
        fill: #ee3f65;
      }

      .cls-7 {
        fill: #fff;
      }

      .cls-8 {
        fill: #005e7e;
      }
    </style>
  </defs>
  <g>
    <polygon class="cls-9" points="829.72 143.57 878.11 143.57 878.11 156.29 844.85 156.29 844.85 172.19 873.67 172.19 873.67 183.95 844.85 183.95 844.85 212.38 829.72 212.38 829.72 143.57"/>
    <polygon class="cls-9" points="800.87 212.38 783.81 212.38 761.45 143.57 777.06 143.57 792.38 191.95 792.58 191.95 808.1 143.57 823.71 143.57 800.87 212.38"/>
    <path class="cls-2" d="m956.98,168.99c-1.72-14.92-13.74-23.23-27.85-23.23-19.89,0-31.73,14.91-31.73,34.09s11.84,33.55,31.73,33.55c15.92,0,26.95-10.21,28.39-26.4h-13.74c-1.09,8.59-5.97,14.47-14.65,14.47-12.75,0-17.54-10.85-17.54-21.62,0-11.31,4.79-22.16,17.54-22.16,6.96,0,13.11,4.88,14.11,11.3h13.74Z"/>
    <path class="cls-2" d="m1010.16,191.6c1-14.38-6.78-27.75-22.7-27.75-14.19,0-23.86,10.66-23.86,24.68s9.13,24.59,23.86,24.59c10.58,0,18.27-4.61,21.89-15.72h-11.3c-.81,2.89-4.97,6.06-10.13,6.06-7.23,0-11.12-3.62-11.48-11.86h33.73Zm-33.73-8.13c.27-3.62,2.35-9.96,10.67-9.96,6.24,0,9.04,3.44,10.22,9.96h-20.89Z"/>
    <path class="cls-2" d="m1017.77,211.85h12.83v-24.51c0-9.5,2.99-13.38,9.95-13.38,6.06,0,8.23,3.8,8.23,11.48v26.41h12.83v-28.76c0-11.57-3.43-19.25-17.08-19.25-5.43,0-11.04,2.44-14.3,7.76h-.27v-6.5h-12.2v46.74Z"/>
    <path class="cls-2" d="m1087.66,151.09h-12.83v14.02h-7.78v8.58h7.78v27.59c0,9.4,6.78,11.11,14.73,11.11,2.53,0,5.34-.09,7.51-.45v-10.03c-1.18.27-2.53.36-3.98.36-4.34,0-5.43-1.09-5.43-5.43v-23.16h9.4v-8.58h-9.4v-14.02Z"/>
    <path class="cls-2" d="m1103.22,211.85h12.83v-21.07c0-8.32,3.16-15.01,12.66-15.01,1.54,0,3.44.18,4.61.45v-11.93c-.9-.27-1.81-.45-2.8-.45-6.42,0-12.48,4.07-14.92,9.94h-.18s0-8.67,0-8.67h-12.2v46.74Z"/>
    <path class="cls-2" d="m1182.7,191.6c1-14.38-6.78-27.75-22.7-27.75-14.19,0-23.86,10.66-23.86,24.68s9.13,24.59,23.86,24.59c10.58,0,18.27-4.61,21.89-15.72h-11.3c-.81,2.89-4.97,6.06-10.13,6.06-7.23,0-11.12-3.62-11.48-11.86h33.73Zm-33.73-8.13c.27-3.62,2.35-9.96,10.67-9.96,6.24,0,9.04,3.44,10.22,9.96h-20.89Z"/>
    <path class="cls-9" d="m747.93,118.75c-5.92,0-10.72,4.8-10.72,10.72,0,5.05,3.5,9.25,8.19,10.39.22-1.58.57-2.64.57-2.64,0,0,.29-1.5.58-3.2.29-1.7-.98-2.37-.98-2.37-.83-1.39-1.77-3.27,0-6.65,1.77-3.38,3.88.67,3.88.67,0,0,1.04,1.61,1.29,2.02.25.42.96,3.05.09,4.13-.87,1.08-1.08,1.99-1.08,1.99,0,0-.75,3.37-.75,3.49s-.12,1.08-.83,2.24c-.14.24-.26.44-.38.63.04,0,.08.01.13.01,5.92,0,10.72-4.8,10.72-10.72s-4.8-10.72-10.72-10.72Z"/>
    <path class="cls-6" d="m746.79,143.57c-.04,2.63,1.55,3.83,2.27,6.12.9,2.87-1.18,6.63-1.5,10.13-.27,2.96.71,12.77.71,12.77-.28-.86-2.03-8.5-1.82-12.67.12-4.71,2.59-8,1.5-10.06-1.09-2.05-2.04-2.91-2.42-4.8-.1-.51-.17-1.01-.22-1.5h-4.94v68.82h15.13v-68.82h-8.71Z"/>
  </g>
  <g>
    <path class="cls-9" d="m890.77,309c-30.46,4.52-40.03-4.38-40.03-4.38l-8.24,10.12h0c12.46,9.11,28.91,3.62,49.83-.75,10.07-2.11,17.85,1.93,23.34,6.96-7-9.75-14.21-13.55-24.9-11.96"/>
    <path class="cls-9" d="m942.38,309c30.46,4.52,40.02-4.38,40.02-4.38l8.25,10.12h0c-12.46,9.11-28.92,3.62-49.84-.75-10.07-2.11-17.85,1.93-23.34,6.96,7-9.75,14.21-13.55,24.9-11.96"/>
    <path class="cls-3" d="m894.29,300.45c-29.09-3.63-34.22-10.94-34.22-10.94l-8.64,7.14h0c10.85,9.64,24.2,9.09,43.7,8.97,9.39-.06,15.03,4.44,19.43,10.4-5.21-10.85-10.36-14.34-20.27-15.57"/>
    <path class="cls-3" d="m938.85,300.45c29.1-3.63,34.23-10.94,34.23-10.94l8.64,7.14h0c-10.85,9.64-24.2,9.09-43.7,8.97-9.38-.06-15.03,4.44-19.42,10.4,5.21-10.85,10.35-14.34,20.26-15.57"/>
    <path class="cls-1" d="m898.64,292.39c-18.3-1.68-21.7-13.48-21.7-13.48l-9.14,4.08h0c7.88,12.27,11.56,11.22,30.85,14.13,9.94,1.5,13.34,7.25,15.98,14.2-2.13-11.88-6.04-18.03-15.98-18.94"/>
    <path class="cls-1" d="m934.5,292.39c18.31-1.68,21.7-13.48,21.7-13.48l9.15,4.08h0c-7.88,12.27-11.56,11.22-30.85,14.13-9.94,1.5-13.34,7.25-15.98,14.2,2.13-11.88,6.04-18.03,15.98-18.94"/>
    <rect class="cls-3" x="906.74" y="332.85" width="21.28" height="98.51"/>
    <polygon class="cls-3" points="1018.97 332.96 1040.25 332.96 1040.25 370.77 1079.42 370.77 1079.42 332.96 1100.69 332.96 1100.69 431.48 1079.42 431.48 1079.42 388.98 1040.25 388.98 1040.25 431.48 1018.97 431.48 1018.97 332.96"/>
    <path class="cls-3" d="m1006.82,408.35c-.68-10.07-3.65-20.14-14.1-23.04v-.27c10.85-4.42,15.31-13.11,15.31-24.7,0-14.9-10.98-27.18-28.32-27.18h-42.28v16.83h34.68c9.62,0,14.64,4.14,14.64,13.66s-5.02,14.07-14.64,14.07h-29.33v15.45h27.3c10.7,0,14.63,4.56,16.12,14.9,1.09,7.86.95,17.38,3.4,23.6h21.28c-3.93-5.39-3.66-17.11-4.07-23.32"/>
    <path class="cls-3" d="m1178.72,408.35c-.67-10.07-3.65-20.14-14.09-23.04v-.27c10.84-4.42,15.31-13.11,15.31-24.7,0-14.9-10.98-27.18-28.33-27.18h-42.28v16.83h34.69c9.63,0,14.64,4.14,14.64,13.66s-5.01,14.07-14.64,14.07h-29.33v15.45h27.29c10.7,0,14.64,4.56,16.13,14.9,1.08,7.86.95,17.38,3.39,23.6h21.27c-3.93-5.39-3.65-17.11-4.06-23.32"/>
    <path class="cls-3" d="m827.07,431.25h-13.55l-2.17-11.18c-7.59,9.94-17.21,13.52-26.57,13.52-29.82,0-47.57-22.77-47.57-51.19s17.75-52.01,47.57-52.01c11.62,0,22.92,4.23,30.69,12.28-4.89,5.8-8.51,12.83-10.7,20.71-2.96-9.85-10.39-14.78-20-14.78-19.11,0-26.29,16.56-26.29,33.8s7.18,32.97,26.29,32.97c13.96,0,21.83-7.45,23.04-21.24h-21.41v-16.15h40.66v53.26Z"/>
    <path class="cls-3" d="m828.87,373.56h-21.4c3.27-24.81,20.3-43.06,46.99-43.06,19.79,0,38.63,12.28,40.8,34.77h-20.33c-2.57-11.04-10.3-16.56-20.47-16.56-15.74,0-23.39,11.25-25.6,24.85m67.89,57.8h-13.55l-2.17-11.18c-7.59,9.93-17.21,13.53-26.57,13.53-8.84,0-16.63-2.01-23.21-5.57v-28.45c3.73,9.1,11.06,15.8,23.21,15.8,13.96,0,21.83-7.45,23.05-21.25h-21.42v-16.14h40.66v53.26Z"/>
  </g>
  <g>
    <path class="cls-5" d="m737.21,536.02c0,1.5,1.25,2.71,2.79,2.71s2.79-1.21,2.79-2.71v-21.67c0-1.5-1.25-2.71-2.79-2.71s-2.79,1.21-2.79,2.71v21.67Z"/>
    <rect class="cls-5" x="740.01" y="520.17" width="30.32" height="10.02"/>
    <path class="cls-9" d="m831.5,497.55h-61.17v15.36h55.67c9.21,0,17.66,2.01,17.66,13.47s-8.45,13.47-17.66,13.47h-35.34v93.05h19.73v-77.69h21.12c22.91,0,31.61-14.22,31.61-28.82s-8.7-28.82-31.61-28.82"/>
    <path class="cls-5" d="m853.4,554.54h15.88v29.6h.34c4.03-6.49,10.97-9.47,16.9-9.47,16.89,0,21.15,9.36,21.15,23.44v35h-15.89v-32.13c0-9.35-2.68-13.98-10.18-13.98-8.61,0-12.31,4.73-12.31,16.28v29.83h-15.88v-78.57Z"/>
    <path class="cls-5" d="m919.07,593.71c.9-14.52,14.21-19.04,27.19-19.04,11.53,0,25.4,2.53,25.4,16.18v29.6c0,5.17.56,10.34,2.01,12.65h-16.11c-.56-1.76-1.01-3.63-1.12-5.5-5.03,5.17-12.31,7.04-19.47,7.04-11.07,0-19.69-5.39-19.69-17.06.22-25.86,39.16-11.99,38.49-24.76,0-6.61-4.7-7.71-10.3-7.71-6.15,0-9.96,2.42-10.52,8.58h-15.89Zm36.7,11.56c-2.69,2.31-8.28,2.42-13.2,3.3-4.92.88-9.4,2.64-9.4,8.36s4.59,7.26,9.74,7.26c12.42,0,12.87-9.57,12.87-13.09v-5.84Z"/>
    <path class="cls-5" d="m983.97,576.22h15.11v10.56h.22c3.02-7.15,10.52-12.1,18.47-12.1,1.23,0,2.35.22,3.47.55v14.53c-1.46-.33-3.8-.55-5.71-.55-11.75,0-15.66,8.14-15.66,18.27v25.64h-15.89v-56.89Z"/>
    <path class="cls-5" d="m1027.94,576.22h14.99v7.7h.23c4.14-5.83,10.07-9.24,17.68-9.24s13.76,2.53,16.89,9.47c3.47-4.95,9.4-9.47,17.46-9.47,12.31,0,21.15,5.61,21.15,20.36v38.07h-15.89v-32.25c0-7.59-.67-13.86-9.73-13.86s-10.63,7.37-10.63,14.42v31.69h-15.89v-31.92c0-6.6.45-14.19-9.62-14.19-3.13,0-10.74,1.98-10.74,13.09v33.02h-15.89v-56.89Z"/>
    <path class="cls-5" d="m1128.18,593.71c.9-14.52,14.21-19.04,27.19-19.04,11.53,0,25.4,2.53,25.4,16.18v29.6c0,5.17.56,10.34,2.02,12.65h-16.11c-.56-1.76-1.01-3.63-1.12-5.5-5.03,5.17-12.31,7.04-19.47,7.04-11.08,0-19.7-5.39-19.7-17.06.23-25.86,39.16-11.99,38.49-24.76,0-6.61-4.7-7.71-10.29-7.71-6.15,0-9.96,2.42-10.52,8.58h-15.89Zm36.7,11.56c-2.68,2.31-8.28,2.42-13.2,3.3-4.92.88-9.4,2.64-9.4,8.36s4.59,7.26,9.73,7.26c12.42,0,12.87-9.57,12.87-13.09v-5.84Z"/>
    <path class="cls-7" d="m845.28,522.11v7.41c10.38-.37,18.17-1.89,18.17-3.71s-7.79-3.33-18.17-3.7"/>
    <polygon class="cls-9" points="891.56 526.45 863.11 526.45 863.11 525.18 889.21 525.18 891.56 526.45"/>
  </g>
  <g>
    <g>
      <path class="cls-8" d="m751.97,914.54c-4.62-2.66-8.24-6.31-10.85-10.93-2.61-4.62-3.91-9.74-3.91-15.35,0-5.95,1.4-11.27,4.22-15.95,1.43-2.38,3.25-4.52,5.37-6.31,5.03-4.22,11.09-6.33,18.16-6.33,4.93,0,9.14.64,12.61,1.93,3.47,1.29,6.05,2.92,7.74,4.88.95,1.23,1.56,2.8,1.81,4.71.25,1.91.38,4.23.38,6.98h0c-1.46,0-2.71-.99-3.11-2.39-1.13-3.89-2.88-6.83-5.25-8.8-2.83-2.35-6.71-3.53-11.65-3.53-6.28,0-10.93,2.35-13.96,7.06-3.03,4.71-4.54,10.62-4.54,17.74,0,9.59,1.67,16.47,5,20.64,3.33,4.18,7.83,6.26,13.5,6.26,4.37,0,8.16-.73,11.35-2.19v-14.97c0-2.97,1.12-5.42,3.36-7.36,2.24-1.93,6.56-2.9,12.95-2.9h0c0,1.11-.76,2.02-1.81,2.38-2.38.81-3.57,3.38-3.57,7.71v11.74c0,2.17-1.26,4.13-3.21,5.07-2.25,1.09-4.6,1.93-7.05,2.53-3.64.9-7.65,1.35-12.02,1.35-5.72,0-10.89-1.33-15.51-3.99Z"/>
      <path class="cls-8" d="m1013.4,914.54c-4.62-2.66-8.24-6.31-10.85-10.93-2.61-4.62-3.91-9.74-3.91-15.35,0-5.95,1.4-11.27,4.22-15.95,1.43-2.38,3.25-4.52,5.37-6.31,5.03-4.22,11.09-6.33,18.16-6.33,4.93,0,9.14.64,12.61,1.93,3.47,1.29,6.05,2.92,7.74,4.88.95,1.23,1.56,2.8,1.81,4.71.25,1.91.38,4.23.38,6.98h0c-1.46,0-2.71-.99-3.11-2.39-1.13-3.89-2.88-6.83-5.25-8.8-2.83-2.35-6.71-3.53-11.65-3.53-6.28,0-10.93,2.35-13.96,7.06-3.03,4.71-4.54,10.62-4.54,17.74,0,9.59,1.67,16.47,5,20.64,3.33,4.18,7.83,6.26,13.5,6.26,4.37,0,8.16-.73,11.35-2.19v-14.97c0-2.97,1.12-5.42,3.36-7.36,2.24-1.93,6.56-2.9,12.95-2.9h0c0,1.11-.76,2.02-1.81,2.38-2.38.81-3.57,3.38-3.57,7.71v11.74c0,2.17-1.26,4.13-3.21,5.07-2.25,1.09-4.6,1.93-7.05,2.53-3.64.9-7.65,1.35-12.02,1.35-5.72,0-10.89-1.33-15.51-3.99Z"/>
      <path class="cls-8" d="m798.3,914.62c-2.5-2.05-3.74-4.81-3.74-8.28,0-2.8.66-5.13,1.98-6.98,1.32-1.85,3.63-3.25,6.94-4.2,3.31-.95,7.9-1.43,13.79-1.43h1.26c0-4.88-.67-8.34-2.02-10.39-1.35-2.05-3.34-3.07-5.97-3.07-2.19,0-3.98.53-5.38,1.6-.78.59-1.44,1.47-1.97,2.63-.92,1.99-2.83,3.34-5.02,3.34h0c-.36,0-.66-.3-.65-.67.03-1.62.15-3.03.37-4.21.25-1.35.83-2.52,1.72-3.53,1.74-1.96,5.94-2.94,12.61-2.94,5.6,0,9.88,1.47,12.82,4.41,2.94,2.94,4.41,7.36,4.41,13.24v17.11c0,3.09-2.51,5.6-5.6,5.6h-4.5s0-3.78,0-3.78h-.42c-.51.79-1.29,1.57-2.35,2.35-1.91,1.51-4.49,2.27-7.74,2.27-4.54,0-8.06-1.02-10.55-3.07Zm16.1-1.85c.84-.48,1.65-1.14,2.44-1.98.73-.78,1.29-1.71,1.68-2.77v-10.51h-1.26c-3.98,0-6.87.71-8.66,2.14-1.79,1.43-2.69,3.66-2.69,6.68,0,2.3.48,4.06,1.43,5.3.95,1.23,2.3,1.85,4.04,1.85,1.18,0,2.19-.24,3.03-.71Z"/>
      <path class="cls-8" d="m958.49,914.62c-2.5-2.05-3.74-4.81-3.74-8.28,0-2.8.66-5.13,1.98-6.98,1.32-1.85,3.63-3.25,6.94-4.2,3.31-.95,7.9-1.43,13.79-1.43h1.26c0-4.88-.67-8.34-2.02-10.39-1.35-2.05-3.34-3.07-5.97-3.07-2.19,0-3.98.53-5.38,1.6-.78.59-1.44,1.47-1.97,2.63-.92,1.99-2.83,3.34-5.02,3.34h0c-.36,0-.66-.3-.65-.67.03-1.62.15-3.03.37-4.21.25-1.35.83-2.52,1.72-3.53,1.74-1.96,5.94-2.94,12.61-2.94,5.6,0,9.88,1.47,12.82,4.41,2.94,2.94,4.41,7.36,4.41,13.24v17.11c0,3.09-2.51,5.6-5.6,5.6h-4.5s0-3.78,0-3.78h-.42c-.51.79-1.29,1.57-2.35,2.35-1.91,1.51-4.49,2.27-7.74,2.27-4.54,0-8.06-1.02-10.55-3.07Zm16.1-1.85c.84-.48,1.65-1.14,2.44-1.98.73-.78,1.29-1.71,1.68-2.77v-10.51h-1.26c-3.98,0-6.87.71-8.66,2.14-1.79,1.43-2.69,3.66-2.69,6.68,0,2.3.48,4.06,1.43,5.3.95,1.23,2.3,1.85,4.04,1.85,1.18,0,2.19-.24,3.03-.71Z"/>
      <path class="cls-8" d="m1105.22,914.62c-2.5-2.05-3.74-4.81-3.74-8.28,0-2.8.66-5.13,1.98-6.98,1.32-1.85,3.63-3.25,6.94-4.2,3.31-.95,7.9-1.43,13.79-1.43h1.26c0-4.88-.67-8.34-2.02-10.39-1.35-2.05-3.34-3.07-5.97-3.07-2.19,0-3.98.53-5.38,1.6-.78.59-1.44,1.47-1.97,2.63-.92,1.99-2.83,3.34-5.02,3.34h0c-.36,0-.66-.3-.65-.67.03-1.62.15-3.03.37-4.21.25-1.35.83-2.52,1.72-3.53,1.74-1.96,5.94-2.94,12.61-2.94,5.6,0,9.88,1.47,12.82,4.41,2.94,2.94,4.41,7.36,4.41,13.24v17.11c0,3.09-2.51,5.6-5.6,5.6h-4.5s0-3.78,0-3.78h-.42c-.51.79-1.29,1.57-2.35,2.35-1.91,1.51-4.49,2.27-7.74,2.27-4.54,0-8.06-1.02-10.55-3.07Zm16.1-1.85c.84-.48,1.65-1.14,2.44-1.98.73-.78,1.29-1.71,1.68-2.77v-10.51h-1.26c-3.98,0-6.87.71-8.66,2.14-1.79,1.43-2.69,3.66-2.69,6.68,0,2.3.48,4.06,1.43,5.3.95,1.23,2.3,1.85,4.04,1.85,1.18,0,2.19-.24,3.03-.71Z"/>
      <path class="cls-8" d="m866.37,880.57v.03c.41.77.2,1.72-.49,2.25l-1.25.95c-1.01.77-2.43.71-3.37-.15l-.02-.02c-1.23-1.12-2.66-1.68-4.29-1.68-3.25,0-5.75.87-7.48,2.61l.17,1.26c.11,1.01.17,1.93.17,2.77v22.66c0,3.09-2.51,5.6-5.6,5.6h-5.34v-28.59c0-2.86-.38-4.97-1.14-6.35-.76-1.37-2.31-2.06-4.67-2.06h-.84c0-1.39,1.13-2.52,2.52-2.52h5.8c1.91,0,3.41.24,4.5.71,1.09.48,1.95,1.28,2.56,2.4,3.03-2.63,6.56-3.95,10.59-3.95,2.41,0,4.4.56,5.97,1.68,1.01.73,1.74,1.53,2.19,2.4Z"/>
      <path class="cls-8" d="m883.44,915.42c-.95-.67-1.71-1.46-2.27-2.35h-.42l-1.26,1.62c-1.06,1.36-2.69,2.16-4.42,2.16h-4.41v-44.57c0-2.86-.39-4.97-1.18-6.35-.79-1.37-2.35-2.06-4.71-2.06h-.84c0-1.39,1.13-2.52,2.52-2.52h7.57c2.02,0,3.56.34,4.63,1.01,1.06.67,1.82,1.78,2.27,3.32.45,1.54.67,3.74.67,6.6v6.73c.73-.45,1.51-.87,2.35-1.26,2.3-.84,4.46-1.26,6.47-1.26,5.83,0,10.3,1.92,13.41,5.76,3.11,3.84,4.67,8.79,4.67,14.84s-1.53,11-4.58,14.84c-3.06,3.84-7.41,5.76-13.08,5.76-3.03,0-5.49-.76-7.4-2.27Zm11.77-6.05c1.29-3.03,1.93-7.12,1.93-12.28,0-11.21-2.8-16.82-8.41-16.82-1.63,0-3.34.42-5.13,1.26-.79.45-1.46.87-2.02,1.26v25.65c.5,1.12,1.12,2.05,1.85,2.77,1.68,1.79,3.59,2.69,5.72,2.69,2.75,0,4.76-1.51,6.05-4.54Z"/>
      <path class="cls-8" d="m913.29,872.29c0-2.86-.39-4.97-1.18-6.35-.79-1.37-2.35-2.06-4.71-2.06h-.84c0-1.39,1.13-2.52,2.52-2.52h7.57c2.02,0,3.56.34,4.62,1.01,1.06.67,1.82,1.78,2.27,3.32.45,1.54.67,3.74.67,6.6v7.4c.51-.39,1.37-.92,2.61-1.6,2.24-1.06,4.46-1.6,6.64-1.6,4.54,0,8.34,1.16,11.39,3.49,3.05,2.33,4.58,6.29,4.58,11.9v19.38c0,3.09-2.51,5.6-5.6,5.6h-5.34v-24.55c0-4.04-.71-6.98-2.14-8.83-1.43-1.85-3.24-2.77-5.42-2.77-1.51,0-3.11.5-4.79,1.51-.67.39-1.32.87-1.93,1.43v27.62c0,3.09-2.51,5.6-5.6,5.6h-5.34v-44.57Z"/>
      <path class="cls-8" d="m1060.78,888.26c0-2.86-.38-4.97-1.13-6.35-.76-1.37-2.31-2.06-4.67-2.06h-.84c0-1.39,1.13-2.52,2.52-2.52h5.8c1.91,0,3.41.24,4.5.71,1.09.48,1.95,1.28,2.56,2.4,2.86-2.63,6.95-3.95,12.28-3.95s9.32,1.25,11.98,3.74c2.66,2.49,3.99,6.41,3.99,11.73v19.29c0,3.09-2.51,5.6-5.6,5.6h-5.34v-24.97c0-3.87-.72-6.7-2.14-8.49-1.43-1.79-3.38-2.69-5.84-2.69-1.74,0-3.27.24-4.58.71-1.32.48-2.37,1.11-3.15,1.89l.25,1.18c.22.67.34,1.77.34,3.28v23.5c0,3.09-2.51,5.6-5.6,5.6h-5.34v-28.59Z"/>
      <path class="cls-8" d="m1145.79,888.26c0-2.86-.38-4.97-1.13-6.35-.76-1.37-2.31-2.06-4.67-2.06h-.84c0-1.39,1.13-2.52,2.52-2.52h5.8c1.91,0,3.41.24,4.5.71,1.09.48,1.95,1.28,2.56,2.4,2.86-2.63,6.95-3.95,12.28-3.95s9.32,1.25,11.98,3.74c2.66,2.49,3.99,6.41,3.99,11.73v19.29c0,3.09-2.51,5.6-5.6,5.6h-5.34v-24.97c0-3.87-.72-6.7-2.14-8.49-1.43-1.79-3.38-2.69-5.84-2.69-1.74,0-3.27.24-4.58.71-1.32.48-2.37,1.11-3.15,1.89l.25,1.18c.22.67.34,1.77.34,3.28v23.5c0,3.09-2.51,5.6-5.6,5.6h-5.34v-28.59Z"/>
      <g>
        <path class="cls-5" d="m744.08,960.35h-4.6v-34.02h23.55v4.07h-18.95v10.42h16.68v4.07h-16.68v15.44Z"/>
        <path class="cls-5" d="m816.42,943.34c0,1.23-.12,2.53-.35,3.89-.24,1.36-.62,2.7-1.14,4.03-.52,1.33-1.2,2.59-2.04,3.79-.84,1.2-1.87,2.27-3.1,3.2-1.23.93-2.67,1.67-4.31,2.2-1.64.54-3.52.81-5.64.81s-4-.27-5.64-.81c-1.64-.54-3.08-1.27-4.31-2.2-1.23-.93-2.27-2-3.1-3.2-.84-1.2-1.52-2.46-2.04-3.79-.52-1.33-.9-2.67-1.14-4.03-.24-1.36-.36-2.65-.36-3.89s.12-2.53.36-3.88c.24-1.36.62-2.7,1.14-4.03.52-1.33,1.2-2.59,2.04-3.79.84-1.2,1.87-2.27,3.1-3.2,1.23-.93,2.67-1.67,4.31-2.2,1.64-.54,3.52-.8,5.64-.8s4,.27,5.64.8c1.64.54,3.08,1.27,4.31,2.2,1.23.93,2.27,2,3.1,3.2.84,1.2,1.52,2.46,2.04,3.79.52,1.33.9,2.67,1.14,4.03.24,1.36.35,2.65.35,3.88Zm-4.74,0c0-1.99-.27-3.83-.8-5.52-.54-1.69-1.32-3.15-2.35-4.38-1.03-1.23-2.27-2.19-3.74-2.89-1.47-.69-3.12-1.04-4.95-1.04s-3.52.35-4.97,1.04c-1.45.69-2.69,1.66-3.72,2.89-1.03,1.23-1.81,2.69-2.35,4.38-.54,1.69-.81,3.53-.81,5.52s.27,3.83.81,5.52c.54,1.69,1.32,3.15,2.35,4.38,1.03,1.23,2.27,2.2,3.72,2.89,1.45.69,3.11,1.04,4.97,1.04s3.48-.35,4.95-1.04c1.47-.69,2.72-1.66,3.74-2.89,1.03-1.23,1.81-2.69,2.35-4.38.54-1.69.8-3.53.8-5.52Z"/>
        <path class="cls-5" d="m864.56,926.34v22.08c0,1.74-.28,3.39-.83,4.95-.55,1.56-1.39,2.93-2.51,4.1-1.12,1.17-2.54,2.09-4.26,2.77-1.72.68-3.75,1.02-6.09,1.02s-4.24-.34-5.9-1.02c-1.66-.68-3.02-1.59-4.08-2.72-1.06-1.14-1.84-2.44-2.35-3.91-.51-1.47-.76-2.99-.76-4.57v-22.69h4.6v21.41c0,1.86.25,3.4.76,4.6.51,1.2,1.17,2.16,1.99,2.89.82.73,1.74,1.23,2.77,1.52,1.03.28,2.06.43,3.1.43s2.1-.14,3.17-.43c1.07-.28,2.04-.77,2.89-1.47.85-.69,1.55-1.64,2.08-2.84.54-1.2.8-2.73.8-4.59v-21.51h4.6Z"/>
        <path class="cls-5" d="m910.51,926.34h4.45v34.02h-5.16l-17.29-27.48h-.09v27.48h-4.45v-34.02h5.45l17.01,27.48h.09v-27.48Z"/>
        <path class="cls-5" d="m938.51,926.34h13.79c2.21,0,4.2.4,5.97,1.21,1.77.81,3.27,1.94,4.5,3.39,1.23,1.45,2.18,3.19,2.84,5.21.66,2.02.99,4.26.99,6.73,0,1.89-.23,3.88-.69,5.95-.46,2.07-1.25,3.96-2.37,5.66-1.12,1.71-2.61,3.11-4.48,4.22-1.86,1.11-4.19,1.66-6.96,1.66h-13.6v-34.02Zm4.6,30.08h8.91c3,0,5.39-1.13,7.18-3.39,1.78-2.26,2.68-5.55,2.68-9.88s-.92-7.52-2.75-9.66-4.31-3.22-7.44-3.22h-8.58v26.15Z"/>
        <path class="cls-5" d="m989.96,950.45l-3.55,9.9h-4.74l12.79-34.02h5.21l12.32,34.02h-5.02l-3.36-9.9h-13.64Zm11.99-4.07l-5.02-14.97h-.09l-5.45,14.97h10.56Z"/>
        <path class="cls-5" d="m1024.73,926.34h27.62v4.07h-11.51v29.94h-4.6v-29.94h-11.51v-4.07Z"/>
        <path class="cls-5" d="m1078.03,960.35h-4.6v-34.02h4.6v34.02Z"/>
        <path class="cls-5" d="m1133.12,943.34c0,1.23-.12,2.53-.35,3.89-.24,1.36-.62,2.7-1.14,4.03-.52,1.33-1.2,2.59-2.04,3.79-.84,1.2-1.87,2.27-3.1,3.2-1.23.93-2.67,1.67-4.31,2.2s-3.52.81-5.64.81-4-.27-5.64-.81c-1.64-.54-3.08-1.27-4.31-2.2-1.23-.93-2.27-2-3.1-3.2-.84-1.2-1.52-2.46-2.04-3.79-.52-1.33-.9-2.67-1.14-4.03-.24-1.36-.36-2.65-.36-3.89s.12-2.53.36-3.88c.24-1.36.62-2.7,1.14-4.03.52-1.33,1.2-2.59,2.04-3.79.84-1.2,1.87-2.27,3.1-3.2,1.23-.93,2.67-1.67,4.31-2.2,1.64-.54,3.52-.8,5.64-.8s4,.27,5.64.8c1.64.54,3.08,1.27,4.31,2.2,1.23.93,2.27,2,3.1,3.2.84,1.2,1.52,2.46,2.04,3.79.52,1.33.9,2.67,1.14,4.03.24,1.36.35,2.65.35,3.88Zm-4.74,0c0-1.99-.27-3.83-.8-5.52-.54-1.69-1.32-3.15-2.35-4.38-1.03-1.23-2.27-2.19-3.74-2.89-1.47-.69-3.12-1.04-4.95-1.04s-3.52.35-4.97,1.04c-1.45.69-2.69,1.66-3.72,2.89-1.03,1.23-1.81,2.69-2.35,4.38-.54,1.69-.81,3.53-.81,5.52s.27,3.83.81,5.52c.54,1.69,1.32,3.15,2.35,4.38,1.03,1.23,2.27,2.2,3.72,2.89,1.45.69,3.11,1.04,4.97,1.04s3.48-.35,4.95-1.04c1.47-.69,2.72-1.66,3.74-2.89,1.03-1.23,1.81-2.69,2.35-4.38.54-1.69.8-3.53.8-5.52Z"/>
        <path class="cls-5" d="m1176.95,926.34h4.45v34.02h-5.16l-17.29-27.48h-.09v27.48h-4.45v-34.02h5.45l17.01,27.48h.09v-27.48Z"/>
      </g>
    </g>
    <circle class="cls-9" cx="960.07" cy="725.83" r="27.33"/>
    <path class="cls-9" d="m958.71,852.86s.83-52.78-17.24-76.6c-14.18-18.71-35.72-25.52-67.32-28.88-29.8-3.17-46.38-22.97-46.38-22.97-.75,35.82,4.8,56.75,4.8,56.75.85,1.35,12.34,2.32,18.44,1,100.88-21.85,106.46,62.49,107.69,70.72Z"/>
    <path class="cls-8" d="m958.71,849.9s.98-42.9-20.41-65.62c-16.79-17.84-42.08-26.27-79.69-26.1-34.81.16-57.06-27.27-57.06-27.27-.89,34.17,7.85,50.6,7.85,50.6,1,1.29,14.61,2.21,21.83.95,119.42-20.84,126.03,59.61,127.48,67.45Z"/>
    <path class="cls-4" d="m963.84,845.64c-.06-.64-.14-1.27-.22-1.89-.16-1.26-.35-2.5-.56-3.73-.43-2.47-.94-4.93-1.55-7.36-1.22-4.87-2.81-9.66-4.81-14.31-2-4.66-4.44-9.17-7.34-13.44-2.95-4.23-6.31-8.26-10.24-11.76-3.89-3.49-8.09-6.53-12.64-9.13-4.52-2.62-9.37-4.64-14.3-6.27-4.94-1.59-9.99-2.71-15.03-3.45-5.05-.71-10.09-1.09-15.09-1.22-10-.17-19.82.53-29.48,1.63-2.42.27-4.83.55-7.23.86l-7.15,1c-4.41.63-8.85.96-13.29,1.05-8.89.14-17.81-.88-26.46-3.07-4.32-1.1-8.59-2.46-12.77-4.03-2.09-.79-4.15-1.64-6.17-2.56-1.01-.45-2.02-.91-3-1.39l-2.74-1.4-1.26-.65c-1.12-.57-2.44-.75-3.74-.41-2.85.73-4.57,3.64-3.84,6.49h0c2.1,7.78,5.4,15.05,9.58,21.56,2.09,3.26,4.39,6.34,6.88,9.23,2.5,2.88,5.13,5.59,8.08,7.99.17.14.42.15.61,0,.21-.16.25-.47.09-.69l-.02-.02c-2.23-2.9-4.14-6.07-5.83-9.29-1.69-3.23-3.13-6.56-4.33-9.94-.99-2.79-1.79-5.61-2.41-8.45.97.51,1.94,1.02,2.92,1.49,2.29,1.12,4.65,2.1,7.02,3.03,2.39.89,4.8,1.71,7.24,2.44,9.78,2.85,19.98,4.43,30.21,4.48,5.11.06,10.23-.28,15.29-.97l14.06-1.81c4.66-.58,9.31-1.02,13.93-1.43,4.62-.4,9.22-.67,13.78-.73,9.11-.21,18.1.37,26.58,2.51,4.23,1.09,8.33,2.58,12.2,4.54,1.95.95,3.82,2.06,5.66,3.23.9.62,1.82,1.2,2.69,1.88l1.32.98,1.25,1.02c3.35,2.72,6.3,5.95,8.98,9.43,2.63,3.53,4.94,7.35,6.89,11.4,1.96,4.04,3.58,8.28,4.88,12.64.65,2.18,1.22,4.38,1.7,6.6.24,1.11.46,2.22.65,3.33l.27,1.66c.08.53.16,1.14.21,1.56l.02.16c.26,2.29,2.28,4,4.61,3.86,2.41-.15,4.23-2.23,4.08-4.63-.05-.77-.1-1.35-.17-2.01Z"/>
    <path class="cls-9" d="m961.44,852.86s-.83-52.78,17.24-76.6c14.18-18.71,35.72-25.52,67.32-28.88,29.8-3.17,46.38-22.97,46.38-22.97.75,35.82-4.8,56.75-4.8,56.75-.85,1.35-12.34,2.32-18.44,1-100.88-21.85-106.46,62.49-107.69,70.72Z"/>
    <path class="cls-8" d="m961.44,849.9s-.98-42.9,20.41-65.62c16.79-17.84,42.08-26.27,79.69-26.1,34.81.16,57.06-27.27,57.06-27.27.89,34.17-7.85,50.6-7.85,50.6-1,1.29-14.61,2.21-21.83.95-119.42-20.84-126.03,59.61-127.48,67.45Z"/>
    <path class="cls-4" d="m1154.81,766.84c-1.34-2.62-4.55-3.66-7.18-2.32l-1.26.64-2.74,1.4c-.98.49-1.99.94-3,1.39-2.02.91-4.09,1.76-6.17,2.56-4.18,1.58-8.44,2.93-12.77,4.03-8.65,2.19-17.57,3.21-26.46,3.07-4.44-.09-8.89-.42-13.29-1.05l-7.15-1c-2.4-.31-4.81-.59-7.23-.86-9.66-1.1-19.48-1.8-29.48-1.63-5,.13-10.04.52-15.09,1.22-5.05.74-10.09,1.86-15.03,3.45-4.93,1.62-9.78,3.65-14.3,6.27-4.55,2.6-8.74,5.64-12.64,9.13-3.92,3.5-7.29,7.52-10.24,11.76-2.9,4.27-5.34,8.78-7.34,13.44-2,4.66-3.59,9.45-4.81,14.31-.61,2.43-1.13,4.88-1.55,7.36-.21,1.24-.4,2.48-.56,3.73-.08.63-.15,1.26-.22,1.89-.07.66-.12,1.24-.17,2.01-.14,2.3,1.55,4.35,3.87,4.61,2.4.27,4.56-1.45,4.83-3.85l.02-.15c.05-.42.12-1.03.21-1.56l.27-1.66c.19-1.11.41-2.22.65-3.33.48-2.22,1.05-4.42,1.7-6.6,1.3-4.35,2.92-8.6,4.88-12.64,1.95-4.04,4.26-7.87,6.89-11.4,2.67-3.49,5.63-6.72,8.98-9.43l1.25-1.02,1.32-.98c.87-.67,1.79-1.25,2.69-1.88,1.84-1.17,3.71-2.28,5.66-3.23,3.87-1.96,7.97-3.44,12.2-4.54,8.48-2.14,17.47-2.72,26.58-2.51,4.56.05,9.16.33,13.78.73,4.62.41,9.27.85,13.93,1.43l14.06,1.81c5.06.69,10.17,1.02,15.29.97,10.23-.06,20.43-1.63,30.21-4.48,2.44-.73,4.86-1.55,7.24-2.44,2.37-.94,4.72-1.91,7.02-3.03.99-.47,1.96-.98,2.92-1.49-.62,2.84-1.42,5.67-2.41,8.45-1.19,3.38-2.64,6.71-4.33,9.94-1.69,3.22-3.6,6.39-5.83,9.29l-.02.02c-.14.18-.14.43,0,.61.17.21.48.24.69.07,2.95-2.4,5.58-5.11,8.08-7.99,2.49-2.88,4.79-5.97,6.88-9.23,4.19-6.51,7.48-13.77,9.58-21.56h0c.31-1.21.2-2.55-.42-3.75Z"/>
  </g>
  <rect class="cls-4" x="958.51" y="24.21" width="2.99" height="445.57" transform="translate(1206.99 -713.01) rotate(90)"/>
  <rect class="cls-4" x="958.51" y="242.84" width="2.99" height="445.57" transform="translate(1425.63 -494.37) rotate(90)"/>
  <rect class="cls-4" x="958.51" y="443.79" width="2.99" height="445.57" transform="translate(1626.58 -293.42) rotate(90)"/>
</svg>