<?xml version="1.0" encoding="utf-8"?>
<!-- Generator: Adobe Illustrator 24.3.0, SVG Export Plug-In . SVG Version: 6.00 Build 0)  -->
<svg version="1.1" id="Layer_1" xmlns="http://www.w3.org/2000/svg" xmlns:xlink="http://www.w3.org/1999/xlink" x="0px" y="0px"
	 viewBox="0 0 290.83 290.83" style="enable-background:new 0 0 290.83 290.83;" xml:space="preserve">
<style type="text/css">
	.st0{fill:#EC1E52;}
	.st1{fill:#FFFFFF;}
	.st2{fill:url(#SVGID_1_);}
</style>
<g>
	<path class="st0" d="M267.66,290.83H23.17C10.37,290.83,0,280.46,0,267.66V23.17C0,10.37,10.37,0,23.17,0h244.49
		c12.8,0,23.17,10.37,23.17,23.17v244.49C290.83,280.46,280.46,290.83,267.66,290.83z"/>
	<g>
		<path class="st1" d="M63.61,130.33c1.48,0.56,2.89,1.32,4.34,1.95c2.27,0.98,4.56,1.91,6.82,2.89c1.92,0.83,3.8,1.74,5.72,2.57
			c1.9,0.83,3.81,1.61,5.72,2.4c1.97,0.81,4,1.37,6.14,1.38c0.39,0,0.93-0.42,1.13-0.28c0.71,0.51,1.29,0.01,1.91-0.07
			c0.78-0.11,1.63-0.07,2.33-0.37c1.7-0.73,3.32-1.63,4.98-2.45c0.51-0.25,0.94-0.6,1.64-0.25c1.68,0.83,3.44,1.53,5.16,2.27
			c2.01,0.86,4.02,1.71,6.02,2.58c1.36,0.59,2.69,1.22,4.06,1.8c1.84,0.77,3.7,1.49,5.53,2.26c1.58,0.67,3.13,1.39,4.69,2.08
			c1.68,0.74,3.36,1.47,5.1,2.23c-0.13,0.31-0.23,0.55-0.32,0.79c-0.67,1.76-1.46,3.49-1.98,5.3c-0.39,1.35-0.15,2.77,0.51,4.06
			c0.59,1.16,1.27,2.22,2.55,2.76c0.8,0.33,1.61,0.68,2.36,1.11c1.76,1,3.6,1.11,5.42,0.36c2.17-0.89,3.51-2.6,4.35-4.76
			c0.44-1.14,0.97-2.25,1.48-3.41c0.81,0.33,1.49,0.64,2.2,0.9c1.87,0.69,3.54,1.84,5.64,2.03c1.96,0.18,3.63-0.31,5.03-1.58
			c1.73-1.55,2.48-3.68,3.08-5.84c0.6-2.15-0.02-4.07-1.37-5.8c-1.01-1.29-2.49-1.82-3.9-2.47c-1.41-0.65-2.85-1.23-4.35-1.87
			c0.64-1.44,1.26-2.78,1.84-4.14c1.33-3.1,2.63-6.22,3.95-9.33c0.25-0.59,0.57-1.09,1.28-1.21c0.58-0.1,1.16-0.21,1.71-0.4
			c2.24-0.77,4.35-1.81,6.27-3.21c1.82-1.33,3.37-2.97,4.6-4.83c1.54-2.34,2.44-5,3.22-7.67c0.78-2.69,1.4-5.43,2.04-8.16
			c0.57-2.45,1.1-4.91,1.61-7.37c0.4-1.95,0.74-3.91,1.08-5.88c0.26-1.47,0.52-2.95,0.71-4.43c0.23-1.73,0.39-3.46,0.57-5.2
			c0.3-2.88,0.74-5.75,0.84-8.63c0.09-2.61-0.11-5.23-0.34-7.84c-0.26-2.97-1.06-5.61-4.29-6.84c-1.61-0.61-2.98-0.29-4.3,0.49
			c-1.42,0.84-2.12,2.29-2.74,3.77c-0.75,1.8-1.53,3.59-2.32,5.37c-0.63,1.43-1.32,2.83-1.93,4.27c-0.79,1.87-1.48,3.79-2.3,5.65
			c-1,2.29-2.11,4.54-3.13,6.82c-0.9,2.02-1.72,4.07-2.6,6.09c-1.45,3.34-2.93,6.66-4.38,9.99c-1.06,2.46-2.08,4.93-3.14,7.39
			c-0.76,1.76-1.56,3.5-2.32,5.26c-0.79,1.83-1.52,3.68-2.31,5.51c-0.65,1.52-1.35,3.02-2.01,4.53c-0.78,1.79-1.54,3.58-2.31,5.37
			c-0.67,1.55-1.34,3.09-2.02,4.64c-0.56,1.27-1.13,2.53-1.72,3.85c-0.47-0.25-0.82-0.46-1.19-0.62c-1.5-0.62-3.02-1.19-4.51-1.83
			c-1.41-0.61-2.77-1.31-4.18-1.91c-1.46-0.63-2.96-1.17-4.42-1.79c-1.98-0.84-3.93-1.74-5.9-2.58c-1.79-0.76-3.6-1.48-5.39-2.24
			c-1.63-0.69-3.27-1.37-4.88-2.11c-0.3-0.14-0.63-0.54-0.69-0.87c-0.35-2.07-0.76-4.15-1.72-6.01c-1.36-2.64-3.18-5-5.75-6.55
			c-1.9-1.15-3.98-2.03-6.01-2.95c-2.29-1.05-4.61-2.02-6.93-3.02c-0.94-0.4-1.9-0.76-2.83-1.18c-1.83-0.83-3.64-1.72-5.47-2.54
			c-1.51-0.67-3.04-1.3-4.57-1.92c-1.44-0.58-2.79-0.94-4.45-0.38c-3.37,1.15-4.56,5.79-1.83,8.26c0.81,0.74,1.9,1.2,2.91,1.68
			c1.85,0.89,3.73,1.72,5.62,2.54c1.83,0.8,3.69,1.54,5.53,2.33c1.95,0.84,3.9,1.69,5.84,2.55c1.09,0.48,2.17,0.97,3.25,1.46
			c-0.29,0.67-0.54,1.23-0.77,1.77c-1.25-0.57-2.37-1.11-3.51-1.6c-1.91-0.83-3.84-1.61-5.75-2.44c-2.2-0.96-4.39-1.97-6.59-2.94
			c-1.98-0.87-3.95-1.77-5.98-2.51c-1.26-0.45-2.61-0.45-3.89,0.13c-1.22,0.55-1.95,1.53-2.59,2.71c-1.04,1.91-0.01,5.13,1.8,6.03
			c1.89,0.94,3.81,1.83,5.74,2.69c2.01,0.9,4.05,1.73,6.08,2.6c2.24,0.96,4.48,1.91,6.72,2.88c1.32,0.57,2.62,1.18,3.98,1.79
			c-0.17,0.3-0.4,0.52-0.41,0.75c-0.02,1-0.69,0.85-1.22,0.63c-2.14-0.88-4.26-1.82-6.39-2.75c-2.69-1.18-5.37-2.37-8.06-3.56
			c-1.56-0.69-3.11-1.41-4.68-2.06c-1.02-0.42-2.06-0.91-3.14-1.06c-1.99-0.27-3.58,0.58-4.78,2.2c-1.31,1.76-1.07,4.69,0.49,6.22
			C61.54,129.43,62.52,129.92,63.61,130.33z M160.17,149.1c0.9,0.39,1.71,1.91,1.33,2.96c-0.41,1.14-0.84,2.28-1.33,3.39
			c-0.42,0.96-2.58,1.53-3.6,1.07c-1.58-0.71-3.2-1.35-4.79-2.04c-0.29-0.13-0.55-0.33-0.92-0.57c1.09-2.5,2.17-5,3.25-7.48
			C156.18,147.34,158.17,148.23,160.17,149.1z M140.1,149.16c0.98-2.29,1.88-4.62,2.87-6.91c0.79-1.84,1.7-3.62,2.5-5.46
			c0.82-1.88,1.54-3.8,2.35-5.68c0.96-2.23,1.98-4.44,2.96-6.66c1-2.29,1.96-4.59,2.96-6.88c1.15-2.62,2.34-5.21,3.48-7.83
			c0.85-1.96,1.63-3.96,2.47-5.93c0.75-1.76,1.56-3.5,2.33-5.26c0.85-1.95,1.67-3.91,2.52-5.86c0.8-1.83,1.65-3.64,2.44-5.48
			c0.83-1.92,1.59-3.87,2.42-5.79c0.79-1.82,1.68-3.61,2.47-5.43c1-2.32,1.94-4.67,2.92-6.99c0.56-1.31,1.14-2.61,1.74-3.9
			c0.45-0.97,0.99-1.89,1.39-2.88c0.29-0.7,0.82-1.09,1.4-0.82c0.56,0.26,1.12,0.85,1.36,1.43c0.97,2.37,0.72,4.89,0.57,7.37
			c0,2.33,0.13,4.66-0.04,6.98c-0.18,2.43-0.65,4.84-0.98,7.26c-0.21,1.52-0.36,3.04-0.61,4.55c-0.28,1.7-0.66,3.39-0.98,5.09
			c-0.4,2.1-0.76,4.21-1.18,6.3c-0.26,1.29-0.58,2.57-0.92,3.84c-0.76,2.91-1.44,5.84-2.35,8.7c-0.77,2.4-1.84,4.68-3.63,6.59
			c-1.83,1.95-3.87,3.49-6.43,4.25c-1.39,0.41-2.84,0.67-4.22,1.11c-0.43,0.14-0.88,0.58-1.07,1c-0.85,1.79-1.61,3.61-2.39,5.43
			c-0.58,1.37-1.13,2.75-1.72,4.12c-0.64,1.49-1.28,2.97-1.94,4.44c-0.87,1.93-1.78,3.84-2.63,5.78c-0.81,1.84-1.55,3.72-2.35,5.57
			c-1.18,2.75-2.4,5.48-3.57,8.24c-0.36,0.85-0.68,1.7-1.5,2.26c-0.85,0.58-1.75,0.75-2.67,0.34c-1.13-0.5-2.46-0.67-3.25-1.8
			c-0.7-1-0.65-2.06-0.21-3.09C137.74,154.47,138.95,151.83,140.1,149.16z M63.4,124.58c0.35-0.45,0.76-0.8,1.4-0.52
			c1.25,0.54,2.51,1.07,3.76,1.61c1.42,0.61,2.84,1.21,4.26,1.83c1.88,0.82,3.75,1.65,5.62,2.48c0.85,0.37,1.7,0.74,2.55,1.09
			c2.34,0.99,4.67,1.98,7.01,2.95c1.38,0.57,2.58,0.04,3.12-1.3c0.64-1.58,1.29-3.16,1.95-4.73c0.43-1.01-0.03-2.2-1.03-2.63
			c-1.89-0.82-3.77-1.66-5.66-2.48c-2.3-0.99-4.61-1.94-6.9-2.93c-1.92-0.83-3.82-1.7-5.73-2.55c-1.62-0.71-3.27-1.38-4.88-2.12
			c-1.12-0.51-1.27-1.3-0.39-2.1c0.26-0.24,0.86-0.32,1.2-0.2c1.06,0.37,2.08,0.88,3.12,1.33c1.46,0.63,2.92,1.24,4.38,1.87
			c1.41,0.62,2.81,1.26,4.23,1.88c1.88,0.82,3.78,1.62,5.66,2.44c1.83,0.8,3.66,1.61,5.49,2.42c1.16,0.51,2.4,0.54,3-0.82
			c0.81-1.83,1.67-3.64,2.38-5.5c0.39-1.02-0.29-2.02-1.46-2.51c-2.62-1.1-5.25-2.19-7.87-3.31c-2.51-1.07-5.02-2.14-7.51-3.24
			c-1.83-0.81-3.62-1.68-5.44-2.5c-0.6-0.27-1.23-0.51-1.86-0.72c-0.69-0.24-1.2-1.05-0.99-1.66c0.21-0.6,1.02-0.97,1.68-0.71
			c1.29,0.52,2.57,1.09,3.85,1.64c1.76,0.76,3.53,1.52,5.29,2.29c1.52,0.66,3.02,1.35,4.54,2c2.3,0.98,4.62,1.91,6.9,2.93
			c1.89,0.85,3.92,1.55,5.57,2.75c3.2,2.35,5.2,5.56,5.43,9.67c0.04,0.65-0.07,1.35,0.13,1.94c0.15,0.45,0.64,0.87,1.08,1.12
			c0.81,0.45,1.7,0.78,2.56,1.15c1.07,0.46,2.15,0.89,3.22,1.35c1.97,0.84,3.94,1.67,5.9,2.53c2.74,1.19,5.46,2.42,8.2,3.59
			c1.89,0.81,3.8,1.54,5.69,2.35c1.44,0.62,2.85,1.31,4.28,1.95c0.84,0.38,1.71,0.71,2.55,1.06c-0.95,2.3-1.83,4.43-2.71,6.57
			c-0.33,0.81-0.7,0.96-1.58,0.58c-1.44-0.64-2.85-1.33-4.3-1.95c-1.82-0.78-3.66-1.5-5.47-2.28c-1.92-0.82-3.82-1.7-5.74-2.52
			c-1.49-0.63-3.01-1.19-4.5-1.82c-1.41-0.6-2.79-1.28-4.2-1.89c-1.49-0.64-2.99-1.24-4.48-1.87c-0.94-0.4-1.87-0.81-2.79-1.23
			c-0.97-0.45-1.78-0.13-2.47,0.56c-1.95,1.94-4.41,2.7-7.02,3.22c-2.44,0.48-4.69-0.25-6.89-0.98c-1.87-0.62-3.59-1.66-5.41-2.45
			c-1.89-0.82-3.81-1.55-5.7-2.36c-1.39-0.59-2.76-1.25-4.14-1.86c-1.87-0.82-3.77-1.6-5.63-2.45c-1.06-0.48-2.1-1.01-3.11-1.59
			C62.98,125.6,63.04,125.05,63.4,124.58z"/>
		<path class="st1" d="M231.43,146.76C231.43,146.76,231.43,146.76,231.43,146.76c0-2.23,0.11-4.48-0.04-6.71
			c-0.15-2.23-0.53-4.44-0.87-6.65c-0.36-2.29-0.72-4.58-1.22-6.84c-0.38-1.74-0.93-3.44-1.47-5.13c-0.74-2.33-1.45-4.67-2.35-6.94
			c-0.9-2.28-1.93-4.51-3.05-6.68c-1.41-2.72-2.9-5.41-4.5-8.03c-1.06-1.74-2.32-3.36-3.6-4.95c-2.01-2.51-4.06-5-6.2-7.41
			c-1.24-1.39-2.65-2.63-4.04-3.88c-1.9-1.71-3.81-3.42-5.8-5.03c-1.21-0.98-2.5-1.92-3.89-2.61c-1.08-0.54-2.88-0.37-3.43,0.85
			c-0.32,0.7-0.24,1.63-0.18,2.44c0.04,0.51,0.25,1.14,0.61,1.46c0.95,0.83,2.04,1.5,3.03,2.28c1.63,1.28,3.32,2.5,4.81,3.92
			c2.22,2.11,4.41,4.28,6.42,6.6c2.25,2.61,4.38,5.35,6.37,8.16c1.56,2.2,2.86,4.58,4.22,6.91c0.91,1.56,1.77,3.16,2.54,4.79
			c0.74,1.57,1.35,3.19,1.99,4.81c0.45,1.13,0.88,2.27,1.26,3.42c0.35,1.04,0.63,2.11,0.93,3.17c0.42,1.46,0.92,2.9,1.22,4.38
			c0.45,2.21,0.67,4.47,1.13,6.67c0.62,2.91,0.66,5.87,0.85,8.81c0.08,1.23,0.04,2.47,0.01,3.7c-0.03,1.4-0.1,2.8-0.18,4.19
			c-0.06,1.03-0.12,2.07-0.28,3.1c-0.29,1.94-0.62,3.89-0.98,5.82c-0.35,1.84-0.71,3.68-1.17,5.49c-0.43,1.69-0.96,3.37-1.53,5.02
			c-0.71,2.07-1.45,4.12-2.28,6.15c-0.6,1.48-1.32,2.91-2.05,4.33c-0.77,1.49-1.61,2.94-2.46,4.38c-0.75,1.28-1.56,2.53-2.34,3.8
			c-0.61,1-1.14,2.06-1.83,3c-0.97,1.33-2.05,2.58-3.11,3.84c-1.47,1.75-2.93,3.51-4.47,5.19c-0.91,1-1.96,1.87-2.95,2.79
			c-1.21,1.13-2.32,2.39-3.64,3.37c-2.94,2.19-5.94,4.31-8.98,6.34c-1.83,1.23-3.75,2.36-5.72,3.34c-2.5,1.24-5.05,2.39-7.66,3.38
			c-3.02,1.15-6.13,2.09-9.2,3.1c-0.75,0.25-1.51,0.45-2.29,0.59c-2.22,0.39-4.45,0.81-6.68,1.09c-2.9,0.36-5.81,0.78-8.72,0.85
			c-3.21,0.08-6.43-0.14-9.64-0.34c-1.7-0.1-3.39-0.39-5.07-0.68c-1.47-0.25-2.93-0.58-4.38-0.92c-2.27-0.54-4.57-1-6.79-1.7
			c-2.35-0.74-4.63-1.7-6.92-2.61c-1.71-0.69-3.45-1.36-5.08-2.22c-2.28-1.21-4.51-2.53-6.71-3.9c-2.15-1.34-4.31-2.7-6.31-4.26
			c-2.36-1.83-4.6-3.83-6.79-5.86c-1.82-1.69-3.57-3.48-5.19-5.35c-1.62-1.87-3.11-3.87-4.53-5.9c-1.77-2.53-3.57-5.06-5.07-7.75
			c-1.58-2.81-2.85-5.79-4.2-8.73c-0.51-1.11-0.89-2.28-1.29-3.44c-0.43-1.23-0.84-2.48-1.24-3.72c-0.48-1.52-1.04-3.03-1.4-4.59
			c-0.49-2.11-0.88-4.24-1.2-6.39c-0.39-2.62-0.86-5.26-0.93-7.89c-0.12-4.03,0.09-8.07,0.11-12.1c0-0.53-0.16-1.17-0.49-1.57
			c-0.94-1.16-2.23-0.68-3.42-0.52c-0.78,0.11-1.21,0.63-1.27,1.36c-0.16,1.8-0.33,3.6-0.35,5.41c-0.02,2.42,0.05,4.83,0.17,7.25
			c0.12,2.3,0.24,4.62,0.55,6.9c0.46,3.34,1.02,6.67,1.68,9.97c0.35,1.73,0.95,3.42,1.53,5.1c0.95,2.77,1.91,5.55,3,8.28
			c0.72,1.8,1.63,3.54,2.53,5.27c1.04,1.99,2.05,4.01,3.26,5.9c1.45,2.26,3.04,4.44,4.69,6.56c1.78,2.31,3.62,4.6,5.58,6.75
			c1.71,1.88,3.55,3.66,5.48,5.31c2.52,2.16,5.09,4.28,7.8,6.19c2.54,1.8,5.28,3.34,7.96,4.93c1.55,0.92,3.13,1.8,4.77,2.55
			c1.81,0.83,3.69,1.51,5.53,2.25c1.6,0.64,3.17,1.39,4.82,1.91c2.08,0.65,4.2,1.19,6.34,1.64c2.41,0.51,4.86,0.82,7.27,1.3
			c3.82,0.76,7.7,0.96,11.57,1.01c3.29,0.04,6.59-0.29,9.88-0.5c1.94-0.13,3.9-0.24,5.82-0.56c2.71-0.46,5.41-1.01,8.06-1.73
			c2.66-0.72,5.28-1.62,7.88-2.56c2.46-0.89,4.94-1.76,7.26-2.94c3.53-1.79,7.03-3.69,10.34-5.84c2.92-1.89,5.66-4.1,8.31-6.36
			c2.38-2.02,4.59-4.25,6.76-6.5c1.9-1.97,3.78-3.99,5.41-6.19c2.18-2.95,4.12-6.08,6.14-9.14c0.34-0.51,0.65-1.04,0.91-1.59
			c0.81-1.67,1.59-3.35,2.38-5.03c0.83-1.76,1.72-3.49,2.47-5.28c0.65-1.57,1.14-3.22,1.68-4.83c0.53-1.56,1.17-3.11,1.52-4.71
			c0.65-2.97,1.17-5.98,1.67-8.98c0.36-2.2,0.72-4.42,0.87-6.65C231.55,151.24,231.43,149,231.43,146.76z"/>
		<path class="st1" d="M80.62,95.14c1.06,0.27,2.29,0.63,3.21-0.2c1.27-1.13,2.41-2.41,3.54-3.69c2.41-2.73,5.16-5.08,7.97-7.38
			c1.55-1.26,3.14-2.5,4.79-3.62c1.49-1.02,3.09-1.9,4.66-2.8c2.06-1.19,4.07-2.47,6.21-3.49c2.45-1.16,5-2.16,7.56-3.07
			c2.58-0.92,5.22-1.66,7.85-2.46c0.81-0.25,1.64-0.48,2.47-0.61c2.49-0.39,4.99-0.81,7.5-1.08c2.97-0.32,5.96-0.61,8.94-0.69
			c2.43-0.06,4.87,0.15,7.3,0.34c1.64,0.13,3.26,0.45,4.89,0.69c1.4,0.2,2.79,0.4,4.34,0.62c0.38-0.09,0.92-0.12,1.38-0.33
			c1.5-0.69,1.09-2.08,1.08-3.28c0-1.2-0.89-1.68-1.89-1.84c-1.86-0.3-3.72-0.53-5.59-0.74c-2.44-0.27-4.88-0.65-7.32-0.68
			c-5.15-0.07-10.3-0.23-15.41,0.67c-2.63,0.47-5.29,0.77-7.91,1.29c-1.77,0.35-3.49,0.91-5.23,1.42c-1.97,0.58-3.97,1.11-5.89,1.84
			c-2.33,0.89-4.62,1.88-6.86,2.97c-2.56,1.24-5.1,2.55-7.56,3.99c-1.83,1.07-3.51,2.4-5.27,3.57c-3.44,2.29-6.54,5-9.55,7.82
			c-1.69,1.58-3.24,3.31-4.83,4.99c-0.96,1.01-1.82,2.05-1.58,3.65C79.56,93.93,79.61,94.88,80.62,95.14z"/>
		<path class="st1" d="M208.92,107.18c-0.71,0.21-1.48,0.32-2.13,0.65c-1.71,0.88-3.39,1.83-5.06,2.79
			c-0.78,0.45-1.58,0.89-2.23,1.49c-0.75,0.68-0.35,1.68-0.45,2.54c-0.13,1.13,0.82,2.08,2.06,2.08c1.16,0,2.16-0.18,3.19-0.86
			c1.9-1.25,3.96-2.26,5.94-3.41c1.26-0.73,1.65-2.96,0.96-4.25C210.65,107.18,209.81,107.4,208.92,107.18z"/>
		<path class="st1" d="M200.22,182.14c1.78,1.05,3.6,2.02,5.38,3.07c1.24,0.74,2.48,1.33,3.99,1.13c0.82-0.11,1.53-0.34,1.73-1.22
			c0.25-1.13,0.51-2.38-0.27-3.32c-0.58-0.7-1.54-1.09-2.36-1.58c-1.13-0.68-2.31-1.28-3.41-1.99c-1.45-0.94-2.97-1.54-4.72-1.25
			c-0.19,0.03-0.38,0.12-0.55,0.22c-0.86,0.53-1.11,1.32-0.9,2.29C198.83,180.63,199.22,181.55,200.22,182.14z"/>
		<path class="st1" d="M180.27,202.15c-0.92-1.6-3.65-1.9-4.74-0.43c-0.33,0.45-0.37,1.12-0.52,1.62c0.14,0.76,0.12,1.47,0.4,2.01
			c1.12,2.1,2.32,4.17,3.54,6.22c0.64,1.08,1.37,2.1,2.91,1.74c0.26-0.06,0.54-0.02,0.81-0.01c0.76,0.03,1.35-0.31,1.59-1.01
			c0.45-1.3,0.39-2.6-0.31-3.82C182.73,206.36,181.48,204.27,180.27,202.15z"/>
		<path class="st1" d="M110.76,201.09c-0.39,0.2-0.77,0.55-1,0.92c-0.98,1.58-2.01,3.15-2.82,4.82c-0.61,1.25-1.85,2.33-1.4,3.78
			c0,1.85,0.04,2.09,1.06,2.53c0.51,0.22,1.16,0.09,1.74,0.17c1.24,0.17,1.89-0.49,2.45-1.5c1.14-2.04,2.37-4.03,3.55-6.05
			c0.68-1.15,0.84-2.44,0.36-3.63C114.2,200.87,112.12,200.4,110.76,201.09z"/>
		<path class="st1" d="M106.98,80.42c-0.47,0.09-1.21,0.49-1.25,0.82c-0.13,1.18-0.34,2.52,0.09,3.55c0.81,1.92,2.03,3.68,3.13,5.48
			c0.75,1.23,1.2,2.93,3.04,2.36c0.61,0,1.02,0.07,1.39-0.02c0.37-0.09,0.83-0.25,1.03-0.54c0.72-1.06,0.77-2.34,0.25-3.41
			c-1-2.02-2.41-3.85-3.31-5.9C110.44,80.67,109.03,80.02,106.98,80.42z"/>
		<path class="st1" d="M78.55,184.42c0,1.22,0.67,1.81,1.87,1.93c1.47,0.14,2.65-0.39,3.85-1.13c1.46-0.91,2.98-1.73,4.5-2.55
			c1.31-0.7,2.4-1.48,2.02-3.22c-0.06-0.26-0.05-0.54,0-0.8c0.13-0.72-0.33-1.33-0.83-1.41c-1.13-0.16-2.46-0.4-3.42,0.03
			c-2.11,0.95-3.99,2.37-6.05,3.44c-1.25,0.65-2.31,1.25-1.94,2.7C78.55,183.88,78.55,184.15,78.55,184.42z"/>
		<path class="st1" d="M218.87,144.06c-2.88,0-5.76,0.08-8.63-0.03c-1.65-0.06-2.75,1.12-2.55,2.88c0.24,2.13,0.68,2.55,2.85,2.55
			c1.29,0,2.58,0,3.87,0c1.56,0,3.12,0.02,4.67-0.01c1.55-0.03,2.41-0.72,2.28-2.31c-0.02-0.21,0-0.42,0-0.63
			C221.36,144.87,220.54,144.06,218.87,144.06z"/>
		<path class="st1" d="M79.95,144.07c-3.02-0.02-6.05-0.02-9.07,0c-1.09,0.01-1.95,0.43-2.25,1.57c-0.12,0.45-0.13,0.93-0.14,1.4
			c-0.04,1.57,0.8,2.47,2.4,2.43c1.47-0.03,2.93-0.01,4.4-0.01c1.56,0,3.11,0.02,4.67,0c1.54-0.02,2.39-1.03,2.2-2.26
			c-0.05-0.29-0.01-0.6-0.01-0.9C82.14,145,81.26,144.07,79.95,144.07z"/>
		<path class="st1" d="M147.59,72.58c-0.03-0.57-0.21-1.33-0.61-1.64c-0.97-0.77-2.17-0.84-3.35-0.42
			c-1.21,0.43-1.42,1.43-1.42,2.55c0.01,2.81,0,5.63,0.01,8.44c0,0.29,0.02,0.6,0.1,0.87c0.37,1.28,1,1.53,2.91,1.64
			c1.45,0.09,2.39-0.77,2.38-2.37c-0.01-1.5,0-2.99,0-4.49C147.62,75.63,147.67,74.1,147.59,72.58z"/>
		<path class="st1" d="M147.6,211.92c-0.06-1.49-0.71-2.38-2.25-2.22c-0.24,0.02-0.48,0-0.72,0c-1.67,0-2.41,0.74-2.41,2.43
			c0,2.87,0,5.74,0,8.61c0,0.27,0,0.54,0.07,0.79c0.36,1.3,0.96,1.59,2.77,1.67c1.9,0.09,2.57-0.75,2.56-2.59
			c-0.01-1.41,0-2.81,0-4.22C147.62,214.91,147.66,213.41,147.6,211.92z"/>
	</g>
	<g>
		<linearGradient id="SVGID_1_" gradientUnits="userSpaceOnUse" x1="11.5075" y1="17.634" x2="300.1367" y2="293.058">
			<stop  offset="0.0611" style="stop-color:#7D431D"/>
			<stop  offset="0.1247" style="stop-color:#AD802C"/>
			<stop  offset="0.1349" style="stop-color:#BB892F"/>
			<stop  offset="0.1533" style="stop-color:#D09634"/>
			<stop  offset="0.175" style="stop-color:#E1A13A"/>
			<stop  offset="0.202" style="stop-color:#EEAA3F"/>
			<stop  offset="0.2397" style="stop-color:#F8B142"/>
			<stop  offset="0.3445" style="stop-color:#FCB342"/>
			<stop  offset="0.5787" style="stop-color:#FAEE67"/>
			<stop  offset="0.6629" style="stop-color:#FFFFFF"/>
			<stop  offset="0.7459" style="stop-color:#FDDF15"/>
			<stop  offset="0.8982" style="stop-color:#5C2311"/>
		</linearGradient>
		<path class="st2" d="M249.5,272.64H41.33c-12.76,0-23.14-10.38-23.14-23.14V41.33c0-12.76,10.38-23.14,23.14-23.14H249.5
			c12.76,0,23.14,10.38,23.14,23.14V249.5C272.64,262.26,262.26,272.64,249.5,272.64z M41.33,22.61c-10.32,0-18.71,8.39-18.71,18.71
			V249.5c0,10.32,8.39,18.71,18.71,18.71H249.5c10.32,0,18.71-8.39,18.71-18.71V41.33c0-10.32-8.39-18.71-18.71-18.71H41.33z"/>
	</g>
	<g>
		<path class="st1" d="M216.13,49.21l-4.02,20.38c-0.13,0.66-0.77,1.1-1.44,0.96c-0.6-0.12-1.01-0.65-0.99-1.25l0.76-20.76
			c0.06-1.59,1.39-2.83,2.98-2.77c1.59,0.06,2.83,1.39,2.77,2.98C216.18,48.91,216.16,49.07,216.13,49.21z"/>
		<path class="st1" d="M242.73,75.4l-19.74,6.48c-0.64,0.21-1.33-0.14-1.55-0.78c-0.19-0.58,0.08-1.2,0.6-1.47l18.47-9.51
			c1.41-0.73,3.15-0.17,3.87,1.24c0.73,1.41,0.17,3.15-1.24,3.87C243.02,75.29,242.87,75.35,242.73,75.4z"/>
		<path class="st1" d="M244.54,44.54l-27.11,29.71c-0.45,0.5-1.23,0.53-1.73,0.08c-0.47-0.43-0.53-1.15-0.14-1.65l24.59-31.83
			c0.97-1.25,2.77-1.48,4.02-0.52c1.25,0.97,1.48,2.77,0.52,4.02C244.64,44.42,244.59,44.48,244.54,44.54z"/>
	</g>
</g>
</svg>
