<?xml version="1.0" encoding="UTF-8"?>
<svg id="Layer_1" data-name="Layer 1" xmlns="http://www.w3.org/2000/svg" viewBox="0 0 1920 1080">
  <defs>
    <style>
      .cls-1 {
        fill: #58595b;
      }

      .cls-1, .cls-2, .cls-3, .cls-4, .cls-5, .cls-6, .cls-7, .cls-8 {
        stroke-width: 0px;
      }

      .cls-2, .cls-5, .cls-6 {
        fill-rule: evenodd;
      }

      .cls-2, .cls-7 {
        fill: #ee3f65;
      }

      .cls-3 {
        fill: #fff;
      }

      .cls-4 {
        fill: #a6a8ab;
      }

      .cls-5, .cls-8 {
        fill: #59595c;
      }

      .cls-6 {
        fill: #4d4e4e;
      }
    </style>
  </defs>
  <g>
    <polygon class="cls-1" points="1049.59 929.23 1053.63 929.23 1067.83 903.79 1067.95 903.79 1068.58 929.23 1072.62 929.23 1090.45 898.99 1086.52 898.99 1071.85 924.9 1071.73 924.9 1071.28 898.99 1067.12 898.99 1052.8 924.9 1052.68 924.9 1051.89 898.99 1047.96 898.99 1049.59 929.23"/>
    <path class="cls-1" d="m1109.99,917.51c-1.59,5.92-7.41,9.49-13.1,9.49-3.52,0-6.13-2.28-5.14-5.98,1.57-5.86,9.37-5.86,15.94-6.97,1.04-.18,2.76-.47,3.47-1.35h.12l-1.29,4.81Zm-13.53-9.27c1.5-4.92,5.34-7.03,9.98-7.03s7.59,1.23,6.25,6.21c-.88,3.28-2.72,3.81-5.85,4.1-8.23.94-16.58,1.29-18.84,9.73-1.63,6.09,2.14,8.84,7.77,8.84s8.98-2.22,12.67-6.15h.12c-.83,3.1-.83,5.27,2.92,5.27,1,0,1.54-.06,2.47-.23l.83-3.1c-.46.18-.82.24-1.24.24-1.46,0-1.96-.76-1.57-2.23l4.3-16.06c2.18-8.15-3.19-9.72-8.52-9.72-6.98,0-12.65,3.04-14.96,10.13h3.68Z"/>
    <path class="cls-1" d="m1127.8,929.11l-2.21,3.46c-1.98,2.81-3.26,4.75-6.55,4.75-.88,0-1.61-.12-2.44-.29l-.83,3.1c.59.23,1.29.23,2.74.29,4.63,0,6.19-1.46,9.73-6.55l22.47-34.87h-3.69l-16.23,25.79-3.06-25.79h-3.93l4,30.12Z"/>
    <path class="cls-1" d="m1183,889.91h-3.68l-2.44,9.08h-5.27l-.83,3.1h5.27l-5.54,20.69c-1.44,5.16-.18,6.8,4.74,6.8,1.11,0,2.2-.12,3.31-.12l.85-3.17c-1.09.13-2.16.19-3.21.19-2.59-.18-2.57-1.59-1.92-3.99l5.47-20.4h6.15l.83-3.1h-6.15l2.44-9.08Z"/>
    <path class="cls-1" d="m1206.25,898.11c-9.2,0-16.26,7.32-18.58,15.99-2.33,8.68.81,16,10.01,16s16.26-7.32,18.58-16c2.33-8.68-.81-15.99-10.01-15.99Zm-.83,3.1c7.03,0,8.87,6.5,7.16,12.89-1.71,6.39-7.03,12.9-14.07,12.9s-8.87-6.5-7.16-12.9c1.71-6.39,7.03-12.89,14.07-12.89Z"/>
    <path class="cls-1" d="m1238.04,929.23h3.69l4.72-17.64c1.76-5.92,6.36-10.37,12.28-10.37s6.61,3.98,5.23,9.14l-5.06,18.87h3.69l5.21-19.46c1.93-7.21.55-11.65-7.95-11.65-4.28,0-8.92,2.45-11.3,6.08h-.12l4.5-16.81h-3.68l-11.21,41.84Z"/>
    <path class="cls-1" d="m1299.96,915.1c2.57-8.49.92-16.98-8.75-16.98s-15.8,8.02-17.94,15.99c-2.31,8.62-.25,16,9.37,16,7.68,0,12.67-3.97,16.09-10.83h-3.68c-2.41,4.63-6.18,7.74-11.57,7.74-7.04,0-8.23-6.5-6.78-11.9h23.27Zm-22.44-3.1c2.12-5.51,6.76-10.79,12.86-10.79s8.04,5.22,6.72,10.79h-19.58Z"/>
    <path class="cls-1" d="m1324.81,917.51c-1.59,5.92-7.41,9.49-13.1,9.49-3.52,0-6.13-2.28-5.14-5.98,1.57-5.86,9.37-5.86,15.94-6.97,1.04-.18,2.76-.47,3.47-1.35h.12l-1.29,4.81Zm-13.53-9.27c1.5-4.92,5.34-7.03,9.98-7.03s7.58,1.23,6.25,6.21c-.88,3.28-2.72,3.81-5.85,4.1-8.23.94-16.58,1.29-18.84,9.73-1.63,6.09,2.14,8.84,7.76,8.84s8.98-2.22,12.67-6.15h.12c-.83,3.1-.83,5.27,2.92,5.27,1,0,1.54-.06,2.47-.23l.83-3.1c-.46.18-.83.24-1.24.24-1.46,0-1.96-.76-1.57-2.23l4.3-16.06c2.18-8.15-3.19-9.72-8.52-9.72-6.98,0-12.65,3.04-14.96,10.13h3.68Z"/>
    <polygon class="cls-1" points="1333.98 929.23 1337.67 929.23 1348.87 887.39 1345.19 887.39 1333.98 929.23"/>
    <path class="cls-1" d="m1362.33,889.91h-3.69l-2.43,9.08h-5.27l-.83,3.1h5.27l-5.54,20.69c-1.44,5.16-.18,6.8,4.74,6.8,1.11,0,2.2-.12,3.31-.12l.85-3.17c-1.09.13-2.16.19-3.22.19-2.59-.18-2.57-1.59-1.92-3.99l5.46-20.4h6.15l.83-3.1h-6.15l2.44-9.08Z"/>
    <path class="cls-1" d="m1364.4,929.23h3.68l4.73-17.64c1.76-5.92,6.35-10.37,12.28-10.37s6.61,3.98,5.23,9.14l-5.06,18.87h3.68l5.21-19.46c1.93-7.21.55-11.65-7.95-11.65-4.28,0-8.92,2.45-11.31,6.08h-.12l4.51-16.81h-3.68l-11.21,41.84Z"/>
    <path class="cls-1" d="m486.33,633.28c0,3.19,2.67,5.77,5.96,5.77s5.96-2.58,5.96-5.77v-46.19c0-3.19-2.67-5.77-5.96-5.77s-5.96,2.58-5.96,5.77v46.19Z"/>
    <rect class="cls-1" x="492.29" y="599.49" width="64.65" height="21.37"/>
    <path class="cls-7" d="m687.36,551.27h-130.42v32.74h118.69c19.64,0,37.66,4.29,37.66,28.71s-18.01,28.72-37.66,28.72h-75.36v198.39h42.06v-165.65h45.02c48.85,0,67.4-30.33,67.4-61.46s-18.56-61.45-67.4-61.45"/>
    <path class="cls-1" d="m734.05,672.77h33.87v63.12h.72c8.59-13.85,23.38-20.18,36.03-20.18,36.02,0,45.09,19.95,45.09,49.98v74.62h-33.88v-68.51c0-19.94-5.72-29.8-21.7-29.8-18.37,0-26.25,10.08-26.25,34.72v63.59h-33.87v-167.53Z"/>
    <path class="cls-1" d="m874.08,756.29c1.91-30.96,30.3-40.59,57.98-40.59,24.58,0,54.15,5.4,54.15,34.5v63.12c0,11.03,1.19,22.05,4.29,26.98h-34.35c-1.19-3.76-2.15-7.74-2.39-11.73-10.73,11.03-26.24,15.02-41.51,15.02-23.61,0-41.98-11.5-41.98-36.37.47-55.14,83.49-25.57,82.06-52.79,0-14.08-10.02-16.43-21.95-16.43-13.12,0-21.23,5.16-22.42,18.3h-33.88Zm78.25,24.64c-5.73,4.93-17.65,5.16-28.15,7.04-10.49,1.88-20.04,5.63-20.04,17.83s9.79,15.48,20.76,15.48c26.47,0,27.43-20.41,27.43-27.91v-12.44Z"/>
    <path class="cls-1" d="m1012.44,718.99h32.21v22.52h.47c6.45-15.24,22.43-25.81,39.37-25.81,2.62,0,5.01.47,7.39,1.17v30.97c-3.1-.71-8.11-1.17-12.17-1.17-25.05,0-33.4,17.36-33.4,38.95v54.67h-33.88v-121.31Z"/>
    <path class="cls-1" d="m1106.18,718.99h31.97v16.42h.48c8.83-12.43,21.47-19.71,37.69-19.71s29.34,5.4,36.02,20.18c7.39-10.56,20.04-20.18,37.22-20.18,26.24,0,45.09,11.97,45.09,43.42v81.18h-33.88v-68.75c0-16.19-1.43-29.56-20.75-29.56s-22.67,15.72-22.67,30.74v67.58h-33.88v-68.05c0-14.07.96-30.26-20.51-30.26-6.68,0-22.91,4.22-22.91,27.92v70.39h-33.88v-121.31Z"/>
    <path class="cls-1" d="m1319.92,756.29c1.91-30.96,30.3-40.59,57.97-40.59,24.58,0,54.15,5.4,54.15,34.5v63.12c0,11.03,1.2,22.05,4.3,26.98h-34.35c-1.2-3.76-2.15-7.74-2.39-11.73-10.73,11.03-26.25,15.02-41.51,15.02-23.61,0-41.99-11.5-41.99-36.37.49-55.14,83.5-25.57,82.07-52.79,0-14.08-10.02-16.43-21.95-16.43-13.12,0-21.24,5.16-22.42,18.3h-33.88Zm78.25,24.64c-5.72,4.93-17.65,5.16-28.15,7.04-10.5,1.88-20.04,5.63-20.04,17.83s9.78,15.48,20.75,15.48c26.48,0,27.43-20.41,27.43-27.91v-12.44Z"/>
    <path class="cls-3" d="m716.74,603.63v15.8c22.13-.8,38.74-4.03,38.74-7.9s-16.61-7.1-38.74-7.9"/>
    <polygon class="cls-7" points="815.42 612.89 754.76 612.89 754.76 610.18 810.41 610.18 815.42 612.89"/>
  </g>
  <g>
    <path class="cls-6" d="m587.91,187.27c-1.26-1.6-2.53-3.18-3.81-4.78,11.03-11.81,22.05-23.62,33.07-35.42,45.02,62.28,56.98,136.36,41.23,182.64-25.37,74.61-124.01,74.8-151.47,11.22-9.14-26.5,1.56-48.6,19.91-61.19,12.38-8.5,24.26-11.98,38.89-9.39,15.47,2.73,34.77,10.36,53.73,14.77,5.01,1.16,18.79,4.96,22.6,3.17,3.62-1.71,3.62-6.18,3.91-9.03,1.14.54,2.7,1.16,3.83,1.69l-8.87,21.87c-23.7-6.25-47.56-12.56-71.26-18.8-14.4-2.86-27.06-2.4-37.61,2.15-35.34,15.22-27.98,53.98-1.42,75.45,45.11,36.44,108.7,15.55,124.79-41.67,10.6-37.71,1.74-66.67-11.92-102.2-8.14-21.16-18.33-40.18-31.27-56.34-8.1,8.63-16.21,17.25-24.32,25.88"/>
    <path class="cls-1" d="m647.8,156.77v-8.71h1.64l1.97,6.16c.19.58.31,1.01.4,1.29.09-.31.24-.77.45-1.39l1.99-6.06h1.48v8.71h-1.06v-7.28l-2.41,7.28h-.99l-2.4-7.42v7.42h-1.05Zm-4.96,0v-7.68h-2.73v-1.02h6.57v1.02h-2.73v7.68h-1.11Zm12.88-12.53c-2-2.09-4.76-3.39-7.8-3.39s-5.82,1.29-7.81,3.39c-2,2.09-3.24,4.99-3.24,8.18s1.24,6.08,3.24,8.18c1.99,2.09,4.75,3.38,7.81,3.38s5.81-1.29,7.8-3.38c2-2.09,3.23-4.99,3.23-8.18s-1.24-6.09-3.23-8.18m-7.8-4.65c3.37,0,6.44,1.43,8.66,3.75,2.22,2.33,3.59,5.54,3.59,9.08s-1.37,6.75-3.59,9.07c-2.22,2.33-5.29,3.77-8.66,3.77s-6.46-1.44-8.67-3.77c-2.23-2.31-3.6-5.53-3.6-9.07s1.37-6.75,3.6-9.08c2.21-2.32,5.28-3.75,8.67-3.75"/>
    <path class="cls-2" d="m558.83,334.6c-1.11-5.76-5.02-8.41-9.48-8.64-10.48-.53-16.11,12.38-14.96,21.89,1.08,8.95,7.91,15.66,20.73,14.27,8.47,5.57,15.26,9.87,22.94,11.91,11.17,2.99,27.23,1.63,32.42-11.05,3.59-8.78-2.53-18.31-12.6-21.15-.32-4.2-.64-8.42-.96-12.65,2.89-5.76-2.58-9.17-6.14-10.23-2.13-.11-3.62,2.37-2.55,3.96,1.61,1.87,3.12,2.77,4.08,5.47-.41,4.43-3.83,9.44-5.76,13.65-2.28,4.19-1.89,7.75,2.11,10.45,3.14,1.31,4.34,2.91,3.45,4.82-2.94.68-3.31-3.58-6.9-5.02-3.53.23-6.96,4.3-9.96,2.41.98-3.82,1.59-7.53,1.14-11.05-.09-2.75-3.23-3.34-4.4-5.82.95-1.4,2.07-2.49,1.63-5.02-1.81-2.26-5.53-1.57-5.71-.17.25,1.67.28,3.64.94,5.21.78,2.42.98,4.69,2.57,6.61-.83,1.33-1.66,2.68-2.5,4.01-.52,1.22-2.64-.51-1.76-2.46,2.82-4.62-.16-8.9-2.09-9.48.12-.8-.28-2.19-.75-2.84-1.6.87-3.58,1.19-5.5.91"/>
    <path class="cls-2" d="m622.73,186.37c-1.83,9.16-3.66,18.31-5.5,27.47-.63-5.23-2-9.03-3.98-11.66-6.9-9.17-32.34-4.27-41.3-.56-8.81,3.62-16.52,9.47-23.17,17.45-19.24,22.44-31.76,81.64,1.28,93.7,19.65,7.17,52.55-10.7,55.47-34.61,1.28-10.42-1.99-21.3-9.8-28.32,15.7-2.21,25.02,3.41,18.88,28.01-3.79,9.45-8.68,17.22-14.6,23.44-20.41,21.4-70.56,31.28-80.18-5.21-7.38-27.96,4.44-61.74,24.41-81.23,9.14-8.92,20.42-16.05,33.92-21.31,14.52-5.63,29.31-8.61,44.58-7.14"/>
    <path class="cls-1" d="m773.54,375.74c-7.34,9.89-16.65,13.46-25.69,13.46-28.83,0-46.01-22.65-46.01-50.93s17.18-51.75,46.01-51.75c19.14,0,37.36,12.22,39.46,34.59h-19.67c-2.49-10.98-9.96-16.47-19.8-16.47-18.49,0-25.43,16.47-25.43,33.63s6.94,32.8,25.43,32.8c13.5,0,21.1-7.41,22.29-21.14h-20.72v-16.06h39.33v52.99h-13.11l-2.1-11.13Z"/>
    <path class="cls-1" d="m802.63,337.72c1.05-18.12,16.64-23.75,31.85-23.75,13.5,0,29.76,3.16,29.76,20.17v36.93c0,6.45.65,12.9,2.36,15.78h-18.88c-.66-2.19-1.18-4.53-1.31-6.86-5.9,6.46-14.43,8.78-22.81,8.78-12.97,0-23.07-6.72-23.07-21.27.26-32.26,45.88-14.96,45.1-30.89,0-8.23-5.51-9.6-12.06-9.6-7.21,0-11.67,3.02-12.32,10.71h-18.61Zm43,14.41c-3.15,2.89-9.71,3.02-15.47,4.12-5.78,1.09-11.02,3.29-11.02,10.43s5.37,9.06,11.4,9.06c14.55,0,15.08-11.94,15.08-16.33v-7.28Z"/>
    <path class="cls-1" d="m878.65,315.9h17.69v13.17h.27c3.54-8.92,12.32-15.1,21.63-15.1,1.44,0,2.75.28,4.07.69v18.11c-1.72-.41-4.46-.68-6.7-.68-13.76,0-18.35,10.15-18.35,22.79v31.99h-18.61v-70.97Z"/>
    <path class="cls-1" d="m929.64,288.85h18.61v35.69h.26c4.59-7.28,12.98-10.58,21.37-10.58,13.5,0,28.05,11.4,28.05,37.35s-14.55,37.47-28.05,37.47c-9.96,0-18.22-3.15-22.29-10.98h-.26v9.07h-17.7v-98.02Zm33.82,39.81c-11.01,0-15.86,10.71-15.86,22.79s4.85,22.65,15.86,22.65,15.86-10.84,15.86-22.65-4.85-22.79-15.86-22.79"/>
    <path class="cls-1" d="m1009.72,288.85h18.61v36.93h.4c4.72-8.1,12.85-11.81,19.8-11.81,19.78,0,24.77,11.67,24.77,29.24v43.66h-18.61v-40.08c0-11.67-3.15-17.43-11.94-17.43-10.09,0-14.42,5.9-14.42,20.32v37.2h-18.61v-98.02Z"/>
    <path class="cls-1" d="m1086.67,337.72c1.05-18.12,16.64-23.75,31.85-23.75,13.51,0,29.76,3.16,29.76,20.17v36.93c0,6.45.66,12.9,2.37,15.78h-18.88c-.66-2.19-1.19-4.53-1.31-6.86-5.89,6.46-14.42,8.78-22.81,8.78-12.97,0-23.07-6.72-23.07-21.27.26-32.26,45.88-14.96,45.09-30.89,0-8.23-5.51-9.6-12.06-9.6-7.21,0-11.67,3.02-12.32,10.71h-18.61Zm42.99,14.41c-3.14,2.89-9.7,3.02-15.47,4.12-5.77,1.09-11.01,3.29-11.01,10.43s5.37,9.06,11.4,9.06c14.55,0,15.08-11.94,15.08-16.33v-7.28Z"/>
    <path class="cls-1" d="m1232.3,375.74c-7.34,9.89-16.65,13.46-25.69,13.46-28.84,0-46.02-22.65-46.02-50.93s17.18-51.75,46.02-51.75c19.14,0,37.36,12.22,39.46,34.59h-19.66c-2.49-10.98-9.96-16.47-19.8-16.47-18.49,0-25.43,16.47-25.43,33.63s6.94,32.8,25.43,32.8c13.5,0,21.1-7.41,22.28-21.14h-20.71v-16.06h39.33v52.99h-13.11l-2.1-11.13Z"/>
    <path class="cls-1" d="m1325.75,386.87h-17.7v-9.89h-.4c-4.71,8.1-12.85,11.8-20.71,11.8-19.79,0-24.76-11.67-24.76-29.24v-43.64h18.6v40.08c0,11.66,3.15,17.43,11.94,17.43,10.1,0,14.42-5.91,14.42-20.32v-37.19h18.61v70.97Z"/>
    <path class="cls-1" d="m1388.26,377.8h-.26c-4.32,7.69-11.79,10.98-20.58,10.98-20.45,0-30.42-18.25-30.42-38.01s10.1-36.8,30.02-36.8c8,0,15.87,3.57,20.06,10.58h.27v-35.69h18.61v98.02h-17.7v-9.07Zm-16.24-49.14c-12.2,0-16.4,11.12-16.4,22.65s4.86,22.78,16.4,22.78c12.19,0,15.99-11.25,15.99-22.92s-3.93-22.51-15.99-22.51"/>
    <path class="cls-1" d="m1439.12,304.92h-18.61v-16.06h18.61v16.06Zm-18.61,10.98h18.61v70.97h-18.61v-70.97Z"/>
    <polygon class="cls-8" points="491.29 364.07 488.66 360.02 490.05 359.03 496.45 368.89 495.05 369.88 492.41 365.81 481.09 373.86 479.96 372.12 491.29 364.07"/>
    <polygon class="cls-8" points="499.18 372.38 494.36 376.83 499.27 382.68 504.1 378.23 505.43 379.8 493.88 390.44 492.55 388.87 497.97 383.89 493.05 378.04 487.64 383.02 486.33 381.46 497.88 370.82 499.18 372.38"/>
    <polygon class="cls-8" points="508.92 394.68 504.45 390.52 500.77 394.88 505.76 399.51 504.65 400.82 498.17 394.81 508.38 382.74 514.6 388.52 513.5 389.82 508.76 385.43 505.53 389.24 510.01 393.4 508.92 394.68"/>
    <path class="cls-8" d="m523.37,413.53c-.82-.08-2.25-.56-3.84-1.59-3.7-2.39-5.03-6.63-2.38-11.13,2.54-4.29,7.03-5.4,11.09-2.77,1.63,1.06,2.45,2.09,2.75,2.62l-1.26,1.18c-.45-.74-1.22-1.58-2.31-2.27-3.07-2-6.32-1.26-8.45,2.34-1.98,3.36-1.4,6.71,1.78,8.77,1.03.67,2.21,1.12,3.1,1.22l-.48,1.63Z"/>
    <path class="cls-8" d="m542.37,414.37c-2.16,5.06-6.25,6.37-9.83,4.68-3.7-1.73-5.03-5.96-3.13-10.41,2-4.67,6.07-6.42,9.82-4.67,3.82,1.8,4.99,6.03,3.13,10.39m-11-4.86c-1.34,3.14-.91,6.71,1.94,8.04,2.88,1.36,5.69-.66,7.11-3.99,1.24-2.93,1.09-6.66-1.93-8.07-3-1.4-5.74.79-7.12,4.03"/>
    <path class="cls-8" d="m544.42,421.03c.7.81,1.81,1.67,3.12,2.09,1.95.61,3.39-.1,3.84-1.66.42-1.44-.13-2.51-1.89-3.94-2.15-1.65-3.25-3.42-2.63-5.6.7-2.41,3.1-3.58,5.97-2.68,1.51.48,2.5,1.19,3.04,1.78l-.99,1.46c-.4-.42-1.25-1.19-2.59-1.61-2.01-.64-3.14.38-3.44,1.43-.41,1.44.28,2.44,2.07,3.9,2.2,1.8,3.11,3.46,2.45,5.72-.68,2.38-2.96,3.91-6.43,2.82-1.42-.45-2.85-1.38-3.47-2.17l.96-1.52Z"/>
    <path class="cls-8" d="m571.21,422.72c.23-2.25.5-4.93.81-6.91h-.06c-.8,1.77-1.74,3.65-2.83,5.72l-3.84,7.27-1.49-.24-1.32-7.99c-.38-2.36-.69-4.51-.82-6.47h-.04c-.35,1.97-.86,4.62-1.36,6.98l-1.44,6.76-1.87-.31,3.46-15.74,2.5.41,1.43,8.13c.34,2.07.59,3.9.72,5.61l.06.02c.63-1.55,1.43-3.2,2.41-5.1l3.86-7.24,2.5.41-1.45,16.07-1.92-.33.67-7.04Z"/>
    <polygon class="cls-5" points="580.54 414.21 579.91 430.31 577.93 430.22 578.55 414.12 580.54 414.21"/>
    <path class="cls-8" d="m596.27,429.38c-.71.42-2.15.88-4.02.98-4.33.22-7.73-2.47-7.98-7.75-.25-5.03,2.85-8.62,7.62-8.88,1.92-.1,3.15.27,3.69.52l-.4,1.73c-.77-.34-1.86-.57-3.13-.51-3.61.19-5.89,2.73-5.69,6.96.19,3.94,2.48,6.35,6.22,6.15,1.21-.06,2.43-.39,3.21-.84l.49,1.63Z"/>
    <path class="cls-8" d="m609.63,427.74l-7.58-14.61,2.04-.54,3.69,7.43c.92,1.83,1.79,3.66,2.42,5.1h.05c-.13-1.63-.12-3.61-.11-5.76l.08-8.4,2.01-.54,3.75,7.43c.87,1.75,1.72,3.5,2.35,5.08h.04c-.1-1.81-.11-3.66-.12-5.74l.06-8.4,1.97-.53-.42,16.75-2.02.54-3.86-7.63c-.95-1.87-1.63-3.32-2.21-4.84h-.05c.11,1.63.15,3.26.09,5.42l-.15,8.7-2.01.54Z"/>
    <path class="cls-8" d="m637.44,408.9c2.12,5.08.3,9.13-3.29,10.78-3.73,1.72-7.6-.11-9.48-4.58-1.95-4.69-.47-9.03,3.3-10.76,3.85-1.76,7.63.18,9.46,4.55m-10.84,5.26c1.31,3.16,4.14,5.24,7,3.92,2.88-1.33,3.35-4.86,1.95-8.2-1.23-2.94-3.97-5.33-7.01-3.94-3.01,1.38-3.3,4.99-1.94,8.22"/>
    <path class="cls-8" d="m652.62,400.5c-1.26-1.83-2.76-4.02-3.78-5.72l-.06.03c.53,1.88,1.02,3.94,1.51,6.25l1.75,8.11-1.27.86-6.04-5.06c-1.79-1.5-3.37-2.9-4.72-4.26l-.03.02c.98,1.72,2.28,4.05,3.41,6.16l3.21,6.06-1.59,1.07-7.39-14.17,2.13-1.44,6.22,5.08c1.55,1.31,2.91,2.51,4.1,3.69l.06-.04c-.51-1.58-.97-3.39-1.43-5.48l-1.7-8.11,2.13-1.43,9.1,13.02-1.63,1.1-3.97-5.74Z"/>
    <path class="cls-8" d="m652.73,389.33c.53-.74,1.48-1.79,2.53-2.74,1.5-1.37,2.69-1.97,3.93-2.01.99-.08,1.96.32,2.74,1.27.97,1.18,1.09,2.88.24,4.46l.04.04c1.34-.7,3.42-.92,4.92.89.87,1.04,1.12,2.2,1.04,3.33-.17,1.51-1.19,3.06-3.08,4.79-1.04.94-1.89,1.58-2.44,1.97l-9.91-11.98Zm5.63,3.62l1.36-1.24c1.59-1.43,1.81-3.15.83-4.32-1.18-1.43-2.68-1.05-4.21.33-.68.63-1.04,1.04-1.23,1.31l3.24,3.92Zm4.82,5.84c.34-.21.78-.58,1.33-1.07,1.54-1.41,2.48-3.3,1.02-5.08-1.38-1.66-3.31-1.11-4.95.38l-1.24,1.12,3.84,4.65Z"/>
    <path class="cls-2" d="m1156.72,184.08v-6.84h1.3l1.54,4.83c.15.46.25.79.31,1.01.08-.24.2-.61.35-1.09l1.57-4.75h1.16v6.84h-.83v-5.73l-1.91,5.73h-.78l-1.88-5.83v5.83h-.83Zm-3.89,0v-6.04h-2.15v-.8h5.17v.8h-2.15v6.04h-.87Zm10.12-9.85c-1.56-1.65-3.73-2.66-6.14-2.66s-4.57,1.01-6.14,2.66c-1.57,1.65-2.55,3.92-2.55,6.43s.98,4.78,2.55,6.42c1.56,1.65,3.73,2.66,6.14,2.66s4.57-1.01,6.14-2.66c1.57-1.64,2.55-3.92,2.55-6.42s-.98-4.78-2.55-6.43m-6.14-3.66c2.66,0,5.07,1.13,6.81,2.96,1.74,1.83,2.83,4.34,2.83,7.13s-1.09,5.31-2.83,7.13c-1.75,1.83-4.15,2.96-6.81,2.96s-5.07-1.13-6.81-2.96c-1.75-1.82-2.83-4.35-2.83-7.13s1.08-5.31,2.83-7.13c1.75-1.83,4.15-2.96,6.81-2.96"/>
    <path class="cls-7" d="m782.99,223.27c0,13.98-3.07,24.18-9.21,30.6-.29-3.46-2.34-5.19-6.14-5.19-1.55,0-3.62.87-6.21,2.6-2.58,1.73-4.65,2.59-6.2,2.59-2.83,0-5.07-1.58-6.72-4.76-1.37-2.55-2.05-5.42-2.05-8.59,0-4.71,2.05-7.61,6.14-8.74,3.79-.72,7.6-1.43,11.4-2.15,4.09-1.54,6.13-4.96,6.13-10.28,0-6.24-3.17-11.15-9.5-14.73-5.26-2.97-11.16-4.45-17.68-4.45s-12.33,1.43-17.39,4.29c-6.23,3.58-9.35,8.49-9.35,14.73s2.09,9.51,6.28,10.74c3.8.41,7.65.77,11.55,1.08,4.18,1.02,6.28,4.25,6.28,9.66,0,2.87-.69,5.32-2.05,7.37-.29.41-1.95,2.35-4.97,5.83-.4-3.46-2.19-5.19-5.4-5.19-1.47,0-3.32.87-5.56,2.6-2.23,1.73-4.09,2.59-5.54,2.59-5.26,0-9.12-3.68-11.55-11.04-1.56-5.01-2.34-11.05-2.34-18.11,0-5.63,1.34-10.67,4.03-15.12,2.68-4.44,6.5-7.6,11.47-9.44h-8.92c-3.71,0-5.55,1.27-5.55,3.82,0,.92.29,2,.87,3.22l-.43.45c-1.76-2.13-2.68-4.89-2.78-8.26-.1-1.63.32-3.41,1.24-5.35.92-1.94,1.44-3.62,1.54-5.06.19-2.44-.54-5-2.19-7.65l.44-.6c1.36,2.11,2.41,3.36,3.14,3.73.73.37,2.36.55,4.9.55h52.31v11.94c5.75,2.34,10.42,5.66,14.02,9.94,3.99,4.9,5.99,10.35,5.99,16.37"/>
    <path class="cls-7" d="m786.65,163.75c-1.17-1.52-2.48-2.29-3.95-2.29-2.63,0-3.94,1.68-3.94,5.04,0,1.73.9,4.6,2.7,8.57,1.8,3.98,2.75,7.04,2.85,9.18.2,5-1.17,8.91-4.09,11.7-2.92,2.81-6.62,4.21-11.11,4.21h-14.17v-15.15h13.88c4.68,0,7.02-1.79,7.02-5.38,0-1.63-1.51-4.36-4.53-8.16-2.83-3.48-3.99-6.76-3.51-9.84.39-2.26,1.54-3.98,3.43-5.15,1.91-1.18,4.07-1.66,6.51-1.47,5.16.41,8.13,3.32,8.91,8.72"/>
    <path class="cls-7" d="m869.05,223.27c0,14.8-5.34,25-16.01,30.6-1.45-5.51-5.1-8.26-10.92-8.26-3.39,0-8.15,1.37-14.26,4.13-6.11,2.75-10.92,4.13-14.41,4.13-7.09,0-12.81-1.93-17.18-5.81-4.66-4.18-6.99-9.95-6.99-17.29,0-8.57,2.75-14.39,8.25-17.44,1.74-.93,6.86-2.15,15.35-3.68,5.51-1.02,8.26-3.41,8.26-7.19,0-5-3.17-7.5-9.5-7.5-2.15,0-4.04.56-5.69,1.66-1.95,1.21-2.93,2.82-2.93,4.83,0,3.02,1.7,4.53,5.11,4.53,1.65,0,3.32-.31,4.97-.92-.79,2.45-2.88,3.68-6.29,3.68-.87,0-2.19-.13-3.95-.38-1.75-.26-3.02-.38-3.79-.38-2.93,0-4.73,1.53-5.4,4.59-2.93-2.94-4.39-6.74-4.39-11.41,0-5.37,2.04-9.53,6.13-12.47,3.61-2.43,8.14-3.65,13.59-3.65,5.75,0,10.38,1.26,13.88,3.8,4.1,2.94,6.14,7.29,6.14,13.07,0,5.26-2.02,9.12-6.06,11.55-1.16.71-4.86,2.08-11.1,4.1-4.05,1.22-6.07,3.04-6.07,5.47,0,4.97,3.22,7.45,9.66,7.45,8.66,0,12.94-3.53,12.84-10.6v-4.39h1.61c-.39,5.76.68,9.74,3.22,11.97,2.23,2.01,6.23,3.02,11.98,3.02,4.48,0,8.26-1.37,11.33-4.11,3.06-2.73,4.6-6.39,4.6-10.96s-1.9-8.57-5.7-11.42c-3.51-2.54-7.6-3.8-12.27-3.8-6.14,0-9.21,1.38-9.21,4.14,0,.85.29,1.92.88,3.19l-.44.48c-1.84-2.26-2.77-5.06-2.77-8.35,0-1.44.48-3.46,1.46-6.04.97-2.58,1.46-4.59,1.46-6.03,0-1.86-.78-3.92-2.33-6.2l.43-.61c1.95,2.85,5.07,4.28,9.35,4.28h7.16v9.64c6.62,1.44,11.69,4.85,15.2,10.26,3.21,4.89,4.82,11.01,4.82,18.35"/>
    <path class="cls-7" d="m838.22,266.57c0,2.76-1.12,4.79-3.36,6.13,0-.72-.31-1.41-.95-2.07-.63-.66-1.29-.94-1.97-.84-.69.11-1.97.65-3.87,1.62-1.9.96-3.19,1.39-3.87,1.29-2.73-.63-4.1-2.58-4.1-5.89,0-3,1.13-6.1,3.37-9.3,1.85-2.69,3.75-5.37,5.69-8.06,1.95,2.65,3.86,5.31,5.7,7.96,2.24,3.15,3.36,6.22,3.36,9.17"/>
    <path class="cls-7" d="m872.85,163.75c-1.16-1.52-2.48-2.29-3.95-2.29-2.62,0-3.94,1.68-3.94,5.04,0,1.73.91,4.6,2.71,8.57,1.8,3.98,2.75,7.04,2.85,9.18.19,5-1.18,8.91-4.1,11.7-2.92,2.81-6.62,4.21-11.1,4.21h-14.18v-15.15h13.88c4.68,0,7.02-1.79,7.02-5.38,0-1.63-1.51-4.36-4.53-8.16-2.83-3.48-3.99-6.76-3.51-9.84.39-2.26,1.54-3.98,3.43-5.15,1.9-1.18,4.07-1.66,6.52-1.47,5.16.41,8.13,3.32,8.91,8.72"/>
    <path class="cls-7" d="m939.48,199.4c-.09,3.37-1.01,6.12-2.77,8.27l-.44-.46c.59-1.12.88-2.09.88-2.91,0-2.75-2.05-4.13-6.14-4.13h-35.79c-1.66,0-3.17.58-4.53,1.76-1.37,1.17-2.05,2.57-2.05,4.21,0,4.69,4.21,7.03,12.61,7.03,3.26,0,5.53-.97,6.82-2.91l.3.31c-1.07,1.33-1.56,2.65-1.46,3.98.1.71.37,1.58.8,2.6.44,1.02.66,1.94.66,2.76-.1,1.72-.59,3.11-1.46,4.12l-.29-.15c.29-.41.44-.81.44-1.23,0-.81-.52-1.5-1.54-2.06-1.02-.56-2.02-.84-3-.84-4.78.1-7.65.3-8.61.61-2.93.61-4.34,2.19-4.25,4.74.1,4.19,4.44,6.28,13.01,6.28,12.27,0,19.64-2.76,22.06-8.26.29,3.69.44,6.66.44,8.92,0,9.13-2.97,16.4-8.91,21.84-.49-3.98-3.17-5.97-8.04-5.97-2.05,0-4.7,1-7.97,2.98-3.26,2-5.96,2.99-8.1,2.99-5.26,0-9.4-1.99-12.43-5.97-3.02-3.98-4.53-8.92-4.53-14.84,0-7.24,2.77-12.59,8.34-16.07-5.56-2.44-8.34-7.34-8.34-14.68,0-4.69,1.63-8.75,4.89-12.16,3.26-3.42,7.14-5.12,11.62-5.12h38.72c2.54,0,4.17-.19,4.89-.55.73-.37,1.78-1.62,3.15-3.73l.44.61c-1.66,2.66-2.4,5.21-2.2,7.66.1,1.43.61,3.11,1.54,5.04.92,1.94,1.34,3.73,1.24,5.36"/>
    <path class="cls-7" d="m1027.43,223.27c0,13.98-3.07,24.18-9.21,30.6-.3-3.46-2.34-5.19-6.14-5.19-1.56,0-3.63.87-6.21,2.6-2.58,1.73-4.65,2.59-6.21,2.59-2.82,0-5.07-1.58-6.72-4.76-1.37-2.55-2.05-5.42-2.05-8.59,0-4.71,2.05-7.61,6.14-8.74,3.8-.72,7.6-1.43,11.4-2.15,4.1-1.54,6.14-4.96,6.14-10.28,0-6.24-3.16-11.15-9.49-14.73-5.27-2.97-11.16-4.45-17.68-4.45s-12.33,1.43-17.39,4.29c-6.24,3.58-9.35,8.49-9.35,14.73s2.09,9.51,6.28,10.74c3.8.41,7.65.77,11.55,1.08,4.18,1.02,6.29,4.25,6.29,9.66,0,2.87-.69,5.32-2.05,7.37-.3.41-1.95,2.35-4.97,5.83-.39-3.46-2.19-5.19-5.4-5.19-1.46,0-3.32.87-5.55,2.6-2.25,1.73-4.1,2.59-5.55,2.59-5.26,0-9.12-3.68-11.55-11.04-1.56-5.01-2.34-11.05-2.34-18.11,0-5.63,1.34-10.67,4.03-15.12,2.68-4.44,6.5-7.6,11.47-9.44h-8.91c-3.71,0-5.56,1.27-5.56,3.82,0,.92.29,2,.88,3.22l-.44.45c-1.75-2.13-2.68-4.89-2.78-8.26-.09-1.63.32-3.41,1.24-5.35.92-1.94,1.44-3.62,1.54-5.06.19-2.44-.54-5-2.19-7.65l.44-.6c1.36,2.11,2.41,3.36,3.14,3.73.73.37,2.37.55,4.89.55h52.32v11.94c5.75,2.34,10.42,5.66,14.02,9.94,4,4.9,6,10.35,6,16.37"/>
    <path class="cls-7" d="m1031.08,163.75c-1.17-1.52-2.48-2.29-3.95-2.29-2.63,0-3.94,1.68-3.94,5.04,0,1.73.9,4.6,2.71,8.57,1.8,3.98,2.75,7.04,2.85,9.18.19,5-1.18,8.91-4.1,11.7-2.92,2.81-6.62,4.21-11.1,4.21h-14.17v-15.15h13.87c4.68,0,7.02-1.79,7.02-5.38,0-1.63-1.51-4.36-4.53-8.16-2.83-3.48-3.99-6.76-3.51-9.84.4-2.26,1.54-3.98,3.44-5.15,1.9-1.18,4.07-1.66,6.5-1.47,5.17.41,8.14,3.32,8.91,8.72"/>
    <path class="cls-7" d="m1068.04,219.98c0,16.06-3.21,27.35-9.64,33.89-.39-3.98-2.78-5.96-7.17-5.96-1.65,0-3.79.99-6.43,2.98-2.63,1.99-4.77,2.98-6.43,2.98-6.14,0-10.62-3.32-13.44-9.99-2.14-4.91-3.21-11.06-3.21-18.44l4.38-7.22c-.3,8.26,5.99,12.39,18.85,12.39,4.87,0,8.86-1.22,11.98-3.65,3.51-2.65,5.25-6.45,5.25-11.42,0-10.26-6.14-15.37-18.41-15.37-5.26,0-7.89,1.35-7.89,4.05l.73,3-.44.45c-1.85-2.35-2.77-5.1-2.77-8.27,0-1.43.49-3.41,1.46-5.96.97-2.55,1.46-4.49,1.46-5.82,0-1.94-.78-4.03-2.34-6.28l.44-.61c2.73,4.08,6.23,6.12,10.52,6.12.87,0,2.19-.3,3.94-.92,1.76-.6,3.12-.91,4.09-.91,5.85,0,10.03,4.65,12.57,13.96,1.65,5.93,2.48,12.92,2.48,21"/>
    <path class="cls-7" d="m1153.97,224.75c0,13.8-5.37,23.51-16.08,29.13-1.46-5.51-5.07-8.26-10.81-8.26-3.51,0-8.33,1.37-14.47,4.14-6.14,2.75-10.96,4.12-14.47,4.12-6.92,0-12.77-2.91-17.53-8.73-4.48-5.42-6.72-11.86-6.72-19.32,0-10.73,4.82-18.45,14.47-23.15-2.83-2.36-4.23-5.93-4.23-10.74,0-5.51,3.26-9.71,9.8-12.56,4.86-2.15,10.42-3.22,16.65-3.22,9.44,0,17.43,2.45,23.95,7.35,7.02,5.21,11.31,12.52,12.87,21.92,4.38,3.68,6.58,10.12,6.58,19.32m-9.8-3.16c-3.22,3.78-7.36,5.67-12.42,5.67-3.7,0-7.07-1.25-10.09-3.75-3.01-2.5-4.53-5.63-4.53-9.41,0-4.18,1.76-7.44,5.26-9.78,2.93-1.94,6.53-2.91,10.81-2.91,2.24,0,4.04.51,5.41,1.54-2.83-11.23-8.19-17.2-16.07-17.9,1.45,2.12,2.19,4.46,2.19,6.99,0,5.36-2.34,9.42-7.02,12.16-3.9,2.33-8.57,3.5-14.02,3.5-3.12,0-6.39-.71-9.78-2.15-4.29,3.86-6.44,8.21-6.44,13.08,0,7.91,4.39,11.87,13.15,11.87,3.6,0,6.63-1.05,9.06-3.18,2.43-2.12,3.65-5.04,3.65-8.75h1.46c-.09,7.95,5.02,11.93,15.35,11.93,7.11,0,11.79-2.96,14.03-8.88m-27.04-29.22c0-2.15-.8-3.93-2.4-5.36-1.61-1.43-3.44-2.13-5.48-2.13-2.34,0-4.44.71-6.29,2.13-1.85,1.43-2.77,3.32-2.77,5.67s.88,4.18,2.63,5.51c1.76,1.33,3.8,1.99,6.13,1.99,2.05,0,3.93-.77,5.63-2.3,1.7-1.53,2.55-3.37,2.55-5.5m23.82,20.51c0-1.54-.51-2.86-1.53-3.98-1.02-1.12-2.27-1.68-3.73-1.68s-2.7.56-3.73,1.68c-1.02,1.12-1.54,2.45-1.54,3.98s.52,2.85,1.54,3.97c1.03,1.13,2.26,1.69,3.73,1.69s2.7-.56,3.73-1.69c1.02-1.12,1.53-2.45,1.53-3.97"/>
  </g>
  <rect class="cls-4" x="480.87" y="507.38" width="959.17" height="2.73"/>
</svg>