<?xml version="1.0" encoding="UTF-8"?>
<svg id="Layer_1" data-name="Layer 1" xmlns="http://www.w3.org/2000/svg" viewBox="0 0 1920 1080">
  <defs>
    <style>
      .cls-1, .cls-2 {
        fill: #58595b;
      }

      .cls-1, .cls-2, .cls-3, .cls-4, .cls-5, .cls-6, .cls-7 {
        stroke-width: 0px;
      }

      .cls-1, .cls-3 {
        fill-rule: evenodd;
      }

      .cls-3, .cls-6 {
        fill: #ee3f65;
      }

      .cls-4 {
        fill: #fff;
      }

      .cls-5 {
        fill: #a6a8ab;
      }

      .cls-7 {
        fill: #59595c;
      }
    </style>
  </defs>
  <polygon class="cls-2" points="1673.6 692.2 1674.52 688.76 1671.8 688.76 1670.87 692.2 1673.6 692.2"/>
  <polygon class="cls-2" points="1683.29 692.2 1684.21 688.76 1681.48 688.76 1680.56 692.2 1683.29 692.2"/>
  <polygon class="cls-2" points="1692.97 692.2 1693.9 688.76 1691.17 688.76 1690.25 692.2 1692.97 692.2"/>
  <g>
    <g>
      <path class="cls-1" d="m344.07,431.97c-1.4-1.69-2.8-3.36-4.21-5.05,12.2-12.48,24.4-24.95,36.59-37.42,49.8,65.8,63.03,144.07,45.61,192.97-28.07,78.83-137.2,79.04-167.58,11.85-10.11-28,1.73-51.35,22.02-64.66,13.69-8.98,26.84-12.66,43.02-9.92,17.12,2.89,38.47,10.94,59.44,15.61,5.54,1.23,20.78,5.24,25,3.35,4.01-1.81,4.01-6.53,4.33-9.54,1.26.56,2.98,1.22,4.24,1.78l-9.81,23.1c-26.22-6.6-52.62-13.27-78.84-19.86-15.93-3.02-29.94-2.54-41.6,2.27-39.1,16.08-30.96,57.03-1.57,79.71,49.91,38.5,120.26,16.44,138.06-44.02,11.73-39.84,1.93-70.44-13.19-107.98-9.01-22.36-20.28-42.46-34.6-59.52-8.97,9.11-17.93,18.23-26.91,27.34"/>
      <path class="cls-2" d="m410.33,399.74v-9.2h1.81l2.17,6.51c.21.61.35,1.06.45,1.36.1-.33.27-.82.5-1.47l2.2-6.4h1.63v9.2h-1.18v-7.7l-2.67,7.7h-1.1l-2.65-7.83v7.83h-1.17Zm-5.48,0v-8.12h-3.03v-1.08h7.27v1.08h-3.02v8.12h-1.22Zm14.24-13.24c-2.21-2.21-5.27-3.58-8.63-3.58s-6.45,1.36-8.65,3.58c-2.21,2.21-3.58,5.27-3.58,8.64s1.37,6.43,3.58,8.64c2.2,2.21,5.25,3.57,8.65,3.57s6.42-1.36,8.63-3.57c2.21-2.21,3.58-5.27,3.58-8.64s-1.37-6.44-3.58-8.64m-8.63-4.92c3.73,0,7.12,1.51,9.58,3.96,2.46,2.46,3.97,5.85,3.97,9.6s-1.52,7.13-3.97,9.58c-2.45,2.46-5.85,3.98-9.58,3.98s-7.14-1.52-9.59-3.98c-2.47-2.44-3.99-5.84-3.99-9.58s1.52-7.14,3.99-9.6c2.45-2.45,5.84-3.96,9.59-3.96"/>
      <path class="cls-3" d="m311.9,587.64c-1.23-6.09-5.56-8.89-10.48-9.13-11.6-.56-17.82,13.08-16.55,23.13,1.19,9.45,8.75,16.54,22.93,15.08,9.37,5.89,16.88,10.43,25.38,12.59,12.35,3.15,30.13,1.72,35.87-11.68,3.98-9.28-2.8-19.35-13.94-22.34-.35-4.44-.7-8.9-1.06-13.36,3.2-6.09-2.86-9.69-6.79-10.81-2.36-.11-4.01,2.51-2.82,4.19,1.78,1.98,3.45,2.93,4.52,5.78-.45,4.68-4.24,9.97-6.37,14.42-2.52,4.43-2.09,8.19,2.34,11.04,3.47,1.39,4.8,3.07,3.82,5.09-3.25.72-3.66-3.78-7.64-5.3-3.91.25-7.7,4.54-11.02,2.54,1.09-4.03,1.76-7.96,1.26-11.67-.1-2.9-3.58-3.54-4.87-6.15,1.05-1.48,2.29-2.63,1.8-5.3-2.01-2.39-6.11-1.66-6.32-.18.27,1.77.31,3.84,1.04,5.5.86,2.55,1.08,4.96,2.84,6.98-.92,1.41-1.84,2.83-2.76,4.24-.58,1.28-2.92-.55-1.94-2.6,3.12-4.89-.18-9.4-2.31-10.02.14-.85-.31-2.32-.83-3-1.77.91-3.96,1.26-6.08.96"/>
      <path class="cls-3" d="m382.59,431.01c-2.02,9.68-4.05,19.35-6.09,29.02-.69-5.53-2.21-9.54-4.4-12.32-7.63-9.69-35.78-4.52-45.69-.6-9.75,3.83-18.28,10.01-25.64,18.44-21.28,23.71-35.14,86.26,1.41,99,21.74,7.58,58.14-11.3,61.37-36.57,1.41-11.01-2.2-22.51-10.84-29.93,17.37-2.33,27.68,3.61,20.89,29.6-4.19,9.98-9.61,18.19-16.15,24.76-22.58,22.62-78.06,33.06-88.71-5.51-8.17-29.54,4.91-65.23,27.01-85.83,10.11-9.42,22.59-16.95,37.52-22.52,16.06-5.95,32.43-9.1,49.32-7.55"/>
      <polygon class="cls-7" points="237.63 625.49 234.28 621.55 235.7 620.34 243.87 629.92 242.44 631.13 239.07 627.18 227.55 636.99 226.1 635.3 237.63 625.49"/>
      <polygon class="cls-7" points="247.27 633.26 242.47 638.51 248.55 644.07 253.35 638.81 254.99 640.31 243.52 652.87 241.88 651.38 247.26 645.49 241.18 639.94 235.8 645.83 234.18 644.34 245.66 631.78 247.27 633.26"/>
      <polygon class="cls-7" points="260.55 655.51 255.15 651.69 251.6 656.7 257.62 660.96 256.55 662.47 248.73 656.93 258.58 643.04 266.08 648.36 265.02 649.86 259.3 645.81 256.19 650.21 261.59 654.03 260.55 655.51"/>
      <path class="cls-7" d="m278.6,673.57c-.91.01-2.54-.32-4.41-1.21-4.34-2.06-6.29-6.35-3.9-11.4,2.3-4.81,7.11-6.52,11.88-4.25,1.92.92,2.93,1.9,3.32,2.43l-1.25,1.39c-.58-.72-1.53-1.51-2.8-2.11-3.6-1.72-7.1-.56-9.02,3.48-1.79,3.76-.77,7.21,2.97,9,1.21.57,2.56.91,3.55.9l-.34,1.77Z"/>
      <path class="cls-7" d="m299.59,672.16c-1.79,5.57-6.14,7.44-10.27,6.1-4.27-1.37-6.21-5.66-4.63-10.56,1.66-5.14,5.94-7.48,10.27-6.09,4.41,1.43,6.18,5.73,4.63,10.54m-12.65-3.78c-1.11,3.46-.23,7.16,3.06,8.22,3.32,1.07,6.18-1.38,7.36-5.05,1.03-3.22.44-7.12-3.05-8.25-3.46-1.11-6.22,1.52-7.37,5.08"/>
      <path class="cls-7" d="m302.61,678.91c.86.77,2.19,1.54,3.67,1.82,2.21.41,3.72-.52,4.03-2.21.29-1.56-.44-2.62-2.53-3.91-2.56-1.48-3.97-3.21-3.53-5.57.49-2.61,3-4.14,6.26-3.53,1.72.32,2.88.95,3.55,1.51l-.93,1.65c-.49-.4-1.51-1.1-3.03-1.38-2.29-.42-3.41.78-3.62,1.92-.28,1.57.59,2.52,2.73,3.84,2.63,1.62,3.82,3.25,3.36,5.71-.48,2.58-2.81,4.46-6.75,3.73-1.61-.3-3.29-1.1-4.07-1.86l.88-1.71Z"/>
      <path class="cls-7" d="m332.27,677.46c0-2.38-.02-5.23.09-7.35h-.07c-.67,1.96-1.49,4.05-2.46,6.35l-3.39,8.1-1.67-.07-2.36-8.23c-.69-2.44-1.27-4.66-1.65-6.7h-.05c-.15,2.11-.41,4.96-.69,7.49l-.81,7.27-2.09-.1,1.99-16.94,2.8.13,2.51,8.36c.61,2.13,1.1,4.03,1.44,5.8h.07c.52-1.69,1.21-3.52,2.07-5.63l3.41-8.08,2.8.14.26,17.05-2.15-.11-.08-7.48Z"/>
      <rect class="cls-7" x="339.94" y="667.46" width="2.2" height="17.02" transform="translate(-45.38 24.87) rotate(-3.92)"/>
      <path class="cls-7" d="m360.6,681.45c-.73.53-2.27,1.18-4.31,1.51-4.74.75-8.79-1.67-9.67-7.18-.85-5.26,2.15-9.4,7.36-10.24,2.1-.34,3.49-.1,4.12.1l-.24,1.86c-.89-.27-2.11-.38-3.5-.16-3.95.63-6.16,3.57-5.46,7.99.66,4.11,3.46,6.38,7.54,5.72,1.32-.21,2.63-.7,3.43-1.27l.73,1.65Z"/>
      <path class="cls-7" d="m375.1,678.11l-10.02-14.43,2.18-.81,4.91,7.36c1.22,1.81,2.39,3.64,3.25,5.07h.05c-.33-1.7-.55-3.78-.78-6.04l-.88-8.84,2.14-.81,4.98,7.36c1.15,1.72,2.29,3.46,3.16,5.05l.05-.02c-.33-1.88-.54-3.82-.79-5.99l-.91-8.83,2.11-.79,1.46,17.65-2.16.8-5.12-7.55c-1.26-1.85-2.18-3.29-2.99-4.82l-.05.02c.31,1.69.54,3.39.72,5.66l.83,9.16-2.15.8Z"/>
      <path class="cls-7" d="m403.53,654.98c2.92,5.08,1.39,9.55-2.38,11.72-3.9,2.25-8.37.8-10.95-3.67-2.69-4.68-1.55-9.42,2.4-11.69,4.02-2.32,8.41-.73,10.93,3.65m-11.31,6.83c1.81,3.15,5.15,5,8.15,3.27,3.01-1.74,3.13-5.5,1.2-8.85-1.69-2.93-4.98-5.13-8.16-3.29-3.15,1.81-3.06,5.63-1.19,8.87"/>
      <path class="cls-7" d="m419.25,644.33c-1.59-1.77-3.5-3.89-4.81-5.56l-.06.05c.8,1.91,1.58,4.01,2.39,6.38l2.85,8.31-1.3,1.05-7.23-4.59c-2.13-1.36-4.04-2.64-5.68-3.91l-.03.03c1.28,1.69,2.97,3.98,4.46,6.06l4.22,5.97-1.63,1.31-9.76-13.99,2.18-1.76,7.43,4.58c1.86,1.19,3.49,2.28,4.94,3.39l.06-.05c-.75-1.6-1.45-3.44-2.21-5.58l-2.8-8.31,2.18-1.76,11.51,12.58-1.68,1.35-5.02-5.55Z"/>
      <path class="cls-7" d="m418.08,632.58c.5-.84,1.42-2.06,2.47-3.18,1.5-1.62,2.73-2.4,4.09-2.59,1.08-.2,2.19.1,3.16,1.01,1.21,1.12,1.52,2.9.78,4.65l.05.03c1.39-.91,3.66-1.38,5.52.34,1.07.99,1.49,2.18,1.52,3.37-.01,1.61-.95,3.36-2.84,5.4-1.03,1.11-1.9,1.89-2.46,2.36l-12.28-11.39Zm6.6,3.13l1.36-1.46c1.58-1.7,1.62-3.53.42-4.64-1.46-1.36-3.07-.78-4.59.85-.68.74-1.02,1.22-1.2,1.53l4.01,3.73Zm5.98,5.55c.35-.26.79-.71,1.34-1.28,1.54-1.67,2.35-3.77.54-5.46-1.7-1.58-3.77-.77-5.4.99l-1.24,1.33,4.76,4.42Z"/>
    </g>
    <polygon class="cls-2" points="1476.92 692.2 1479.16 692.2 1487.03 678.1 1487.1 678.1 1487.45 692.2 1489.69 692.2 1499.58 675.43 1497.4 675.43 1489.26 689.8 1489.2 689.8 1488.95 675.43 1486.64 675.43 1478.7 689.8 1478.63 689.8 1478.19 675.43 1476.01 675.43 1476.92 692.2"/>
    <path class="cls-2" d="m1510.42,685.71c-.88,3.28-4.11,5.26-7.26,5.26-1.95,0-3.4-1.27-2.85-3.31.87-3.25,5.19-3.25,8.84-3.87.58-.1,1.53-.26,1.92-.75h.06l-.71,2.67Zm-7.5-5.14c.83-2.73,2.96-3.9,5.53-3.9s4.21.68,3.47,3.45c-.49,1.82-1.51,2.11-3.24,2.28-4.56.52-9.19.72-10.45,5.4-.91,3.38,1.19,4.9,4.31,4.9s4.98-1.23,7.03-3.41h.06c-.46,1.72-.46,2.92,1.62,2.92.55,0,.86-.03,1.37-.13l.46-1.72c-.25.1-.46.13-.69.13-.81,0-1.09-.42-.87-1.24l2.39-8.91c1.21-4.52-1.77-5.39-4.73-5.39-3.87,0-7.02,1.69-8.3,5.62h2.04Z"/>
    <path class="cls-2" d="m1520.3,692.14l-1.23,1.92c-1.1,1.56-1.81,2.63-3.63,2.63-.49,0-.89-.06-1.35-.16l-.46,1.72c.32.13.71.13,1.52.16,2.57,0,3.44-.81,5.39-3.63l12.46-19.34h-2.05l-9,14.3-1.69-14.3h-2.18l2.22,16.71Z"/>
    <path class="cls-2" d="m1550.92,670.39h-2.04l-1.35,5.04h-2.93l-.46,1.72h2.93l-3.07,11.48c-.8,2.86-.1,3.77,2.63,3.77.62,0,1.22-.06,1.84-.06l.47-1.76c-.6.07-1.2.1-1.78.1-1.44-.1-1.42-.88-1.07-2.21l3.03-11.32h3.41l.46-1.72h-3.41l1.35-5.04Z"/>
    <path class="cls-2" d="m1563.81,674.95c-5.11,0-9.02,4.06-10.31,8.87-1.29,4.81.45,8.87,5.55,8.87s9.02-4.06,10.31-8.87c1.29-4.81-.45-8.87-5.55-8.87Zm-.46,1.72c3.9,0,4.92,3.61,3.97,7.15-.95,3.55-3.9,7.15-7.8,7.15s-4.92-3.61-3.97-7.15c.95-3.54,3.9-7.15,7.8-7.15Z"/>
    <path class="cls-2" d="m1581.45,692.2h2.05l2.62-9.79c.98-3.28,3.53-5.75,6.81-5.75s3.67,2.21,2.9,5.07l-2.81,10.47h2.05l2.89-10.79c1.07-4,.31-6.46-4.41-6.46-2.37,0-4.95,1.36-6.27,3.37h-.06l2.5-9.32h-2.04l-6.22,23.21Z"/>
    <path class="cls-2" d="m1615.79,684.37c1.42-4.71.51-9.42-4.85-9.42s-8.76,4.45-9.95,8.87c-1.28,4.78-.14,8.87,5.19,8.87,4.26,0,7.03-2.2,8.92-6.01h-2.04c-1.34,2.57-3.43,4.29-6.42,4.29-3.9,0-4.56-3.61-3.76-6.6h12.91Zm-12.44-1.72c1.18-3.06,3.75-5.98,7.13-5.98s4.46,2.89,3.73,5.98h-10.86Z"/>
    <path class="cls-2" d="m1629.58,685.71c-.88,3.28-4.11,5.26-7.26,5.26-1.95,0-3.4-1.27-2.85-3.31.87-3.25,5.2-3.25,8.84-3.87.58-.1,1.53-.26,1.92-.75h.06l-.71,2.67Zm-7.5-5.14c.83-2.73,2.96-3.9,5.53-3.9s4.21.68,3.47,3.45c-.49,1.82-1.51,2.11-3.24,2.28-4.56.52-9.2.72-10.45,5.4-.91,3.38,1.19,4.9,4.31,4.9s4.98-1.23,7.03-3.41h.06c-.46,1.72-.46,2.92,1.62,2.92.55,0,.85-.03,1.37-.13l.46-1.72c-.25.1-.46.13-.69.13-.81,0-1.09-.42-.87-1.24l2.39-8.91c1.21-4.52-1.77-5.39-4.73-5.39-3.87,0-7.02,1.69-8.3,5.62h2.04Z"/>
    <polygon class="cls-2" points="1634.66 692.2 1636.71 692.2 1642.92 669 1640.88 669 1634.66 692.2"/>
    <path class="cls-2" d="m1650.38,670.39h-2.05l-1.35,5.04h-2.93l-.46,1.72h2.93l-3.07,11.48c-.8,2.86-.1,3.77,2.63,3.77.62,0,1.22-.06,1.84-.06l.47-1.76c-.6.07-1.2.1-1.78.1-1.44-.1-1.42-.88-1.06-2.21l3.03-11.32h3.41l.46-1.72h-3.41l1.35-5.04Z"/>
    <path class="cls-2" d="m1651.53,692.2h2.04l2.62-9.79c.98-3.28,3.52-5.75,6.81-5.75s3.67,2.21,2.9,5.07l-2.81,10.47h2.04l2.89-10.79c1.07-4,.31-6.46-4.41-6.46-2.37,0-4.95,1.36-6.27,3.37h-.06l2.5-9.32h-2.04l-6.22,23.21Z"/>
    <path class="cls-2" d="m1164.49,528.05c0,1.77,1.48,3.2,3.31,3.2s3.31-1.43,3.31-3.2v-25.62c0-1.77-1.48-3.2-3.31-3.2s-3.31,1.43-3.31,3.2v25.62Z"/>
    <rect class="cls-2" x="1167.8" y="509.31" width="35.86" height="11.86"/>
    <path class="cls-6" d="m1276,482.56h-72.34v18.16h65.84c10.9,0,20.89,2.38,20.89,15.93s-9.99,15.93-20.89,15.93h-41.8v110.04h23.33v-91.88h24.97c27.09,0,37.39-16.82,37.39-34.09s-10.29-34.09-37.39-34.09"/>
    <path class="cls-2" d="m1301.9,549.95h18.79v35.01h.4c4.77-7.68,12.97-11.19,19.98-11.19,19.98,0,25.01,11.06,25.01,27.72v41.39h-18.79v-38c0-11.06-3.17-16.53-12.04-16.53-10.19,0-14.56,5.59-14.56,19.26v35.27h-18.79v-92.92Z"/>
    <path class="cls-2" d="m1379.56,596.28c1.06-17.18,16.81-22.51,32.16-22.51,13.63,0,30.04,2.99,30.04,19.13v35.01c0,6.12.66,12.23,2.38,14.97h-19.06c-.66-2.09-1.19-4.29-1.33-6.51-5.95,6.12-14.55,8.33-23.02,8.33-13.1,0-23.29-6.38-23.29-20.18.26-30.58,46.31-14.18,45.52-29.28,0-7.81-5.56-9.11-12.18-9.11-7.28,0-11.78,2.86-12.44,10.15h-18.79Zm43.41,13.67c-3.18,2.74-9.79,2.86-15.62,3.9-5.82,1.04-11.12,3.12-11.12,9.89s5.43,8.59,11.51,8.59c14.68,0,15.22-11.32,15.22-15.48v-6.9Z"/>
    <path class="cls-2" d="m1456.31,575.59h17.87v12.49h.26c3.58-8.45,12.44-14.31,21.84-14.31,1.45,0,2.78.26,4.1.65v17.18c-1.72-.39-4.5-.65-6.75-.65-13.89,0-18.52,9.63-18.52,21.6v30.33h-18.79v-67.29Z"/>
    <path class="cls-2" d="m1508.31,575.59h17.73v9.11h.27c4.9-6.9,11.91-10.93,20.91-10.93s16.27,2.99,19.98,11.19c4.1-5.86,11.12-11.19,20.64-11.19,14.56,0,25.01,6.64,25.01,24.08v45.03h-18.79v-38.13c0-8.98-.79-16.4-11.51-16.4s-12.57,8.72-12.57,17.05v37.48h-18.79v-37.74c0-7.81.53-16.79-11.38-16.79-3.71,0-12.71,2.34-12.71,15.49v39.05h-18.79v-67.29Z"/>
    <path class="cls-2" d="m1626.86,596.28c1.06-17.18,16.81-22.51,32.16-22.51,13.63,0,30.04,2.99,30.04,19.13v35.01c0,6.12.66,12.23,2.38,14.97h-19.06c-.66-2.09-1.19-4.29-1.33-6.51-5.95,6.12-14.56,8.33-23.02,8.33-13.1,0-23.29-6.38-23.29-20.18.27-30.58,46.32-14.18,45.52-29.28,0-7.81-5.56-9.11-12.17-9.11-7.28,0-11.78,2.86-12.44,10.15h-18.79Zm43.4,13.67c-3.17,2.74-9.79,2.86-15.61,3.9-5.82,1.04-11.12,3.12-11.12,9.89s5.43,8.59,11.51,8.59c14.69,0,15.22-11.32,15.22-15.48v-6.9Z"/>
    <path class="cls-2" d="m528.51,637.29c-6.18,7.95-14.02,10.82-21.64,10.82-24.29,0-38.75-18.22-38.75-40.96s14.47-41.62,38.75-41.62c16.12,0,31.47,9.82,33.24,27.82h-16.56c-2.1-8.83-8.39-13.25-16.67-13.25-15.57,0-21.41,13.25-21.41,27.05s5.84,26.38,21.41,26.38c11.37,0,17.78-5.96,18.77-17h-17.45v-12.92h33.12v42.62h-11.04l-1.77-8.95Z"/>
    <path class="cls-2" d="m553.01,606.71c.89-14.57,14.02-19.1,26.83-19.1,11.37,0,25.06,2.54,25.06,16.23v29.7c0,5.19.55,10.37,1.99,12.69h-15.9c-.56-1.76-1-3.64-1.1-5.52-4.97,5.19-12.15,7.07-19.22,7.07-10.93,0-19.43-5.41-19.43-17.11.22-25.94,38.64-12.03,37.98-24.84,0-6.62-4.64-7.72-10.16-7.72-6.07,0-9.83,2.43-10.38,8.61h-15.68Zm36.22,11.59c-2.65,2.32-8.18,2.43-13.03,3.31-4.86.88-9.28,2.65-9.28,8.39s4.53,7.29,9.6,7.29c12.25,0,12.7-9.6,12.7-13.13v-5.85Z"/>
    <path class="cls-2" d="m617.03,589.15h14.9v10.6h.22c2.99-7.17,10.38-12.15,18.22-12.15,1.22,0,2.32.23,3.42.56v14.57c-1.44-.33-3.76-.55-5.63-.55-11.59,0-15.46,8.16-15.46,18.32v25.73h-15.68v-57.08Z"/>
    <path class="cls-2" d="m659.97,567.4h15.68v28.7h.22c3.87-5.85,10.93-8.5,18-8.5,11.37,0,23.62,9.16,23.62,30.03s-12.25,30.14-23.62,30.14c-8.39,0-15.35-2.53-18.77-8.83h-.22v7.29h-14.91v-78.83Zm28.49,32.02c-9.28,0-13.36,8.61-13.36,18.32s4.08,18.22,13.36,18.22,13.36-8.72,13.36-18.22-4.08-18.32-13.36-18.32"/>
    <path class="cls-2" d="m727.42,567.4h15.68v29.7h.33c3.98-6.51,10.82-9.5,16.67-9.5,16.67,0,20.86,9.39,20.86,23.52v35.11h-15.68v-32.24c0-9.38-2.65-14.02-10.05-14.02-8.5,0-12.14,4.75-12.14,16.34v29.92h-15.68v-78.83Z"/>
    <path class="cls-2" d="m792.22,606.71c.89-14.57,14.02-19.1,26.82-19.1,11.37,0,25.06,2.54,25.06,16.23v29.7c0,5.19.56,10.37,1.99,12.69h-15.9c-.55-1.76-1-3.64-1.1-5.52-4.97,5.19-12.14,7.07-19.21,7.07-10.93,0-19.43-5.41-19.43-17.11.22-25.94,38.64-12.03,37.98-24.84,0-6.62-4.64-7.72-10.16-7.72-6.07,0-9.83,2.43-10.38,8.61h-15.68Zm36.21,11.59c-2.65,2.32-8.17,2.43-13.03,3.31-4.86.88-9.27,2.65-9.27,8.39s4.52,7.29,9.6,7.29c12.25,0,12.7-9.6,12.7-13.13v-5.85Z"/>
    <path class="cls-2" d="m914.86,637.29c-6.18,7.95-14.02,10.82-21.64,10.82-24.29,0-38.76-18.22-38.76-40.96s14.47-41.62,38.76-41.62c16.12,0,31.46,9.82,33.23,27.82h-16.56c-2.1-8.83-8.39-13.25-16.67-13.25-15.57,0-21.42,13.25-21.42,27.05s5.85,26.38,21.42,26.38c11.37,0,17.78-5.96,18.77-17h-17.44v-12.92h33.12v42.62h-11.04l-1.77-8.95Z"/>
    <path class="cls-2" d="m993.58,646.24h-14.91v-7.95h-.33c-3.97,6.51-10.82,9.5-17.45,9.5-16.67,0-20.86-9.39-20.86-23.52v-35.1h15.67v32.24c0,9.38,2.65,14.02,10.05,14.02,8.5,0,12.14-4.75,12.14-16.34v-29.92h15.68v57.08Z"/>
    <path class="cls-2" d="m1046.22,638.94h-.22c-3.64,6.19-9.93,8.83-17.33,8.83-17.23,0-25.62-14.68-25.62-30.58s8.5-29.59,25.28-29.59c6.74,0,13.36,2.87,16.89,8.5h.23v-28.7h15.67v78.83h-14.91v-7.29Zm-13.68-39.52c-10.27,0-13.81,8.94-13.81,18.22s4.09,18.32,13.81,18.32c10.26,0,13.46-9.05,13.46-18.44s-3.31-18.1-13.46-18.1"/>
    <path class="cls-2" d="m1089.05,580.32h-15.68v-12.92h15.68v12.92Zm-15.67,8.83h15.68v57.08h-15.68v-57.08Z"/>
    <path class="cls-3" d="m851.22,483.13v-5.5h1.09l1.3,3.89c.13.37.21.63.26.81.07-.2.17-.5.3-.88l1.32-3.83h.98v5.5h-.7v-4.61l-1.61,4.61h-.66l-1.59-4.69v4.69h-.7Zm-3.28,0v-4.86h-1.81v-.65h4.35v.65h-1.81v4.86h-.73Zm8.53-7.93c-1.32-1.32-3.14-2.14-5.17-2.14s-3.85.81-5.17,2.14c-1.32,1.32-2.14,3.15-2.14,5.17s.82,3.84,2.14,5.16c1.32,1.33,3.15,2.14,5.17,2.14s3.85-.81,5.17-2.14c1.32-1.32,2.14-3.15,2.14-5.16s-.82-3.85-2.14-5.17m-5.17-2.94c2.24,0,4.27.91,5.74,2.37,1.46,1.47,2.38,3.49,2.38,5.74s-.92,4.27-2.38,5.73c-1.47,1.47-3.5,2.38-5.74,2.38s-4.27-.92-5.73-2.38c-1.47-1.47-2.38-3.5-2.38-5.73s.91-4.27,2.38-5.74c1.47-1.47,3.5-2.37,5.73-2.37"/>
    <path class="cls-6" d="m536.47,514.66c0,11.25-2.59,19.45-7.76,24.62-.24-2.78-1.97-4.18-5.17-4.18-1.31,0-3.05.7-5.23,2.09-2.17,1.39-3.92,2.09-5.23,2.09-2.38,0-4.27-1.28-5.66-3.83-1.15-2.06-1.72-4.36-1.72-6.91,0-3.78,1.72-6.12,5.17-7.03,3.2-.57,6.4-1.15,9.6-1.73,3.44-1.24,5.16-3.99,5.16-8.27,0-5.02-2.67-8.97-8-11.85-4.43-2.38-9.4-3.58-14.89-3.58s-10.38,1.15-14.64,3.45c-5.25,2.88-7.87,6.83-7.87,11.85s1.76,7.65,5.29,8.64c3.2.33,6.44.63,9.72.87,3.52.82,5.29,3.42,5.29,7.77,0,2.31-.58,4.28-1.72,5.93-.25.33-1.64,1.89-4.19,4.69-.33-2.78-1.85-4.18-4.55-4.18-1.23,0-2.79.7-4.68,2.09-1.88,1.39-3.45,2.09-4.67,2.09-4.43,0-7.68-2.96-9.72-8.88-1.32-4.03-1.97-8.89-1.97-14.56,0-4.53,1.13-8.58,3.39-12.16,2.25-3.57,5.47-6.11,9.66-7.59h-7.51c-3.12,0-4.68,1.02-4.68,3.08,0,.74.24,1.6.74,2.58l-.37.37c-1.48-1.72-2.26-3.94-2.34-6.65-.08-1.31.27-2.74,1.04-4.31.78-1.56,1.21-2.91,1.3-4.06.16-1.97-.45-4.02-1.85-6.15l.37-.49c1.14,1.7,2.03,2.7,2.65,3,.62.3,1.99.44,4.12.44h44.06v9.6c4.84,1.89,8.78,4.55,11.81,8,3.36,3.94,5.05,8.33,5.05,13.17"/>
    <path class="cls-6" d="m539.54,466.78c-.99-1.23-2.09-1.84-3.32-1.84-2.22,0-3.32,1.35-3.32,4.06,0,1.39.76,3.69,2.28,6.89,1.52,3.2,2.32,5.66,2.4,7.38.17,4.02-.98,7.16-3.44,9.41-2.46,2.26-5.58,3.39-9.36,3.39h-11.93v-12.18h11.69c3.94,0,5.91-1.44,5.91-4.33,0-1.31-1.27-3.51-3.82-6.56-2.38-2.8-3.36-5.44-2.95-7.92.33-1.81,1.3-3.2,2.89-4.14,1.61-.95,3.43-1.34,5.48-1.18,4.35.33,6.85,2.67,7.51,7.01"/>
    <path class="cls-6" d="m608.95,514.66c0,11.9-4.5,20.1-13.49,24.62-1.23-4.43-4.29-6.65-9.2-6.65-2.86,0-6.86,1.11-12.01,3.32-5.15,2.22-9.2,3.32-12.14,3.32-5.97,0-10.79-1.56-14.47-4.68-3.93-3.36-5.88-8-5.88-13.91,0-6.89,2.31-11.57,6.95-14.03,1.46-.74,5.77-1.72,12.92-2.95,4.64-.82,6.96-2.75,6.96-5.78,0-4.02-2.67-6.03-8-6.03-1.81,0-3.41.45-4.8,1.34-1.64.97-2.47,2.27-2.47,3.88,0,2.43,1.44,3.64,4.31,3.64,1.39,0,2.79-.25,4.19-.74-.66,1.97-2.42,2.95-5.29,2.95-.74,0-1.84-.1-3.33-.31-1.47-.21-2.54-.31-3.19-.31-2.47,0-3.98,1.23-4.56,3.69-2.46-2.36-3.69-5.42-3.69-9.18,0-4.32,1.72-7.67,5.16-10.03,3.03-1.95,6.85-2.94,11.45-2.94,4.84,0,8.74,1.01,11.69,3.05,3.45,2.37,5.17,5.87,5.17,10.52,0,4.23-1.7,7.33-5.1,9.29-.97.58-4.09,1.68-9.35,3.3-3.41.98-5.11,2.45-5.11,4.4,0,4,2.71,5.99,8.14,5.99,7.29,0,10.9-2.84,10.82-8.53v-3.53h1.35c-.33,4.63.57,7.83,2.71,9.62,1.88,1.62,5.25,2.44,10.09,2.44,3.77,0,6.96-1.1,9.54-3.31,2.58-2.2,3.87-5.14,3.87-8.81s-1.6-6.9-4.8-9.18c-2.95-2.04-6.4-3.06-10.34-3.06-5.17,0-7.75,1.11-7.75,3.33,0,.69.25,1.54.74,2.56l-.37.38c-1.55-1.82-2.33-4.06-2.33-6.72,0-1.16.41-2.78,1.23-4.86.82-2.07,1.23-3.69,1.23-4.85,0-1.49-.66-3.15-1.97-4.98l.37-.49c1.64,2.3,4.27,3.44,7.87,3.44h6.03v7.75c5.57,1.15,9.85,3.9,12.8,8.25,2.71,3.94,4.06,8.86,4.06,14.76"/>
    <path class="cls-6" d="m582.98,549.48c0,2.22-.94,3.86-2.83,4.93,0-.57-.26-1.13-.8-1.66-.53-.53-1.08-.75-1.66-.68-.58.09-1.66.53-3.26,1.3-1.6.77-2.69,1.12-3.26,1.04-2.3-.5-3.45-2.07-3.45-4.74,0-2.41.95-4.91,2.84-7.48,1.56-2.17,3.16-4.32,4.8-6.48,1.64,2.13,3.25,4.27,4.8,6.4,1.89,2.54,2.83,5,2.83,7.38"/>
    <path class="cls-6" d="m612.15,466.78c-.98-1.23-2.09-1.84-3.32-1.84-2.21,0-3.32,1.35-3.32,4.06,0,1.39.77,3.69,2.28,6.89,1.51,3.2,2.31,5.66,2.4,7.38.16,4.02-.99,7.16-3.45,9.41-2.46,2.26-5.58,3.39-9.35,3.39h-11.94v-12.18h11.69c3.94,0,5.91-1.44,5.91-4.33,0-1.31-1.27-3.51-3.81-6.56-2.38-2.8-3.36-5.44-2.95-7.92.33-1.81,1.29-3.2,2.89-4.14,1.6-.95,3.43-1.34,5.48-1.18,4.35.33,6.85,2.67,7.5,7.01"/>
    <path class="cls-6" d="m668.26,495.46c-.08,2.71-.85,4.93-2.34,6.65l-.37-.37c.49-.9.74-1.68.74-2.34,0-2.21-1.72-3.32-5.17-3.32h-30.15c-1.4,0-2.67.47-3.82,1.42-1.15.94-1.72,2.06-1.72,3.38,0,3.77,3.54,5.66,10.62,5.66,2.75,0,4.66-.77,5.74-2.34l.25.25c-.9,1.07-1.31,2.13-1.23,3.2.08.57.31,1.27.68,2.09.37.82.56,1.56.56,2.22-.08,1.38-.49,2.5-1.23,3.31l-.25-.12c.25-.33.37-.66.37-.99,0-.66-.44-1.21-1.3-1.66-.86-.45-1.7-.68-2.52-.68-4.02.08-6.44.24-7.26.49-2.46.49-3.65,1.76-3.57,3.81.08,3.37,3.73,5.05,10.95,5.05,10.34,0,16.54-2.22,18.58-6.64.25,2.96.37,5.36.37,7.17,0,7.34-2.5,13.19-7.51,17.56-.41-3.2-2.67-4.8-6.77-4.8-1.72,0-3.96.8-6.71,2.4-2.75,1.61-5.02,2.4-6.83,2.4-4.43,0-7.92-1.6-10.46-4.8-2.54-3.2-3.81-7.18-3.81-11.94,0-5.82,2.34-10.13,7.02-12.93-4.68-1.96-7.02-5.9-7.02-11.81,0-3.77,1.38-7.03,4.12-9.78,2.75-2.75,6.01-4.12,9.79-4.12h32.61c2.14,0,3.51-.15,4.12-.44.62-.3,1.5-1.3,2.65-3l.37.49c-1.39,2.14-2.01,4.19-1.85,6.16.08,1.15.52,2.5,1.3,4.06.78,1.56,1.13,3,1.04,4.31"/>
    <path class="cls-6" d="m742.33,514.66c0,11.25-2.59,19.45-7.76,24.62-.25-2.78-1.97-4.18-5.17-4.18-1.31,0-3.06.7-5.23,2.09-2.18,1.39-3.92,2.09-5.23,2.09-2.38,0-4.26-1.28-5.66-3.83-1.15-2.06-1.72-4.36-1.72-6.91,0-3.78,1.72-6.12,5.17-7.03,3.2-.57,6.4-1.15,9.6-1.73,3.45-1.24,5.17-3.99,5.17-8.27,0-5.02-2.67-8.97-8-11.85-4.44-2.38-9.4-3.58-14.89-3.58s-10.38,1.15-14.64,3.45c-5.25,2.88-7.88,6.83-7.88,11.85s1.76,7.65,5.29,8.64c3.2.33,6.44.63,9.72.87,3.52.82,5.3,3.42,5.3,7.77,0,2.31-.58,4.28-1.72,5.93-.25.33-1.65,1.89-4.19,4.69-.33-2.78-1.85-4.18-4.56-4.18-1.23,0-2.79.7-4.67,2.09-1.89,1.39-3.45,2.09-4.68,2.09-4.43,0-7.68-2.96-9.72-8.88-1.32-4.03-1.97-8.89-1.97-14.56,0-4.53,1.13-8.58,3.39-12.16,2.26-3.57,5.48-6.11,9.66-7.59h-7.5c-3.12,0-4.68,1.02-4.68,3.08,0,.74.25,1.6.74,2.58l-.37.37c-1.48-1.72-2.26-3.94-2.34-6.65-.08-1.31.27-2.74,1.05-4.31.78-1.56,1.21-2.91,1.3-4.06.16-1.97-.45-4.02-1.85-6.15l.37-.49c1.14,1.7,2.03,2.7,2.64,3,.62.3,1.99.44,4.12.44h44.06v9.6c4.85,1.89,8.78,4.55,11.81,8,3.37,3.94,5.05,8.33,5.05,13.17"/>
    <path class="cls-6" d="m745.4,466.78c-.99-1.23-2.09-1.84-3.32-1.84-2.22,0-3.32,1.35-3.32,4.06,0,1.39.76,3.69,2.28,6.89,1.52,3.2,2.32,5.66,2.4,7.38.16,4.02-.99,7.16-3.45,9.41-2.46,2.26-5.58,3.39-9.35,3.39h-11.93v-12.18h11.69c3.94,0,5.91-1.44,5.91-4.33,0-1.31-1.27-3.51-3.81-6.56-2.38-2.8-3.36-5.44-2.95-7.92.33-1.81,1.3-3.2,2.89-4.14,1.6-.95,3.43-1.34,5.47-1.18,4.35.33,6.86,2.67,7.51,7.01"/>
    <path class="cls-6" d="m776.53,512.01c0,12.91-2.7,21.99-8.12,27.26-.33-3.2-2.34-4.8-6.03-4.8-1.39,0-3.2.8-5.41,2.4-2.22,1.6-4.02,2.4-5.41,2.4-5.17,0-8.94-2.67-11.32-8.03-1.8-3.95-2.7-8.9-2.7-14.84l3.69-5.8c-.25,6.64,5.05,9.96,15.88,9.96,4.1,0,7.46-.98,10.09-2.93,2.95-2.13,4.43-5.19,4.43-9.19,0-8.25-5.17-12.37-15.5-12.37-4.43,0-6.65,1.08-6.65,3.25l.62,2.41-.37.36c-1.56-1.89-2.33-4.1-2.33-6.65,0-1.14.41-2.74,1.23-4.79.82-2.05,1.23-3.62,1.23-4.68,0-1.56-.65-3.24-1.97-5.05l.37-.49c2.3,3.28,5.25,4.92,8.86,4.92.73,0,1.84-.25,3.32-.74,1.48-.49,2.62-.74,3.45-.74,4.92,0,8.44,3.74,10.59,11.23,1.39,4.77,2.08,10.39,2.08,16.89"/>
    <path class="cls-6" d="m848.9,515.84c0,11.1-4.52,18.91-13.54,23.43-1.23-4.43-4.27-6.65-9.11-6.65-2.95,0-7.01,1.11-12.18,3.33-5.17,2.21-9.23,3.32-12.18,3.32-5.83,0-10.75-2.34-14.77-7.02-3.77-4.36-5.66-9.54-5.66-15.54,0-8.63,4.06-14.84,12.18-18.62-2.38-1.89-3.57-4.76-3.57-8.63,0-4.44,2.75-7.81,8.25-10.1,4.1-1.73,8.77-2.59,14.03-2.59,7.95,0,14.68,1.97,20.17,5.92,5.91,4.19,9.52,10.07,10.84,17.63,3.69,2.96,5.54,8.14,5.54,15.54m-8.25-2.54c-2.71,3.04-6.2,4.56-10.46,4.56-3.12,0-5.95-1-8.49-3.01-2.54-2.01-3.82-4.53-3.82-7.57,0-3.36,1.48-5.98,4.43-7.87,2.46-1.56,5.5-2.34,9.11-2.34,1.89,0,3.4.41,4.56,1.24-2.38-9.03-6.89-13.83-13.54-14.4,1.23,1.71,1.84,3.59,1.84,5.62,0,4.32-1.97,7.58-5.91,9.78-3.29,1.87-7.22,2.81-11.81,2.81-2.63,0-5.38-.57-8.24-1.72-3.61,3.1-5.42,6.61-5.42,10.52,0,6.36,3.69,9.55,11.08,9.55,3.03,0,5.58-.85,7.63-2.56,2.05-1.7,3.07-4.05,3.07-7.04h1.23c-.08,6.4,4.23,9.6,12.92,9.6,5.99,0,9.93-2.38,11.82-7.14m-22.77-23.5c0-1.72-.67-3.16-2.02-4.31-1.36-1.15-2.9-1.72-4.61-1.72-1.97,0-3.74.57-5.3,1.72-1.56,1.15-2.34,2.67-2.34,4.55s.74,3.37,2.22,4.43c1.48,1.06,3.2,1.6,5.16,1.6,1.72,0,3.31-.62,4.74-1.85,1.43-1.23,2.15-2.7,2.15-4.43m20.06,16.49c0-1.24-.43-2.3-1.29-3.2-.86-.9-1.91-1.36-3.14-1.36s-2.28.45-3.14,1.36c-.86.9-1.29,1.97-1.29,3.2s.43,2.29,1.29,3.19c.86.91,1.91,1.36,3.14,1.36s2.28-.45,3.14-1.36c.86-.9,1.29-1.97,1.29-3.19"/>
    <rect class="cls-5" x="1131.2" y="484.37" width="3.68" height="162.41"/>
    <path class="cls-4" d="m1292.29,511.61v8.76c12.28-.44,21.49-2.23,21.49-4.38s-9.21-3.94-21.49-4.38"/>
    <polygon class="cls-6" points="1347.03 516.74 1313.38 516.74 1313.38 515.24 1344.25 515.24 1347.03 516.74"/>
  </g>
</svg>