<?xml version="1.0" encoding="utf-8"?>
<!-- Generator: Adobe Illustrator 24.3.0, SVG Export Plug-In . SVG Version: 6.00 Build 0)  -->
<svg version="1.1" id="Layer_1" xmlns="http://www.w3.org/2000/svg" xmlns:xlink="http://www.w3.org/1999/xlink" x="0px" y="0px"
	 viewBox="0 0 290.83 290.83" style="enable-background:new 0 0 290.83 290.83;" xml:space="preserve">
<style type="text/css">
	.st0{fill:#EC1E52;}
	.st1{fill:#FFFFFF;}
	.st2{fill:url(#SVGID_1_);}
</style>
<g>
	<path class="st0" d="M267.66,290.83H23.17C10.37,290.83,0,280.46,0,267.66V23.17C0,10.37,10.37,0,23.17,0h244.49
		c12.8,0,23.17,10.37,23.17,23.17v244.49C290.83,280.46,280.46,290.83,267.66,290.83z"/>
	<g>
		<path class="st1" d="M72.84,157.03h24.67c7.97,0,13.49,2.09,16.99,5.66c3.06,2.98,4.62,7,4.62,12.15v0.15
			c0,7.97-4.25,13.26-10.73,16.02l12.45,18.18h-16.69l-10.51-15.8h-0.15H87.3v15.8H72.84V157.03z M96.84,182.06
			c4.92,0,7.75-2.38,7.75-6.19v-0.15c0-4.1-2.98-6.19-7.82-6.19H87.3v12.52H96.84z"/>
		<path class="st1" d="M123.43,157.03h41.95v12.3h-27.65v7.9h25.04v11.4h-25.04v8.27h28.02v12.29h-42.33V157.03z"/>
		<path class="st1" d="M167.99,183.26v-0.15c0-15.2,11.7-27.12,27.5-27.12c10.66,0,17.51,4.47,22.13,10.88l-10.88,8.42
			c-2.98-3.72-6.41-6.11-11.4-6.11c-7.3,0-12.45,6.18-12.45,13.78v0.15c0,7.82,5.14,13.94,12.45,13.94c5.44,0,8.64-2.53,11.77-6.33
			l10.88,7.75c-4.92,6.78-11.55,11.77-23.1,11.77C179.99,210.23,167.99,198.83,167.99,183.26z"/>
	</g>
	<g>
		<g>
			<path class="st1" d="M126.94,101.44c0,3.66,0.02,7.33-0.02,10.99c-0.01,0.8-0.24,1.6-0.41,2.39c-0.12,0.53-0.26,1.07-0.49,1.56
				c-0.37,0.8-0.78,1.58-1.25,2.33c-0.36,0.57-0.8,1.12-1.28,1.6c-0.58,0.57-1.22,1.09-1.87,1.57c-0.51,0.38-1.07,0.69-1.63,0.99
				c-0.69,0.37-1.4,0.7-2.19,0.84c-0.58,0.1-1.14,0.27-1.71,0.37c-0.38,0.06-0.77,0.07-1.15,0.07c-0.61,0.01-1.24,0.06-1.84-0.01
				c-0.75-0.09-1.49-0.24-2.22-0.43c-0.7-0.18-1.4-0.4-2.05-0.7c-0.62-0.29-1.19-0.68-1.76-1.07c-0.51-0.36-1.01-0.75-1.47-1.17
				c-0.44-0.41-0.89-0.84-1.24-1.33c-0.54-0.75-1.06-1.52-1.47-2.34c-0.35-0.68-0.54-1.44-0.79-2.17c-0.51-1.49-0.45-3.03-0.45-4.57
				c0-6.61-0.01-13.23,0.02-19.84c0-0.82,0.24-1.65,0.41-2.46c0.11-0.53,0.26-1.07,0.49-1.56c0.37-0.79,0.77-1.57,1.24-2.31
				c0.37-0.58,0.82-1.14,1.31-1.62c0.58-0.57,1.21-1.09,1.88-1.56c0.66-0.46,1.37-0.87,2.09-1.22c0.54-0.26,1.14-0.38,1.71-0.6
				c1.62-0.62,3.31-0.45,4.97-0.42c0.66,0.01,1.32,0.24,1.96,0.42c0.69,0.2,1.38,0.4,2.02,0.7c0.63,0.29,1.21,0.68,1.78,1.07
				c0.51,0.35,1.01,0.75,1.46,1.18c0.45,0.42,0.9,0.86,1.26,1.35c0.53,0.73,1.04,1.5,1.45,2.3c0.35,0.68,0.54,1.44,0.79,2.17
				c0.56,1.59,0.45,3.23,0.45,4.87C126.94,95.7,126.94,98.57,126.94,101.44z"/>
			<path class="st1" d="M111.12,134.42c-1.11-0.26-2.22-0.45-3.27-0.78c-1.56-0.49-3.1-1.07-4.48-1.97c-1.08-0.7-2.2-1.38-3.2-2.18
				c-0.86-0.69-1.62-1.52-2.38-2.33c-0.59-0.63-1.17-1.28-1.65-1.98c-0.64-0.92-1.23-1.88-1.74-2.87c-0.48-0.93-0.88-1.91-1.23-2.89
				c-0.26-0.74-0.4-1.53-0.56-2.3c-0.52-2.41-0.26-4.85-0.29-7.28c-0.02-1.29,0.79-2.32,2-2.72c1.49-0.5,3.01,0.1,3.73,1.62
				c0.17,0.37,0.22,0.72,0.21,1.11c0,1.25-0.05,2.51,0.01,3.76c0.05,1.06,0.2,2.11,0.38,3.16c0.19,1.15,0.69,2.21,1.22,3.24
				c0.34,0.66,0.79,1.27,1.24,1.87c0.53,0.7,1.08,1.38,1.68,2.01c0.43,0.45,0.95,0.82,1.44,1.22c0.94,0.77,1.97,1.41,3.08,1.92
				c1,0.47,2.03,0.85,3.11,1.09c0.9,0.2,1.8,0.4,2.74,0.39c0.53-0.01,1.07,0.09,1.6,0.06c0.85-0.06,1.7-0.15,2.54-0.29
				c0.71-0.11,1.43-0.23,2.1-0.47c0.96-0.35,1.9-0.77,2.81-1.24c1.11-0.57,2.12-1.31,3.04-2.15c0.66-0.61,1.28-1.28,1.84-1.98
				c0.59-0.75,1.12-1.55,1.61-2.36c0.31-0.51,0.53-1.08,0.73-1.64c0.25-0.71,0.48-1.43,0.65-2.16c0.12-0.49,0.16-1,0.17-1.51
				c0.04-1.68,0.07-3.35,0.07-5.03c0-0.78,0.36-1.38,0.85-1.9c0.57-0.6,1.31-0.88,2.15-0.86c1.34,0.03,2.4,0.87,2.82,2.09
				c0.1,0.29,0.13,0.61,0.13,0.91c0.01,1.56,0.04,3.11-0.01,4.67c-0.02,0.78-0.16,1.57-0.29,2.34c-0.12,0.73-0.25,1.47-0.47,2.18
				c-0.23,0.74-0.55,1.46-0.88,2.17c-0.42,0.9-0.86,1.79-1.37,2.64c-0.38,0.65-0.89,1.22-1.31,1.84c-0.69,1.04-1.59,1.89-2.47,2.75
				c-0.95,0.92-1.96,1.76-3.1,2.43c-1.03,0.6-2.05,1.23-3.13,1.74c-0.88,0.41-1.84,0.69-2.78,0.96c-0.89,0.26-1.79,0.46-2.7,0.66
				c-0.19,0.04-0.39,0.02-0.6,0.03c-0.01,0.07-0.02,0.11-0.02,0.16c0,1.98,0,3.96,0,6c0.15,0,0.28,0,0.41,0c2.32,0,4.64-0.01,6.96,0
				c1.13,0,2.18,0.78,2.62,1.78c0.52,1.18,0.28,2.29-0.54,3.25c-0.55,0.64-1.31,0.99-2.15,0.99c-6.95,0.02-13.9,0.02-20.86-0.01
				c-0.92,0-1.66-0.48-2.2-1.26c-0.42-0.6-0.63-1.24-0.58-1.96c0.06-0.78,0.38-1.44,0.95-1.98c0.63-0.6,1.38-0.82,2.24-0.81
				c2.23,0.02,4.47,0,6.7,0.01c0.33,0,0.43-0.09,0.43-0.43c-0.01-1.81-0.01-3.61-0.01-5.42
				C111.12,134.59,111.12,134.49,111.12,134.42z"/>
		</g>
		<g>
			<g>
				<g>
					<path class="st1" d="M172.8,146.48c-16.82,0-30.5-13.68-30.5-30.5s13.68-30.5,30.5-30.5c16.82,0,30.5,13.68,30.5,30.5
						S189.62,146.48,172.8,146.48z M172.8,91.65c-13.42,0-24.33,10.91-24.33,24.33s10.92,24.33,24.33,24.33s24.33-10.91,24.33-24.33
						S186.21,91.65,172.8,91.65z"/>
				</g>
				<circle class="st1" cx="172.8" cy="115.98" r="14.76"/>
			</g>
		</g>
	</g>
	<g>
		<linearGradient id="SVGID_1_" gradientUnits="userSpaceOnUse" x1="11.5075" y1="17.634" x2="300.1367" y2="293.058">
			<stop  offset="0.0611" style="stop-color:#7D431D"/>
			<stop  offset="0.1247" style="stop-color:#AD802C"/>
			<stop  offset="0.1349" style="stop-color:#BB892F"/>
			<stop  offset="0.1533" style="stop-color:#D09634"/>
			<stop  offset="0.175" style="stop-color:#E1A13A"/>
			<stop  offset="0.202" style="stop-color:#EEAA3F"/>
			<stop  offset="0.2397" style="stop-color:#F8B142"/>
			<stop  offset="0.3445" style="stop-color:#FCB342"/>
			<stop  offset="0.5787" style="stop-color:#FAEE67"/>
			<stop  offset="0.6629" style="stop-color:#FFFFFF"/>
			<stop  offset="0.7459" style="stop-color:#FDDF15"/>
			<stop  offset="0.8982" style="stop-color:#5C2311"/>
		</linearGradient>
		<path class="st2" d="M249.5,272.64H41.33c-12.76,0-23.14-10.38-23.14-23.14V41.33c0-12.76,10.38-23.14,23.14-23.14H249.5
			c12.76,0,23.14,10.38,23.14,23.14V249.5C272.64,262.26,262.26,272.64,249.5,272.64z M41.33,22.61c-10.32,0-18.71,8.39-18.71,18.71
			V249.5c0,10.32,8.39,18.71,18.71,18.71H249.5c10.32,0,18.71-8.39,18.71-18.71V41.33c0-10.32-8.39-18.71-18.71-18.71H41.33z"/>
	</g>
	<g>
		<g>
			<path class="st1" d="M200.19,61.54l-4.02,20.38c-0.13,0.66-0.78,1.1-1.44,0.96c-0.6-0.12-1.01-0.65-0.99-1.25l0.76-20.76
				c0.06-1.59,1.39-2.83,2.98-2.77s2.83,1.39,2.77,2.98C200.23,61.24,200.21,61.4,200.19,61.54z"/>
		</g>
		<g>
			<path class="st1" d="M226.79,87.72l-19.74,6.48c-0.64,0.21-1.33-0.14-1.55-0.78c-0.19-0.58,0.08-1.2,0.6-1.47l18.47-9.51
				c1.41-0.73,3.15-0.17,3.87,1.24c0.73,1.41,0.17,3.15-1.24,3.87C227.07,87.62,226.92,87.68,226.79,87.72z"/>
		</g>
		<g>
			<path class="st1" d="M228.59,56.87l-27.11,29.71c-0.45,0.5-1.23,0.53-1.73,0.08c-0.47-0.43-0.53-1.15-0.14-1.65l24.59-31.83
				c0.97-1.25,2.77-1.48,4.02-0.52c1.25,0.97,1.48,2.77,0.52,4.02C228.7,56.75,228.65,56.81,228.59,56.87z"/>
		</g>
	</g>
</g>
</svg>
